<?xml version="1.0" standalone="no"?><!DOCTYPE svg PUBLIC "-//W3C//DTD SVG 1.1//EN" "http://www.w3.org/Graphics/SVG/1.1/DTD/svg11.dtd"><svg t="1747396656610" class="icon" viewBox="0 0 1024 1024" version="1.1" xmlns="http://www.w3.org/2000/svg" p-id="8816" xmlns:xlink="http://www.w3.org/1999/xlink" width="200" height="200"><path d="M208.384 809.429333v-33.408h329.642667v66.005334H242.645333c-18.944 0-34.261333-14.592-34.261333-32.597334zM694.186667 842.026667h87.168c18.944 0 34.261333-14.592 34.261333-32.597334V214.613333c0-18.005333-15.36-32.597333-34.261333-32.597333h-0.426667v545.152c0 27.008-22.997333 48.896-51.370667 48.896h-35.370666v66.005333z" p-id="8817" fill="#613ee2"></path><path d="M729.344 132.48H242.645333c-18.944 0-34.261333 14.592-34.261333 32.554667v594.474666h520.96c18.944 0 34.261333-14.592 34.261333-32.597333V165.034667c0-17.962667-15.36-32.554667-34.261333-32.554667zM534.186667 398.592c35.541333 33.749333 99.413333 40.96 99.413333 40.96s-62.890667 6.229333-97.877333 39.509333c-35.413333 33.706667-42.965333 94.506667-42.965334 94.506667s-6.784-60.032-41.856-93.44c-35.370667-33.578667-98.986667-40.533333-98.986666-40.533333s63.061333-6.4 98.133333-39.765334c35.370667-33.706667 42.666667-94.293333 42.666667-94.293333s6.528 59.818667 41.472 93.056zM676.864 776.021333h-121.429333v115.498667l64.213333-32.981333 57.216 32.981333v-115.498667z" p-id="8818" fill="#613ee2"></path></svg>