<?xml version="1.0" standalone="no"?><!DOCTYPE svg PUBLIC "-//W3C//DTD SVG 1.1//EN" "http://www.w3.org/Graphics/SVG/1.1/DTD/svg11.dtd"><svg height="1024" node-id="1" sillyvg="true" template-height="1024" template-width="1024" version="1.1" viewBox="0 0 1024 1024" width="1024" xmlns="http://www.w3.org/2000/svg" xmlns:xlink="http://www.w3.org/1999/xlink"><defs node-id="73"></defs><g node-id="214"><path d="M 837.70 599.10 L 832.20 590.40 L 822.20 572.70 L 817.80 563.60 L 814.00 554.00 L 810.60 543.90 L 808.50 536.30 L 806.70 528.30 L 805.30 519.80 L 804.20 510.90 L 803.60 502.00 L 803.50 492.60 L 803.80 482.40 L 804.60 471.50 L 805.80 461.00 L 807.60 449.60 L 809.90 437.30 L 813.00 424.00 L 816.30 411.20 L 820.40 397.40 L 825.20 382.40 L 832.90 359.90 L 834.50 353.60 L 835.70 347.10 L 836.50 340.60 L 836.90 334.00 L 836.80 325.70 L 836.10 317.40 L 834.80 308.90 L 832.80 300.40 L 830.40 292.10 L 827.40 283.70 L 823.80 275.30 L 819.60 266.80 L 815.00 258.70 L 809.80 250.60 L 804.10 242.50 L 797.90 234.50 L 791.30 226.80 L 784.30 219.30 L 776.70 211.90 L 768.70 204.60 L 733.10 236.90 L 731.70 237.90 L 730.10 238.50 L 728.50 238.60 L 726.90 238.30 L 725.40 237.60 L 724.10 236.50 L 723.10 235.10 L 722.50 233.50 L 722.40 231.90 L 722.70 230.30 L 723.40 228.80 L 724.50 227.50 L 758.60 196.50 L 748.30 188.80 L 737.70 181.70 L 726.80 175.00 L 715.50 168.80 L 704.10 163.10 L 692.30 157.90 L 669.60 199.80 L 668.30 200.90 L 666.80 201.60 L 665.10 201.90 L 663.40 201.70 L 661.80 201.10 L 660.50 200.10 L 659.40 198.80 L 658.70 197.20 L 658.50 195.60 L 658.70 193.90 L 680.30 153.20 L 668.60 149.20 L 656.60 145.60 L 644.20 142.40 L 631.50 139.70 L 618.70 137.50 L 605.60 135.90 L 592.20 134.70 L 578.50 134.20 L 564.90 134.20 L 551.00 134.80 L 536.80 136.10 L 522.30 138.10 L 510.90 140.00 L 499.40 142.50 L 487.70 145.40 L 475.80 148.70 L 463.70 152.60 L 452.00 156.80 L 440.20 161.60 L 428.20 166.90 L 416.10 172.70 L 403.70 179.20 L 391.90 185.90 L 379.90 193.20 L 367.80 201.20 L 355.60 209.80 L 343.20 219.10 L 327.20 231.80 L 312.20 244.20 L 298.30 256.30 L 285.30 268.10 L 273.30 279.60 L 261.10 291.80 L 249.80 303.70 L 239.40 315.30 L 229.80 326.60 L 221.00 337.60 L 204.10 360.50 L 190.00 382.10 L 184.00 392.50 L 176.70 406.00 L 170.30 419.00 L 164.90 431.50 L 160.20 443.50 L 156.00 455.90 L 152.50 467.80 L 149.60 479.10 L 147.50 489.90 L 145.70 501.10 L 144.50 511.70 L 143.80 521.70 L 143.60 531.20 L 144.30 550.00 L 146.40 566.60 L 148.50 577.30 L 150.90 586.80 L 153.70 595.40 L 156.90 603.70 L 160.10 610.90 L 163.30 616.90 L 167.00 622.70 L 170.20 627.20 L 184.40 642.80 L 194.40 655.60 L 198.80 662.20 L 202.70 668.90 L 206.30 675.80 L 209.30 682.90 L 211.70 690.00 L 213.90 698.30 L 215.50 706.70 L 216.50 715.20 L 216.90 723.70 L 216.90 732.30 L 216.20 747.20 L 216.40 753.10 L 217.00 758.80 L 218.10 764.20 L 219.50 769.30 L 221.40 774.10 L 224.20 779.80 L 227.50 785.20 L 231.30 790.40 L 235.80 795.30 L 240.80 800.00 L 246.00 804.20 L 251.80 808.30 L 258.10 812.10 L 264.90 815.80 L 272.40 819.30 L 281.60 823.10 L 291.60 826.60 L 302.30 829.80 L 313.80 832.70 L 337.20 837.50 L 362.90 841.10 L 380.40 842.90 L 398.50 844.30 L 417.30 845.20 L 436.20 845.70 L 474.80 845.80 L 504.00 845.00 L 533.10 843.60 L 562.00 841.70 L 617.30 836.90 L 667.70 831.20 L 728.50 823.00 L 756.50 818.70 L 765.20 817.10 L 773.30 815.10 L 780.80 812.80 L 787.80 810.20 L 794.30 807.30 L 800.80 803.80 L 806.80 800.20 L 812.30 796.30 L 817.50 792.20 L 822.20 787.80 L 827.90 781.90 L 832.90 775.70 L 837.50 769.30 L 841.50 762.50 L 845.00 755.50 L 848.20 748.20 L 850.90 740.80 L 853.10 733.20 L 855.00 725.50 L 857.60 710.00 L 858.40 702.10 L 858.90 691.60 L 858.80 681.20 L 858.30 671.10 L 857.30 661.00 L 855.80 651.40 L 854.10 642.20 L 851.90 633.20 L 849.40 625.00 L 846.80 617.60 L 843.80 610.30 L 840.80 604.20 L 837.70 599.10 Z" fill="#e61f19" fill-opacity="0.2" fill-rule="nonzero" group-id="1" node-id="77" stroke="none" target-height="711.6" target-width="715.30005" target-x="143.6" target-y="134.2"></path></g><path d="M 0.00 0.00 L 1024.00 0.00 L 1024.00 1024.00 L 0.00 1024.00 Z" fill="none" node-id="80" stroke="none" target-height="1024" target-width="1024" target-x="0" target-y="0"></path><path d="M 748.70 902.60 L 636.90 905.60 L 264.30 904.10 L 282.20 845.40 L 282.20 709.10 L 741.80 714.70 L 748.70 902.60 Z" fill="#ffffff" fill-rule="nonzero" node-id="82" stroke="none" target-height="196.5" target-width="484.40002" target-x="264.3" target-y="709.1"></path><path d="M 365.80 757.60 L 247.80 757.60 L 243.20 757.20 L 239.00 756.30 L 235.00 754.80 L 231.40 752.80 L 228.20 750.30 L 225.40 747.50 L 223.10 744.20 L 221.40 740.80 L 220.20 737.10 L 219.70 731.30 L 220.70 725.10 L 232.30 686.50 L 241.00 661.70 L 249.60 641.30 L 254.50 631.20 L 260.00 621.20 L 266.10 611.40 L 271.00 604.20 L 276.20 597.20 L 281.90 590.50 L 288.00 583.90 L 294.40 577.70 L 301.20 571.80 L 308.60 566.20 L 316.50 561.00 L 322.90 557.20 L 329.70 553.70 L 337.00 550.40 L 344.60 547.40 L 352.70 544.70 L 360.70 542.50 L 369.20 540.60 L 378.30 539.10 L 387.80 538.00 L 460.80 533.00 L 498.00 530.90 L 527.90 530.40 L 542.80 530.60 L 557.60 531.40 L 572.20 532.70 L 583.10 534.10 L 593.80 535.80 L 604.20 538.00 L 614.50 540.50 L 624.60 543.60 L 634.50 547.10 L 644.00 551.20 L 653.30 555.70 L 660.50 559.80 L 667.40 564.30 L 674.20 569.20 L 680.70 574.50 L 687.00 580.20 L 692.90 586.30 L 698.60 592.80 L 704.00 600.00 L 709.20 607.70 L 714.20 616.00 L 718.60 624.30 L 722.70 633.30 L 726.50 643.00 L 730.10 653.50 L 733.30 664.80 L 736.00 675.70 L 738.20 687.50 L 740.20 700.30 L 741.70 713.90 L 742.90 728.60" fill="#ffffff" fill-rule="nonzero" node-id="84" stroke="none" target-height="227.19995" target-width="523.2" target-x="219.7" target-y="530.4"></path><path d="M 365.80 759.70 L 247.80 759.70 L 244.10 759.50 L 240.60 758.90 L 237.10 758.00 L 233.80 756.60 L 230.70 754.80 L 227.80 752.70 L 225.10 750.30 L 222.70 747.50 L 220.50 744.00 L 218.90 740.30 L 217.90 736.50 L 217.60 732.50 L 217.80 728.50 L 218.70 724.50 L 230.70 684.80 L 235.20 671.30 L 240.50 657.10 L 244.40 647.60 L 253.50 628.60 L 258.60 619.30 L 264.30 610.20 L 270.50 601.20 L 275.40 594.80 L 280.70 588.50 L 286.40 582.40 L 292.40 576.50 L 298.80 571.00 L 305.50 565.70 L 312.70 560.80 L 320.40 556.10 L 328.20 552.00 L 336.60 548.20 L 345.60 544.80 L 355.20 541.70 L 370.90 538.10 L 388.40 535.70 L 461.60 530.80 L 483.30 529.40 L 505.20 528.50 L 527.00 528.10 L 541.60 528.40 L 555.90 529.10 L 570.10 530.20 L 580.70 531.40 L 591.10 533.00 L 611.30 537.30 L 621.20 540.10 L 630.90 543.30 L 640.20 547.00 L 649.40 551.20 L 656.50 554.90 L 663.40 559.00 L 670.20 563.50 L 676.70 568.40 L 683.10 573.60 L 689.80 579.90 L 696.10 586.60 L 702.10 593.70 L 707.70 601.30 L 713.00 609.30 L 717.90 617.90 L 722.40 627.00 L 726.60 636.60 L 730.00 645.90 L 733.20 655.80 L 736.00 666.20 L 738.60 677.30 L 740.80 689.00 L 742.60 701.40 L 744.00 714.60 L 745.10 728.50 L 744.60 730.00 L 743.10 730.70 L 741.60 730.20 L 740.80 728.70 L 739.80 715.10 L 738.40 702.10 L 736.60 689.90 L 734.50 678.40 L 732.00 667.50 L 729.20 657.30 L 726.10 647.60 L 722.80 638.50 L 718.70 629.00 L 714.20 620.10 L 709.50 611.70 L 704.30 603.80 L 698.90 596.40 L 693.00 589.50 L 686.90 583.00 L 680.30 576.90 L 674.10 571.70 L 667.70 567.00 L 661.00 562.60 L 654.20 558.60 L 647.20 554.90 L 638.30 550.80 L 629.00 547.20 L 619.50 544.00 L 609.70 541.30 L 589.80 537.20 L 579.60 535.60 L 569.10 534.40 L 555.10 533.30 L 540.90 532.60 L 526.50 532.40 L 504.90 532.80 L 461.70 535.00 L 386.70 540.20 L 375.90 541.60 L 365.90 543.50 L 356.50 545.90 L 347.10 548.90 L 338.40 552.20 L 330.10 555.90 L 322.50 560.00 L 315.00 564.60 L 307.90 569.50 L 301.30 574.60 L 295.20 580.00 L 283.70 591.80 L 273.70 604.30 L 267.60 613.20 L 262.10 622.10 L 257.00 631.30 L 248.20 649.90 L 244.30 659.20 L 239.10 673.20 L 234.70 686.50 L 222.80 725.80 L 222.10 729.10 L 221.80 732.40 L 222.20 735.80 L 223.00 739.00 L 224.30 742.10 L 226.10 745.00 L 229.00 748.10 L 232.20 750.70 L 235.70 752.80 L 239.60 754.30 L 243.60 755.20 L 247.80 755.50 L 365.80 755.50 L 367.30 756.10 L 367.90 757.60 L 367.30 759.10 L 365.80 759.80 Z" fill="#040000" fill-rule="nonzero" node-id="86" stroke="none" target-height="231.70001" target-width="527.5" target-x="217.6" target-y="528.1"></path><path d="M 584.10 280.50 L 844.50 280.50 L 845.90 280.60 L 848.40 281.60 L 850.30 283.60 L 851.30 286.00 L 851.50 287.40 L 851.50 442.20 L 851.00 444.90 L 849.40 447.10 L 847.20 448.60 L 844.50 449.20 L 584.10 449.20 L 582.80 449.00 L 580.30 448.00 L 578.30 446.10 L 577.30 443.60 L 577.20 442.20 L 577.20 287.40 L 577.70 284.70 L 579.20 282.50 L 581.50 281.00 L 584.10 280.50 Z" fill="#040000" fill-rule="nonzero" node-id="88" stroke="none" target-height="168.70001" target-width="274.3" target-x="577.2" target-y="280.5"></path><path d="M 593.50 269.00 L 810.40 269.00 L 814.20 269.30 L 817.90 270.00 L 821.40 271.20 L 824.80 272.90 L 827.90 274.90 L 830.70 277.40 L 833.20 280.30 L 835.30 283.40 L 836.90 286.80 L 838.10 290.30 L 838.90 294.00 L 839.10 297.80 L 839.10 409.00 L 838.90 412.80 L 838.10 416.50 L 836.90 420.00 L 835.30 423.40 L 833.20 426.50 L 830.70 429.30 L 827.90 431.80 L 824.80 433.90 L 821.40 435.60 L 817.90 436.80 L 814.20 437.50 L 810.40 437.80 L 593.50 437.80 L 589.70 437.50 L 586.10 436.80 L 582.60 435.60 L 579.20 433.90 L 576.10 431.80 L 573.20 429.30 L 570.70 426.50 L 568.70 423.40 L 567.00 420.00 L 565.80 416.50 L 565.10 412.80 L 564.80 409.00 L 564.80 297.80 L 565.10 294.00 L 565.80 290.30 L 567.00 286.80 L 568.70 283.40 L 570.70 280.30 L 573.20 277.40 L 576.10 274.90 L 579.20 272.90 L 582.60 271.20 L 586.10 270.00 L 589.70 269.30 L 593.50 269.00 Z" fill="#ffffff" fill-rule="nonzero" node-id="90" stroke="none" target-height="168.79999" target-width="274.3" target-x="564.8" target-y="269"></path><path d="M 809.40 439.90 L 594.50 439.90 L 590.20 439.60 L 586.00 438.70 L 582.10 437.40 L 578.50 435.50 L 575.10 433.20 L 572.00 430.50 L 569.30 427.50 L 567.10 424.10 L 565.20 420.40 L 563.80 416.50 L 563.00 412.40 L 562.70 408.10 L 562.70 298.70 L 563.00 294.40 L 563.80 290.30 L 565.20 286.40 L 567.10 282.70 L 569.30 279.30 L 572.00 276.20 L 575.10 273.60 L 578.50 271.30 L 582.10 269.40 L 586.00 268.10 L 590.20 267.20 L 594.50 266.90 L 809.40 266.90 L 813.80 267.20 L 817.90 268.10 L 821.80 269.40 L 825.50 271.30 L 828.90 273.60 L 831.90 276.20 L 834.60 279.30 L 836.90 282.70 L 838.80 286.40 L 840.10 290.30 L 841.00 294.40 L 841.30 298.70 L 841.30 408.10 L 841.00 412.40 L 840.10 416.50 L 838.80 420.40 L 836.90 424.10 L 834.60 427.50 L 831.90 430.50 L 828.90 433.20 L 825.50 435.50 L 821.80 437.40 L 817.90 438.70 L 813.80 439.60 L 809.40 439.90 Z M 594.50 271.20 L 590.70 271.40 L 587.20 272.20 L 583.80 273.40 L 580.60 275.00 L 577.70 276.90 L 575.10 279.30 L 572.70 281.90 L 570.80 284.80 L 569.20 288.00 L 568.00 291.40 L 567.30 295.00 L 567.00 298.70 L 567.00 408.10 L 567.30 411.80 L 568.00 415.40 L 569.20 418.80 L 570.80 422.00 L 572.70 424.90 L 575.10 427.50 L 577.70 429.90 L 580.60 431.80 L 583.80 433.40 L 587.20 434.60 L 590.80 435.40 L 594.60 435.60 L 809.40 435.60 L 813.20 435.40 L 816.80 434.60 L 820.20 433.40 L 823.40 431.80 L 826.30 429.90 L 828.90 427.50 L 831.30 424.90 L 833.20 422.00 L 834.80 418.80 L 836.00 415.40 L 836.70 411.80 L 837.00 408.10 L 837.00 298.70 L 836.70 295.00 L 836.00 291.40 L 834.80 288.00 L 833.20 284.80 L 831.30 281.90 L 828.90 279.30 L 826.30 276.90 L 823.40 275.00 L 820.20 273.30 L 816.80 272.20 L 813.20 271.40 L 809.40 271.20 Z" fill="#040000" fill-rule="nonzero" node-id="92" stroke="none" target-height="173" target-width="278.59998" target-x="562.7" target-y="266.9"></path><path d="M 658.50 257.40 L 746.40 257.60 L 747.80 259.00 L 748.00 260.00 L 748.00 277.00 L 747.80 277.90 L 746.40 279.30 L 657.50 279.30 L 656.70 278.80 L 655.90 277.00 L 655.90 260.00 L 656.70 258.20 L 657.50 257.60 L 658.50 257.40 Z" fill="#040000" fill-rule="nonzero" node-id="94" stroke="none" target-height="21.899994" target-width="92.099976" target-x="655.9" target-y="257.4"></path><path d="M 522.60 308.50 L 521.00 307.80 L 519.30 305.70 L 515.90 300.00 L 514.30 296.30 L 513.00 291.70 L 512.50 288.60 L 512.40 285.30 L 512.80 281.70 L 513.70 278.20 L 515.20 274.60 L 517.60 270.70 L 521.10 266.60 L 523.10 264.90 L 525.00 259.10 L 526.60 255.70 L 530.80 249.20 L 533.30 246.30 L 538.70 242.00 L 544.10 239.60 L 547.10 238.90 L 548.00 238.90 L 549.30 239.80 L 549.60 240.60 L 549.20 242.20 L 548.70 242.80 L 544.60 244.00 L 541.70 245.30 L 539.00 247.00 L 536.60 249.10 L 532.50 254.10 L 530.10 258.30 L 528.30 262.50 L 532.40 262.30 L 534.40 262.70 L 536.60 263.70 L 538.70 265.00 L 542.10 268.50 L 544.40 272.80 L 545.70 277.20 L 545.60 281.70 L 545.10 283.70 L 544.20 285.40 L 543.00 286.90 L 541.40 288.10 L 539.50 288.90 L 536.20 289.70 L 533.50 289.90 L 531.10 289.50 L 527.50 287.90 L 524.90 285.10 L 523.70 283.00 L 522.80 280.60 L 522.00 275.10 L 522.00 271.90 L 519.00 276.50 L 517.70 279.50 L 517.00 282.50 L 516.60 285.50 L 517.10 291.00 L 518.20 294.80 L 519.60 298.00 L 524.70 306.00 L 524.20 307.80 L 522.60 308.50 Z M 526.90 267.50 L 526.40 271.10 L 526.50 277.20 L 527.10 280.00 L 528.10 282.20 L 529.30 283.80 L 530.60 284.70 L 532.00 285.40 L 533.70 285.60 L 538.20 284.90 L 539.50 284.20 L 540.90 282.50 L 541.60 279.40 L 541.30 277.00 L 540.50 274.40 L 539.20 271.90 L 536.20 268.40 L 533.10 266.80 L 531.50 266.50 L 528.40 266.80 L 526.90 267.50 Z" fill="#040000" fill-rule="nonzero" node-id="96" stroke="none" target-height="69.600006" target-width="37.19995" target-x="512.4" target-y="238.9"></path><g node-id="215"><path d="M 571.70 505.90 L 552.40 505.90 L 549.50 505.60 L 546.70 504.70 L 544.20 503.40 L 541.90 501.50 L 540.10 499.30 L 538.70 496.70 L 537.90 493.90 L 537.60 491.00 L 537.60 470.90 L 537.80 468.20 L 538.50 465.70 L 539.60 463.50 L 541.10 461.40 L 542.80 459.60 L 544.90 458.10 L 547.20 457.00 L 549.70 456.40 L 552.40 456.10 L 571.70 456.10 L 575.40 456.50 L 578.80 457.40 L 582.00 458.90 L 584.90 460.90 L 587.30 463.40 L 589.30 466.20 L 590.80 469.40 L 591.70 472.80 L 592.10 476.50 L 592.10 485.50 L 591.70 489.20 L 590.80 492.60 L 589.30 495.80 L 587.30 498.60 L 584.90 501.10 L 582.00 503.10 L 578.80 504.60 L 575.40 505.50 L 571.70 505.90 Z" fill="#ffffff" fill-rule="nonzero" group-id="2" node-id="100" stroke="none" target-height="49.799988" target-width="54.5" target-x="537.6" target-y="456.1"></path></g><path d="M 568.40 508.00 L 537.60 508.00 L 536.70 507.80 L 535.60 506.70 L 535.50 456.10 L 536.10 454.60 L 537.60 454.00 L 568.40 454.00 L 571.90 454.30 L 575.30 455.00 L 578.40 456.10 L 581.40 457.60 L 584.20 459.40 L 586.60 461.60 L 588.80 464.10 L 590.70 466.80 L 592.20 469.80 L 593.30 473.00 L 594.00 476.30 L 594.20 479.80 L 594.00 485.70 L 593.30 489.10 L 592.20 492.20 L 590.70 495.20 L 588.80 497.90 L 586.60 500.40 L 584.20 502.60 L 581.40 504.50 L 578.40 506.00 L 575.30 507.10 L 571.90 507.80 L 568.40 508.00 Z M 539.70 503.70 L 568.40 503.70 L 571.40 503.50 L 576.80 502.10 L 579.30 500.80 L 582.30 498.70 L 584.90 496.10 L 587.00 493.10 L 589.20 488.00 L 590.00 482.20 L 589.80 476.90 L 589.20 474.10 L 587.10 469.00 L 584.90 465.90 L 582.30 463.40 L 579.30 461.20 L 576.80 460.00 L 571.40 458.50 L 568.50 458.30 L 539.70 458.30 Z" fill="#040000" fill-rule="nonzero" node-id="103" stroke="none" target-height="54" target-width="58.700012" target-x="535.5" target-y="454"></path><path d="M 563.80 488.10 L 565.90 484.60 L 568.50 481.80 L 571.80 478.90 L 577.20 475.30" fill="#ffffff" fill-rule="nonzero" node-id="105" stroke="none" target-height="12.800018" target-width="13.400024" target-x="563.8" target-y="475.3"></path><path d="M 563.80 490.20 L 562.40 489.70 L 561.70 488.30 L 561.90 487.00 L 564.30 483.20 L 569.20 478.30 L 572.10 476.10 L 576.90 473.20 L 578.40 473.60 L 579.00 474.20 L 579.30 475.00 L 578.90 476.50 L 573.40 480.40 L 570.30 483.00 L 567.90 485.60 L 565.50 489.40 L 563.80 490.20 Z" fill="#040000" fill-rule="nonzero" node-id="107" stroke="none" target-height="17" target-width="17.599976" target-x="561.7" target-y="473.2"></path><path d="M 394.00 386.00 L 564.80 386.00 L 564.80 581.30 L 564.50 584.80 L 563.60 588.10 L 562.20 591.10 L 560.30 593.80 L 558.00 596.10 L 555.30 598.00 L 552.30 599.40 L 549.00 600.30 L 545.50 600.60 L 413.30 600.60 L 408.30 600.00 L 403.70 598.10 L 399.70 595.00 L 398.00 593.00 L 396.60 590.90 L 394.70 586.30 L 394.00 581.30 L 394.00 386.00 Z" fill="#ffffff" fill-rule="nonzero" node-id="109" stroke="none" target-height="214.59998" target-width="170.79999" target-x="394" target-y="386"></path><path d="M 482.30 602.70 L 469.50 602.40 L 462.70 601.60 L 456.10 600.30 L 449.80 598.40 L 443.50 596.00 L 437.60 593.20 L 431.90 590.00 L 426.50 586.40 L 421.40 582.30 L 416.70 577.90 L 412.30 573.20 L 408.20 568.10 L 404.60 562.70 L 401.40 557.00 L 398.60 551.10 L 396.20 544.80 L 394.30 538.50 L 393.00 531.90 L 392.20 525.10 L 391.90 518.10 L 391.90 386.00 L 392.50 384.50 L 394.00 383.90 L 564.80 383.90 L 565.70 384.00 L 566.80 385.20 L 567.00 518.10 L 566.70 525.10 L 565.90 531.90 L 564.50 538.50 L 562.70 544.80 L 560.30 551.10 L 557.50 557.00 L 554.30 562.70 L 550.60 568.10 L 546.60 573.20 L 542.20 577.90 L 537.40 582.30 L 532.30 586.40 L 526.90 590.00 L 521.20 593.30 L 515.30 596.00 L 509.10 598.40 L 502.70 600.30 L 496.10 601.60 L 489.40 602.40 L 482.30 602.70 Z M 396.10 388.10 L 396.10 518.10 L 396.40 524.80 L 397.20 531.20 L 398.50 537.40 L 400.20 543.50 L 402.50 549.40 L 405.10 555.00 L 408.20 560.40 L 411.70 565.50 L 415.50 570.40 L 419.70 574.90 L 424.20 579.10 L 429.10 582.90 L 434.20 586.40 L 439.60 589.50 L 445.20 592.10 L 451.10 594.40 L 457.20 596.10 L 463.40 597.40 L 469.80 598.20 L 476.50 598.50 L 489.00 598.20 L 495.40 597.40 L 501.70 596.10 L 507.70 594.40 L 513.60 592.10 L 519.30 589.50 L 524.60 586.40 L 529.80 582.90 L 534.60 579.10 L 539.10 574.90 L 543.30 570.40 L 547.20 565.50 L 550.60 560.40 L 553.70 555.00 L 556.30 549.40 L 558.60 543.50 L 560.30 537.40 L 561.60 531.20 L 562.40 524.80 L 562.70 518.10 L 562.70 388.10 Z" fill="#040000" fill-rule="nonzero" node-id="111" stroke="none" target-height="218.80002" target-width="175.1" target-x="391.9" target-y="383.9"></path><path d="M 363.50 475.30 L 390.60 475.30 L 391.90 475.50 L 393.00 476.30 L 393.70 477.30 L 394.00 478.70 L 394.00 521.60 L 393.70 522.90 L 393.00 524.00 L 391.90 524.70 L 390.60 525.00 L 365.20 525.00 L 361.70 524.70 L 358.30 524.10 L 355.20 523.00 L 352.20 521.50 L 349.50 519.60 L 347.00 517.50 L 344.80 515.00 L 343.00 512.30 L 341.50 509.30 L 340.40 506.10 L 339.70 502.80 L 339.50 499.30 L 339.70 496.10 L 340.30 493.00 L 341.30 490.10 L 342.70 487.30 L 344.40 484.70 L 346.50 482.30 L 348.90 480.20 L 351.50 478.50 L 354.30 477.10 L 357.30 476.10 L 360.30 475.50 L 363.50 475.30 Z" fill="#ffffff" fill-rule="nonzero" node-id="113" stroke="none" target-height="49.700012" target-width="54.5" target-x="339.5" target-y="475.3"></path><path d="M 394.00 527.10 L 363.20 527.10 L 359.60 526.90 L 356.30 526.20 L 353.10 525.10 L 350.10 523.60 L 347.40 521.70 L 344.90 519.50 L 342.70 517.10 L 340.90 514.30 L 339.40 511.30 L 338.30 508.20 L 337.60 504.80 L 337.40 501.30 L 337.60 495.50 L 338.30 492.10 L 339.40 489.00 L 340.90 486.00 L 342.70 483.20 L 344.90 480.80 L 347.40 478.60 L 350.10 476.70 L 353.10 475.20 L 356.30 474.10 L 359.60 473.40 L 363.20 473.20 L 394.00 473.20 L 394.80 473.30 L 396.00 474.50 L 396.10 525.00 L 395.50 526.50 L 394.00 527.10 Z M 363.20 477.40 L 360.20 477.60 L 354.80 479.10 L 352.30 480.40 L 349.30 482.50 L 346.70 485.10 L 344.60 488.10 L 343.30 490.60 L 341.80 496.00 L 341.60 499.00 L 341.80 504.30 L 342.40 507.10 L 344.60 512.20 L 346.70 515.20 L 349.30 517.80 L 352.30 519.90 L 354.80 521.20 L 360.20 522.70 L 363.20 522.90 L 391.90 522.90 L 391.90 477.40 Z" fill="#040000" fill-rule="nonzero" node-id="115" stroke="none" target-height="53.899963" target-width="58.700012" target-x="337.4" target-y="473.2"></path><path d="M 335.20 816.00 L 342.30 801.50 L 356.70 773.80 L 367.80 753.90 L 378.70 735.60 L 389.50 718.00 L 399.60 702.40 L 418.10 675.60 L 432.50 656.30 L 444.20 642.60 L 446.40 638.40 L 446.90 634.30 L 446.50 632.40 L 445.70 630.60 L 443.10 627.40 L 438.90 624.90 L 430.60 622.00 L 425.60 619.70 L 421.00 616.90 L 416.70 613.70 L 412.70 610.20 L 409.00 606.40 L 405.70 602.40 L 399.90 594.10 L 396.40 587.70 L 393.60 581.60 L 391.30 575.60 L 389.90 570.40 L 388.90 565.60 L 388.60 562.20 L 389.20 558.20 L 389.70 556.90 L 391.40 555.00 L 394.10 554.00 L 397.90 554.30 L 399.60 554.90 L 402.70 557.00 L 404.00 558.40 L 409.30 567.20 L 415.50 574.40 L 420.30 578.80 L 425.70 582.90 L 431.90 586.90 L 438.30 590.40 L 445.20 593.50 L 452.60 596.20 L 464.20 599.10 L 480.10 601.10 L 483.10 601.90 L 485.50 603.00 L 487.50 604.30 L 490.70 607.90 L 492.70 612.50 L 493.40 615.80 L 493.70 619.40 L 493.50 623.30 L 492.70 629.10 L 491.30 635.00 L 489.50 640.70 L 483.10 656.90 L 479.10 668.20 L 475.60 679.60 L 469.60 702.30 L 462.20 729.10 L 452.60 759.10 L 447.10 774.90 L 441.10 790.60 L 434.60 806.20 L 429.90 816.50 L 420.10 836.10 L 414.80 845.60 L 409.30 854.40 L 403.80 862.70 L 397.80 870.60 L 391.70 877.70 L 385.50 884.00 L 380.50 888.40 L 375.50 892.20 L 370.50 895.50 L 365.40 898.20 L 360.10 900.40 L 354.70 902.00 L 349.20 903.00 L 343.50 903.30 L 337.40 903.00 L 331.70 902.20 L 326.40 900.90 L 321.60 899.10 L 316.90 896.70 L 312.50 894.00 L 308.40 890.90 L 304.60 887.40 L 297.90 879.40 L 292.00 870.00 L 288.70 863.30 L 285.70 856.20 L 283.10 848.60 L 278.90 833.00 L 277.30 824.90 L 275.40 812.70 L 274.00 800.70 L 272.70 777.60 L 272.60 757.30 L 365.70 757.50" fill="#ffffff" fill-rule="nonzero" node-id="117" stroke="none" target-height="349.3" target-width="221.1" target-x="272.6" target-y="554"></path><path d="M 343.60 905.50 L 337.60 905.20 L 331.90 904.40 L 326.50 903.10 L 321.40 901.20 L 316.40 898.90 L 311.70 896.00 L 307.20 892.60 L 302.90 888.60 L 299.40 884.70 L 293.00 875.80 L 290.10 870.80 L 286.70 864.00 L 283.70 856.70 L 281.10 849.00 L 276.90 833.20 L 275.30 825.00 L 273.30 812.70 L 272.00 800.60 L 271.10 788.60 L 270.60 777.40 L 270.50 757.30 L 271.20 755.90 L 272.70 755.30 L 364.50 755.40 L 374.90 737.60 L 384.90 721.40 L 403.80 692.40 L 412.60 679.70 L 427.20 659.80 L 437.40 647.10 L 442.30 641.70 L 443.40 639.90 L 444.70 636.50 L 444.80 634.80 L 443.90 631.80 L 442.90 630.30 L 441.50 629.00 L 437.90 626.80 L 429.90 624.00 L 424.80 621.60 L 420.10 618.80 L 415.60 615.50 L 411.50 611.90 L 404.20 604.00 L 398.30 595.50 L 394.60 588.90 L 391.70 582.60 L 389.30 576.30 L 387.80 571.00 L 386.80 565.80 L 386.50 562.20 L 386.70 559.40 L 387.30 557.20 L 388.20 555.40 L 389.30 553.90 L 390.80 552.90 L 394.30 551.80 L 398.40 552.20 L 400.50 552.90 L 404.20 555.50 L 405.70 557.20 L 409.40 563.50 L 412.70 568.00 L 416.80 572.60 L 421.30 576.80 L 426.50 580.90 L 432.40 584.80 L 438.60 588.20 L 445.30 591.30 L 452.70 594.00 L 458.30 595.60 L 470.20 597.90 L 480.40 598.90 L 483.70 599.80 L 486.50 601.00 L 488.90 602.60 L 490.90 604.60 L 492.60 606.90 L 493.90 609.50 L 494.90 612.20 L 495.50 615.20 L 495.80 619.70 L 495.60 624.40 L 494.90 629.10 L 492.80 637.70 L 485.10 657.70 L 481.20 668.80 L 477.70 680.20 L 471.80 702.80 L 464.30 729.60 L 454.70 759.80 L 449.10 775.70 L 443.00 791.50 L 436.40 807.30 L 431.70 817.70 L 421.70 837.50 L 416.30 847.00 L 410.80 856.00 L 400.50 870.40 L 391.20 881.20 L 386.50 885.90 L 381.40 890.40 L 376.30 894.20 L 371.20 897.50 L 366.00 900.30 L 360.50 902.50 L 355.00 904.10 L 349.40 905.10 L 343.60 905.50 Z M 274.80 759.50 L 274.90 779.20 L 275.40 790.00 L 276.30 801.60 L 277.70 813.30 L 281.20 832.90 L 285.20 848.00 L 287.80 855.30 L 290.60 862.20 L 293.80 868.70 L 299.50 877.80 L 306.00 885.60 L 309.90 889.30 L 314.10 892.40 L 318.40 895.10 L 322.90 897.20 L 327.70 898.90 L 332.70 900.10 L 338.00 900.90 L 343.60 901.20 L 349.10 900.80 L 354.50 899.80 L 359.80 898.30 L 365.10 896.00 L 370.00 893.30 L 375.00 890.10 L 379.90 886.30 L 384.80 881.90 L 390.80 875.60 L 396.80 868.60 L 402.70 860.60 L 408.20 852.40 L 413.60 843.60 L 423.80 824.60 L 433.10 804.40 L 439.50 788.90 L 445.40 773.30 L 450.90 757.70 L 460.30 727.90 L 467.70 701.50 L 473.60 678.90 L 477.10 667.50 L 489.00 635.60 L 491.10 625.80 L 491.50 621.00 L 491.40 616.60 L 490.90 613.80 L 489.00 609.20 L 487.40 607.10 L 485.40 605.50 L 483.00 604.20 L 480.00 603.30 L 463.30 601.10 L 457.10 599.80 L 451.20 598.00 L 443.50 595.20 L 436.40 591.90 L 429.90 588.30 L 423.70 584.10 L 418.30 579.80 L 413.50 575.40 L 407.30 568.10 L 401.80 559.20 L 400.10 557.60 L 398.10 556.60 L 395.80 556.10 L 394.50 556.10 L 392.30 557.10 L 391.50 558.20 L 391.00 559.80 L 390.80 562.20 L 391.00 565.30 L 391.90 569.90 L 393.40 574.80 L 395.50 580.60 L 398.20 586.50 L 404.30 596.90 L 410.50 604.80 L 414.00 608.50 L 417.90 611.90 L 422.10 615.10 L 426.60 617.80 L 431.40 620.10 L 439.80 623.00 L 442.40 624.40 L 444.60 626.00 L 446.40 627.90 L 447.70 629.90 L 448.60 632.20 L 449.00 634.50 L 448.90 636.90 L 448.30 639.30 L 445.80 644.10 L 435.60 656.00 L 423.10 672.30 L 406.90 695.40 L 388.00 724.40 L 378.10 740.60 L 359.80 772.60 L 344.60 801.70 L 337.10 817.00 L 335.90 818.10 L 334.30 818.00 L 333.20 816.80 L 333.30 815.20 L 347.50 786.60 L 362.10 759.80 Z" fill="#040000" fill-rule="nonzero" node-id="119" stroke="none" target-height="353.7" target-width="225.29999" target-x="270.5" target-y="551.8"></path><path d="M 204.40 910.90 L 202.90 910.30 L 202.20 908.80 L 202.80 907.30 L 204.30 906.60 L 269.30 902.20 L 306.30 900.50 L 320.30 900.50 L 334.50 900.80 L 389.90 903.00 L 450.30 904.60 L 492.90 905.10 L 540.80 904.90 L 591.60 904.30 L 692.90 902.00 L 839.00 897.30 L 840.60 897.90 L 841.30 899.40 L 840.70 900.90 L 840.00 901.40 L 839.20 901.60 L 693.00 906.30 L 591.60 908.50 L 540.80 909.20 L 492.90 909.30 L 450.20 908.90 L 389.70 907.20 L 334.40 905.10 L 306.30 904.80 L 269.50 906.40 L 204.60 910.90 Z" fill="#040000" fill-rule="nonzero" node-id="121" stroke="none" target-height="13.600037" target-width="639.1" target-x="202.2" target-y="897.3"></path><path d="M 532.40 446.10 L 526.80 445.70 L 526.10 445.40 L 525.20 444.10 L 525.20 443.30 L 526.00 441.90 L 527.60 441.50 L 532.70 441.80 L 536.30 441.60 L 540.00 441.00 L 544.10 439.80 L 546.80 438.60 L 549.30 437.00 L 551.70 434.90 L 553.20 434.50 L 554.50 435.10 L 555.00 435.80 L 555.10 437.20 L 554.70 437.90 L 552.30 440.10 L 549.70 441.80 L 547.20 443.10 L 543.10 444.70 L 539.30 445.60 L 532.40 446.10 Z" fill="#040000" fill-rule="nonzero" node-id="123" stroke="none" target-height="11.600006" target-width="29.899963" target-x="525.2" target-y="434.5"></path><path d="M 462.80 451.30 L 455.40 450.70 L 451.70 449.90 L 445.80 447.50 L 443.70 446.10 L 441.70 444.40 L 441.40 443.70 L 441.50 442.30 L 441.90 441.60 L 443.30 441.00 L 444.70 441.40 L 448.80 444.40 L 451.30 445.40 L 455.10 446.40 L 463.00 447.10 L 466.50 446.90 L 474.40 445.80 L 476.00 446.10 L 477.00 447.40 L 477.00 448.30 L 476.20 449.60 L 475.40 450.00 L 471.30 450.70 L 462.80 451.30 Z" fill="#040000" fill-rule="nonzero" node-id="125" stroke="none" target-height="10.299988" target-width="35.600006" target-x="441.4" target-y="441"></path><path d="M 481.20 499.60 L 480.90 501.20 L 480.30 502.70 L 479.30 504.00 L 478.00 505.00 L 476.60 505.60 L 474.90 505.80 L 473.30 505.60 L 471.80 505.00 L 470.50 504.00 L 469.50 502.70 L 468.90 501.20 L 468.70 499.60 L 468.90 498.00 L 469.50 496.50 L 470.50 495.20 L 471.80 494.20 L 473.30 493.60 L 474.90 493.40 L 476.60 493.60 L 478.00 494.20 L 479.30 495.20 L 480.30 496.50 L 480.90 498.00 L 481.20 499.60 Z" fill="#040000" fill-rule="nonzero" node-id="127" stroke="none" target-height="12.399994" target-width="12.5" target-x="468.7" target-y="493.4"></path><path d="M 553.20 496.80 L 553.00 498.50 L 552.40 499.90 L 551.40 501.20 L 550.10 502.20 L 548.70 502.80 L 547.00 503.00 L 545.30 502.80 L 543.80 502.20 L 541.60 499.90 L 541.00 498.50 L 540.80 496.80 L 541.00 495.10 L 541.60 493.60 L 543.80 491.40 L 545.30 490.80 L 547.00 490.60 L 548.70 490.80 L 550.10 491.40 L 551.40 492.40 L 552.40 493.60 L 553.00 495.10 L 553.20 496.80 Z" fill="#040000" fill-rule="nonzero" node-id="129" stroke="none" target-height="12.399994" target-width="12.400024" target-x="540.8" target-y="490.6"></path><path d="M 496.00 567.80 L 492.30 567.30 L 490.40 566.20 L 489.00 563.80 L 488.80 562.50 L 489.40 559.60 L 491.40 556.70 L 495.00 554.00 L 499.70 552.20 L 502.20 551.90 L 507.70 552.20 L 510.40 553.10 L 513.30 554.40 L 514.50 555.30 L 515.30 556.50 L 515.80 557.90 L 515.90 559.40 L 515.50 560.90 L 514.80 562.30 L 513.70 563.30 L 512.30 564.10 L 502.50 567.00 L 496.00 567.80 Z M 503.70 556.00 L 501.20 556.20 L 498.80 556.90 L 496.50 558.00 L 494.50 559.60 L 493.70 560.60 L 493.10 562.20 L 493.60 563.10 L 495.10 563.50 L 500.60 563.00 L 504.70 562.00 L 511.50 559.60 L 511.70 559.00 L 511.20 558.10 L 508.80 556.90 L 506.30 556.30 L 503.70 556.00 Z" fill="#231815" fill-rule="nonzero" node-id="131" stroke="none" target-height="15.899963" target-width="27.100037" target-x="488.8" target-y="551.9"></path><path d="M 649.30 726.30 L 641.50 725.50 L 637.50 724.50 L 634.00 723.00 L 630.60 721.20 L 627.60 719.10 L 625.00 716.80 L 620.60 711.50 L 616.50 704.60 L 613.40 696.70 L 611.60 689.30 L 580.00 654.60 L 579.60 653.90 L 579.60 652.30 L 580.90 651.20 L 582.50 651.30 L 583.20 651.80 L 615.20 686.90 L 615.80 688.10 L 616.90 693.50 L 619.30 700.60 L 621.20 704.70 L 623.60 708.70 L 626.70 712.50 L 629.10 714.80 L 631.80 716.90 L 635.00 718.80 L 638.30 720.20 L 642.10 721.30 L 646.40 721.90 L 651.10 722.00 L 654.90 721.50 L 658.00 720.50 L 660.40 719.10 L 662.40 717.40 L 663.90 715.10 L 664.80 712.80 L 665.30 710.40 L 665.50 708.10 L 665.10 702.20 L 665.30 701.40 L 665.80 700.90 L 669.80 699.20 L 672.00 697.80 L 673.40 696.30 L 674.20 694.70 L 674.40 692.70 L 674.10 690.80 L 673.40 689.10 L 671.50 685.90 L 671.70 684.10 L 672.60 683.20 L 676.10 682.50 L 678.00 680.20 L 678.60 678.60 L 679.00 676.40 L 679.00 674.00 L 678.40 671.40 L 677.50 669.00 L 676.00 666.50 L 673.90 664.00 L 671.40 661.70 L 668.20 659.60 L 664.20 657.60 L 659.40 655.90 L 655.20 654.90 L 651.30 654.40 L 644.10 654.90 L 641.00 655.60 L 636.80 657.20 L 633.50 659.00 L 630.60 661.10 L 626.60 664.90 L 625.30 665.20 L 586.50 648.10 L 585.80 647.60 L 585.20 646.10 L 585.90 644.60 L 587.40 644.00 L 624.90 660.50 L 628.60 657.30 L 631.20 655.50 L 634.60 653.60 L 638.40 652.00 L 643.00 650.80 L 646.10 650.30 L 653.40 650.30 L 657.20 650.90 L 661.40 652.00 L 665.90 653.70 L 669.60 655.50 L 675.20 659.30 L 677.40 661.40 L 679.80 664.50 L 681.60 667.60 L 682.70 670.70 L 683.30 673.90 L 683.30 676.90 L 682.80 679.70 L 681.80 682.20 L 680.60 684.10 L 678.90 685.70 L 677.10 686.80 L 678.50 690.90 L 678.70 693.30 L 678.30 695.90 L 677.60 697.50 L 676.60 699.00 L 673.80 701.70 L 669.60 703.90 L 669.80 708.40 L 668.80 714.20 L 667.00 718.20 L 665.60 720.10 L 663.40 722.20 L 660.70 723.90 L 657.50 725.20 L 653.80 726.00 L 649.30 726.30 Z" fill="#040000" fill-rule="nonzero" node-id="133" stroke="none" target-height="82.29999" target-width="103.70001" target-x="579.6" target-y="644"></path><path d="M 629.30 646.00 L 593.00 633.90 L 592.40 633.40 L 591.90 632.10 L 592.30 630.60 L 593.60 629.90 L 594.40 629.90 L 630.00 641.90 L 631.20 642.80 L 631.40 644.30 L 630.70 645.50 L 629.30 646.00 Z" fill="#040000" fill-rule="nonzero" node-id="135" stroke="none" target-height="16.099976" target-width="39.5" target-x="591.9" target-y="629.9"></path><path d="M 596.90 691.60 L 595.90 691.40 L 595.20 690.80 L 572.00 662.00 L 571.60 661.20 L 571.80 659.70 L 573.10 658.60 L 574.70 658.80 L 575.30 659.30 L 598.60 688.20 L 599.00 689.30 L 598.80 690.40 L 598.00 691.30 L 596.90 691.60 Z" fill="#040000" fill-rule="nonzero" node-id="137" stroke="none" target-height="33" target-width="27.400024" target-x="571.6" target-y="658.6"></path><path d="M 637.80 702.80 L 637.00 702.60 L 635.90 701.50 L 635.70 700.80 L 636.20 699.30 L 636.70 698.80 L 640.30 697.90 L 642.50 697.10 L 644.20 695.90 L 645.50 694.50 L 646.50 692.50 L 647.00 690.60 L 646.80 684.60 L 647.30 683.70 L 648.10 683.10 L 651.60 683.00 L 653.30 682.60 L 654.60 681.70 L 655.50 680.40 L 656.10 678.90 L 656.40 674.00 L 657.40 672.70 L 658.20 672.50 L 659.80 672.90 L 660.60 674.30 L 660.50 678.10 L 660.10 680.30 L 659.20 682.60 L 657.70 684.70 L 656.30 685.80 L 653.10 687.10 L 651.30 687.30 L 651.40 689.80 L 651.00 692.30 L 650.20 694.70 L 649.10 696.90 L 647.60 698.70 L 645.80 700.10 L 643.70 701.30 L 641.10 702.20 L 638.10 702.80 Z" fill="#040000" fill-rule="nonzero" node-id="139" stroke="none" target-height="30.299988" target-width="24.899963" target-x="635.7" target-y="672.5"></path><path d="M 666.50 634.00 L 662.60 633.20 L 659.30 631.10 L 657.10 627.80 L 656.40 623.90 L 657.10 620.10 L 659.30 616.80 L 662.70 614.60 L 666.50 613.80 L 670.40 614.60 L 673.60 616.90 L 675.80 620.10 L 676.50 624.00 L 675.90 627.50 L 674.10 630.40 L 671.50 632.60 L 670.00 633.40 L 666.50 634.00 Z M 666.50 618.10 L 664.70 618.40 L 663.20 619.10 L 662.00 620.20 L 661.10 621.70 L 660.70 623.40 L 660.80 625.10 L 661.30 626.60 L 662.30 628.00 L 663.70 629.10 L 665.30 629.60 L 667.00 629.70 L 668.70 629.30 L 670.20 628.40 L 671.30 627.20 L 672.00 625.60 L 672.30 623.90 L 672.00 622.40 L 671.50 621.00 L 669.40 618.90 L 666.50 618.20 Z" fill="#040000" fill-rule="nonzero" node-id="141" stroke="none" target-height="20.200012" target-width="20.099976" target-x="656.4" target-y="613.8"></path><path d="M 573.60 696.40 L 572.00 696.10 L 570.60 695.40 L 569.40 694.40 L 568.60 693.00 L 568.20 691.40 L 568.30 689.80 L 568.80 688.30 L 569.80 687.00 L 571.10 686.10 L 572.60 685.50 L 574.20 685.50 L 575.70 685.90 L 577.10 686.70 L 578.20 687.90 L 578.90 689.30 L 579.10 690.90 L 578.90 692.30 L 577.50 694.80 L 575.10 696.20 L 573.60 696.40 Z M 573.60 689.70 L 572.50 690.40 L 572.50 691.40 L 573.20 692.00 L 574.10 692.00 L 574.70 691.40 L 574.70 690.40 L 573.60 689.70 Z" fill="#040000" fill-rule="nonzero" node-id="143" stroke="none" target-height="10.900024" target-width="10.899963" target-x="568.2" target-y="685.5"></path><path d="M 377.80 364.90 L 377.10 364.80 L 376.10 364.00 L 373.80 358.50 L 369.80 352.90 L 366.70 349.80 L 363.30 347.10 L 359.70 344.70 L 359.70 350.70 L 358.40 355.20 L 356.40 358.40 L 354.60 360.30 L 350.70 362.80 L 345.70 364.30 L 340.40 364.30 L 337.70 363.90 L 332.70 361.90 L 330.60 360.50 L 328.40 358.40 L 326.90 356.20 L 326.00 353.80 L 325.60 351.20 L 325.80 348.50 L 326.60 345.60 L 327.70 343.00 L 329.20 340.80 L 330.90 339.00 L 333.00 337.60 L 335.20 336.40 L 337.70 335.60 L 340.60 335.20 L 343.80 335.10 L 347.10 335.40 L 353.40 337.10 L 351.60 332.90 L 349.50 329.40 L 347.10 326.50 L 344.40 324.20 L 341.50 322.40 L 336.50 320.50 L 330.50 319.70 L 324.40 320.20 L 319.30 321.40 L 318.20 321.00 L 317.50 320.00 L 317.50 318.80 L 318.00 317.80 L 321.50 316.50 L 327.20 315.60 L 330.80 315.50 L 334.90 315.80 L 340.60 317.30 L 343.50 318.60 L 346.80 320.60 L 349.80 323.20 L 352.50 326.30 L 354.90 329.90 L 356.90 334.20 L 358.70 339.20 L 363.40 341.90 L 367.90 345.10 L 370.70 347.60 L 375.40 353.00 L 377.30 356.00 L 378.80 359.00 L 380.00 362.20 L 379.80 363.90 L 379.20 364.50 L 377.80 364.90 Z M 342.70 339.40 L 338.10 340.00 L 335.80 340.80 L 333.70 342.30 L 331.50 345.10 L 330.50 347.00 L 329.90 349.50 L 329.90 351.50 L 330.30 353.40 L 331.10 354.80 L 333.20 357.10 L 336.70 359.10 L 341.90 360.20 L 345.00 360.00 L 347.00 359.60 L 350.60 358.00 L 352.60 356.30 L 354.10 354.30 L 355.10 351.70 L 355.50 349.00 L 355.50 345.90 L 354.90 342.20 L 351.30 340.80 L 347.50 339.90 L 343.60 339.40 Z" fill="#040000" fill-rule="nonzero" node-id="145" stroke="none" target-height="49.399994" target-width="62.5" target-x="317.5" target-y="315.5"></path><path d="M 254.70 511.70 L 253.10 511.00 L 236.40 492.10 L 236.00 491.30 L 236.10 489.70 L 237.30 488.60 L 238.90 488.70 L 239.60 489.30 L 256.30 508.20 L 256.80 509.70 L 256.60 510.50 L 256.20 511.20 L 254.70 511.70 Z" fill="#040000" fill-rule="nonzero" node-id="147" stroke="none" target-height="23.100006" target-width="20.799988" target-x="236" target-y="488.6"></path><path d="M 238.00 511.70 L 237.20 511.60 L 236.00 510.50 L 235.90 509.70 L 236.40 508.20 L 253.10 489.30 L 254.60 488.50 L 256.10 489.10 L 256.60 489.70 L 256.70 491.30 L 256.30 492.10 L 239.60 511.00 L 238.00 511.70 Z" fill="#040000" fill-rule="nonzero" node-id="149" stroke="none" target-height="23.200012" target-width="20.800018" target-x="235.9" target-y="488.5"></path><path d="M 855.50 665.90 L 854.30 665.60 L 853.50 664.60 L 839.50 628.60 L 839.60 626.90 L 840.80 625.80 L 842.40 625.80 L 843.50 627.00 L 857.50 663.00 L 857.50 664.70 L 857.00 665.30 L 855.50 665.90 Z" fill="#040000" fill-rule="nonzero" node-id="151" stroke="none" target-height="40.100037" target-width="18" target-x="839.5" target-y="625.8"></path><path d="M 832.60 658.90 L 831.40 658.50 L 830.60 657.40 L 830.60 656.10 L 831.40 655.00 L 864.00 632.70 L 865.50 633.00 L 866.50 634.40 L 866.20 635.90 L 865.60 636.60 L 833.80 658.60 L 832.60 658.90 Z" fill="#040000" fill-rule="nonzero" node-id="153" stroke="none" target-height="26.200012" target-width="35.900024" target-x="830.6" target-y="632.7"></path><path d="M 885.80 550.90 L 883.10 550.70 L 877.90 549.30 L 875.50 548.10 L 871.30 544.90 L 868.10 540.70 L 866.80 538.20 L 865.40 533.00 L 865.30 530.30 L 866.00 525.00 L 868.00 520.10 L 869.50 517.90 L 871.30 515.80 L 875.60 512.50 L 878.00 511.30 L 883.10 510.00 L 888.40 509.90 L 891.10 510.50 L 893.70 511.30 L 898.40 514.10 L 902.20 517.90 L 904.80 522.40 L 906.20 527.60 L 906.40 530.40 L 906.00 534.10 L 905.10 537.50 L 903.60 540.70 L 901.50 543.60 L 899.10 546.00 L 896.20 548.10 L 893.00 549.60 L 889.60 550.50 L 885.80 550.90 Z M 885.80 514.10 L 882.60 514.40 L 879.60 515.30 L 876.80 516.80 L 874.30 518.80 L 872.30 521.20 L 870.80 524.10 L 869.80 527.20 L 869.50 530.40 L 869.90 533.50 L 870.80 536.50 L 872.20 539.30 L 874.30 541.90 L 876.80 543.90 L 879.60 545.40 L 882.60 546.30 L 885.80 546.60 L 888.90 546.30 L 892.10 545.40 L 894.90 543.90 L 897.40 541.80 L 899.40 539.40 L 900.90 536.60 L 901.80 533.60 L 902.10 530.40 L 901.80 527.40 L 901.10 524.70 L 899.90 522.10 L 898.30 519.80 L 896.30 517.90 L 894.10 516.30 L 891.50 515.10 L 888.80 514.30 L 885.80 514.10 Z" fill="#040000" fill-rule="nonzero" node-id="155" stroke="none" target-height="41.00003" target-width="41.100037" target-x="865.3" target-y="509.9"></path><path d="M 808.90 513.60 L 806.70 513.30 L 804.60 512.60 L 802.50 511.40 L 800.30 509.50 L 798.10 507.00 L 793.60 500.20 L 791.60 498.00 L 789.90 496.60 L 788.20 495.80 L 786.70 495.50 L 784.90 495.80 L 781.80 497.90 L 780.50 499.20 L 776.90 504.40 L 772.30 509.20 L 769.30 511.20 L 766.50 512.40 L 763.70 512.90 L 761.00 512.90 L 758.40 512.30 L 755.80 511.00 L 753.20 509.10 L 748.00 503.70 L 745.70 502.00 L 743.60 501.10 L 741.70 500.80 L 739.70 501.10 L 738.00 501.90 L 730.80 508.90 L 728.60 510.40 L 724.30 512.10 L 719.80 512.50 L 715.80 511.60 L 711.70 509.20 L 707.50 505.40 L 705.60 504.30 L 703.80 503.70 L 702.00 503.60 L 699.60 504.20 L 697.60 505.30 L 695.80 506.80 L 692.70 510.20 L 691.20 510.50 L 689.80 509.60 L 689.40 508.10 L 689.80 507.30 L 693.10 503.40 L 694.80 502.10 L 699.00 499.80 L 701.60 499.30 L 703.80 499.30 L 706.00 499.80 L 708.20 500.70 L 710.40 502.10 L 714.70 506.00 L 716.60 507.20 L 718.60 508.00 L 720.70 508.20 L 722.80 508.10 L 725.00 507.40 L 727.20 506.30 L 729.50 504.40 L 733.80 499.80 L 737.70 497.30 L 741.70 496.50 L 744.00 496.70 L 746.30 497.50 L 748.70 498.80 L 751.30 500.90 L 756.20 506.10 L 758.40 507.60 L 760.50 508.50 L 762.70 508.70 L 764.90 508.40 L 767.20 507.50 L 769.70 505.80 L 771.80 503.90 L 776.30 497.70 L 779.60 494.10 L 783.30 491.80 L 786.80 491.20 L 788.80 491.40 L 790.90 492.20 L 792.90 493.40 L 795.10 495.30 L 797.30 497.90 L 801.70 504.60 L 803.70 506.80 L 805.60 508.20 L 807.30 509.00 L 809.00 509.20 L 811.90 508.50 L 815.30 506.10 L 819.60 500.70 L 821.10 500.30 L 822.50 501.10 L 822.90 502.60 L 822.70 503.40 L 818.80 508.60 L 814.50 511.90 L 811.00 513.30 L 809.10 513.50 Z" fill="#040000" fill-rule="nonzero" node-id="157" stroke="none" target-height="22.399963" target-width="133.5" target-x="689.4" target-y="491.2"></path><path d="M 131.70 591.80 L 127.70 591.00 L 123.70 588.60 L 120.10 584.90 L 117.90 581.60 L 117.70 580.80 L 118.10 579.40 L 119.50 578.60 L 121.00 579.00 L 125.30 584.30 L 128.70 586.70 L 131.60 587.50 L 133.30 587.20 L 135.10 586.50 L 136.90 585.10 L 138.90 582.80 L 143.40 576.10 L 145.60 573.50 L 147.70 571.70 L 149.80 570.40 L 151.80 569.70 L 153.80 569.40 L 157.40 570.10 L 161.10 572.30 L 164.40 576.00 L 168.80 582.10 L 170.90 584.10 L 173.50 585.80 L 175.80 586.70 L 178.00 587.00 L 180.10 586.70 L 182.20 585.90 L 184.40 584.30 L 189.40 579.10 L 191.90 577.10 L 194.30 575.80 L 196.60 575.00 L 198.90 574.70 L 201.10 575.00 L 204.60 576.40 L 206.80 578.10 L 211.10 582.60 L 213.50 584.50 L 215.60 585.60 L 217.90 586.30 L 220.00 586.50 L 222.00 586.20 L 224.00 585.50 L 226.00 584.20 L 230.30 580.40 L 232.50 579.00 L 234.60 578.00 L 236.80 577.60 L 239.10 577.60 L 241.60 578.10 L 243.80 579.00 L 247.50 581.70 L 250.90 585.50 L 251.20 586.30 L 250.90 587.90 L 249.50 588.80 L 247.90 588.40 L 244.90 585.00 L 243.10 583.60 L 241.00 582.40 L 238.70 581.80 L 236.90 581.90 L 235.10 582.50 L 233.20 583.60 L 228.90 587.50 L 224.80 589.80 L 220.80 590.80 L 216.30 590.40 L 212.00 588.60 L 209.80 587.20 L 202.60 580.20 L 200.90 579.40 L 198.90 579.00 L 197.00 579.30 L 194.90 580.30 L 192.60 582.00 L 187.40 587.40 L 184.80 589.30 L 182.20 590.50 L 179.60 591.10 L 176.80 591.20 L 174.10 590.60 L 171.30 589.40 L 168.30 587.50 L 163.70 582.70 L 160.10 577.50 L 158.80 576.10 L 155.70 574.00 L 153.90 573.70 L 151.00 574.60 L 149.40 575.80 L 147.20 578.20 L 142.50 585.20 L 140.30 587.70 L 138.10 589.60 L 136.00 590.80 L 133.80 591.50 L 131.70 591.80 Z" fill="#040000" fill-rule="nonzero" node-id="159" stroke="none" target-height="22.399963" target-width="133.5" target-x="117.7" target-y="569.4"></path><path d="M 493.10 627.20 L 500.50 625.30 L 506.60 623.20 L 511.70 621.00 L 516.60 618.50 L 520.60 615.90 L 523.80 613.40 L 526.70 610.50 L 528.90 607.70 L 530.60 605.00 L 532.00 602.20 L 533.50 597.00 L 533.90 593.20 L 533.90 590.10 L 533.60 587.20 L 532.60 583.50 L 538.20 578.80 L 543.00 574.00 L 547.50 568.70 L 549.70 574.90 L 550.90 579.70 L 551.90 585.00 L 552.50 591.30 L 552.30 600.00 L 551.60 604.70 L 550.50 609.20 L 548.80 613.80 L 546.40 618.40 L 544.40 621.60 L 541.80 624.70 L 538.80 627.80 L 535.20 630.80 L 531.50 633.50 L 527.10 636.00 L 522.10 638.30 L 516.20 640.50 L 510.40 642.20 L 503.80 643.70 L 496.20 644.90 L 487.50 645.80 Z" fill="#040000" fill-rule="nonzero" node-id="161" stroke="none" target-height="77.099976" target-width="65" target-x="487.5" target-y="568.7"></path><path d="M 264.30 906.20 L 262.90 905.70 L 262.40 905.10 L 262.30 903.50 L 280.10 844.70 L 280.60 844.00 L 282.00 843.30 L 283.50 843.80 L 284.30 845.20 L 284.20 846.00 L 266.30 904.70 L 265.60 905.80 L 264.30 906.20 Z" fill="#040000" fill-rule="nonzero" node-id="163" stroke="none" target-height="62.900024" target-width="22" target-x="262.3" target-y="843.3"></path><path d="M 278.00 317.60 L 277.70 320.30 L 276.90 322.80 L 275.70 325.20 L 274.00 327.30 L 271.90 329.00 L 269.50 330.20 L 267.00 331.00 L 264.30 331.30 L 261.60 331.00 L 259.10 330.20 L 256.70 329.00 L 254.60 327.30 L 252.90 325.20 L 251.70 322.80 L 250.90 320.30 L 250.60 317.60 L 250.90 314.90 L 251.70 312.40 L 252.90 310.00 L 254.60 307.90 L 256.70 306.20 L 259.10 305.00 L 261.60 304.20 L 264.30 303.90 L 267.00 304.20 L 269.50 305.00 L 271.90 306.20 L 274.00 307.90 L 275.70 310.00 L 276.90 312.40 L 277.70 314.90 L 278.00 317.60 Z" fill="#ffffff" fill-rule="nonzero" node-id="165" stroke="none" target-height="27.399994" target-width="27.399994" target-x="250.6" target-y="303.9"></path><path d="M 264.30 333.40 L 261.40 333.20 L 258.80 332.40 L 256.30 331.30 L 254.10 329.70 L 252.20 327.80 L 250.60 325.60 L 249.50 323.10 L 248.70 320.50 L 248.50 317.60 L 248.70 314.70 L 249.50 312.10 L 250.60 309.60 L 252.20 307.40 L 254.10 305.50 L 256.30 303.90 L 258.80 302.80 L 261.40 302.00 L 264.30 301.80 L 267.20 302.00 L 269.80 302.80 L 272.30 303.90 L 274.50 305.50 L 276.40 307.40 L 278.00 309.60 L 279.10 312.10 L 279.90 314.70 L 280.10 317.60 L 279.90 320.50 L 279.10 323.10 L 278.00 325.60 L 276.40 327.80 L 274.50 329.70 L 272.30 331.30 L 269.80 332.40 L 267.20 333.20 L 264.30 333.40 Z M 264.30 306.00 L 262.20 306.20 L 258.50 307.60 L 255.50 310.10 L 253.50 313.60 L 252.70 317.60 L 252.90 319.70 L 254.30 323.40 L 256.80 326.40 L 260.30 328.40 L 262.20 329.00 L 264.30 329.20 L 268.30 328.40 L 271.80 326.40 L 274.30 323.40 L 275.70 319.70 L 275.90 317.60 L 275.60 315.30 L 275.00 313.20 L 273.90 311.20 L 272.50 309.40 L 270.70 308.00 L 268.70 306.90 L 266.60 306.20 L 264.30 306.00 Z" fill="#040000" fill-rule="nonzero" node-id="167" stroke="none" target-height="31.600006" target-width="31.600006" target-x="248.5" target-y="301.8"></path><path d="M 394.00 507.50 L 392.40 506.80 L 387.50 502.50 L 385.30 501.20 L 380.70 499.50 L 375.80 499.10 L 371.10 500.00 L 367.20 501.70 L 365.70 501.40 L 364.80 499.90 L 365.10 498.40 L 365.70 497.80 L 369.40 496.20 L 375.20 495.00 L 378.80 495.00 L 381.30 495.30 L 386.90 497.30 L 389.60 498.80 L 392.50 501.00 L 395.90 504.40 L 396.10 505.60 L 395.60 506.80 L 394.00 507.50 Z" fill="#040000" fill-rule="nonzero" node-id="169" stroke="none" target-height="12.5" target-width="31.300018" target-x="364.8" target-y="495"></path><path d="M 582.10 728.60 L 839.10 728.60 L 839.10 903.70 L 582.10 903.70 Z" fill="#040000" fill-rule="nonzero" node-id="171" stroke="none" target-height="175.10004" target-width="257" target-x="582.1" target-y="728.6"></path><path d="M 521.80 879.60 L 839.10 879.60 L 839.10 905.60 L 521.80 905.60 Z" fill="#040000" fill-rule="nonzero" node-id="173" stroke="none" target-height="26" target-width="317.3" target-x="521.8" target-y="879.6"></path><path d="M 637.70 303.60 L 629.70 309.10 L 626.10 312.30 L 619.60 319.60 L 616.80 323.60 L 612.20 332.10 L 610.50 336.70 L 609.20 341.30 L 608.40 346.00 L 608.00 350.80 L 608.00 355.50 L 608.60 360.30 L 609.70 365.10 L 611.40 370.00 L 613.20 373.80 L 615.30 377.20 L 617.60 380.10 L 620.10 382.60 L 622.90 384.90 L 629.00 388.40 L 632.30 389.70 L 636.90 390.90 L 641.70 391.70 L 646.70 392.00 L 651.70 391.90 L 661.80 390.60 L 666.80 389.50 L 676.30 386.40 L 685.10 382.40 L 689.70 379.90 L 696.40 375.60 L 702.80 370.70 L 706.90 367.10 L 714.40 359.30 L 717.70 355.10 L 720.60 350.70 L 723.10 346.20 L 725.20 341.50 L 726.80 336.70 L 727.80 331.80 L 728.00 328.60 L 727.80 325.70 L 727.10 323.20 L 726.00 320.80 L 724.50 318.70 L 722.50 316.90 L 720.30 315.60 L 717.60 314.60 L 714.40 314.10 L 707.70 314.30 L 704.20 315.00 L 699.10 316.50 L 694.00 318.60 L 684.40 323.90 L 679.90 326.80 L 672.70 332.30 L 666.50 338.50 L 662.30 344.40 L 660.10 349.70 L 659.60 352.40 L 659.40 355.30 L 659.70 358.30 L 661.60 364.00 L 663.20 366.80 L 666.00 370.80 L 669.40 374.60 L 673.10 378.00 L 677.00 381.20 L 684.60 386.50 L 692.50 390.70 L 697.10 392.80 L 706.80 396.10 L 717.20 398.20 L 722.30 398.70 L 727.40 398.80 L 732.40 398.30 L 737.10 397.30 L 741.50 395.60 L 744.60 394.00 L 747.50 392.00 L 750.10 389.50 L 752.60 386.60 L 754.70 383.00 L 756.30 379.40 L 757.40 375.60 L 758.10 371.60 L 758.30 367.70 L 758.10 363.60 L 756.50 355.80 L 755.20 352.00 L 751.50 344.20 L 746.50 336.10 L 743.50 332.30 L 737.90 327.10 L 733.10 324.30 L 730.50 323.50 L 727.80 323.00 L 725.20 323.00 L 722.60 323.40 L 719.20 324.40 L 715.80 326.00 L 712.60 328.10 L 709.50 330.70 L 706.70 333.60 L 704.00 336.80 L 701.70 340.30 L 698.10 347.70 L 696.90 351.60 L 696.20 355.40 L 695.90 359.10 L 696.20 362.80 L 697.00 366.20 L 698.40 369.30 L 700.40 372.10 L 702.50 374.40 L 704.80 376.20 L 707.20 377.50 L 712.70 379.10 L 718.60 379.20 L 722.70 378.60 L 726.70 377.50 L 730.90 375.90 L 738.80 371.50 L 745.90 365.90 L 751.50 359.70 L 753.80 356.20 L 755.40 352.90 L 756.50 349.60 L 757.30 343.60 L 757.20 341.60 L 756.60 339.60 L 755.70 338.10 L 754.00 336.80 L 751.90 335.90 L 749.50 335.40 L 746.90 335.20 L 741.70 335.50 L 737.50 336.40 L 734.10 337.60 L 730.90 339.20 L 728.10 341.00 L 725.50 343.10 L 722.40 346.40 L 719.70 350.00 L 717.30 354.00 L 714.30 360.30 L 711.90 366.70 L 711.90 367.90 L 712.50 368.80 L 717.20 373.30 L 718.10 373.90 L 719.20 373.90 L 725.80 371.20 L 732.30 368.00 L 736.40 365.60 L 740.20 362.80 L 746.20 357.30 L 750.30 351.50 L 752.00 348.20 L 753.50 344.10 L 754.30 340.80 L 754.50 338.00 L 754.20 335.60 L 753.50 333.70 L 752.30 332.00 L 750.60 330.50 L 748.20 329.20 L 744.90 328.20 L 740.60 327.60 L 735.80 327.50 L 731.30 328.10 L 726.90 329.30 L 722.70 331.00 L 718.70 333.10 L 714.90 335.60 L 711.30 338.50 L 704.60 344.90 L 697.80 352.50 L 694.60 356.70 L 690.10 364.10 L 687.90 370.30 L 687.40 373.60 L 687.30 377.00 L 687.80 380.50 L 688.80 381.70 L 690.40 382.00 L 701.70 379.20 L 707.50 377.20 L 713.00 374.80 L 718.50 372.00 L 723.70 368.80 L 728.70 365.20 L 733.30 361.30 L 737.50 357.00 L 740.40 353.60 L 745.30 346.10 L 747.20 342.10 L 748.40 338.80 L 749.50 332.60 L 749.40 329.70 L 748.80 325.80 L 747.50 322.20 L 745.70 318.80 L 743.40 315.80 L 740.60 313.10 L 737.20 310.80 L 733.60 309.10 L 729.60 307.90 L 725.10 307.20 L 720.40 307.10 L 715.90 307.70 L 711.50 308.80 L 707.20 310.40 L 703.00 312.40 L 698.90 314.90 L 691.30 320.80 L 687.70 324.10 L 682.70 329.50 L 678.10 335.00 L 670.60 346.20 L 665.90 355.30 L 663.80 360.50 L 662.20 365.90 L 661.10 373.00 L 661.10 376.40 L 661.60 379.70 L 662.70 382.70 L 664.30 385.50 L 665.80 387.40 L 667.70 389.00 L 670.20 390.50 L 673.20 391.90 L 676.00 392.70 L 681.80 393.50 L 686.20 393.40 L 690.70 392.90 L 699.40 391.40 L 709.80 389.00 L 720.10 386.10 L 726.90 383.80 L 740.00 378.30 L 746.70 374.80 L 753.00 370.90 L 759.10 366.40 L 764.80 361.60 L 770.00 356.30 L 774.70 350.60 L 777.90 346.00 L 780.80 341.20 L 783.20 336.20 L 785.40 330.90 L 788.20 321.30 L 789.30 313.70 L 789.00 307.90 L 787.60 304.00 L 785.30 301.50 L 784.20 301.00 L 781.70 301.00 L 778.60 302.60 L 776.80 304.10 L 773.60 307.40 L 770.00 312.10 L 766.90 316.90 L 764.30 321.90 L 762.10 327.20 L 760.40 332.60 L 759.20 338.20 L 757.80 349.60 L 757.70 355.30 L 758.40 366.80 L 760.50 380.40 L 762.60 389.40 L 764.10 393.70 L 766.00 397.70 L 767.60 400.10 L 769.40 402.20 L 771.40 403.90 L 773.80 405.30 L 776.00 405.90 L 778.10 406.00 L 780.10 405.70 L 782.10 404.90 L 784.00 403.70 L 786.50 401.30 L 788.70 398.40 L 792.30 391.70 L 793.60 388.00 L 795.40 380.50 L 795.90 376.60 L 795.80 368.80 L 794.80 362.40 L 792.80 357.20 L 790.20 354.10 L 787.40 352.80 L 785.90 352.70 L 784.10 353.10 L 782.00 354.10 L 781.20 355.00 L 781.00 355.90 L 781.30 357.00 L 782.00 357.70 L 783.00 358.10 L 785.60 357.20 L 786.80 357.20 L 787.80 357.70 L 789.30 359.80 L 790.70 364.00 L 791.20 366.80 L 791.60 375.50 L 790.20 384.80 L 788.10 390.80 L 785.50 395.60 L 784.10 397.20 L 782.40 398.30 L 780.30 398.90 L 777.80 399.00 L 774.70 398.40 L 770.90 397.00 L 769.10 393.60 L 765.60 382.60 L 764.00 375.00 L 762.80 368.20 L 762.10 361.40 L 761.90 354.40 L 762.10 347.50 L 763.00 340.70 L 764.40 334.00 L 765.90 329.00 L 767.90 324.30 L 770.20 319.70 L 773.00 315.10 L 775.10 312.30 L 779.80 307.70 L 781.20 306.90 L 782.90 306.80 L 784.00 308.10 L 784.50 311.80 L 784.20 316.80 L 783.50 321.80 L 782.20 326.70 L 778.50 336.20 L 773.40 345.10 L 770.40 349.20 L 767.10 353.10 L 762.50 357.90 L 757.70 362.20 L 752.50 366.00 L 741.30 372.80 L 735.40 375.60 L 723.30 380.40 L 702.80 386.50 L 691.00 388.60 L 685.30 389.10 L 678.00 388.60 L 674.80 387.80 L 670.70 385.70 L 667.50 382.50 L 666.50 380.60 L 665.70 378.20 L 665.20 375.40 L 665.10 372.00 L 665.70 367.20 L 666.90 362.30 L 668.70 357.30 L 673.70 347.70 L 676.80 343.10 L 683.80 334.40 L 687.60 330.40 L 693.40 325.00 L 698.90 320.60 L 703.50 317.50 L 708.50 314.80 L 711.90 313.30 L 719.00 311.50 L 722.70 311.30 L 726.30 311.50 L 730.10 312.30 L 734.00 313.80 L 737.10 315.60 L 739.70 317.80 L 741.80 320.30 L 743.30 323.10 L 744.30 326.10 L 744.80 329.30 L 744.80 332.60 L 744.40 336.00 L 743.40 339.40 L 742.00 342.80 L 740.10 346.20 L 737.10 350.40 L 733.80 354.40 L 730.30 358.00 L 726.40 361.40 L 720.90 365.40 L 715.10 368.90 L 708.90 371.90 L 702.50 374.40 L 696.00 376.40 L 689.30 377.80 L 692.00 379.30 L 691.60 376.00 L 691.70 372.80 L 692.50 369.60 L 695.10 363.50 L 696.90 360.50 L 703.40 352.20 L 712.70 342.80 L 719.80 337.60 L 724.00 335.10 L 728.30 333.10 L 732.70 331.60 L 735.60 331.00 L 738.50 330.90 L 741.10 331.10 L 743.70 331.80 L 746.00 333.10 L 748.20 335.00 L 750.20 338.40 L 750.50 341.90 L 750.00 344.20 L 748.90 346.70 L 747.40 349.20 L 744.50 352.80 L 741.00 356.30 L 737.20 359.40 L 729.90 364.40 L 724.00 367.30 L 721.80 367.90 L 720.40 367.90 L 719.20 367.60 L 718.40 366.90 L 718.10 365.80 L 718.20 363.80 L 719.00 360.90 L 722.10 354.90 L 726.10 349.10 L 728.20 346.70 L 729.80 345.20 L 733.30 343.00 L 738.50 340.60 L 741.40 339.70 L 744.30 339.20 L 747.10 339.10 L 749.50 339.60 L 750.90 340.30 L 752.10 341.40 L 753.00 343.00 L 753.50 345.80 L 752.50 350.00 L 751.30 352.60 L 748.30 357.30 L 745.30 360.90 L 742.20 364.00 L 738.50 366.90 L 734.50 369.40 L 730.10 371.60 L 725.60 373.20 L 721.00 374.20 L 717.90 374.40 L 711.90 373.80 L 708.40 372.70 L 705.70 371.20 L 703.70 369.50 L 702.20 367.30 L 701.10 365.00 L 700.50 362.40 L 700.50 357.00 L 701.10 354.10 L 702.40 349.80 L 704.30 345.70 L 706.60 341.90 L 709.00 338.70 L 713.30 334.00 L 718.40 329.90 L 721.20 328.40 L 724.20 327.50 L 726.60 327.30 L 728.90 327.60 L 731.10 328.20 L 734.20 329.80 L 737.10 332.10 L 742.00 337.50 L 745.80 343.00 L 748.50 347.60 L 750.60 352.20 L 752.10 356.90 L 753.00 361.70 L 753.40 366.20 L 753.20 370.70 L 752.70 374.00 L 750.60 379.90 L 749.10 382.60 L 747.20 385.10 L 745.00 387.30 L 742.40 389.30 L 739.40 391.00 L 736.30 392.20 L 732.70 393.20 L 728.60 393.70 L 723.90 393.90 L 718.70 393.60 L 713.40 392.90 L 707.80 391.70 L 702.30 390.10 L 696.90 388.10 L 691.60 385.70 L 686.50 382.90 L 681.70 379.80 L 677.30 376.30 L 673.20 372.40 L 669.80 368.20 L 666.80 363.70 L 665.40 360.50 L 664.60 357.60 L 664.30 354.80 L 664.50 352.00 L 665.20 349.30 L 666.20 346.70 L 669.30 341.90 L 671.30 339.50 L 678.10 333.30 L 685.40 328.30 L 691.60 324.80 L 699.80 321.10 L 704.20 319.60 L 708.40 318.60 L 713.90 318.40 L 716.20 318.80 L 718.40 319.60 L 720.20 320.90 L 721.70 322.80 L 722.50 324.40 L 723.50 328.90 L 723.60 332.10 L 723.10 335.30 L 721.90 338.90 L 720.30 342.40 L 715.90 349.50 L 709.10 358.10 L 702.10 365.30 L 694.30 371.70 L 690.20 374.50 L 685.80 377.10 L 679.80 380.20 L 672.80 383.10 L 662.90 386.00 L 652.50 387.70 L 647.40 387.90 L 642.40 387.70 L 635.10 386.30 L 628.60 383.60 L 625.60 381.70 L 622.80 379.40 L 620.30 376.70 L 618.00 373.40 L 616.10 369.70 L 613.40 362.40 L 612.70 358.60 L 612.30 353.50 L 612.50 348.50 L 613.20 343.50 L 614.50 338.50 L 616.30 333.70 L 618.60 329.10 L 621.30 324.60 L 624.40 320.50 L 627.80 316.60 L 631.60 313.00 L 640.90 306.20 L 641.10 305.20 L 640.80 304.20 L 640.00 303.50 L 639.10 303.10 L 637.90 303.40 Z" fill="#040000" fill-rule="nonzero" node-id="175" stroke="none" target-height="105" target-width="187.90002" target-x="608" target-y="301"></path><path d="M 592.00 380.50 L 592.70 376.20 L 592.90 372.00 L 592.70 367.70 L 592.10 363.50 L 591.10 359.40 L 589.70 355.40 L 587.90 351.60 L 585.70 347.90 L 583.20 344.40 L 580.30 341.20 L 577.10 338.40 L 573.70 335.80 L 570.10 333.60 L 566.30 331.80 L 562.30 330.40 L 558.20 329.40 L 553.90 328.70 L 548.80 328.50 L 543.40 323.60 L 538.30 319.30 L 533.30 315.80 L 528.40 312.90 L 523.20 310.30 L 518.20 308.20 L 508.70 305.50 L 502.30 304.50 L 496.20 304.00 L 490.50 304.10 L 484.80 304.70 L 474.90 306.80 L 468.00 309.00 L 462.50 311.20 L 457.70 313.70 L 451.60 317.40 L 444.10 317.40 L 439.80 318.10 L 435.60 319.30 L 431.50 320.90 L 427.60 322.90 L 423.90 325.30 L 420.60 328.10 L 417.40 331.30 L 412.60 331.70 L 408.10 332.80 L 403.90 334.40 L 400.10 336.50 L 396.70 339.00 L 393.80 342.00 L 390.40 347.10 L 388.50 352.90 L 383.70 354.60 L 379.20 356.80 L 375.10 359.50 L 371.30 362.70 L 367.90 366.20 L 364.90 370.20 L 362.30 374.40 L 360.10 378.80 L 358.40 383.50 L 357.20 388.30 L 356.40 393.20 L 356.10 398.10 L 356.80 404.70 L 356.10 404.90 L 352.60 409.40 L 350.40 413.10 L 348.30 417.20 L 346.40 422.40 L 344.80 430.00 L 344.60 434.40 L 345.10 445.70 L 346.40 457.80 L 349.80 479.80 L 358.10 477.90 L 366.30 477.40 L 370.80 477.70 L 375.30 478.60 L 378.20 479.60 L 380.90 481.00 L 383.50 482.90 L 385.80 485.10 L 387.80 487.90 L 389.50 491.40 L 391.20 497.30 L 391.90 505.40 L 413.00 500.80 L 413.50 487.30 L 414.00 481.00 L 416.10 466.40 L 417.80 458.80 L 422.70 459.10 L 429.10 458.80 L 435.20 458.20 L 441.00 457.10 L 446.60 455.60 L 451.80 453.70 L 456.40 451.30 L 459.70 449.20 L 462.60 446.80 L 465.20 444.20 L 467.40 441.30 L 469.30 438.20 L 470.70 434.80 L 471.80 431.10 L 472.40 427.10 L 474.70 429.50 L 477.20 431.60 L 479.70 433.20 L 485.40 435.50 L 493.30 436.90 L 510.10 437.30 L 515.20 437.10 L 520.10 436.40 L 524.80 435.30 L 529.40 433.80 L 533.60 431.90 L 537.60 429.70 L 541.40 427.10 L 544.90 424.20 L 548.00 421.10 L 550.50 423.60 L 553.30 425.80 L 556.30 427.60 L 559.50 429.10 L 562.70 430.20 L 566.20 430.90 L 569.70 431.20 L 573.20 431.00 L 576.70 430.50 L 580.20 429.50 L 583.50 428.20 L 586.50 426.40 L 589.30 424.40 L 591.90 422.00 L 594.20 419.40 L 596.10 416.50 L 597.70 413.40 L 599.00 410.00 L 599.80 406.50 L 600.20 403.00 L 600.20 399.50 L 599.80 396.00 L 599.00 392.60 L 597.80 389.40 L 596.30 386.20 L 594.30 383.30 L 592.00 380.60 Z" fill="#040000" fill-rule="nonzero" node-id="177" stroke="none" target-height="201.4" target-width="255.6" target-x="344.6" target-y="304"></path><path d="M 494.40 396.70 L 487.10 396.30 L 480.00 395.40 L 473.10 394.00 L 461.60 390.90 L 452.80 387.50 L 452.20 386.00 L 452.30 385.20 L 452.80 384.40 L 454.30 383.80 L 464.80 387.30 L 474.60 389.90 L 486.20 391.90 L 492.20 392.30 L 498.20 392.30 L 505.90 391.10 L 509.40 390.10 L 512.80 388.60 L 515.80 386.80 L 519.20 384.10 L 520.70 384.20 L 521.80 385.30 L 521.90 386.80 L 521.50 387.50 L 519.10 389.60 L 513.70 392.90 L 509.30 394.60 L 504.50 395.80 L 499.50 396.50 L 494.40 396.70 Z" fill="#ffffff" fill-rule="nonzero" node-id="179" stroke="none" target-height="12.900024" target-width="69.70001" target-x="452.2" target-y="383.8"></path><path d="M 534.00 379.70 L 533.30 379.60 L 532.30 378.80 L 531.90 377.60 L 532.20 376.40 L 538.30 370.40 L 541.20 366.20 L 542.60 363.50 L 544.00 363.00 L 545.40 363.50 L 546.20 364.70 L 546.20 365.50 L 545.00 368.10 L 543.50 370.60 L 540.00 374.90 L 535.30 379.20 L 534.00 379.70 Z" fill="#ffffff" fill-rule="nonzero" node-id="181" stroke="none" target-height="16.700012" target-width="14.299988" target-x="531.9" target-y="363"></path><path d="M 239.70 818.50 L 240.30 823.00 L 242.20 829.80 L 245.30 836.10 L 249.10 840.90" fill="#040000" fill-rule="nonzero" node-id="183" stroke="none" target-height="22.400024" target-width="9.400009" target-x="239.7" target-y="818.5"></path><path d="M 249.10 843.00 L 247.60 842.40 L 243.50 837.40 L 240.20 830.80 L 238.20 823.70 L 237.60 818.50 L 238.20 817.00 L 239.60 816.30 L 240.50 816.50 L 241.60 817.60 L 243.20 825.80 L 245.80 832.60 L 247.10 835.00 L 251.10 840.00 L 251.30 840.90 L 250.60 842.40 L 249.10 843.00 Z" fill="#231815" fill-rule="nonzero" node-id="185" stroke="none" target-height="26.700012" target-width="13.699997" target-x="237.6" target-y="816.3"></path><path d="M 241.00 854.10 L 239.50 853.50 L 236.00 849.70 L 233.10 845.80 L 228.30 837.70 L 224.90 829.80 L 221.80 818.90 L 220.40 810.90 L 220.30 806.60 L 221.40 805.40 L 222.20 805.20 L 223.70 805.70 L 224.20 806.40 L 225.10 813.20 L 227.10 822.40 L 228.80 828.00 L 231.10 833.60 L 234.10 839.50 L 236.50 843.20 L 243.00 851.10 L 243.00 852.70 L 242.50 853.40 L 241.00 854.10 Z" fill="#231815" fill-rule="nonzero" node-id="187" stroke="none" target-height="48.899963" target-width="22.699997" target-x="220.3" target-y="805.2"></path><path d="M 737.40 816.20 L 737.20 819.70 L 736.50 823.10 L 735.40 826.40 L 733.80 829.60 L 731.90 832.50 L 729.60 835.20 L 726.90 837.50 L 724.00 839.40 L 720.90 841.00 L 717.60 842.10 L 714.10 842.80 L 710.60 843.00 L 707.00 842.80 L 703.60 842.10 L 700.30 841.00 L 697.20 839.40 L 694.30 837.50 L 691.60 835.20 L 689.30 832.50 L 687.30 829.60 L 685.80 826.40 L 684.70 823.10 L 684.00 819.70 L 683.80 816.20 L 684.00 812.60 L 684.70 809.20 L 685.80 805.90 L 687.30 802.80 L 689.30 799.90 L 691.60 797.20 L 694.30 794.90 L 697.20 792.90 L 700.30 791.40 L 703.60 790.30 L 707.00 789.60 L 710.60 789.40 L 714.10 789.60 L 717.60 790.30 L 720.90 791.40 L 724.00 792.90 L 726.90 794.90 L 729.60 797.20 L 731.90 799.90 L 733.80 802.80 L 735.40 805.90 L 736.50 809.20 L 737.20 812.60 L 737.40 816.20 Z" fill="#ffffff" fill-rule="nonzero" node-id="189" stroke="none" target-height="53.599976" target-width="53.600037" target-x="683.8" target-y="789.4"></path><path d="M 204.40 708.10 L 202.90 707.50 L 202.30 706.00 L 202.50 701.60 L 204.10 693.60 L 205.90 688.00 L 210.20 679.40 L 214.00 673.80 L 215.40 673.00 L 217.00 673.50 L 217.50 674.10 L 217.70 675.70 L 214.00 681.40 L 210.00 689.50 L 207.40 698.20 L 206.40 706.80 L 205.30 707.90 L 204.40 708.10 Z" fill="#231815" fill-rule="nonzero" node-id="191" stroke="none" target-height="35.099976" target-width="15.399994" target-x="202.3" target-y="673"></path><path d="M 189.30 711.30 L 187.90 710.70 L 187.20 709.40 L 186.80 702.40 L 186.90 697.60 L 188.20 686.80 L 190.20 678.90 L 191.60 674.80 L 193.40 670.90 L 195.60 667.10 L 198.30 663.50 L 201.30 660.20 L 204.90 657.30 L 209.00 654.60 L 210.10 654.20 L 211.30 654.50 L 212.10 655.40 L 212.30 656.50 L 211.90 657.60 L 207.30 660.80 L 204.00 663.50 L 201.30 666.60 L 198.90 669.90 L 197.00 673.50 L 195.30 677.10 L 193.50 682.80 L 192.30 688.40 L 191.50 693.80 L 191.10 702.90 L 191.30 709.70 L 190.30 711.00 L 189.50 711.30 Z" fill="#231815" fill-rule="nonzero" node-id="193" stroke="none" target-height="57.099976" target-width="25.5" target-x="186.8" target-y="654.2"></path><path d="M 389.60 720.00 L 388.60 719.80 L 387.60 718.50 L 387.80 705.70 L 387.40 699.90 L 386.30 691.30 L 384.70 683.40 L 382.60 675.70 L 378.10 662.50 L 375.90 657.40 L 370.50 646.20 L 370.90 644.60 L 372.30 643.80 L 373.90 644.20 L 374.50 644.80 L 379.10 653.90 L 381.90 660.40 L 384.60 667.70 L 389.00 682.60 L 391.30 696.20 L 392.00 703.20 L 392.10 710.50 L 391.80 718.10 L 391.10 719.40 L 389.60 720.00 Z" fill="#231815" fill-rule="nonzero" node-id="195" stroke="none" target-height="76.20001" target-width="21.600006" target-x="370.5" target-y="643.8"></path><path d="M 466.20 517.90 L 462.60 517.60 L 459.10 516.90 L 455.80 515.80 L 452.70 514.20 L 449.80 512.30 L 447.20 510.00 L 444.90 507.40 L 442.90 504.50 L 441.30 501.20 L 440.10 497.80 L 439.50 494.40 L 439.20 490.90 L 439.50 487.40 L 440.20 484.00 L 441.30 480.70 L 442.80 477.60 L 444.80 474.60 L 447.10 471.90 L 449.90 469.50 L 452.80 467.60 L 455.90 466.00 L 459.20 464.90 L 462.60 464.20 L 466.10 464.00 L 469.60 464.20 L 473.00 464.90 L 476.50 466.10 L 479.70 467.70 L 482.60 469.60 L 485.30 471.90 L 487.60 474.60 L 489.50 477.40 L 491.00 480.60 L 492.20 483.90 L 492.80 487.30 L 493.10 490.90 L 492.80 494.60 L 492.10 498.10 L 491.00 501.40 L 489.40 504.50 L 487.50 507.40 L 485.20 509.90 L 482.60 512.20 L 479.80 514.10 L 476.60 515.70 L 473.30 516.90 L 469.90 517.60 L 466.20 517.90 Z M 466.20 468.30 L 463.10 468.50 L 457.50 470.00 L 454.80 471.30 L 450.20 474.90 L 446.60 479.50 L 445.20 482.30 L 443.70 488.10 L 443.50 491.00 L 444.30 496.80 L 446.50 502.20 L 448.10 504.70 L 450.20 507.00 L 454.90 510.60 L 457.50 511.90 L 463.20 513.40 L 469.00 513.40 L 471.90 512.80 L 474.80 511.90 L 480.00 508.90 L 484.20 504.70 L 487.10 499.70 L 488.60 494.00 L 488.80 490.90 L 488.60 487.80 L 487.00 482.10 L 485.70 479.50 L 482.20 474.90 L 477.60 471.40 L 475.00 470.10 L 469.30 468.50 L 466.20 468.30 Z" fill="#040000" fill-rule="nonzero" node-id="197" stroke="none" target-height="53.900024" target-width="53.899994" target-x="439.2" target-y="464"></path><path d="M 539.00 515.00 L 535.30 514.70 L 531.80 514.00 L 528.50 512.90 L 525.40 511.30 L 522.60 509.40 L 520.00 507.10 L 517.70 504.50 L 515.80 501.70 L 514.20 498.60 L 513.10 495.30 L 512.30 491.80 L 512.10 488.10 L 512.30 484.40 L 513.10 480.90 L 514.20 477.60 L 515.80 474.50 L 517.70 471.60 L 520.00 469.10 L 522.60 466.80 L 525.40 464.90 L 528.50 463.30 L 531.80 462.10 L 535.30 461.40 L 539.00 461.20 L 542.70 461.40 L 546.20 462.10 L 549.50 463.30 L 552.60 464.90 L 555.40 466.80 L 558.00 469.10 L 560.30 471.60 L 562.20 474.50 L 563.80 477.60 L 564.90 480.90 L 565.70 484.40 L 565.90 488.10 L 565.70 491.80 L 564.90 495.30 L 563.80 498.60 L 562.20 501.70 L 560.30 504.50 L 558.00 507.10 L 555.40 509.40 L 552.60 511.30 L 549.50 512.90 L 546.20 514.00 L 542.70 514.70 L 539.00 515.00 Z M 539.00 465.50 L 536.00 465.70 L 530.30 467.20 L 527.60 468.50 L 523.00 472.00 L 519.40 476.70 L 518.10 479.40 L 517.10 482.30 L 516.30 488.20 L 516.50 491.10 L 518.10 496.70 L 521.00 501.80 L 523.00 504.10 L 525.30 506.10 L 530.40 509.00 L 536.00 510.60 L 539.00 510.80 L 544.80 510.00 L 547.70 509.00 L 550.40 507.70 L 555.10 504.10 L 557.00 501.90 L 559.90 496.80 L 561.40 491.10 L 561.70 488.10 L 561.40 485.00 L 559.90 479.30 L 556.90 474.20 L 552.90 470.20 L 550.40 468.50 L 545.10 466.30 L 539.00 465.40 Z" fill="#040000" fill-rule="nonzero" node-id="199" stroke="none" target-height="53.799988" target-width="53.80005" target-x="512.1" target-y="461.2"></path><path d="M 492.10 492.80 L 489.80 489.10 L 496.30 486.20 L 502.50 485.00 L 505.90 484.90 L 509.50 485.50 L 514.20 487.60 L 516.50 489.30 L 513.80 492.60 L 510.00 490.20 L 505.20 489.20 L 499.60 489.80 L 497.20 490.50 L 492.10 492.80 Z" fill="#040000" fill-rule="nonzero" node-id="201" stroke="none" target-height="7.899994" target-width="26.700012" target-x="489.8" target-y="484.9"></path><g node-id="216"><path d="M 407.00 477.20 L 408.80 473.30 L 442.30 489.00 L 440.50 492.90 Z" fill="#040000" fill-rule="nonzero" group-id="3" node-id="205" stroke="none" target-height="19.600006" target-width="35.299988" target-x="407" target-y="473.3"></path></g><path d="M 457.40 526.60 L 437.10 522.10 L 436.30 521.70 L 435.40 520.40 L 435.80 518.80 L 437.20 517.90 L 457.80 522.40 L 459.10 523.20 L 459.50 524.70 L 458.80 526.00 L 457.40 526.60 Z" fill="#231815" fill-rule="nonzero" node-id="208" stroke="none" target-height="8.699951" target-width="24.100006" target-x="435.4" target-y="517.9"></path><path d="M 549.60 522.20 L 548.90 522.10 L 547.80 521.30 L 547.40 519.90 L 548.00 518.60 L 561.90 510.70 L 563.40 511.10 L 564.00 511.80 L 564.30 512.60 L 563.90 514.10 L 550.70 521.90 L 549.60 522.20 Z" fill="#231815" fill-rule="nonzero" node-id="210" stroke="none" target-height="11.5" target-width="16.899963" target-x="547.4" target-y="510.7"></path><path d="M 503.80 518.70 L 502.30 518.60 L 502.80 514.40 L 505.50 514.10 L 506.70 513.40 L 508.40 511.10 L 508.70 508.30 L 507.20 504.20 L 506.70 501.30 L 507.10 499.80 L 508.60 499.00 L 509.40 499.10 L 510.70 500.10 L 513.00 508.40 L 512.70 511.80 L 511.20 514.90 L 509.70 516.50 L 507.90 517.70 L 505.90 518.50 L 503.80 518.70 Z" fill="#231815" fill-rule="nonzero" node-id="212" stroke="none" target-height="19.700012" target-width="10.700012" target-x="502.3" target-y="499"></path></svg>