<svg width="2088" height="2088" viewBox="0 0 2088 2088" fill="none" xmlns="http://www.w3.org/2000/svg">
<path d="M344.3 137.3L353.5 137.5L355.5 144.5L363.8 180L386.8 179.7L471.6 177.5L483.7 177.8L486.7 178.3L487.4 179.1L488.7 182.1L490.9 190.1L496.7 214.3L505.8 248.1L538.9 375.7L542.4 388.8L546.4 401.6L573.1 383.3L582 377.8L591.1 372.7L600.4 368.1L610 364L619.7 360.3L629.7 357.2L639.7 354.5L649.9 352.3L650.9 348.5L653.7 341.1L647.1 342.2H640.5L637.8 341.7L632.9 339.7L628.7 336.5L625.3 332L622.9 326.4L621.8 321.9L621.2 317.2L621 312.5L621.3 308.2L618.4 307.3L614 305L611.4 301.9L610.4 299.5L610 297.4L610.1 295.5L611.4 291.9L614.6 287.8L621.3 281L623.6 277.4L625.3 273.4L626.3 269.4L626.9 265.4L628 253.4L629.1 249.6L630 247.3L632.6 243.5L634.3 241.9L638.3 239.4L641.7 238.2L645.2 237.6L648.6 237.5L652.1 237.9L658.9 239.6L668.9 243.2L678.2 235.4L682.7 232L687.2 229.1L693.5 226.1L697.1 224.9L704.7 223.5L713.4 223.3L721.6 224.3L725.7 225.3L733.4 228.2L737 230.2L740.4 232.6L743.5 235.2L748.4 241L750.9 245.8L751.8 250.3L751.6 253.6L749.5 263.6L748.9 267.3L748.8 271.4L749.3 274.6L750.4 277.5L752.1 280.1L756.6 284.8L759.6 286.9L764.2 289.8L779.2 297.8L783.6 300.6L787.2 303.6L790.6 307.4L792.5 310.3L794.8 314.9L796.8 321.5L797.3 328.3L796.5 333.9L794.2 339.1L790.7 343.5L786.3 346.7L783.8 347.9L779.9 349.2L775.8 350.1L767.5 350.5L757.4 349.4L747.5 346.8L741.1 344.4L735 341.4L729.1 337.8L723.5 333.8L718.3 329.5L713.5 324.7L708.9 327L704 329L713.7 353.4L728.2 357.3L735.2 359.7L741.9 362.6L748.4 365.8L754.5 369.3L760.3 373.2L765.9 377.5L771.1 382.2L776.1 387.3L780.8 392.9L785.2 398.9L789.4 405.4L793.1 412.1L799.7 426.2L803.9 437.1L807.7 448L818.6 483L834.9 541L874.3 686.1L874.2 688.4L871.6 689.8L866.9 690.5L858.8 690.7L861.4 705.5L862.6 719.2L862.7 725.8L862.3 732.3L861.5 738.8L860.2 745.1L858.4 751.4L856.2 757.5L853.5 763.6L850.1 769.8L846.1 776L852.3 780.1L855.1 782.5L857.7 785.3L859.7 787.9L862.8 793.7L864.7 799.9L865.3 803.1L865.7 808L865.4 812.9L864.6 818.3L863.2 823.5L861.2 828.6L858.8 833.5L855.9 838.1L852.6 842.5L845.2 850.4L841.1 853.9L836.4 857.4L826.5 863.3L814 868.7L806.7 871.1L799.2 873.2L789.1 875.4L778.8 877.1L758 879.5L712.8 883.2L688.2 884.5L663.6 885.3L639 885.5L614.5 885.2L589.9 884.3L551.7 882.1L539 880.9L518.8 878.2L508.7 876.2L498.6 873.8L492 871.7L479.4 866.6L473.4 863.5L467.7 859.9L462.3 855.8L458.4 852.3L454.8 848.6L448 840.6L440.7 843.8L436.5 844.9L434.7 845L433.3 844.7L431.4 842.7L428.8 837.1L424.8 823L421.7 807.8L420.9 799.9L420.2 784.4L420.8 769.1L421.7 761.5L423 754L424.7 746.4L427 738.7L429.7 730.8L433 723.2L436.6 715.7L440.8 708.3L445.3 701.3L450.2 694.5L455.4 687.9L461 681.6L466.9 675.6L473.1 670L479.5 664.8L486.2 659.9L492.9 655.5L499.8 651.5L513.9 644L498.5 591.5L462.4 591.1L350.2 591.6L351.9 602L354.4 613.4L359.6 635.5L407.8 851.7L409.4 861.4L409.3 863L408.8 864.4L407.8 865.3L393.5 865.9L384.4 865.8L376.2 865.3L370.5 864.5L368.7 859.4L365.7 848L349.4 777.9L343.8 755.6L343.2 757L341.9 757.5H337.5L329.5 869.1L328.5 876.7L327.3 879L326 880L321 882L310.6 884.3L298.5 885.8L279.2 887.1L263.8 886.7L250.3 885.5L243.7 884.5L237.2 883.3L231.9 881.8L225.9 879.3L224.2 877.9L223.4 875.1L222.5 868.1L222 850L220.4 817.8L214.2 835.6L206 861.4L203 869L166.4 869.2L157.9 868.8L153.2 868V865.8L153.7 863.6L156.1 856L164.4 833.1L184.2 775.6L208.6 704.1L251.7 574.9L256.8 561.4L248.1 533.3L239.9 505L159.7 220.7L152.6 197.1L150 187.1L150.4 185L152.4 184.2L166.1 183.5L200.4 183.2L264.7 182L256.8 152.5L261.7 147.2L272.9 137.5L344.3 137.3ZM493 440.7L540.6 549.9L552.5 543.7L558.8 539.9L568 533.7L577.3 526.9L586.4 519.6L595.3 512.1L612 496.6L626.7 481.7L634 473.1L641.2 465.4L645.3 462.3L646.6 461.9L647.5 462.6L647.3 464.3L646.7 465.9L644.7 468.7L636.1 478.7L627 488.4L617.6 497.8L607.8 507L587.8 524.2L564.2 541.9L561.9 631.5L560.6 665.5L560.9 682.4L627.5 687.5L625.5 663.2V649.4L625.8 646L626.8 642.3L628.2 640.6L631 639.3L632.6 639.6L634 640.7L634.9 642.1L636.7 647.1L637.8 651.8L638.7 657.5L639.9 669.5L640.8 688.4L668.7 689.6L696.7 690.4L724.6 690.7L752.6 690.6L780.5 690L808.4 689L869.7 685.5L814.7 486.2L808.4 465.2L801.9 445.1L798.3 435.1L791.4 418.8L784.8 406.4L781.1 400.8L777.2 395.5L772.9 390.6L768.4 386L763.5 381.7L758.3 377.7L752.9 374L747.1 370.5L740.3 367.1L733.3 364.1L726.3 361.6L719.1 359.5L711.7 357.9L696.9 355.7L681.7 354.8L669.7 354.9L657.6 355.9L649.7 357L635 360.2L625.5 363L616.4 366.3L607.5 370.1L590.4 378.9L569.7 391.6L531.8 417L520.1 424.6L496.6 438.3L493 440.7ZM171.1 188.5L272.8 545.9L279.1 569.9L492.3 569.6L542.3 570L558.9 569.8L559.5 544.4L551.3 549.3L543 553.5L534.7 557.1L528.2 559.4L521.7 561.2L515.1 562.5L508.4 563.5L501.7 563.9L494.8 563.7L487.8 563L480.5 561.8L474.5 560.2L468.7 558.3L463.2 556L457.9 553.3L452.8 550.2L443.3 543.1L438.9 539.1L433.5 533.3L428.4 527L423.8 520.3L417.5 509.3L411.8 498.2L401.5 476.3L399.5 473H289.1L269.7 380.4L245.9 274.5L244.7 267.2L244.6 263.9L244.9 260.6L245.8 257.4L247.3 254.4L250.2 251.3L252 250.1L254.9 248.8L261.7 247.4L274.7 246.7H282.9L280.5 244.1L278.5 241.3L275.2 232.1L272.6 229L272.4 227.5L272.7 226L274.5 225.4L277.2 224.9L283.7 224.8L290.3 225.4L295.3 226.2L299.4 227.4L303.6 229L307.7 231.1L311.5 233.7L313.7 235.6L317.3 240.1L319.9 246.1L346.5 256.7L355.6 253.1L360.2 251.6L365 250.6L375.4 249.6L396.5 249.2L426.5 248.2L436.4 248.4L439.9 248.9L443.3 249.9L445.9 251.2L448.4 252.8L452.7 257L455.8 262L457.5 266.6L470.6 324.2L485 390.1L490.3 411.9L496 433.6L507.9 427L519.7 419.7L531.3 412.1L542.4 404.2L538.3 391.7L531.9 366L487.8 198.1L484.1 182.3L472.9 182.2L398.2 183.6L171.1 188.5ZM470 340.6L459.6 297.5L456 279.7L452.7 267.8L450.7 262.7L449.4 260.4L447.8 258.4L443.8 255.2L439.2 253.2L433.2 252.6L375.7 254.3L370.4 254.6L361.8 256L352.2 259.2L361.7 263.3L366.7 265L371.6 266.3L379.1 266.9L382.7 267.9L385.6 269.4L388.2 271.3L395.5 277.8L398.1 279.7L405.8 283.9L422.1 291.2L427.8 294.2L429.6 295.6L431 297.2L431.8 298.8V300L431 302.9L430.4 303.9L428.3 305.1L424.1 304.9L420.8 303.8L408.2 298.2L407.8 298.6L415.4 315.9L423 312.3L426.8 311.1L430.6 310.6L436 310.8L442.2 312.7L448.4 316.1L452.7 319.5L456.8 323.4L464.1 332L470 340.6ZM357.1 180.1L358.2 179.8L358 176.2L354.8 161.4L349.8 141.6L282.7 141.5L276.6 141.7L284.6 171.8L286.8 181.9L357.1 180.1ZM558.6 585.9V574.4L535.7 573.9H524.2L494.4 574.8L475.8 574.9L438.7 574.6L279.2 574.7L274.3 585.9L400.4 585.4H479.5L558.6 585.9ZM421.7 330.5L411.2 334L400.9 337.7L390.8 341.9L370.9 351.2L361.1 356.2L364.4 366L368.1 375.5L376.8 370.1L386 365.3L383.3 360.8L380.7 355.5L379.9 352.9L379.7 350.6L380.5 350L382.4 350.8L383.7 352.5L389.5 363.4L403.9 357L401.3 353.4L399.2 349.5L398.7 347.5L398.6 345.2L399.3 344.5L401.2 345.9L402.6 347.9L404.3 352L405.5 356.4L420.2 350.7L415.7 341.2L415 338.7L414.7 336.3L415.6 335.8L419.1 339.8L423.9 349.4L432.7 346.9L426.5 335.4L423.4 331.4L422.3 330.5H421.7ZM333.6 757.4L318.3 757H303.1L306.4 763.6L308.6 766.6L311.1 769.2L313.9 771.5L317.3 773.3L321.8 774.6L324.3 774.9L329.2 774.4L331.8 773.3L333.6 757.4ZM222.3 781.8L229.5 776.2L233.4 773.9L237.5 772.2L243.4 771L246.5 770.9L249.8 771.4L252.8 772.2L255.6 773.5L258.3 775.2L263 779.6L265.6 783L267.6 786.5L269.3 790.2L271.6 798.1L272.4 802.2L280.8 795.6L283.8 793.7L290.1 790.9L293.4 789.9L296.9 789.5L300.7 789.4L304.6 789.9L308.2 790.9L311.5 792.3L317.7 796.2L323 801.4L329.3 809.5L331.1 786.5L331.3 778.8L327.6 779.3L324.1 779.4L320.6 779.1L317.3 778.3L314 777L310.8 775L307.9 772.7L305.4 770L303.2 767.1L299.9 760.5L298.7 757L218.6 756.9L222.3 781.8ZM199.3 864.9L200.9 861.3L207.4 843.1L217.5 812.2L219 807.2L219.3 804.9L218.8 794.1L214.1 755.7L214.3 752.7L214.8 751.7L215.7 751.5L219.3 752.5L222.7 752.9L236.4 752.5L260.8 680.8L291.7 591.1L274.5 591.6L270 591.4L267.2 590.5L266 589.6L264.8 588L263.6 585.8L261.7 580.5L258.6 570.3L231.8 649L205.6 727.8L164 848.4L158.1 864.6L199.3 864.9ZM581.3 784.2L554.8 777.4L537.3 772.1L528.8 768.8L525.7 767.4L516.6 761.9L510.9 759L510.4 759.9V760.9L512.2 763.4L516.8 766.8L524.2 770.5L535.6 775L552.7 780.7L560.9 782.5L565.9 782.7L565.6 783.1V782.5L565.2 783.2L560.4 783.9L542.9 785.1L506.7 786L504.9 786.4L503.5 787.3L503.8 788.2L504.5 788.7L506.3 789.3L508.6 789.6L521.8 788.8L533.2 788.9L557.6 787.8L570.5 786.5L576.5 785.4L581.3 784.2ZM518.4 642.6L526 639.7L533.7 637.4L541.6 635.5L557.2 633L558.5 591.5L502.8 591.6L510.8 617.1L518.4 642.6ZM272.8 808.3L272.7 817.3L271.7 826.7L270.5 831.3L268.9 835.6L265.8 840.8L263.8 843.2L261.3 845.3L258.5 846.9L256.5 847.6L252.2 848.2L250 848L246 846.7L243.3 845.1L240.9 842.9L237.7 838.2L235.1 832.2L234.4 829.2V826.6L234.7 825.1L235.8 824.5L237.4 825.8L242 836.4L243.6 839L246.6 841.8L248.4 842.9L250.4 843.5L252.4 843.6L256.4 842.6L258.7 841.3L260.6 839.7L262.3 837.8L264.3 834.5L265.8 831L267.1 826.8L268 822.2L268.5 817.3L268.3 807.4L267.6 802.5L266.6 797.7L265.2 793.2L262.1 786.3L258.4 781.4L256.2 779.3L253.6 777.7L248.8 775.8L243.1 775.6L239.1 776.8L232.3 780L227.5 782.9L222.6 786.5L224.3 808.5L226.9 853L227.5 875.4L242.7 879.3L257.8 881.6L267.9 882.3L278.1 882.5L288.6 882L288.2 877L288.3 871.8L288.7 868.4L290.3 861.8L291.5 858.6L293.2 855.7L295.2 852.8L299.4 848.8L304.4 845.8L307.2 844.9L310.1 844.3H312.8L315.4 844.6L320.3 846.3L322.6 847.6L326.2 850.5L328.5 817.8L322.6 808.1L316.9 801.7L313.7 798.9L310.1 796.7L304.9 794.7L299.1 794L293.6 794.7L289.5 796.1L285.6 798L282 800.2L278.7 802.8L272.8 808.3ZM241.2 752.5L331.8 752.2L337.7 752.5L343.4 753.3L338.4 728.9L312.9 615.4L310.4 603.3L308.3 591.3L296.8 591.1L266.4 678.5L241.2 752.5ZM281.2 251.2L265.5 251.6L261.2 252L257.5 252.8L255.1 253.7L253.2 254.8L251.7 256.2L250.6 257.8L249.4 261.3L249.1 264L249.4 267L251.3 277.6L263.3 327.7L266.2 340.9L267.4 335.7L270.3 327.6L273.7 321.7L275.8 319.1L278.3 316.7L283.7 313.2L288.8 311.2L294.1 310.3L299.6 310.4L302.3 310.8L306.5 312L310.4 313.8L314.1 316.1L317.5 318.9L320.4 322L323 325.5L330.6 339.3L332.9 342.5L335.7 345.3L337.8 346.9L342.8 349.2L346.4 350L350 350.4H357.3L352.3 344.7L347.9 338.9L345.3 334.9L343 330.7L341.3 326.3L339.6 319.4L339.2 315.7V311.7L340.8 300.3L334.5 292.2L332.9 289.2L332.1 287.1L331.9 284.9L332 282.6L332.7 280.4L333.9 278.6L337.2 275.7L342.9 273L312.9 257.8L306.6 258.7L304 258.6L300.2 257.9L296.5 256.6L292.9 254.8L286.9 251.1L281.2 251.2ZM453.1 839L456.3 843.5L459.8 847.6L463.8 851.3L468 854.7L472.5 857.7L482.3 862.9L492.5 867L500.4 869.4L508.3 871.4L518.4 873.4L528.5 875L553.9 877.5L599.9 880.4L627.4 881.4L659.5 880.7L721.9 878L731.9 877.1L733 796.9L685.7 796.2L653 794.2L620.6 790.8L588.1 786.1L578.2 790.7L557.7 798.3L528.2 810.1L460.9 835.7L453.1 839ZM738.1 821.3L743.2 821.7L754.4 824.1L761.9 809.7L764.7 805L770.9 796.9L771.9 794.7L738.6 797.1L738.1 809.2V821.3ZM274.6 181.8L282.4 181.5L275.9 157L273.4 148.7L271.5 144.4L261.9 154L267.4 176.3L269.2 181.7L274.6 181.8ZM653.9 351.8L662.3 350.8L670.8 350.3L679.5 350.2L696.7 351.1L706.8 352.4L708.5 352.2L707.5 348.9L700.7 333.3L699.5 329.5L693.4 329.2L687.4 328.4L683.5 327.6L676 325L672.6 323.1L669.3 320.8L666.3 317.9L663.9 314.9L660.1 308.7L658.6 304.6V302.6L659.5 301.9L661 302.3L666.1 304.9L668 305.4H670.3L673.5 304.2L675.6 302.7L677.7 300.7L679.3 298.3L680.4 295.6L680.9 292.8V290.2L680.3 287.7L678.6 284.2L676.3 281.8L672.7 280L670.7 279.6L667 280.1L665.3 280.8L663.8 282L662.7 283.5L661.9 285.1L661.3 288.7L660.2 289.7L658.8 290.2L658 289.8L657.7 288.9L657.5 286.2L658.7 274L658.2 271.2L657.5 269.5L656.4 267.9L654.7 266.4L652.5 265.1L647.8 263.6L645.4 263.2L638.6 263.9L636.4 264.5L634.5 265.5L632.8 266.9L631.3 269.4L627.1 280.6L625.7 283.2L624.3 284.8L618.5 290.2L615.4 294.2L614.5 297L614.6 298.5L615.2 300L617.8 302.3L625.8 306.1L625.1 314.7L625.4 319.1L626.2 323.3L628.3 328.7L629.8 331.1L631.9 333.5L634.5 335.5L637.5 337L640.6 337.8L644.1 338L647.1 337.6L650.1 336.8L658.1 332.9L658.9 332.7L659.6 333L659.9 334.8L659 339.7L653.9 351.8ZM355.4 274.1L370.1 272.5L370.4 272L367.8 270.6L353.9 265.5L328.2 254.5L319.4 251.3L317 254.6L326.5 259.7L355.4 274.1ZM310.5 848.5L307.3 849.7L302.1 852.6L299.9 854.6L297.9 856.9L296.2 859.8L294.7 863.4L293.7 867L293.1 870.7L292.9 874.5L293.1 882.1L306.4 880.3L315.5 878.5L324.5 876.1L325.8 857.7L322.1 853.6L317.7 850.1L314.3 848.8L310.5 848.5ZM375.7 270.8L374.4 277.1L366.8 278L359.2 278.5L347.6 277.5H344.6L341.7 277.9L340 278.5L337.1 280.6L336.4 281.9L336 283.2L336.1 284.7L337.3 288.3L343.9 296.6L345.4 299L344.3 309.1L344 317.1L344.4 320.7L345.2 324.1L346.6 327.5L348.6 331.3L351.1 335.2L358.5 344.8L362.6 349.6L393 335.6L408.4 329.7L416.4 327.2L404.3 301.9L397.9 290.4L394.5 285.3L390.8 280.5L387.2 276.7L384.6 274.5L382.1 272.9L379.7 271.8L375.7 270.8ZM270.9 580.7L274.8 572L253.2 494.7L166.4 188.6L155.6 188.8L242.4 496.2L255.4 541L261.2 562.9L265.9 577.6L268.7 584L270.9 580.7ZM369.9 379.7L373.7 392.4L378.2 405.2L397 453.5L407.2 478.3L412.9 490.6L418.7 502.3L422.9 509.9L431.5 523.3L435.4 528.3L439.6 533L444.2 537.6L449.1 541.8L454.2 545.6L459.5 548.9L464.4 551.5L469.6 553.7L474.9 555.5L485.8 558.1L497 559.2L508.2 558.8L515.4 557.7L522.5 556.2L529.5 554.1L536.3 551.5L488.8 443.3L476.8 451L470 454.6L466.9 455.8L464.5 456.4L463.4 455.9L463.1 454.7L463.3 453.4L466.4 451L478.9 443.6L489.2 438L453.7 376.8L446 363.9L438.2 351.8L437.4 351L436.2 351.1L427.5 353.5L419.1 356.4L410.8 359.6L398.6 364.9L386.5 370.8L378 375L369.9 379.7ZM404.8 861.4L404.3 856.4L402.6 848.4L396.9 825.3L384.7 772.7L372.9 719.9L347.4 601.4L345 591.7L313.6 591.2L314.7 600.5L343.3 728.6L358.3 794.8L373.7 861L404.8 861.4Z" fill="black"/>
<path d="M656.4 620.9L659.1 621.3L660.2 622L661 623.1L661.9 625.4L662.5 628.4L662.8 631.6L662.5 638L662 640.4L660.8 642.6L658.7 643.9L656.1 643.3L654.3 641.5L653.2 638.3L652.9 633.2L653.4 626.6L654 624.5L655 622.6L656.4 620.9Z" fill="black"/>
<path d="M820.7 776.7L825 776.4L829.3 776.6L833.7 777.2L838 778.3L842 779.7L845.9 781.6L849.1 783.7L851.9 786.2L854.3 788.9L856.3 792L857.9 795.3L859.2 799L860 802.8L860.4 810.3L859.4 817.8L858.4 821.5L856.4 826.8L853.8 831.9L850.7 836.7L847.3 841L843.5 845.1L839.3 848.8L834.9 852.2L825.3 858.1L815.1 862.9L807.2 865.8L799.2 868.2L792.2 869.7V864.6L791.6 859.7L790.4 854.8L788.6 850.1L786.4 846L784 842.4L781.2 839.2L774.9 833.6L771.3 831.3L765.6 828.3L759.4 825.7L762.2 819.6L765.3 813.6L768.9 807.8L775.2 799.8L782.7 792.6L791.2 786.6L800.5 781.8L810.4 778.5L820.7 776.7Z" fill="#FFFEFF"/>
<path d="M631.7 280.3L633 281.9L633.3 283.4L633.4 290L634 292.2L634.6 293.2L636.4 294.3L639.5 294.4L641 293.8L642.2 292.9L643.1 291.7L643.6 290.7L643.7 288.9L643.5 287.8L642.3 286.9L640.3 286.7L637.4 288L635.1 288.3L635.5 286.1L636.3 284.7L638.5 282.5L640.4 282.2L642.5 282.3H643.1L644.7 283.6L647.3 286.7L648 288.7L648.2 290.2L648 291.6L646.8 294.2L645.4 295.9L643.6 297.2L641.6 298.2L639.4 298.7L635.6 298.6L633.7 298L632.1 297L631 295.8L629.6 293.1L628.8 288.4L628.9 286L629.3 284L630.2 282.2L631.7 280.3Z" fill="black"/>
<path d="M667.3 286L670.2 286.4L671.4 286.9L672.6 287.9L673.7 289.4L674.3 291.1V293.7L673.6 295.9L672.3 297.7L670.1 299.2L668.6 299.5L665.1 299.4L664.6 298.1L664.5 296.7L665.4 295.7L669.2 293.5L669.7 292.3L669.5 291L668.2 290.1L663.5 288.5V287.8L667.3 286Z" fill="black"/>
<path d="M625.9 297.2L627.5 298L628.3 299.1L631 304.3L632.2 305.3L636.2 307.3L637.4 308.2L638.2 309.4L637 311L633.9 310.9L631.1 309.8L628.9 308.2L627 306.3L625.2 303.3L624.7 301.5V299.2L625.9 297.2Z" fill="black"/>
<path d="M642.4 311.3L643.7 311.4L644.4 312.4L644.2 314L643.6 315.6L642.3 317.6L638.9 320.9L636 322.7L632.7 324.1L631.7 323.5L631.1 322.5L632.7 320.2L639.2 314.5L642.4 311.3Z" fill="black"/>
<path d="M635.4 275L638.2 275.2L639.6 275.8L640.4 276.9L639.6 278.5L638.2 279.8L636.6 280L634.3 279.4L633.3 278.1L634.1 276.3L635.4 275Z" fill="black"/>
<path d="M364.8 354.7L367 356.7L368.9 359.7L371.7 365.5L372.9 369L373.1 370.8L372.9 372.3L370.1 370.3L367.7 366.4L364.8 359.4L364.5 356.2L364.8 354.7Z" fill="black"/>
<path d="M607.8 192.2L610.3 191.9L612.8 192.1L615.3 192.7L617.5 193.9L619.5 195.5L621.1 197.5L622.3 199.7L623.1 202.1L623.3 204.6L623.1 207.2L621.5 211.1L620 213.2L618.2 214.9L616 216.2L613.6 217L610.9 217.4L608.4 217.2L606.1 216.6L603.9 215.5L601.9 214L600.2 212.2L599 210L598.2 207.7L597.8 205.3L597.9 202.8L598.5 200.4L599.5 198.2L601.4 195.7L603.3 194.1L605.4 192.9L607.8 192.2ZM612.3 213.1L615.4 211.8L617.8 209.5L619.1 206.5L619.2 203.1L617.9 200L615.6 197.6L612.6 196.3L609.3 196.2L606.2 197.4L603.7 199.8L602.4 202.8L602.3 206.1L603.6 209.3L605.9 211.7L608.9 213L612.3 213.1Z" fill="black"/>
<path d="M207.8 552.8L210.6 552.9L213.7 554.3L215.9 556.9L216.8 559.6L216.7 562.4L215.5 565L213.2 567.3L210.2 568.5L207.1 568.4L204.3 567.1L202.2 564.8L201.1 561.9L201.2 558.7L202.5 555.9L204.9 553.8L207.8 552.8ZM210.2 563.6L211.7 562.1L212.1 560.8L211.9 559.5L211.2 558.3L210.1 557.6L208.7 557.3L207.4 557.6L206.4 558.4L205.7 559.5L205.5 560.7L205.8 561.9L206.5 562.9L207.5 563.6L208.7 563.9L210.2 563.6Z" fill="black"/>
<path d="M563 266.5H566.3L568.5 267.2L570.3 268.8L571.5 271.3V274.1L570.9 276.2L569.8 278L566.7 280.8H563.5L562.2 280.4L559.8 278.9L558.3 276.4L557.9 273.5L558.9 270.1L559.9 268.7L563 266.5ZM565.3 276.6L566.4 276.1L567.2 275.3L567.7 274.2L567.8 273L567.4 271.8L566.5 270.9L565.5 270.4L564.2 270.3L563 270.7L562 271.5L561.5 272.7L561.4 274L561.9 275.2L562.8 276.1L564 276.6H565.3Z" fill="black"/>
<path d="M1498.3 207.6L1579.1 226.6L1671.9 247.9L1764.7 268.6L1876.8 292.6L1921.5 301.4L1925.5 303L1935.2 309.7L1951.1 322.3L1961.8 331.7L1958.8 341.6L1951 361.1L1893.7 511.5L1858.2 602.7L1781.3 807L1760.2 863.8L1749.1 895.2L1745 905.5L1663.8 905.6L1661.9 905.3L1660.4 904.4V902.7L1660.8 900.9L1691 836L1719.2 774L1746.7 711.8L1829.4 512L1902 340.6L1909.6 323.2L1913.7 314.7L1918.2 306.3L1868.9 296.2L1789.2 279.2L1694.7 258.3L1518.6 217.7L1500.3 213.2L1287.2 708.4L1238 823.5L1221.2 861.5L1213 880.6L1205.3 899.9L1238 899.4L1288.3 786.5L1318.9 719.1L1348.9 651.4L1378.3 583.5L1401.7 530.5L1424.5 477.3L1487.7 325.4L1510.1 270L1512.7 263.9L1515.6 258.2L1522.3 258.7L1529.2 259.8L1576 269.4L1634.5 281.7L1692.8 294.6L1750.9 308.3L1765.9 312.2L1865.5 335.1L1869 336.1L1871.4 337.2L1872.3 337.9L1872.7 338.9L1871.6 342.5L1870.1 346.2L1852.9 383.7L1810.4 480.9L1771.8 571.9L1758.7 602.1L1711.3 706.5L1690.2 752.3L1648.4 845.6L1627.7 893.3L1622.5 904.5L1614.2 904.8L1360.2 904.6L1280.6 905.3L1254.1 904.9L1264.5 881L1332.7 732L1359.3 672.2L1385.4 612.2L1411 551.9L1436.1 491.4L1497 339.3L1516.4 289.1L1520.1 278.4L1521.3 275.8L1522.9 273.4L1523.5 273L1527.9 273.6L1551.2 278.6L1730.5 319.7L1795.8 334.2L1823 340L1853.2 345.8L1863.1 348.2L1864.7 344.7L1866.1 341.1L1853.5 337.8L1815.6 329.1L1665.1 293.7L1618.1 283.4L1571 273.8L1536.3 266.3L1518.9 263.4L1499.2 311.8L1451.3 426.7L1413 517L1374.1 607L1334.6 696.8L1276.8 824.9L1243.2 900.8L1241.1 904.7L1209.1 905.2L1200.7 904.4L1199.4 903.9L1198.4 903L1202.7 891.4L1224.3 842.7L1271.7 731.9L1309.7 641.5L1348.1 551.3L1386.9 461.3L1466.8 278.6L1488.3 227.6L1495.9 210.9L1496.9 209.1L1498.3 207.6ZM1328.8 753.5L1321.7 768.4L1271.3 879.4L1262.5 899.6L1284.2 900L1327.6 899.6L1332.2 884.9L1364.2 790.8L1366.8 782.4L1368.6 778.4L1369.8 777.4H1371.2L1372.6 777.9L1373.1 779.4L1372.9 781L1357.7 825.1L1340.8 876.3L1332.5 899.6L1428.1 899.2L1619.3 899.5L1626.6 882.1L1643.8 842.7L1653.7 820.7L1669.1 788.4L1672.6 780.1L1675.7 771.8L1665.6 751.3L1660.6 741.9L1650 724.1L1644 715.3L1637.4 706.6L1624.4 691L1614.5 681L1605.8 674.1L1604.4 677.4L1602.8 680.2L1600.8 682.5L1598.5 684.6L1592.6 688.1L1587.3 690.2L1581.6 692L1575.6 693.3L1569.5 694.1L1563.4 694.5L1557.2 694.3L1551.1 693.7L1545.4 692.5L1537.6 689.8L1532.8 687.1L1530.7 685.5L1528.9 683.5L1527.6 681.5L1527.1 679.5L1526.9 676.9L1527.4 671.1L1529.5 658.7L1515.9 662.4L1502.4 666.7L1489 671.4L1462.8 682.3L1449.9 688.3L1430.7 697.7L1411.8 707.7L1374.6 728.1L1344.3 745.5L1328.8 753.5ZM1509.6 492.5L1497.7 492.9L1489.9 494.2L1486.1 495.4L1482.5 496.9L1479.2 499L1476.1 501.6L1472.5 505.9L1471 508.5L1469.1 512.5L1467.8 516.7L1467 521.1L1466.7 525.3L1467 529L1467.7 532.5L1468.8 535.9L1470.4 539.2L1472.4 542.2L1474.9 544.9L1479.9 548.7L1485.5 551.5L1484.9 558.9V565.9L1485.4 572.6L1486.5 579.1L1488.2 585.5L1490.5 591.7L1495.1 600.7L1498.1 605.2L1505.5 614.4L1509.6 618.8L1518.7 626.6L1525.3 631.2L1532.1 635.3L1539.3 638.9L1546.7 642.1L1554.3 644.8L1562 647.1L1569.9 649L1577.7 650.5L1592.1 652.1L1605.5 652.5L1619 651.5L1625.6 650.5L1632.1 649.1L1638.4 647.3L1644.6 645.1L1650.7 642.5L1656.5 639.4L1662.2 635.9L1667.6 631.8L1673 627.3L1677.9 622.3L1682.5 617.2L1686.8 611.7L1690.7 606L1694.3 600L1699.5 599.8L1704.3 599L1708.8 597.7L1711.9 596.3L1715 594.5L1718 592.3L1721 589.6L1723.4 586.9L1725.5 584L1727.2 580.9L1728.5 577.5L1729.2 574.1L1729.5 569.4L1728.6 564.4L1727 560.6L1724.1 556.5L1721.2 553.9L1718.9 552.3L1714 549.5L1716.7 539.8L1718.5 535.2L1724.4 523L1725.3 520.4L1725.8 518.2L1725.7 517.2L1725.1 516.1L1723.9 515L1714.3 509.4L1710.3 506.3L1707.9 503.9L1705.8 501.4L1704.1 498.6L1702.8 495.6L1702 492.2L1701.7 488.4L1701.9 484.4L1702.7 480.7L1704.1 477L1706 473.5H1700.2L1690.7 472.6L1683.5 470.5L1680.1 469L1676.9 467L1673.7 464.5L1671.1 461.7L1668.9 458.7L1667.3 455.5L1666.1 452.1L1664.5 444.7L1654 446.7L1642.8 447.8L1635.4 447.5L1628.4 445.9L1625.1 444.6L1622 442.8L1619.4 440.7L1617.2 438.4L1612.9 431.9L1610.8 427.5L1607.4 431.6L1603.7 435.2L1599.6 438.3L1596.3 440.2L1592.8 441.8L1589.1 443L1585.1 443.8L1580.1 444.3H1575.2L1570.4 443.7L1566.9 442.8L1563.5 441.5L1560.2 439.8L1557 437.8L1552.1 445.7L1549.6 449L1547 451.7L1544.2 454.2L1540.8 456.4L1537.1 458.4L1526.7 463.1L1524.2 464.9L1521.8 467.1L1519.8 469.9L1518.1 473L1513.2 486.4L1511.6 489.6L1509.6 492.5ZM1460 447.1L1451.1 467.6L1435.5 507L1459.6 501.5L1467.4 499.2L1473.4 496.6L1483.9 491.2L1488.5 489.5L1493 488.3L1497.6 487.7L1502.5 487.6L1507.7 487.9L1513.5 470.6L1514.8 467.9L1518.1 463.1L1520.1 461L1522.6 459.2L1525.6 457.5L1537.2 452.7L1542.8 449.1L1546.8 444.7L1551.6 435.1L1552.9 432.8L1554.7 431.1L1556.5 431.2L1558 431.9L1564.9 436.8L1570 438.6L1577.8 439.4L1585.7 438.8L1590.9 437.3L1594 435.6L1600.3 430.6L1610 421.1L1610.9 420.5H1611.4L1612 420.6L1613.4 421.9L1614.6 423.5L1618.3 430.8L1620.1 433.6L1622.1 436L1624.2 437.9L1626.5 439.5L1630 441.1L1633.6 442.2L1637.6 442.8H1645.6L1658 441L1667.4 437.9L1668.7 437.8L1670.1 438.2L1670.8 440.8L1670.4 446.7L1671.3 452.2L1673.5 456.6L1675.6 459.2L1678 461.4L1680.9 463.3L1683.9 464.8L1690.6 467L1694.6 467.7L1698.1 467.9L1708.3 467.8L1711.9 468.1L1713.3 468.5L1714.3 469.5L1713.5 471.7L1711.9 473.4L1710.3 476.2L1707.9 482L1707.2 485.1L1707.1 488.3L1707.4 491.5L1708.4 494.6L1709.9 497.5L1711.8 500.1L1714.1 502.5L1716.6 504.7L1726.1 510.4L1729.7 513.2L1731.2 515.8L1731.4 517.4L1731 521.1L1730 524L1723 538L1720 546.5L1723.3 548.5L1726.2 550.8L1728.7 553.3L1730.9 556.1L1732.6 559.3L1734 562.9L1734.8 566.8L1735 570.7L1734.7 574.7L1737.2 579.5L1740 583.5L1743.1 587.2L1746.7 590.5L1755 596.7L1763 579.2L1776.2 548.9L1781.1 536L1775.3 533.2L1766.4 529.4L1764.2 528L1763.7 526.7L1765.4 523.5L1770.5 517.8L1773.2 513.9L1775.6 509.8L1777.6 505.4L1779.1 500.9L1780 496.3L1780.2 491.7L1780 488.2L1779.3 484.8L1778.1 481.4L1776.4 478L1774.3 475.1L1771.9 472.4L1769.2 470.2L1763.1 466.4L1759.8 464.9L1754.7 463L1743.2 459.6L1741.4 458.6L1740.6 457.7L1740.3 456.5L1744.9 446.1L1745.8 442.7L1746.3 439.1V435.3L1746 431.6L1745.2 428L1744.1 424.7L1742.5 421.5L1738.6 415.8L1736.2 413.3L1732.6 410.3L1728.7 407.8L1724.5 405.8L1720.1 404.3L1715.7 403.2L1711.2 402.5L1696.8 402.1L1692 401.8L1689.6 401.2L1690.5 388.8L1690 385.7L1689 382.7L1687.6 379.9L1685.8 377.3L1683.5 375L1678.8 371.7L1676.3 370.5L1672.2 369.2L1668 368.4L1663.7 368L1655.3 368.7L1647.2 370.7L1639.5 373.8L1632.3 378L1629 380.5L1618.9 389.6L1616.4 386.7L1612.8 380.7L1608 375L1602.3 370.6L1599.1 368.8L1592.3 366.4L1588.7 365.7L1584.9 365.5L1581.3 365.6L1576.2 366.7L1571.6 368.1L1568.7 369.4L1563.5 372.7L1558.8 377.2L1554.6 383.1L1548 397.1L1547.2 398.2L1546 398.9L1536.7 396.5L1532 395.8L1523 396.3L1518.6 397L1514.1 398L1505.7 401.1L1501.8 403.2L1498.1 405.8L1494.6 408.8L1491.5 412.1L1488.9 415.6L1486.6 419.3L1484.8 423.2L1483.4 427.2L1482.4 431.4L1481.8 435.7L1481.4 448.1L1465.4 446.9L1460 447.1ZM1538.3 644.3L1532.4 668.2L1531.6 674.6L1531.8 676.7L1532.4 678.6L1533.4 680.5L1534.8 682.2L1538.6 685L1542 686.5L1545.5 687.6L1552.5 689L1561.4 689.8H1565.9L1570.4 689.4L1579.3 687.8L1587.9 684.9L1593.9 681.8L1599.2 677.7L1604.8 657.6L1592.9 656.9L1581.8 655.8L1567.3 653.3L1553.1 649.5L1538.3 644.3ZM1526.8 278.4L1504.6 333L1461.4 442.6L1469.1 442.5L1476.8 443.2L1476.6 438.4L1476.9 433.7L1477.6 429.1L1478.7 424.6L1480.3 420.2L1482.3 416L1484.8 412L1487.8 408.1L1490.9 404.8L1494.5 401.8L1498.3 399.2L1506.6 395.1L1511 393.5L1520.1 391.5L1529.6 390.8L1534.4 391.1L1544 392.9L1546.8 386.9L1550.2 381L1555.6 373.6L1558.7 370.3L1562.1 367.4L1565.8 365L1569.9 363L1576.8 361.1L1584.1 360.5L1591.3 361.1L1598.3 362.9L1601.7 364.2L1605.5 366.3L1609 368.8L1615 374.9L1620.3 381.8L1623.6 378.3L1627.3 375.1L1631.2 372.3L1635.5 369.9L1639.9 367.8L1644.5 366.1L1649.2 364.7L1658.7 363.2L1663.6 363L1668.3 363.2L1673 364L1677.6 365.4L1683.2 368.3L1686.9 371.2L1690.7 375.6L1693.5 380.5L1694.9 384.6L1695.9 390.2L1696.1 397.3L1703.7 397L1711.3 397.4L1716.3 398.1L1721.1 399.2L1725.9 400.7L1730.4 402.7L1734.7 405.3L1738.9 408.6L1742.3 412L1745.2 415.7L1747.6 419.9L1749.1 423.2L1751.1 430.1L1751.5 433.7V437.4L1750.4 444.7L1748.9 449.9L1746.8 455.2L1757.5 458.5L1768 462.9L1772 465.9L1775.6 469.2L1778.7 472.8L1780.8 475.7L1782.4 478.9L1783.8 482.4L1784.7 486.1L1785.2 490.7V495.2L1784.5 499.6L1783.5 503.9L1780.1 512.2L1776.9 518.2L1771.8 525.6L1783.3 531.2L1828.1 426L1849.8 377.8L1858.1 358.7L1860.5 352.3L1824.3 345.3L1788.3 337.8L1752.3 329.9L1702 318.2L1604.9 296.5L1558.4 285.7L1536.8 281.4L1526.8 278.4Z" fill="#020202"/>
<path d="M1591.7 556.5L1595.3 556.6L1596.7 557.2L1599.1 559.1L1600.8 562L1601.5 566V569.3L1600.4 575.8L1597.7 584.3L1595.1 590.2L1590.8 597.7L1588.2 601.2L1585.3 604.3L1582.1 607L1578.7 609.1L1575.6 609.4L1574.1 609.1L1572.6 608.4L1571.4 607.4L1570.5 606.1L1569.4 602.1L1569.2 599.7L1569.4 596L1570.8 588.3L1574 578.4L1575.9 574L1578.1 569.7L1580.8 565.6L1583.9 562L1586.2 559.8L1588.8 558L1591.7 556.5Z" fill="#020202"/>
<path d="M1543.5 504L1542.5 500V498L1543.1 496L1544 494.3L1546.7 491.7L1550.5 490.1L1552.8 489.9L1555 490.1L1557.1 490.7L1559.9 492.6L1561.7 495.4L1562 497.7L1561.8 499.8L1560.2 504L1556.5 507L1554.3 508L1551.8 508.4L1550.1 508.3L1546.8 507.1L1545.4 506.1L1543.5 504Z" fill="#020202"/>
<path d="M1543.5 504H1560.2L1556.5 507L1554.3 508L1551.8 508.4L1548.4 507.9L1546.8 507.1L1545.4 506.1L1543.5 504Z" fill="#020202"/>
<path d="M1661.5 513L1664.1 512.9L1666.7 513.2L1668.3 513.7L1670.9 515.6L1672.6 518.4L1672.9 521.8L1671.9 525.3L1670 527.9L1665.7 530.8L1661.9 530.9L1659 530.1L1656.2 528L1654.5 524.9L1654.3 521.5L1655.4 518.1L1657.3 515.7L1661.5 513Z" fill="#020202"/>
<path d="M1669.3 482.9L1674.3 483.7L1677.5 485.1L1683.4 488.9L1688.7 493.8L1693.1 499.5L1696.4 505.6L1698.2 511.1L1698.3 514.9L1697.8 516.8L1695.7 516.9L1694.6 516.3L1693.7 515.4L1692.2 512.6L1688.8 503.8L1687.4 500.9L1685.6 498.1L1683.1 495.6L1680.2 493.5L1671.6 488.4L1669.8 486.8L1669.1 484.9L1669.3 482.9Z" fill="#020202"/>
<path d="M1606 510.6H1609.8L1611 511.1L1612.9 512.9L1614.3 516.5L1614.7 519.5L1614.3 525.7L1612.9 531.1L1611.2 533.7L1610.3 534.2L1609.4 533.3L1608.9 531.7V527.8L1609.8 520.6L1609.5 517.7L1608.8 514.9L1606.2 515.9L1605 517L1603.5 518.9L1599.3 526.1L1597.9 528.3L1596.3 529.7H1595.1L1594 529L1593.6 527.4L1593.9 525.8L1594.9 522.9L1596.6 519.9L1598.7 517.1L1603.6 512.2L1606 510.6Z" fill="#020202"/>
<path d="M1491.3 503.5L1494.9 504L1496.6 504.7L1498 505.7L1499.2 507.6L1499.5 509.7L1498.6 510.7L1497.2 511.1L1495.1 510.3L1492.7 508.2L1491 508.5L1488.2 510.5L1485.7 513.7L1484.1 517.5L1483.7 519.2V520.4L1484.3 522.3L1485 523.3L1486.2 523.8L1489.9 524.2L1491 524.6L1491.5 525.6L1491.3 526.8L1490.1 528L1488.6 528.8L1485.8 529.2L1484.4 529L1481.7 527.5L1480.5 526.3L1479 523.3L1478.7 519.3L1480.1 514.2L1481.5 511.5L1483.4 508.7L1485.6 506.4L1487.3 505.2L1491.3 503.5Z" fill="#020202"/>
<path d="M1561.5 462.1L1567.1 461.6L1572.5 461.7L1574.3 462L1576.5 463.2L1576.9 464V464.9L1575.6 465.7L1571.7 466.5L1560.9 467.2L1557.1 468.2L1553.5 469.7L1548.4 472.8L1546.6 473.5L1544.2 474L1541.9 473.6L1542 472.3L1544 469.5L1545.7 468L1551.1 465L1554.7 463.7L1561.5 462.1Z" fill="#020202"/>
<path d="M1712.8 562.8L1715.7 563.2L1716.8 563.8L1718.7 565.7L1719.9 568.4L1720.1 572.1L1718.9 577.3L1717.8 579.5L1715.2 583L1711.7 585.6L1709.5 586.6L1707.2 586.5L1705.3 585.6L1705.4 584.4L1706.2 583.2L1713.4 577.1L1714.2 576L1714.9 574L1715 572.4L1714.7 570.8L1712.9 566.4L1712.6 564.8L1712.8 562.8Z" fill="#020202"/>
<path d="M1927.7 371.6L1929 372.4L1929.8 373.5L1923.7 390.5L1900.4 448.5L1884.2 487.9L1874.3 511.1L1873 510.6L1872 509.7L1872.4 506.5L1873.3 503.5L1881.7 482.3L1907.8 418.9L1923.7 378.7L1927.7 371.6Z" fill="white"/>
<path d="M1772.5 762.2L1773.7 762.9L1774.6 764.1L1774.4 767L1773.7 769.8L1755.6 816.7L1736.9 863.3L1730.6 880.1L1725.1 892.9L1723.5 895.8L1722.4 895.5L1721.4 894.8L1721.6 891.5L1722.6 888.3L1730.9 866.6L1757.2 802L1769.4 769.2L1772.5 762.2Z" fill="white"/>
<path d="M1851 551.3L1853.2 552.9L1851.9 557.1L1844.4 577.2L1833.4 604.4L1832.1 603.8L1831.2 602.7L1833.3 594.1L1837.2 583L1842.1 571.1L1851 551.3Z" fill="white"/>
<path d="M1894.6 190.1H1899.1L1901.3 190.5L1903.5 191.4L1905.1 192.6L1906.3 194.1L1907.1 196L1907.5 198.4L1907.1 200.9L1905.2 205.5L1903 208.7L1900.4 211.6L1897.3 214.3L1890.4 219L1886.6 221L1880.7 223.7L1874.7 225.9L1863.4 229.2L1855.9 230.8L1853.6 230.9L1852.1 230.4L1851.2 229.2V227.2L1851.7 225.3L1853.8 221.8L1857.4 216.9L1861.6 211.7L1866.3 206.8L1875.1 199.3L1882.6 194.5L1886.6 192.6L1890.6 191.1L1894.6 190.1Z" fill="#020202"/>
<path d="M1301.1 210L1305.5 210.2L1308.5 210.8L1311.5 211.8L1315.8 213.9L1319.9 216.5L1323.7 219.5L1331.1 226.8L1338.5 236L1342.8 242.8L1344.3 246L1345.3 249.1L1345.6 251.6L1345.4 252.9L1344.1 255L1343 255.6L1339.4 255.7L1338 255.3L1330.6 252.7L1326.4 250.8L1320.4 247.4L1314.4 243.4L1308.6 239L1303.6 234.3L1298 227.7L1296 224.5L1294.5 220.4L1294.3 218.3L1294.7 216.2L1295.8 214L1297.2 212.4L1301.1 210Z" fill="#020202"/>
<path d="M1190.5 480.4L1198.1 480.8L1213.4 482.9L1279.9 490.7L1341.8 497.3L1344.5 497.7L1345.5 498.2L1346.6 499.2L1346.4 501L1345.7 502.5L1327.5 500.9L1309.3 499L1216.7 488.2L1194.7 486.2L1191.3 485.3L1189.7 484L1189.8 482.1L1190.5 480.4Z" fill="#020202"/>
<path d="M1349.7 134.8L1352.5 135.1L1355.3 139.2L1367.3 161.3L1400.3 224.7L1413.9 247.6L1420.4 256.5L1421.2 258.2L1421.3 260L1420.5 261.7L1417.8 261.5L1416.8 260.9L1415 258.9L1411 253.3L1400.6 236.1L1391.4 219.9L1350.8 141.6L1349.3 137.6L1349.7 134.8Z" fill="#020202"/>
<path d="M1293.8 271.2L1295.5 271.6L1298.1 272.9L1302.5 275.6L1313.2 283.5L1326.3 294L1340.3 306L1354 318.3L1365.9 329.7L1374.5 338.9L1377.4 342.6L1378.6 344.7V346.7L1377.9 348.6H1376L1374.5 347.9L1364.8 337L1355.7 327.7L1336.6 310.1L1308.4 286.3L1300.2 280.9L1295 276.7L1293.2 274.4V272.8L1293.8 271.2Z" fill="#020202"/>
<path d="M1820 135L1822 136.1L1822.6 137.9L1821.6 140L1819.6 142.9L1804.3 160.5L1781.4 190.5L1766.1 212.3L1760.7 219.5L1757 223.6L1754.7 222L1754.5 219.8L1757.5 214.3L1764.4 204.3L1773.9 191.2L1796.3 162.1L1806.7 149.3L1815 139.8L1820 135Z" fill="#020202"/>
<path d="M1234.6 358.7L1241.8 362.3L1256.9 371.5L1312.4 404.1L1324.6 410.5L1327.2 412.7L1327 414.5L1326.3 416.3L1323.8 415.8L1319.9 414.3L1316.1 412.3L1288.6 396.5L1244.1 370.2L1236.3 365.1L1234 363.1L1233.4 362.2L1233.5 361.2L1234.6 358.7Z" fill="#020202"/>
<path d="M1696.6 112.2L1699.2 112.9L1700.1 114.4L1698.3 119.9L1694.5 128.2L1682.5 152.3L1674.4 170.8L1671.4 176.7L1668.4 176.1L1668 175L1668.1 173.4L1669 170L1670.5 166.1L1677.5 149.8L1683.3 137.7L1689 126.4L1696.6 112.2Z" fill="#020202"/>
<path d="M1828.7 215.6H1832.4L1834.9 216.6L1835.7 217.5L1836.1 218.5L1836.2 219.6L1835.8 221.8L1834.5 225L1832.7 227.8L1830.5 230.2L1825.3 234.1L1822.3 235.7L1819 236.3L1817.6 236.1L1816.6 235.5L1815.8 234.3L1815.4 232.4L1815.7 230.3L1817.2 226.5L1820.1 221.8L1823.8 218.2L1828.7 215.6Z" fill="#020202"/>
<path d="M1582.7 113.7L1585.2 114.6L1586 115.6L1586.5 121.9L1585.3 150.2L1585.2 163.8L1584.8 168.2L1584.2 169.7L1583.1 171.1L1581.3 170.4L1580.6 169.7L1580.1 167L1579.9 163.5L1580.2 143.3L1581 122.7L1581.4 117L1581.8 115.2L1582.7 113.7Z" fill="#020202"/>
<path d="M1468.4 129.2L1470.1 130L1471.2 132.2L1477.2 157.2L1479.3 167.7L1481.1 179.9L1481.2 181.7L1480.2 184.3L1477.5 183.4L1476.1 179.2L1474.1 171.2L1470 150.8L1467.1 134.7L1467 132.8L1467.3 131.1L1468.4 129.2Z" fill="#020202"/>
<path d="M787.8 1252.7L792.6 1252.2L803.7 1252.5L815.2 1253.8L830.9 1256.8L842.8 1260L854.4 1264.1L865.6 1269.2L871 1272L881.5 1278.4L891.5 1285.6L900.8 1293.6L905.2 1297.9L913.5 1307L917.4 1311.9L928 1327.7L929.3 1321.9L932.2 1312.5L935.7 1305.5L938.4 1301.7L941.9 1297.9L945.7 1294.5L950 1291.5L953 1289.8L958.9 1287.8L961.3 1287.5L963.5 1288.1L963.6 1289.1L961.9 1291L959.8 1292.6L950.4 1297.6L946.8 1300.5L943.6 1303.8L940.9 1307.5L936.6 1315.5L934.9 1319.8L932.9 1326.5L931.6 1333.2L944.7 1359.7L950.8 1373L960.2 1395.1L963.1 1403.7L963.4 1405.8L962.7 1407.8L961.7 1407.9L960.7 1407L958.6 1403.7L940.8 1363L935.9 1352.9L925.2 1333.4L917.6 1321.3L913.4 1315.4L904.3 1304.5L899.2 1299.4L888.3 1290L876.3 1281.6L867.9 1276.7L859.2 1272.3L850.2 1268.5L841 1265.2L831.6 1262.5L822.1 1260.5L807.6 1258.6L793.2 1258.2L777.8 1259.3L770.1 1260.5L762.6 1262L755.1 1263.9L747.8 1266.3L740.7 1269.1L733.8 1272.5L727.2 1276.3L717.9 1283L709.3 1291L705.5 1295.3L701.9 1300L698.5 1305.1L692.8 1315.9L688.4 1327.5L685.4 1339.3L684.6 1345.3L684.2 1351.2V1357.1L685 1362L691.1 1375.3L723.3 1458.6L744 1510.5L763.1 1555L782.8 1599.2L803.2 1643.1L824.3 1686.7L834.7 1707.5L845.4 1728.2L856.5 1748.6L866.9 1766.7L872.4 1775.6L878.4 1784.1L886.3 1793.7L895 1801.8L899.7 1805.4L904.7 1808.6L910.1 1811.6L915.9 1814.2L924.3 1817.1L927.8 1819.1V1819.9L925.6 1820.7L923.8 1820.6L919.9 1819.6L911.2 1816.6L906 1814.2L901.1 1811.6L896.5 1808.6L890.7 1804.2L885.2 1799.3L880.1 1793.9L875.3 1788.3L866.4 1776.1L860.4 1766.5L854.8 1756.6L835.3 1720.4L814.5 1678.7L782.4 1684.1L693.8 1701.3L581 1724.7L524.9 1737.1L490.8 1743.8L479.6 1746.3L477.5 1748.5L474.8 1750.5L472 1751.9L469.1 1752.9L462.9 1753.6L459.6 1753.4L455.7 1755.3L452 1756.7L448.5 1757.4L444.9 1757.7L441 1757.5L436.8 1756.7L435.1 1759L431.5 1762.3L427.4 1764.5L425.1 1765.2L422.7 1765.5H419.6L416.8 1765L414.3 1764L410.8 1761.9L407.3 1759.1L401 1761.2L394.5 1762.8L381.2 1765L368 1766.6L399.7 1854.8L410.2 1881.9L413.4 1891L414 1893.2L414.2 1895.5H413.5L411.9 1893.7L408.9 1889.2L401 1871.2L384.4 1826.3L368.1 1781.4L352.4 1736.2L335 1682.4L310 1601.4L286.7 1528.5L279.2 1505.5L271.3 1482.7L259.6 1452.3L250.6 1432.6L245.6 1422.9L240.6 1414.2L234.9 1405.3L226.4 1393.9L221.7 1388.6L216.7 1383.5L211.4 1378.9L205.9 1374.8L201.5 1372L196.9 1369.6L192.2 1367.5L187.4 1365.9L182.2 1364.7L177 1364.1H171.7L166.3 1364.5L161.1 1365.4L155.9 1366.7L145.9 1370.5L141.2 1372.8L134.7 1376.8L128.5 1381.2L122.7 1386.1L117.3 1391.3L112.2 1397L107.5 1402.9L103.2 1409.1L99.1999 1415.7L95.6999 1422.5L92.5999 1429.4L89.9 1436.4L87.5999 1443.7L85.3 1452.8L83.5 1461.9L82.1999 1471L81.3 1480.1L80.8 1489.3V1498.5L81.1999 1507.7L81.9 1517.1L83.4 1529.2L85.3 1541.4L87.5999 1553.4L93.0999 1577.4L101.6 1607.2L107.1 1624.8L128.7 1689L139.4 1717.9L150.6 1746.7L164.8 1780.7L172.4 1797.6L180.6 1814.2L186.3 1825.1L198.6 1846.4L207 1859.1L211.5 1865.1L216.4 1870.8L221.6 1876.3L232 1885.2L236.9 1888.8L245.4 1893.7L247.3 1895.2L248.5 1896.7L247.9 1897.4L245.1 1897.2L238.7 1895L235 1893.2L227.5 1888.2L222.8 1884.3L218.2 1879.9L213.6 1875L207.1 1867.2L200.9 1858.9L190.2 1842.2L181.8 1826.9L173.6 1828.6L165.8 1829.8L158.2 1830.4L150.7 1830.6L143.2 1830.1L135.7 1829L124.6 1826.2L113 1821.7L102.5 1816.1L93 1809.2L88.6999 1805.3L80.8 1796.8L77.3 1792.1L71.3 1782.2L66.4 1771.3L64.4 1764.8L63 1758.2L62.2 1751.6L62 1744.9L62.4 1738.2L63.2999 1731.6L64.8 1725.1L66.9 1718.7L69.4 1712.4L72 1707.3L74.9 1702.7L78.0999 1698.3L81.5 1694.4L86.5 1689.4L92 1685L97.8 1681L104 1677.5L110.6 1674.4L117.4 1671.6L110.1 1650.3L94.5 1600.9L89.6999 1583.9L85.4 1566.9L81.6999 1549.9L79.5999 1538.5L76.8 1516L75.9 1497.5L76 1478.9L63.5 1464.7L61.2 1461.2L61.5 1459.9L62.4 1459L64.0999 1459.4L66.0999 1460.5L70 1463.8L76.5999 1471L80.0999 1453.5L82.1999 1444.8L84.6999 1436.2L87.1999 1429.2L90.1999 1422.3L93.5999 1415.4L97.5 1408.8L101.7 1402.4L106.3 1396.2L111.2 1390.3L116.4 1384.9L121.9 1379.8L127.2 1375.5L132.8 1371.6L138.7 1368.1L144.8 1365.1L151.2 1362.6L157.7 1360.7L162.6 1359.6L167.7 1359L172.8 1358.8L178 1359L183.7 1359.8L189.1 1361L194.2 1362.8L199.1 1365L203.8 1367.5L212.7 1373.7L220.9 1380.9L232.1 1393L236.1 1381.5L241.3 1371L247.8 1361.2L255.7 1352L261.3 1346.6L267.4 1341.7L273.8 1337.1L280.5 1333L287.5 1329.3L294.7 1326L302.1 1323.2L309.7 1320.9L317.4 1319L325.2 1317.6L332.9 1316.8L340.6 1316.5L348.5 1316.6L355.6 1317.2L362.1 1318.1L368.5 1319.5L374.5 1321.4L380.2 1323.6L385.7 1326.3L391.2 1329.5L396.6 1333.2L407.2 1342L412.8 1347.3L415.2 1337.9L418.3 1330.5L423.3 1322.2L426.4 1318.3L430.8 1313.5L435.6 1308.9L440.9 1304.7L446.4 1300.7L457.9 1293.7L466.8 1289.2L475.4 1285.3L485.4 1281.3L495.9 1277.8L506.8 1274.7L523.4 1271.3L531.9 1270.1L549 1268.8H557.4L565.9 1269.2L574.2 1270L582.5 1271.4L590.6 1273.2L598.5 1275.5L606.2 1278.2L612.6 1281.1L624.6 1287.6L630.2 1291.3L637.3 1296.7L644.1 1302.6L650.5 1309L656.5 1315.7L662.2 1322.8L670.9 1335.4L677 1345.9L679.6 1351.4L679.8 1344.4L680.7 1337.4L682.1 1330.2L684.2 1323.1L686.7 1316.3L689.7 1309.6L693.2 1303.2L697.1 1297.2L701.3 1291.7L705.5 1287L709.9 1282.6L714.5 1278.7L719.3 1275.1L726.1 1270.7L733.1 1266.9L740.5 1263.6L748 1260.8L755.7 1258.4L763.6 1256.4L779.7 1253.6L787.8 1252.7ZM416 1351.3L420.3 1357.5L427.8 1370L433.9 1382.9L436.6 1389.5L440.1 1399.7L445.6 1419.4L445.9 1423.7L445.6 1424.9L444.9 1425.2L442.7 1421.7L440.3 1415.7L434.5 1397.5L431.2 1388.8L427.5 1380.5L423.4 1372.6L418.9 1364.9L413.9 1357.8L408.6 1351.1L404.2 1346.5L399.6 1342.2L394.8 1338.2L389.7 1334.6L384.3 1331.4L378.7 1328.6L372.8 1326.3L366.5 1324.3L360.2 1322.9L353.5 1322L346.4 1321.5L338.9 1321.7L331 1322.3L323.3 1323.4L315.6 1325L308.1 1327L300.6 1329.5L293.4 1332.4L286.5 1335.8L279.7 1339.7L273.2 1344L267 1348.7L261.2 1353.9L255.7 1359.7L252.5 1363.5L247.2 1371.2L243.8 1377.2L234.5 1396L240.2 1404.2L245.5 1412.5L250.4 1421.1L259.3 1438.7L268.8 1461.5L281 1494.3L318.5 1484L356.1 1474.3L393.9 1465L431.7 1456.3L469.7 1448.1L507.8 1440.4L546 1433.1L613 1421.7L641.8 1417.5L670.7 1413.9L699.7 1410.7L687.8 1381.1L683.5 1371.2L674 1351.9L668.7 1342.6L663.1 1333.6L657 1325L652.1 1318.8L646.8 1312.9L641.3 1307.4L635.4 1302.1L629.2 1297.2L622.6 1292.8L615.6 1288.7L608 1285L601.4 1282.4L594.6 1280L587.5 1278L580.3 1276.4L573.1 1275.2L565.7 1274.4L558.4 1274.1L551.1 1274.2L544 1274.7L527.8 1276.6L511 1279.7L494.1 1284.2L485.8 1286.9L477.6 1290.1L469.7 1293.6L461.9 1297.5L454.6 1301.8L447.5 1306.5L442.5 1310.4L433.4 1318.8L429.2 1323.4L426 1327.5L423.3 1331.9L420.9 1336.5L418.8 1341.3L417.2 1346.3L416 1351.3ZM282.6 1499.3L291.1 1525.3L296.6 1523.6L341.6 1513.1L386.7 1503.1L476.2 1484.5L520.6 1476.1L648.1 1455.2L693 1447.3L712.5 1443.6L701.8 1416L696.4 1416.2L654.7 1421.3L613.1 1427.2L571.7 1433.7L530.3 1441L489.1 1449L448 1457.7L407.1 1467.1L338.6 1484.2L296.6 1495L282.6 1499.3ZM122 1807L133.6 1809.1L138.9 1809.6L146.9 1809.9L154.9 1809.5L171.8 1807.3L158.4 1778.7L143.1 1742L134.6 1719.9L121.7 1683.1L118.9 1676.1L105.5 1682.6L95.0999 1689.1L87.0999 1695.8L83.5 1699.6L80.1999 1703.5L77.1999 1708L74.5 1712.8L72.0999 1718.2L70.1999 1723.5L68.6999 1729L67.5999 1734.8L66.9 1740.6L66.8 1746.4L67.0999 1752.3L67.9 1758.1L69.3 1763.6L71.3 1768.9L73.4 1773L75.9 1777L78.9 1780.7L85.5999 1787.6L89.3 1790.7L95.3 1795L101.6 1798.7L108 1802L114.3 1804.6L122 1807ZM380.3 1733.5L369.7 1736.9L359 1739.4L366.7 1762.3L370.9 1761.3L392 1758.1L390.2 1755.3L389.1 1752.8L388.4 1750.2L388.2 1744.7L389.2 1738.3L383.2 1734.4L380.3 1733.5ZM798.3 1646.6L691.6 1672.3L664.8 1678.4L585.4 1694.6L495.5 1711.7L483.4 1714.4L485 1724L485.1 1728.4L483.9 1735.6L481.5 1742L491.6 1739.4L548.5 1726.5L605.5 1714.1L662.6 1702.1L719.8 1690.7L794.4 1676.6L812.1 1673.8L802.6 1653.3L799.1 1646.7L798.3 1646.6Z" fill="#000101"/>
<path d="M470.6 1511L477.5 1515.4L490.9 1525.6L498.7 1530.6L506.8 1535.1L515 1539.4L527.6 1545.1L540.5 1550.3L535.1 1553.2L531.9 1556.2L530.4 1558.7L530.1 1560L530.6 1562.1L532.4 1563.8L533.7 1564.3H536L539.3 1563.5L554.1 1558.7L557.7 1557.9L560.5 1557.7L564.9 1558.3L578.4 1561.4L587.3 1563L605.7 1565.5L614.8 1566.1L620.5 1559.5L623.8 1556.6L627.3 1553.9L631.1 1551.8L635 1550L638 1549.1L643.8 1548.6L646.7 1548.9L649.6 1549.6L652.5 1550.8L657.7 1554.2L660 1556.3L663.1 1559.9L665.8 1563.9L667.9 1568.2L670.2 1574.4L671.6 1582.2L671.5 1590.2L669.7 1597.9L667.5 1603.5L665.1 1607.6L662.5 1611.1L659.6 1614.2L653 1619.6L649.4 1621.8L643.7 1624.6L637.7 1627.1L625.2 1631.4L622.5 1649.3L620.1 1660.7L614.3 1683.1L565.6 1693.4L516.7 1703.2L512.7 1701.4L506.4 1697.7L500.6 1693.6L495.3 1689.1L490.3 1684.2L485.7 1679L481.5 1673.5L477.7 1667.7L474.2 1661.5L470 1653.1L466.5 1644.4L463.4 1635.5L460.6 1625.4L458.3 1615L456.5 1604.4L455.3 1593.7L454.8 1583.1L454.9 1572.3L455.4 1564.3L456.2 1556.4L457.6 1548.5L459.3 1540.7L461.4 1533.1L464 1525.5L467.1 1518.2L470.6 1511Z" fill="#FEFEFE"/>
<path d="M486.4 1584.5L490.1 1584.8L492.3 1585.7L496 1588.9L499.7 1594L501.4 1597.2L503.5 1602.2L505.1 1607.4L505.7 1610.9L506.1 1617.2L505.7 1620L505 1622.3L503.8 1624.4L501.9 1626.4L499.2 1626.6L497.3 1626.2L495.8 1625.4L493.1 1623L490.8 1620.1L488.7 1616.6L485.2 1608.7L483.1 1600.4L482.6 1596.3V1592.7L482.9 1590.1L483.6 1588.1L484.7 1586.3L486.4 1584.5Z" fill="#000101"/>
<path d="M546.5 1569.5L550.8 1569.7L553.7 1571.2L557.1 1575.1L559.1 1578.4L560.8 1582.1L563.3 1590.1L564.5 1598L564.2 1604.1L563.6 1606.4L562.4 1608.5L560.7 1610.6H558.7L555.5 1609.7L553.9 1608.6L551.6 1606.3L549.4 1603.5L546 1596.7L544.7 1593.1L543 1585.9L542.6 1579L543.2 1575.7L543.9 1573.6L546.5 1569.5Z" fill="#000101"/>
<path d="M510.8 1585.1L512.8 1585.7L514.5 1589.6L516.2 1596.2L520.3 1616L522.5 1624.5L525.2 1632.8L526.2 1634.9L528.5 1638.2L531 1639.8L533.5 1640L535.9 1639.2L538.7 1637.6L540.4 1636L541.6 1634.3L542.3 1632.5L543.7 1626.2L544.5 1623.7L545.3 1622.4L546.6 1621.6L548.1 1623.2L548.7 1627L547.8 1630.8L545.2 1636.7L541.9 1640.7L539.9 1642.3L537.7 1643.6L535.2 1644.5L532.6 1644.7L530.3 1644.3L528.3 1643.4L524.7 1640.5L523.3 1638.4L520 1630.5L515.2 1614L511.7 1596.9L510.8 1588V1585.1Z" fill="#000101"/>
<path d="M481.6 1563.6L484.6 1563.5L487.5 1563.9L490.5 1565.4L491.8 1566.6L492.6 1567.9L493 1569.6L492.5 1571.2L491.3 1572.8L489.3 1574.3L486.9 1575.5L484.2 1576.5L474.1 1579.4L469.6 1579.9L467.4 1579.8L465.3 1579.2L463.9 1578.3L463.2 1576.8L463.6 1575.1L465.8 1571.6L469.1 1568.5L472 1566.8L475.1 1565.4L481.6 1563.6Z" fill="#000101"/>
<path d="M650.4 1562.4L651.5 1562.7L652.5 1563.5L652.4 1565.2L650.6 1567.1L645.9 1570.6L643.3 1573.2L639.1 1578.7L636.6 1583.2L634.5 1587.9L631 1597.9L630.1 1597.8L629.3 1597.3L629.1 1594.3L629.7 1591.1L632.6 1582.8L635 1577.8L636.9 1574.6L641.4 1569L644 1566.5L647 1564.3L650.4 1562.4Z" fill="#000101"/>
<path d="M433.1 1690.7L443.5 1691L448.9 1691.7L454.1 1692.9L459.1 1694.6L463.8 1696.8L469.4 1700.9L473.9 1706L476.4 1709.8L478.3 1714L479.8 1718.3L480.6 1722.2L481 1726.2L480.9 1730.2L480.2 1734.2L479.1 1738L477.3 1741.6L475.5 1744.1L473.5 1746.1L471.3 1747.6L467.6 1749.3L463.3 1750.5L465.4 1745.7L466.8 1740.9L467.7 1736.2L468.1 1731.3L467.9 1726.3L467.1 1721.1L464.5 1712.6L461.4 1705.9L459.7 1703.1L458.4 1701.4L455.9 1699.5L454.5 1699.1L453 1699.5L452.8 1700.6L453.2 1701.7L458.1 1709.5L460.8 1716.1L462 1720.1L463.4 1728.4L463.5 1732.6L462.8 1738.6L460.8 1744.4L459.2 1747L457.2 1749.3L455.4 1750.6L451.6 1752.4L448.5 1753.1L445.3 1753.4L438.8 1753.3L441.8 1743.6L442.6 1738.9L443 1734.2V1729.3L442 1721L440.3 1713.6L439 1709.8L435.7 1702.9L434.3 1700.8L431.3 1697.9L429.6 1696.9L427.8 1696.7L427.5 1697.6L428.3 1699.8L431.9 1705.9L433.8 1710.2L436.6 1718.5L438.1 1727L438.2 1735.8L437.8 1740.1L436.9 1744.4L435.7 1748.4L434 1752.2L432.3 1755L430.3 1757.4L428.7 1758.8L424.8 1760.6L422 1761.1L419.4 1761L416.9 1760.4L414.4 1759.5L409.6 1757L412.2 1753.5L414.4 1750L416.1 1746.3L418.7 1738.6L420.2 1729.6L420.6 1724.1L420.3 1718.7L419.7 1716.3L418.7 1714.4L417.4 1713.8H415.9L415.2 1714.7L414.9 1717.4L415.1 1729.5L414 1736.7L412 1743.7L409.7 1748.7L408.1 1751.1L406.3 1753.3L404.2 1755.2L401.8 1756.5L400.3 1756.9L398.7 1756.8L397.2 1756.3L395.3 1755L394 1753.5L393.2 1751.7L392.7 1749.7V1744.9L395.8 1727.5L395.5 1724L394.7 1723.8L392.3 1726.5L390.9 1729.8L389.8 1733.3L380.9 1729L382.4 1723.8L384.4 1719.1L386 1716.1L390.2 1710.4L394.3 1706.2L398.4 1702.6L402.7 1699.6L407.2 1697.1L412 1695L416.9 1693.4L422 1692.1L433.1 1690.7Z" fill="#FEFEFE"/>
<path d="M452.5 1613.1L453.8 1616L457.2 1632L452.9 1630.8L449.8 1630.4L448.4 1630.5L446.6 1631.7L445.8 1633.7L447.8 1635L458.1 1637.4L461.3 1644.5L467.1 1659.2L473.7 1670.8L474.6 1672.7L473.7 1673.2L471 1673.6L467.2 1673.3L463.4 1672.5L456.3 1669.7L453 1667.8L447.1 1663.1L443.3 1658.9L440.2 1654.1L437.8 1648.9L436.2 1643.1L435.6 1639L435.5 1634.8L436 1630.6L437.5 1625.3L438.7 1622.7L440.5 1620.1L442.4 1618L446.9 1615.1L452.5 1613.1Z" fill="#FEFEFE"/>
<path d="M450.1 1496.4L452.9 1496.8L453.4 1497.6L439.2 1520.7L434.2 1529.7L424.8 1549.1L416.6 1569.3L413.1 1579.7L410.1 1590.1L407.6 1600.5L405.6 1611L404.2 1621.3L403.5 1631.3L403.4 1636.9L403.9 1642.1L404.8 1647.1L406.1 1651.8L407.8 1656.2L410.1 1660.5L412.9 1664.4L416.2 1668.1L420.1 1671.6L424.7 1674.9L433.3 1679.7L434.7 1681.2L434.6 1682.6L433.2 1683.1L430.9 1682.5L428.4 1681.5L423.4 1678.7L415.5 1673.2L409.4 1667.4L407 1664.3L404.9 1660.9L403.2 1657.3L401.7 1653.2L400.7 1648.9L399.8 1643.1L399.5 1637.4V1631.5L400.2 1622.8L403 1603.4L405.3 1592.8L408 1582.4L411.2 1572.3L414.8 1562.3L418.8 1552.5L423.1 1542.8L427.9 1533.3L434.8 1520.8L442.2 1508.5L450.1 1496.4Z" fill="#FEFEFE"/>
<path d="M646.3 1627.6L647 1627.9L647.5 1628.6L647.8 1630L649.1 1642.9L649.8 1647.4L650.7 1650.8L653.4 1657.1L656.1 1661.7L662.4 1671L663.3 1672.8L662.6 1673.9L659.4 1672.6L656.3 1669.7L654.4 1667.3L650.2 1660.3L648.2 1655.6L645.4 1645.9L644.3 1636.7L644.4 1631.9L644.7 1630.4L646.3 1627.6Z" fill="#FEFEFE"/>
<path d="M179.4 1496.8L180.9 1500.9L183.1 1508.5L191.3 1542L209.6 1608.5L264 1797.9L272.5 1825L276.7 1837.2L290 1873.3L288.5 1872.5L285.6 1867.7L279.6 1853.4L275 1840.9L264.8 1810.7L253.2 1773.8L240.7 1732.3L215.5 1644.5L204 1602.4L194.1 1564.4L183.2 1519.3L181.2 1509.4L179.7 1500.9L179.4 1496.8Z" fill="#000101"/>
<path d="M795.3 1404.3L798.1 1407L805.3 1418.3L824.2 1450.9L837.1 1474.2L849.7 1497.6L862 1521.3L881.2 1561.2L921.7 1649.9L932.4 1674.3L942.7 1698.8L941 1697.2L939.7 1695.2L929 1674.1L909.3 1630.8L885 1579.1L860.2 1527.6L824 1458.2L804.2 1422.5L795.3 1404.3Z" fill="#000101"/>
<path d="M1969.7 1305.5L1971.1 1305.8L1972.3 1306.6L1973.1 1307.8L1975 1312.6L1989.1 1358.9L1992.5 1373.1L1992.8 1375L1992.5 1376.8L1990.7 1378L1988.7 1378.8L1982.3 1380.8L1962.6 1385.9L1913.5 1400.1L1864.2 1413.6L1861.2 1413.8L1858.9 1412.9L1856 1410.5L1847.8 1383.7L1843.1 1369.6L1840.7 1359.9L1840.2 1355.1L1842.9 1350.3L1847.7 1340.1L1858 1336.4L1868.6 1333.1L1926.2 1318.2L1969.7 1305.5ZM1870.3 1401L1867.4 1405.6L1866.7 1407.4L1867.1 1407.8L1959.4 1381.6L1978.1 1376.9L1982.7 1375.5L1986.6 1373.8L1987.1 1372.2L1986.9 1370.5L1986.1 1369.3L1985.3 1369.1L1972.4 1372.4L1870.3 1401ZM1844.9 1357.4L1846.6 1364.2L1853.1 1384.4L1857.4 1400.4L1858.8 1404.3L1860.4 1407.7L1864.5 1399.5L1863 1396.6L1860.3 1389.4L1855.5 1370.4L1849.1 1348.8L1844.9 1357.4Z" fill="#0F0D10"/>
<path d="M1244.1 1651.9L1247.9 1648.4L1249 1647.8L1250 1647.7L1250.9 1648.1L1253.4 1649.8L1260.1 1655L1278.1 1670.3L1293.2 1684L1296.4 1687.4L1297.1 1688.6L1294.1 1693L1286.7 1702.2L1264 1729.6L1238.6 1759.4L1220 1780.3L1216.3 1783.9L1214.8 1784.3H1213L1209.8 1783.6L1197 1774.4L1184.5 1764.5L1172.3 1754.3L1160.6 1743.8L1161.7 1741.7L1166.5 1734.9L1186.9 1708.3L1212.8 1676.2L1229.4 1656.8L1233.1 1652.9L1236.4 1649.8L1237.7 1649.1L1239.5 1649.2L1241.1 1649.8L1244.1 1651.9ZM1289.1 1691.7L1283.9 1690.6L1279.9 1694.5L1266.5 1711.5L1211.8 1776.1L1214 1778.6L1218.6 1774.7L1226.4 1766.4L1236.2 1755.3L1264.9 1721.4L1284.1 1697.2L1289.1 1691.7ZM1284.1 1685.2L1284.9 1684.3L1284.6 1683.2L1274.5 1673.8L1259.7 1660.7L1253.6 1655.9L1249.9 1653.8L1248 1655.8L1250.9 1659.2L1256.6 1664.7L1271.4 1677.4L1277.6 1682.3L1281.3 1684.7L1284.1 1685.2Z" fill="#0F0D10"/>
<path d="M1244.1 1651.9L1247.9 1648.4L1249 1647.8L1250 1647.7L1250.9 1648.1L1253.4 1649.8L1260.1 1655L1278.1 1670.3L1293.2 1684L1296.4 1687.4L1297.1 1688.6L1294.1 1693L1276.3 1714.9L1251 1744.9L1227.8 1771.7L1220 1780.3L1216.3 1783.9L1214.8 1784.3L1211.3 1784L1209.8 1783.6L1213.4 1782.7L1214 1780.8V1778.6L1218.6 1774.7L1226.4 1766.4L1236.2 1755.3L1264.9 1721.4L1284.1 1697.2L1289.1 1691.7L1283.9 1690.6L1284.1 1688.6L1283.5 1685.9L1284.9 1684.3L1284.6 1683.2L1267.1 1667.1L1253.6 1655.9L1249.9 1653.8L1248 1655.8L1247.5 1653.4L1245.9 1652.4L1244.1 1651.9Z" fill="#0F0D10"/>
<path d="M1171.9 1362.9L1178.9 1363.5L1187.2 1365.1L1202.8 1368.6L1279.4 1383.6L1287.5 1385.4L1294.8 1400.7L1293.1 1409.6L1286.3 1437.4L1280.8 1456.3L1278.9 1456.7L1273.5 1456.2L1198.9 1441.4L1160.3 1433L1160.1 1432.6L1159.6 1432.8L1159 1432.6L1158.7 1430.5L1159.1 1427L1162.9 1404.3L1168.2 1377.5L1170.4 1367.7L1171.9 1362.9ZM1274.3 1450.9L1271.1 1446L1239.4 1439.3L1185.6 1428.8L1174.5 1426.4L1163.7 1423.6L1163.4 1426L1163.7 1428.4L1168 1429.8L1257 1448L1265.6 1449.7L1274.3 1450.9ZM1278.6 1446.9L1282.8 1432.1L1289.8 1402L1288.3 1397.9L1286.3 1394L1275.8 1438.5L1275.5 1443.9L1276.1 1445.2L1277.2 1446.2L1278.6 1446.9Z" fill="#0F0D10"/>
<path d="M1916.8 1453.2L1921.5 1452.7L1926.5 1452.6L1936.9 1453.6L1942.2 1454.7L1947 1456.1L1952.9 1458.7L1957 1461.6L1958.5 1463.3L1959.6 1465.3L1960.2 1467.4L1960.3 1469.1L1959.3 1472.2L1958.3 1473.6L1956.1 1475.8L1953.1 1477.9L1949.8 1479.6L1942.3 1482.2L1931.9 1484.3L1925.7 1484.7L1914.8 1484.6L1906.3 1483.4L1902.2 1482.3L1898.3 1480.6L1894.6 1478.5L1892.6 1476.9L1889.8 1473.5L1888.7 1470.2L1889 1466.8L1890.6 1463.7L1892.7 1461.6L1895.1 1459.7L1898 1458.1L1902.7 1456.2L1907.5 1454.8L1916.8 1453.2ZM1929.5 1480.5L1939.3 1478.8L1946.5 1476.5L1949.6 1474.9L1952.4 1473.1L1954.5 1471L1955.3 1469.6L1955.6 1468L1955.2 1466.6L1953.4 1464.4L1949.3 1461.8L1942.6 1459.1L1937.1 1457.9L1931.5 1457.1L1920.9 1456.7L1914.4 1457.5L1906.9 1459.1L1899.8 1461.7L1896 1464.2L1893.8 1466.8L1893.3 1469.5L1893.7 1471.2L1894.5 1472.6L1897 1474.9L1900 1476.7L1903.3 1478.1L1907 1479.3L1912.7 1480.4L1918.6 1481H1924.4L1929.5 1480.5Z" fill="#0F0D10"/>
<path d="M1584.9 1159.5L1587.5 1159.6L1588.6 1160L1591.1 1162.5L1592.9 1165.3L1594.4 1168.6L1595.7 1172.5L1596.9 1178.5L1597.7 1185.1L1597.9 1198L1597 1209L1595.9 1214.8L1595 1217.6L1593.8 1220.1L1592.1 1222.4L1589.9 1224.5H1588.2L1585.7 1223.9L1583.7 1222.2L1582.2 1219.9L1580.8 1217.2L1579.7 1214L1578.5 1208.9L1577.7 1203.2L1577.1 1192L1577.3 1182.6L1578.1 1174.3L1579 1170.1L1580.4 1166.1L1581.6 1163.6L1583.1 1161.4L1584.9 1159.5Z" fill="#0F0D10"/>
<path d="M1471 1164H1473.2L1475.3 1164.7L1477.2 1166L1480.2 1169.3L1484.3 1175.6L1486.4 1179.6L1489.2 1185.9L1491.7 1192.7L1493.6 1199.6L1495 1206.3L1495.5 1210.8L1495.3 1218.3L1494.8 1220.9L1493.9 1222.9L1492.6 1224.6L1490.6 1226.4L1488.8 1226.5L1487.1 1225.9L1484.1 1223.4L1480.7 1219.2L1478.5 1215.7L1476.3 1211.6L1473.5 1205.2L1471.1 1198.2L1469.1 1191L1467.8 1184.1L1467.3 1179.5L1467.1 1175.4L1467.7 1169.3L1468.3 1167.4L1469.3 1165.7L1471 1164Z" fill="#0F0D10"/>
<path d="M1705.6 1170.4L1708.1 1170.9L1710.3 1172.3L1711.5 1173.9L1712.2 1175.8L1712.6 1179.8L1712.3 1183.6L1710.5 1192.1L1708.2 1198.7L1705.3 1205.3L1701.9 1211.8L1695.5 1221.5L1690.4 1227.3L1689.2 1227.9L1687.6 1228.1L1686.4 1227.8L1685.2 1226.6L1684.6 1225.2L1683.9 1221.9L1683.8 1217.8L1684.1 1213.5L1684.8 1208.7L1687.1 1199.2L1691.6 1186.4L1694.5 1180.4L1696.1 1177.8L1697.9 1175.5L1700.1 1173.4L1702.5 1171.8L1705.6 1170.4Z" fill="#0F0D10"/>
<path d="M1913.5 1231.2L1915.9 1231.6L1917.9 1232.7L1918.9 1233.8L1919.2 1235.3L1918.8 1236.9L1918 1238.6L1915.8 1241.3L1913.2 1243.9L1904.6 1250.6L1893.7 1257.7L1882.6 1263.9L1877.6 1266.2L1871.7 1268.1L1867 1268.5L1864.4 1267.8L1862.9 1266.3L1862.6 1265.2L1862.8 1263.6L1863.4 1262L1865.1 1259.1L1868 1255.4L1874.6 1248.7L1878.4 1245.7L1883.8 1242.2L1889.4 1239L1895.3 1236.4L1901.4 1234.2L1907.5 1232.4L1913.5 1231.2ZM1870.9 1263.8L1878.6 1260.4L1888.5 1255.3L1898.8 1249.2L1903.6 1245.9L1911.3 1239.8L1913.5 1237.2V1236.2L1912.2 1236L1905.7 1237.3L1900.4 1239L1895 1241.1L1889.8 1243.7L1884.8 1246.7L1880.1 1250L1875.7 1253.8L1871.9 1257.8L1868.2 1262.7L1867.9 1263.9L1870.9 1263.8Z" fill="#0F0D10"/>
<path d="M1205.3 1524.2L1214.1 1524L1218.9 1524.5L1223.7 1525.4L1229.4 1527.4L1231.7 1528.7L1234.3 1531L1235.2 1532.5L1235.7 1534.1L1235.6 1535.7L1235.2 1537.1L1234.3 1538.4L1230.7 1541L1228.3 1542L1220.6 1543.8L1213.5 1544.6L1209.3 1544.7L1199.8 1544.2L1195.1 1543.4L1190.7 1542.2L1186.7 1540.5L1183.7 1538.3L1182.5 1536.8L1181.7 1534.1L1182.8 1531.4L1185.3 1529L1187.1 1528L1193.2 1526L1205.3 1524.2ZM1216 1539.7L1224.1 1538.4L1229.4 1536.5L1231.3 1535.2L1231.5 1534.4L1231.3 1533.7L1230.2 1532.6L1226.7 1530.8L1220.2 1529.3L1213.2 1528.5L1202.8 1528.6L1197.4 1529.6L1191.7 1531.1L1189.1 1532.4L1187.1 1533.9L1186.9 1534.7L1187.1 1535.4L1188.5 1536.4L1190.8 1537.5L1196.8 1538.9L1207.6 1540.1L1216 1539.7Z" fill="#0F0D10"/>
<path d="M1213.2 1273.1L1216.7 1272.9L1220.2 1273L1226.8 1274.7L1230.1 1276.2L1234.7 1278.9L1239.3 1282.2L1247.5 1289.9L1254.1 1297.8L1255.7 1300L1257.2 1302.6L1257.5 1304L1257.1 1306L1255.4 1307.4L1252.9 1307.8L1247.8 1307.4L1244.8 1306.5L1240.4 1304.8L1235.8 1302.5L1231.4 1299.8L1223.5 1294.3L1216.6 1288.1L1214.5 1285.8L1211.9 1281.6L1211.1 1278.1L1211.2 1276.6L1211.6 1275.4L1213.2 1273.1ZM1252.3 1303.7L1249.6 1299L1247.6 1296.4L1244.3 1292.8L1236.4 1285.8L1228.2 1280.3L1224.6 1278.6L1222.3 1277.8L1217.8 1277L1215.4 1276.9L1215.8 1279L1216.8 1281.1L1219.7 1284.9L1225.8 1290.3L1232.7 1295.4L1240.4 1300L1244.3 1301.7L1248.3 1303L1252.3 1303.7Z" fill="#0F0D10"/>
<path d="M1333.8 1189.5L1337.6 1189.7L1339.8 1190.5L1342.1 1191.9L1344.2 1193.7L1348.4 1198.1L1353.1 1204.5L1357.9 1213.3L1361.1 1221.2L1362.5 1227.2V1229.1L1362.1 1230.6L1361.5 1231.6L1358.8 1232.8L1355.4 1231.2L1351.9 1229L1348.6 1226.3L1342.5 1220.3L1337.7 1214.5L1335.3 1210.9L1333.2 1207.1L1331.5 1203.1L1330.5 1197.7L1330.9 1193.3L1331.5 1192L1333.8 1189.5ZM1358 1227.6L1357.4 1223.5L1356.6 1220.8L1354.8 1216.9L1350.2 1208.7L1343.3 1199.4L1339.8 1195.9L1337.8 1194.4L1335.7 1193.3L1335 1195.4V1197.9L1335.9 1202.5L1337.4 1206L1339.6 1209.6L1342.2 1213.1L1348.3 1219.8L1351.6 1222.8L1358 1227.6Z" fill="#0F0D10"/>
<path d="M1796.1 1180.2L1799.8 1180.1L1801.2 1180.3L1803.9 1181.7L1804.9 1182.7L1806.2 1185.5L1806.4 1187.2L1806.2 1191.9L1804.6 1198.1L1803.3 1201.2L1800.8 1205.6L1797.9 1209.7L1794.5 1213.4L1791 1216.5L1788.4 1216.8L1785.9 1216.3L1784.7 1215.5L1782.9 1213.2L1781.7 1209.6L1781.4 1207.2L1781.8 1200.8L1782.6 1196.9L1783.8 1193.2L1785.2 1190.1L1787.3 1186.8L1789.7 1184L1791.5 1182.5L1796.1 1180.2ZM1789.9 1211.8L1792.8 1208.8L1795.5 1205.3L1797.9 1201.5L1799.8 1197.5L1801.3 1193.4L1802.3 1189.3L1801.5 1186.6L1800.1 1184.3L1797.2 1184L1794.6 1185.8L1792.4 1187.9L1790.5 1190.4L1787.8 1195.9L1786.9 1198.9L1785.8 1205.4L1786.1 1209.8L1786.8 1211.6L1787.9 1212.2H1789.1L1789.9 1211.8Z" fill="#0F0D10"/>
<path d="M1872.3 1597.7L1876 1597.4L1879.9 1597.5L1883.9 1598L1887.8 1599L1891.6 1600.3L1894.9 1601.9L1898 1604.2L1899.5 1606.3L1899.8 1607.5L1899.7 1608.9L1898.9 1610.2L1896.7 1611.9L1894.9 1612.6L1889.3 1614L1880.6 1615L1876.1 1615.3L1871.5 1615.1L1867 1614.6L1861.4 1613.1L1859.2 1612L1856.6 1609.9L1855.6 1608.5L1855.1 1607L1855.2 1605.4L1855.9 1604L1857.2 1602.6L1860.5 1600.4L1863.4 1599.3L1872.3 1597.7ZM1881.1 1610.8L1891.2 1609L1896.1 1607.6L1892.8 1605.6L1889.2 1604L1885.4 1602.8L1881.5 1601.9L1877.7 1601.6L1873.8 1601.7L1869.4 1602.3L1864.5 1603.5L1862.3 1604.4L1860.8 1605.6L1860.5 1606.4L1860.6 1607.2L1862.5 1608.6L1865 1609.6L1867.7 1610.3L1875.7 1611L1881.1 1610.8Z" fill="#0F0D10"/>
<path d="M1206.1 1624.7H1211.2L1214.8 1625.6L1216.1 1626.2L1217.5 1628.1L1217.8 1629.3L1217.1 1632L1215.5 1634.3L1213.7 1635.7L1209 1638.2L1205.1 1639.6L1196.9 1641.1L1190.5 1641.4H1187.6L1184.8 1641L1182.1 1639.9L1180.4 1638.6L1179.4 1636.6L1179.7 1634.7L1180.7 1633L1183.7 1630.5L1189 1628L1196.3 1626L1206.1 1624.7ZM1192.6 1636.8L1203.4 1635.2L1208.9 1633.4L1211.3 1632.1L1212.9 1630.8V1629.8L1211.9 1629.3L1207.8 1628.8L1205.3 1628.9L1193.8 1631.2L1190.3 1632.2L1187.1 1633.6L1184.6 1635.3L1184.4 1636.1L1187 1637.2L1192.6 1636.8Z" fill="#0F0D10"/>
<path d="M1953.8 1549.6H1960.8L1965.3 1550.6L1969.1 1552.6L1970.7 1553.9L1971.9 1555.5L1972.6 1557.3L1972.7 1558.8L1972.4 1560.2L1971.7 1561.6L1970.3 1563L1968.5 1564.1L1964.5 1565.6L1958.2 1566.6L1953.2 1566.7L1950.7 1566.4L1946.1 1565.1L1943.4 1563.1L1942.3 1561.8L1941.6 1560.2L1941.5 1558.6L1941.7 1557L1942.5 1555.6L1943.9 1553.9L1947.5 1551.5L1953.8 1549.6ZM1959.2 1562.4L1963.6 1561.4L1965.5 1560.6L1967.3 1559.1V1557.2L1965.4 1555.2L1963.5 1554.4L1959.1 1553.6H1955.2L1949.2 1555.4L1947.9 1556.3L1946.6 1558.1L1947 1560L1948.8 1561.3L1952.8 1562.4H1959.2Z" fill="#0F0D10"/>
<path d="M1215.8 1844L1218.1 1839.9L1221.1 1836L1223 1834.6L1225.1 1833.6L1227.3 1833.5L1228.4 1833.8L1230.3 1835.4L1231 1836.7L1231.5 1839.5L1230.9 1843.9L1228.5 1849.4L1226.8 1852.3L1224 1855.2L1222.3 1856.4L1220.6 1857.3L1218 1858L1215.3 1857.6L1213.6 1855.9L1212.8 1852.9L1213.4 1849.2L1215.8 1844ZM1223.4 1849.1L1226.1 1843.6L1227.2 1839.6L1226.9 1838.3L1226 1838L1224.6 1838.8L1222.1 1842.3L1218.8 1848.5L1217.6 1851.8L1217.5 1853L1218.2 1853.4L1221.1 1851.5L1223.4 1849.1Z" fill="#0F0D10"/>
<path d="M1215.8 1844L1218.3 1847.3L1218.8 1848.5L1217.9 1850.7L1217.5 1853L1218.2 1853.4L1219.7 1852.6L1223.4 1849.1L1224.7 1850.9L1226.8 1852.3L1224 1855.2L1220.6 1857.3L1218 1858H1216.6L1215.3 1857.6L1214.3 1856.8L1213.1 1854.7L1212.8 1852.9L1212.9 1851L1214.1 1847.4L1215.8 1844Z" fill="#0F0D10"/>
<path d="M1271.2 1564.6L1275.3 1564.4L1279.3 1565L1282.9 1566.7L1284.4 1568.1L1285.3 1569.7L1285.5 1572.1L1284.1 1574.3L1281.7 1575.9L1277.5 1577.2L1270.8 1577.7L1267.2 1576.8L1264.3 1574.9L1263.4 1573.5L1263 1571L1263.3 1569.8L1264.2 1568.4L1266.7 1566.4L1271.2 1564.6Z" fill="#0F0D10"/>
<path d="M1286.9 1804.9L1289.4 1805.3L1291.4 1806.6L1292.8 1808.6L1293.5 1812.1L1292.9 1816.6L1292.1 1819.1L1290.7 1821.8L1289 1823.9L1287 1825.6L1284.3 1826.9L1282 1826.3L1280.8 1825.6L1279.1 1823.5L1277.7 1819.6L1279.8 1814.1L1281.1 1811.4L1282.8 1808.9L1284.7 1806.7L1286.9 1804.9Z" fill="#0F0D10"/>
<path d="M1305.1 1320.5H1308.3L1311.4 1321.3L1313.3 1322.4L1316.1 1325.1L1318.9 1330.5L1317.6 1333.4L1315.8 1336L1312 1336.1L1309.5 1335.5L1307.1 1334.2L1304.9 1332.4L1303.3 1330.5L1301.9 1327.8L1301.7 1324.8L1302.9 1322.2L1305.1 1320.5Z" fill="#0F0D10"/>
<path d="M1360.5 1292L1359.8 1283.4L1360.1 1281.2L1360.8 1279.8L1362.2 1278.7L1363.9 1278.3L1368.9 1277.9L1387.9 1278.5L1444.5 1278.1L1735.7 1275.4L1766.8 1274.5L1777.1 1274.6L1779.5 1274.8L1781.7 1275.6L1782.2 1279.6L1781.3 1287.9L1787.8 1287.1H1791.2L1794.2 1287.5L1795.5 1291.2L1795.9 1295.8L1799.9 1358.7L1805.4 1476.5L1810.9 1577.1L1811 1586.6L1824.2 1601.4L1892.4 1681.3L1907.9 1699.8L1923.8 1686.5L1933.8 1679L1943.1 1672.7L1947.4 1670.3L1950.6 1669L1961.4 1678.6L1982.3 1699.6L2003.3 1719.9L2010 1726.9L2013.4 1726.5L2029.8 1723L2037 1722L2044.4 1721.3L2051.7 1721L2059 1721.2L2066.4 1721.8L2073.7 1722.7L2080.9 1724.1L2088 1725.8V1986.4L2081.6 1987.6L2074.9 1988.2L2061.7 1988.5L2036.7 1987.8L1999.3 1985.4L1986.8 1985L1973.6 1985.2L1960.6 1985.9L1947.6 1987.1L1934.6 1988.6L1908.6 1992.4L1902.6 1982.6L1897.4 1973.3L1893 1964.4L1889 1955.4L1885.6 1946.4L1882.9 1937.5L1880 1923.8L1878.4 1909.2L1878 1899.4L1878.2 1888.7L1879 1877.2L1883.1 1854.1L1881.6 1854.6L1880.1 1854.3L1874.7 1851L1867.1 1845.2L1844.9 1826.6L1838.4 1821.7L1824.7 1812.7L1817.5 1808.8L1818.4 1865.6L1818.1 1875.8L1814.2 1876.5L1805.9 1876.3L1813.8 1900.8L1821.3 1920.9L1825.2 1932.4L1826.2 1938.3L1826 1939.8L1825 1941.3L1823.5 1942.3L1819.9 1941.6L1818.1 1940.8L1813.4 1937.3L1796.5 1921.3L1764 1893.4L1753.6 1893L1732.5 1893.5L1658.8 1894.2L1574 1894.1L1371.6 1895.6L1363.4 1895.7L1355.4 1895.3L1355.6 1894.9L1355 1895.1L1354.3 1884.2L1354.2 1860.7L1350.1 1653.1L1348.2 1519L1344.2 1297.9L1344.5 1292.8L1346.7 1292.1L1349.4 1291.7L1360.5 1292ZM1926.4 1691.2L1915.4 1700L1905.3 1709.9L1916.8 1721L1927 1731.6L1931.3 1737.5L1932 1739.3L1931.3 1740.1L1930.2 1740.5L1928.9 1739.8L1926.2 1737.7L1919.8 1731.5L1912.7 1724L1902.3 1712.5L1889.1 1725.8L1883.5 1733L1906.5 1756.3L1911.4 1762.4L1912.4 1764.2L1911.8 1765.2L1910.2 1765.1L1908.9 1764.6L1903.9 1760.6L1880.2 1736.5L1870.4 1748.1L1860.9 1760.1L1878.2 1775L1887.8 1783.8L1891.5 1788.1L1892 1789.3L1891.6 1790.3L1890.7 1791L1889.4 1790.5L1887.1 1789L1881.4 1784.7L1868 1772.7L1858.6 1763.5L1852.6 1771.3L1842 1788.8L1860.6 1802.1L1874 1812.7L1876.9 1815.8L1877 1817.2L1876.6 1818.4L1875.4 1818.6L1873.6 1818.2L1869.5 1815.6L1850.3 1800.4L1839.5 1792.8L1832.3 1805.5L1829.6 1809.4L1836.8 1813.9L1843.6 1818.8L1869.8 1840.8L1876.5 1846L1883.5 1850.8L1884.5 1850.6L1885.8 1847.4L1888.5 1838.7L1894.1 1825.7L1900.6 1813.1L1905 1805.8L1914.8 1791.8L1920.2 1785.1L1931.8 1772.4L1944.6 1760.8L1951.4 1755.4L1958.4 1750.4L1965.6 1745.8L1973.1 1741.5L1980.8 1737.7L1988.6 1734.3L1996.6 1731.3L2004.8 1728.8L1949.6 1674.7L1930 1688L1965 1721.4L1975.5 1732.6L1976.5 1734.2L1976.4 1735.3L1975 1736.1L1973.5 1736.2L1970.6 1733.8L1955.8 1719.9L1926.4 1691.2ZM1750.8 1872.1L1753.7 1876.9L1758.5 1882L1799.8 1917.3L1801.6 1918.2L1803 1918L1811.8 1912.8V1912L1805.9 1892.1L1794.8 1859.1L1792.8 1855L1791.3 1852.8L1789.5 1851L1787.3 1849.5L1784.6 1848.2L1781.9 1847.3L1776.4 1846.8L1770.7 1847.7L1767.2 1848.9L1764 1850.7L1760.9 1852.9L1758.2 1855.4L1755.8 1858.2L1753.8 1861.3L1752.3 1864.8L1751.3 1868.4L1750.8 1872.1ZM1365 1283.5L1375 1857.9L1375.6 1870.3L1599.5 1869.3L1657.3 1870.3H1685.9L1741.6 1869.7L1689.1 1795.4L1663.5 1757.8L1631.6 1750.1L1600.1 1741.4L1584.5 1736.5L1561.5 1728.2L1546.4 1721.6L1527.9 1711L1520.3 1705.3L1517.1 1702.1L1513.8 1697.3L1512.7 1694.8L1512.4 1693.1L1512.6 1689.4L1513.8 1685.8L1516 1682L1519.9 1678.3L1523.4 1676.2L1531.1 1673.1L1540.6 1670.8L1546.4 1669.8L1561.4 1668.6L1570.5 1668.5L1588.3 1669.5L1598.6 1671.3L1603 1671.7L1579.5 1637.4L1564.2 1615.8L1551.4 1624.6L1535.6 1634L1527.1 1638.5L1518.4 1642.4L1506.9 1646.5L1501.6 1647.8L1496.1 1648.7L1491.2 1649L1486.7 1648.6L1483.1 1647.8L1479.7 1646.3L1477.6 1645L1474.2 1641.5L1473.1 1639.5L1472.5 1637.3L1472.3 1635L1472.6 1632.7L1473.4 1629.8L1474.8 1626.7L1476.7 1623.5L1480 1618.9L1484.2 1614.1L1493.4 1605.1L1510.8 1590.3L1525.6 1576.9L1533.5 1571L1488 1504L1483.3 1497.6L1480.2 1497.2L1476 1495.7L1472.3 1493L1468.7 1488.6L1466.2 1484L1462.4 1473.5L1460.7 1469.6L1458.8 1466.4L1446.6 1448.6L1441.5 1439.3L1439.4 1434.4L1437.9 1429.4L1437.3 1426.1L1437 1422.7L1437.4 1416.6L1439.2 1411.2L1440.6 1408.7L1444.4 1404.5L1446.7 1402.9L1449.3 1401.6L1455.1 1400L1460.8 1399.9L1464.2 1400.5L1467.6 1401.7L1471 1403.3L1475.9 1406.4L1480.8 1410.2L1490 1418.9L1506.1 1435.8L1517.6 1444.6L1520.3 1447.1L1523 1450.3L1524.8 1453.2L1526.1 1456L1529.2 1464.8L1530.7 1467.6L1535.6 1475.4L1574.7 1531.7L1598.8 1512.8L1634.9 1485.4L1646.9 1476.7L1653 1472.7L1662.7 1467.2L1670.1 1464L1673.9 1462.9L1677.8 1462.3L1681.6 1462.2L1685.2 1462.8L1688.8 1463.7L1692.3 1465.2L1697.5 1467.8L1707.2 1474.3L1715.2 1481L1737.8 1504.1L1749.5 1516.9L1768.6 1537.9L1787 1559.4L1779.7 1351.2L1777.4 1303L1777.1 1279L1763.1 1278.9L1749.6 1279.5L1684.1 1279.9L1565.2 1281.8L1465.1 1282.9L1365 1283.5ZM1577.5 1535.5L1609.5 1581.2L1632.9 1564.2L1640.6 1558.2L1648 1551.9L1654.9 1545.4L1647.6 1528.4L1645.5 1521.6L1645.2 1519.3L1645.8 1518.3H1647.1L1648.2 1519.1L1650.7 1523.5L1661.4 1547.1L1680.9 1593.4L1687.8 1611.1L1689.8 1618.4L1691.3 1625.9L1692 1631L1692.3 1641.1L1691.9 1645.8L1691.1 1650.6L1689.7 1655.2L1687.9 1659.6L1684.3 1664.9L1682.1 1667.2L1679.2 1669.4L1672.9 1672.9L1746.9 1777.9L1761 1781.4L1769.1 1784L1786.8 1790.3L1812.1 1800.9L1825.4 1807.5L1827.9 1801.7L1842.2 1778.6L1850 1767L1858.1 1755.8L1866.6 1744.8L1875.5 1734.1L1894.1 1713.4L1903.9 1703.3L1883.5 1678.5L1826.4 1611.5L1767.2 1543.9L1744.5 1518.6L1728.4 1501L1720.1 1492.4L1711.4 1484.4L1704.9 1478.9L1697.2 1473.3L1688.9 1468.8L1683.4 1467L1680.7 1466.6L1677.3 1466.5L1667.1 1470.7L1661.4 1473.7L1653.1 1478.6L1644.3 1484.4L1627 1496.9L1596.5 1520.9L1582.1 1531.7L1577.5 1535.5ZM1629.5 1610.7L1630.5 1611.5L1632.2 1610.9L1642.4 1604.9L1659.6 1593.1L1671.6 1584.1L1669.6 1578.5L1663 1562.7L1659.5 1555.3L1656.7 1550.4L1645.9 1559.6L1634.9 1568.4L1611.9 1585.1L1625.3 1604.2L1629.5 1610.7ZM1673.4 1588.6L1669.5 1591.9L1654.2 1602.6L1633.3 1615.7L1636.8 1621.1L1650.7 1640.5L1662 1633.3L1678.6 1621.6L1684.3 1618.1L1678.1 1598.4L1674.9 1590.9L1673.4 1588.6ZM1744.9 1874.9L1493.6 1874.6L1417.7 1875.1L1386.3 1874.8L1370.7 1875.8V1859.6L1370.2 1843.3L1365.7 1608.1L1360.8 1303.2L1360.5 1296.9L1348.5 1296.5L1351.6 1433.5L1354.3 1648.4L1356.5 1739.2L1358.1 1846.6L1358.9 1877.1V1891L1584 1889.3L1733.4 1889.2L1758.2 1888.8L1758.6 1888.6L1749.3 1880.5L1747.2 1878.2L1744.9 1874.9ZM1467.5 1456L1470.3 1452.5L1473.3 1449.3L1476.5 1446.6L1480 1444.2L1483.7 1442.1L1487.6 1440.4L1491.7 1439.1L1500.3 1437.6L1487.8 1423.7L1484.4 1420.5L1480.9 1417.6H1474.7L1470.4 1418.5L1466.5 1419.7L1463 1421.4L1459.6 1423.5L1456.6 1426.2L1453.7 1429.5L1452 1432.2L1450.6 1434.9L1448.6 1440.9L1450.2 1444.5L1455.1 1453L1458 1457.1L1463.6 1464L1467.5 1456ZM1466.8 1470.8L1470.9 1482.4L1474.1 1488.2L1475.4 1489.9L1478 1492.1L1479.3 1492.5L1480.6 1492.3L1481.2 1491.1L1481.5 1489.2L1481.7 1482.5L1482.1 1480.8L1484.6 1476.5L1487.5 1472.6L1490.9 1469.2L1493.7 1466.9L1500 1463.2L1503.6 1461.8L1506.8 1461L1513.1 1460.3L1522.9 1460.8L1519 1454.1L1516.7 1450.9L1512 1446.4L1507.5 1444L1504.9 1443.3L1502.2 1442.9L1496.8 1443.2L1492.1 1444.2L1487.7 1445.8L1483.4 1447.9L1477.7 1452L1473 1457.4L1471 1460.5L1469.4 1463.9L1466.8 1470.8ZM1685 1623.5L1653.4 1644.8L1664.8 1660.9L1669.2 1668.5L1675.3 1665.6L1678.1 1663.6L1680.6 1661.3L1682.7 1658.7L1684.3 1655.7L1685.5 1652.5L1687.2 1644.6L1687.6 1636L1686.8 1628L1685.8 1624.7L1685 1623.5ZM1752.9 1854.4L1755.6 1851.3L1758.4 1848.6L1761.4 1846.4L1764.6 1844.6L1768.2 1843.3L1772.3 1842.5L1776.4 1842.4L1780.1 1842.7L1783.8 1843.7L1787.5 1845.1L1719.9 1749.4L1652.8 1653.3L1574.9 1540.2L1528.5 1474.4L1523.5 1466.1L1513.6 1465.2L1510.3 1465.3L1506.3 1466.4L1502.4 1467.9L1498.6 1469.8L1495.2 1472.2L1493.1 1474L1489.5 1478.3L1488 1481.2L1487 1483.9L1485.8 1490L1488.4 1495.3L1491.5 1500.4L1557.8 1596.9L1703.8 1807.7L1736.5 1853.6L1747.2 1869.1L1747.9 1865L1749 1861.4L1750.7 1858L1752.9 1854.4ZM1793.9 1843.2L1794.3 1813.2L1793.7 1798.8L1750.3 1783.3L1767.6 1808.2L1790.9 1840.1L1793.9 1843.2ZM1798.8 1801.4L1798.5 1849.6L1798.8 1853.1L1799.3 1856.3L1800.3 1860.1L1804.5 1871.1L1813.1 1872.2L1813.3 1860.7L1812.7 1827.9V1806.6L1798.8 1801.4ZM1622.1 1742.6L1659.3 1752L1644.5 1731.2L1614.4 1686.8L1606 1676.1L1602.1 1675.9L1583.4 1673.7L1569.9 1673.1L1563.1 1673.2L1552 1674.1L1539.7 1675.9L1535.5 1676.8L1528 1679.4L1524.5 1681.2L1521.6 1683.3L1519.1 1685.7L1517.4 1688.6L1517 1691.9L1517.4 1693.6L1519 1696.8L1520.8 1699L1527.1 1704.3L1538.1 1711.5L1544.1 1714.8L1553.4 1719.3L1563.1 1723.4L1582.8 1730.7L1611.9 1740L1622.1 1742.6ZM1535.9 1574.9L1525.9 1583.2L1498.8 1607.1L1488.8 1617L1484.3 1622.1L1480.8 1626.8L1478.9 1630L1477.7 1632.9L1477.2 1635.3L1477.6 1637.7L1479 1639.6L1482.7 1642.4L1485 1643.3L1488.6 1644.1L1492 1644.4L1496.4 1643.9L1508 1640.8L1515.2 1638.2L1522.1 1635.1L1532.3 1630L1542.3 1624.4L1561.7 1612.3L1543.3 1584.2L1538.8 1578L1535.9 1574.9ZM1806.1 1580.6L1805.9 1570.1L1800.9 1475.4L1797 1389.1L1792.1 1299.3L1791.8 1295L1790.7 1291.9L1781.5 1292.1L1785.7 1389.5L1790.1 1518.4L1792 1564.1L1803 1577.2L1806.1 1580.6Z" fill="#0F0D10"/>
<path d="M2010 1726.9L2013.4 1726.5L2029.8 1723L2037 1722L2044.4 1721.3L2051.7 1721L2059 1721.2L2066.4 1721.8L2073.7 1722.7L2080.9 1724.1L2088 1725.8V1986.4L2081.6 1987.6L2074.9 1988.2L2061.7 1988.5L2036.7 1987.8L1999.3 1985.4L1986.8 1985L1973.6 1985.2L1960.6 1985.9L1947.6 1987.1L1934.6 1988.6L1908.6 1992.4L1902.6 1982.6L1897.4 1973.3L1893 1964.4L1889 1955.4L1885.6 1946.4L1882.9 1937.5L1880 1923.8L1879 1916.6L1878.4 1909.2L1878 1899.4L1878.2 1888.7L1879 1877.2L1882.8 1856.6L1882.9 1852.4L1883.5 1850.8L1884.5 1850.6L1885.1 1849.4L1888.5 1838.7L1894.1 1825.7L1900.6 1813.1L1905 1805.8L1914.8 1791.8L1925.9 1778.6L1938.1 1766.4L1944.6 1760.8L1951.4 1755.4L1958.4 1750.4L1965.6 1745.8L1973.1 1741.5L1980.8 1737.7L1988.6 1734.3L1996.6 1731.3L2005 1728.8L2010 1726.9Z" fill="#0F0D10"/>
<path d="M1816.7 1908.9L1824 1928.6L1825.9 1935.5L1826.2 1938.3L1826 1939.8L1825.5 1940.7L1824.3 1941.9L1823.5 1942.3L1819.9 1941.6L1815.7 1939.2L1796.5 1921.3L1797.8 1919L1799.8 1917.3L1801.6 1918.2L1804.7 1917.1L1811.8 1912.8V1912L1816.7 1908.9Z" fill="#0F0D10"/>
<path d="M1495.6 1484.3L1497.5 1484.5L1498.9 1485.8L1506.8 1496L1528.9 1529.2L1599.9 1630.7L1637.8 1685.9L1676.1 1740.8L1737.8 1828.5L1740.7 1833.2L1741.4 1835.3L1741.1 1837.5L1739.9 1836.9L1737.1 1834.3L1735 1831.6L1722.4 1812.9L1589.9 1623.5L1499.2 1492.2L1496.8 1488.3L1496 1486.2L1495.6 1484.3Z" fill="#0F0D10"/>
<path d="M1519.5 1481.9L1522.3 1482.4L1525.8 1486.4L1531.1 1493.9L1545.9 1516.5L1584.3 1571.2L1622.3 1626.3L1762 1823.7L1764.4 1827.5L1765.7 1830.6L1763.2 1830.9L1762.4 1830.5L1760.6 1828.4L1753.8 1818.1L1533.3 1504.6L1526.7 1495L1520.6 1485.2L1519.8 1483.6L1519.5 1481.9Z" fill="#0F0D10"/>
</svg>
