<svg width="4000" height="4000" viewBox="0 0 4000 4000" fill="none" xmlns="http://www.w3.org/2000/svg">
<path d="M659.579 263.027L677.203 263.41L681.035 276.82L696.935 344.828L740.996 344.253L903.448 340.038L926.628 340.613L932.376 341.571L933.717 343.103L936.207 348.851L940.422 364.176L951.533 410.536L968.966 475.287L1032.38 719.732L1039.08 744.828L1046.74 769.349L1097.89 734.291L1114.94 723.755L1132.38 713.985L1150.19 705.172L1168.58 697.318L1187.16 690.23L1206.32 684.291L1225.48 679.119L1245.02 674.904L1246.94 667.625L1252.3 653.448L1239.66 655.556H1227.01L1221.84 654.598L1212.45 650.766L1204.41 644.636L1197.89 636.015L1193.3 625.287L1191.19 616.667L1190.04 607.663L1189.66 598.659L1190.23 590.422L1184.67 588.697L1176.25 584.291L1171.26 578.353L1169.35 573.755L1168.58 569.732L1168.77 566.092L1171.26 559.195L1177.39 551.341L1190.23 538.314L1194.64 531.418L1197.89 523.755L1199.81 516.092L1200.96 508.429L1203.07 485.441L1205.17 478.161L1206.9 473.755L1211.88 466.475L1215.13 463.41L1222.8 458.621L1229.31 456.322L1236.02 455.172L1242.53 454.981L1249.23 455.747L1262.26 459.004L1281.42 465.9L1299.23 450.958L1307.85 444.444L1316.48 438.889L1328.54 433.142L1335.44 430.843L1350 428.161L1366.67 427.778L1382.38 429.694L1390.23 431.609L1404.98 437.165L1411.88 440.996L1418.39 445.594L1424.33 450.575L1433.72 461.686L1438.51 470.881L1440.23 479.502L1439.85 485.824L1435.82 504.981L1434.67 512.069L1434.48 519.923L1435.44 526.054L1437.55 531.609L1440.8 536.59L1449.43 545.594L1455.17 549.617L1463.98 555.172L1492.72 570.498L1501.15 575.862L1508.05 581.609L1514.56 588.889L1518.2 594.444L1522.61 603.257L1526.44 615.9L1527.39 628.927L1525.86 639.655L1521.46 649.617L1514.75 658.046L1506.32 664.176L1501.53 666.475L1494.06 668.966L1486.21 670.69L1470.31 671.456L1450.96 669.349L1431.99 664.368L1419.73 659.77L1408.05 654.023L1396.74 647.126L1386.02 639.464L1376.05 631.226L1366.86 622.031L1358.05 626.437L1348.66 630.268L1367.24 677.012L1395.02 684.483L1408.43 689.081L1421.26 694.636L1433.72 700.766L1445.4 707.471L1456.51 714.943L1467.24 723.18L1477.2 732.184L1486.78 741.954L1495.79 752.682L1504.21 764.176L1512.26 776.628L1519.35 789.464L1531.99 816.475L1540.04 837.356L1547.32 858.238L1568.2 925.287L1599.43 1036.4L1674.9 1314.37L1674.71 1318.77L1669.73 1321.46L1660.73 1322.8L1645.21 1323.18L1650.19 1351.53L1652.49 1377.78L1652.68 1390.42L1651.92 1402.87L1650.38 1415.33L1647.89 1427.39L1644.44 1439.46L1640.23 1451.15L1635.06 1462.84L1628.54 1474.71L1620.88 1486.59L1632.76 1494.44L1638.12 1499.04L1643.1 1504.41L1646.93 1509.39L1652.87 1520.5L1656.51 1532.38L1657.66 1538.51L1658.43 1547.89L1657.85 1557.28L1656.32 1567.62L1653.64 1577.59L1649.81 1587.36L1645.21 1596.74L1639.66 1605.56L1633.33 1613.98L1619.16 1629.12L1611.3 1635.82L1602.3 1642.53L1583.33 1653.83L1559.39 1664.18L1545.4 1668.77L1531.03 1672.8L1511.69 1677.01L1491.95 1680.27L1452.11 1684.87L1365.52 1691.95L1318.39 1694.44L1271.26 1695.98L1224.14 1696.36L1177.2 1695.79L1130.08 1694.06L1056.9 1689.85L1032.57 1687.55L993.87 1682.38L974.521 1678.54L955.173 1673.95L942.529 1669.92L918.391 1660.15L906.897 1654.21L895.977 1647.32L885.632 1639.46L878.161 1632.76L871.264 1625.67L858.238 1610.34L844.253 1616.48L836.207 1618.58L832.759 1618.77L830.077 1618.2L826.437 1614.37L821.456 1603.64L813.793 1576.63L807.855 1547.51L806.322 1532.38L804.981 1502.68L806.13 1473.37L807.855 1458.81L810.345 1444.44L813.602 1429.89L818.008 1415.13L823.18 1400L829.502 1385.44L836.399 1371.07L844.445 1356.9L853.065 1343.49L862.452 1330.46L872.414 1317.82L883.142 1305.75L894.445 1294.25L906.322 1283.52L918.582 1273.56L931.418 1264.18L944.253 1255.75L957.471 1248.08L984.483 1233.72L954.981 1133.14L885.824 1132.38L670.881 1133.33L674.138 1153.26L678.927 1175.1L688.889 1217.43L781.226 1631.61L784.291 1650.19L784.1 1653.26L783.142 1655.94L781.226 1657.66L753.832 1658.81L736.399 1658.62L720.69 1657.66L709.77 1656.13L706.322 1646.36L700.575 1624.52L669.349 1490.23L658.621 1447.51L657.471 1450.19L654.981 1451.15H646.552L631.226 1664.94L629.31 1679.5L627.012 1683.91L624.521 1685.82L614.943 1689.66L595.019 1694.06L571.839 1696.93L534.866 1699.43L505.364 1698.66L479.502 1696.36L466.858 1694.44L454.406 1692.15L444.253 1689.27L432.759 1684.48L429.502 1681.8L427.969 1676.44L426.245 1663.03L425.287 1628.35L422.222 1566.67L410.345 1600.77L394.636 1650.19L388.889 1664.75L318.774 1665.13L302.491 1664.37L293.487 1662.84V1658.62L294.445 1654.41L299.042 1639.85L314.943 1595.98L352.874 1485.82L399.617 1348.85L482.184 1101.34L491.954 1075.48L475.287 1021.65L459.579 967.433L305.939 422.797L292.337 377.586L287.356 358.429L288.123 354.406L291.954 352.874L318.199 351.533L383.908 350.958L507.088 348.659L491.954 292.146L501.341 281.992L522.797 263.41L659.579 263.027ZM944.445 844.253L1035.63 1053.45L1058.43 1041.57L1070.5 1034.29L1088.12 1022.41L1105.94 1009.39L1123.37 995.402L1140.42 981.034L1172.41 951.341L1200.57 922.797L1214.56 906.322L1228.35 891.571L1236.21 885.632L1238.7 884.866L1240.42 886.207L1240.04 889.464L1238.89 892.529L1235.06 897.893L1218.58 917.05L1201.15 935.632L1183.14 953.64L1164.37 971.264L1126.05 1004.21L1080.84 1038.12L1076.44 1209.77L1073.95 1274.9L1074.52 1307.28L1202.11 1317.05L1198.28 1270.5V1244.06L1198.85 1237.55L1200.77 1230.46L1203.45 1227.2L1208.81 1224.71L1211.88 1225.29L1214.56 1227.39L1216.28 1230.08L1219.73 1239.66L1221.84 1248.66L1223.56 1259.58L1225.86 1282.57L1227.59 1318.77L1281.03 1321.07L1334.67 1322.61L1388.12 1323.18L1441.76 1322.99L1495.21 1321.84L1548.66 1319.92L1666.09 1313.22L1560.73 931.418L1548.66 891.188L1536.21 852.682L1529.31 833.525L1516.09 802.299L1503.45 778.544L1496.36 767.816L1488.89 757.663L1480.65 748.276L1472.03 739.464L1462.64 731.226L1452.68 723.563L1442.34 716.475L1431.23 709.77L1418.2 703.257L1404.79 697.51L1391.38 692.72L1377.59 688.697L1363.41 685.632L1335.06 681.418L1305.94 679.693L1282.95 679.885L1259.77 681.801L1244.64 683.908L1216.48 690.038L1198.28 695.402L1180.84 701.724L1163.79 709.004L1131.03 725.862L1091.38 750.192L1018.77 798.851L996.36 813.41L951.341 839.655L944.445 844.253ZM327.778 361.111L522.605 1045.79L534.674 1091.76L943.104 1091.19L1038.89 1091.95L1070.69 1091.57L1071.84 1042.91L1056.13 1052.3L1040.23 1060.34L1024.33 1067.24L1011.88 1071.65L999.425 1075.1L986.782 1077.59L973.946 1079.5L961.111 1080.27L947.893 1079.89L934.483 1078.54L920.498 1076.25L909.004 1073.18L897.893 1069.54L887.356 1065.13L877.203 1059.96L867.433 1054.02L849.234 1040.42L840.805 1032.76L830.46 1021.65L820.69 1009.58L811.877 996.743L799.809 975.671L788.889 954.406L769.157 912.452L765.326 906.13H553.832L516.667 728.736L471.073 525.862L468.774 511.877L468.583 505.556L469.157 499.234L470.881 493.103L473.755 487.356L479.31 481.418L482.759 479.119L488.314 476.628L501.341 473.946L526.245 472.605H541.954L537.356 467.625L533.525 462.261L527.203 444.636L522.222 438.697L521.839 435.824L522.414 432.95L525.862 431.801L531.035 430.843L543.487 430.651L556.13 431.801L565.709 433.333L573.563 435.632L581.609 438.697L589.464 442.72L596.743 447.701L600.958 451.341L607.855 459.962L612.835 471.456L663.793 491.763L681.226 484.866L690.038 481.992L699.234 480.077L719.157 478.161L759.579 477.395L817.05 475.479L836.015 475.862L842.72 476.82L849.234 478.736L854.215 481.226L859.004 484.291L867.242 492.337L873.18 501.916L876.437 510.728L901.533 621.073L929.119 747.318L939.272 789.08L950.192 830.651L972.989 818.008L995.594 804.023L1017.82 789.464L1039.08 774.33L1031.23 750.383L1018.97 701.149L934.483 379.502L927.395 349.234L905.939 349.042L762.835 351.724L327.778 361.111ZM900.383 652.49L880.46 569.923L873.563 535.824L867.242 513.027L863.41 503.257L860.92 498.851L857.854 495.019L850.192 488.889L841.379 485.057L829.885 483.908L719.732 487.165L709.579 487.74L693.104 490.421L674.713 496.552L692.912 504.406L702.491 507.663L711.878 510.153L726.245 511.303L733.142 513.218L738.697 516.092L743.678 519.732L757.663 532.184L762.644 535.824L777.395 543.87L808.621 557.854L819.54 563.602L822.989 566.284L825.671 569.349L827.203 572.414V574.713L825.671 580.268L824.521 582.184L820.498 584.483L812.452 584.1L806.13 581.992L781.992 571.264L781.226 572.031L795.786 605.172L810.345 598.276L817.625 595.977L824.904 595.019L835.249 595.402L847.127 599.042L859.004 605.556L867.242 612.069L875.096 619.54L889.081 636.015L900.383 652.49ZM684.1 345.019L686.207 344.444L685.824 337.548L679.694 309.195L670.115 271.264L541.571 271.073L529.885 271.456L545.211 329.119L549.425 348.467L684.1 345.019ZM1070.12 1122.41V1100.38L1026.25 1099.43H1004.21L947.127 1101.15L911.494 1101.34L840.422 1100.77L534.866 1100.96L525.479 1122.41L767.05 1121.46H918.582L1070.12 1122.41ZM807.855 633.142L787.74 639.847L768.008 646.935L748.659 654.981L710.537 672.797L691.763 682.376L698.084 701.149L705.173 719.349L721.839 709.004L739.464 699.808L734.291 691.188L729.31 681.035L727.778 676.054L727.395 671.648L728.927 670.498L732.567 672.031L735.058 675.287L746.169 696.169L773.755 683.908L768.774 677.012L764.751 669.54L763.793 665.709L763.602 661.303L764.943 659.962L768.583 662.644L771.264 666.475L774.521 674.33L776.82 682.759L804.981 671.839L796.36 653.64L795.019 648.851L794.445 644.253L796.169 643.295L802.874 650.958L812.069 669.349L828.927 664.559L817.05 642.529L811.111 634.866L809.004 633.142H807.855ZM639.081 1450.96L609.77 1450.19H580.651L586.973 1462.84L591.188 1468.58L595.977 1473.56L601.341 1477.97L607.855 1481.42L616.475 1483.91L621.264 1484.48L630.651 1483.52L635.632 1481.42L639.081 1450.96ZM425.862 1497.7L439.655 1486.97L447.127 1482.57L454.981 1479.31L466.284 1477.01L472.222 1476.82L478.544 1477.78L484.291 1479.31L489.655 1481.8L494.828 1485.06L503.832 1493.49L508.812 1500L512.644 1506.71L515.9 1513.79L520.307 1528.93L521.839 1536.78L537.931 1524.14L543.678 1520.5L555.747 1515.13L562.069 1513.22L568.774 1512.45L576.054 1512.26L583.525 1513.22L590.422 1515.13L596.743 1517.82L608.621 1525.29L618.774 1535.25L630.843 1550.77L634.291 1506.71L634.674 1491.95L627.586 1492.91L620.881 1493.1L614.176 1492.53L607.855 1491L601.533 1488.51L595.402 1484.67L589.847 1480.27L585.058 1475.1L580.843 1469.54L574.521 1456.9L572.222 1450.19L418.774 1450L425.862 1497.7ZM381.801 1656.9L384.866 1650L397.318 1615.13L416.667 1555.94L419.54 1546.36L420.115 1541.95L419.157 1521.26L410.153 1447.7L410.537 1441.95L411.494 1440.04L413.219 1439.66L420.115 1441.57L426.628 1442.34L452.874 1441.57L499.617 1304.21L558.812 1132.38L525.862 1133.33L517.241 1132.95L511.878 1131.23L509.579 1129.5L507.28 1126.44L504.981 1122.22L501.341 1112.07L495.402 1092.53L444.061 1243.3L393.87 1394.25L314.176 1625.29L302.874 1656.32L381.801 1656.9ZM1113.6 1502.3L1062.84 1489.27L1029.31 1479.12L1013.03 1472.8L1007.09 1470.12L989.655 1459.58L978.736 1454.02L977.778 1455.75V1457.66L981.226 1462.45L990.038 1468.97L1004.21 1476.05L1026.05 1484.67L1058.81 1495.59L1074.52 1499.04L1084.1 1499.43L1083.52 1500.19V1499.04L1082.76 1500.38L1073.56 1501.72L1040.04 1504.02L970.69 1505.75L967.241 1506.51L964.559 1508.24L965.134 1509.96L966.475 1510.92L969.923 1512.07L974.33 1512.64L999.617 1511.11L1021.46 1511.3L1068.2 1509.2L1092.91 1506.71L1104.41 1504.6L1113.6 1502.3ZM993.104 1231.03L1007.66 1225.48L1022.41 1221.07L1037.55 1217.43L1067.43 1212.64L1069.92 1133.14L963.218 1133.33L978.544 1182.18L993.104 1231.03ZM522.605 1548.47L522.414 1565.71L520.498 1583.72L518.199 1592.53L515.134 1600.77L509.195 1610.73L505.364 1615.33L500.575 1619.35L495.211 1622.41L491.379 1623.75L483.142 1624.9L478.927 1624.52L471.264 1622.03L466.092 1618.97L461.494 1614.75L455.364 1605.75L450.383 1594.25L449.042 1588.51V1583.52L449.617 1580.65L451.724 1579.5L454.789 1581.99L463.602 1602.3L466.667 1607.28L472.414 1612.64L475.862 1614.75L479.694 1615.9L483.525 1616.09L491.188 1614.18L495.594 1611.69L499.234 1608.62L502.491 1604.98L506.322 1598.66L509.195 1591.95L511.686 1583.91L513.41 1575.1L514.368 1565.71L513.985 1546.74L512.644 1537.36L510.728 1528.16L508.046 1519.54L502.107 1506.32L495.019 1496.93L490.805 1492.91L485.824 1489.85L476.628 1486.21L465.709 1485.82L458.046 1488.12L445.019 1494.25L435.824 1499.81L426.437 1506.71L429.694 1548.85L434.674 1634.1L435.824 1677.01L464.943 1684.48L493.87 1688.89L513.218 1690.23L532.759 1690.61L552.874 1689.66L552.107 1680.08L552.299 1670.11L553.065 1663.6L556.13 1650.96L558.429 1644.83L561.686 1639.27L565.517 1633.72L573.563 1626.05L583.142 1620.31L588.506 1618.58L594.061 1617.43H599.234L604.215 1618.01L613.602 1621.26L618.008 1623.75L624.904 1629.31L629.31 1566.67L618.008 1548.08L607.088 1535.82L600.958 1530.46L594.061 1526.25L584.1 1522.41L572.989 1521.07L562.452 1522.41L554.598 1525.1L547.127 1528.74L540.23 1532.95L533.908 1537.93L522.605 1548.47ZM462.069 1441.57L635.632 1441L646.935 1441.57L657.855 1443.1L648.276 1396.36L599.425 1178.93L594.636 1155.75L590.613 1132.76L568.582 1132.38L510.345 1299.81L462.069 1441.57ZM538.697 481.226L508.621 481.992L500.383 482.759L493.295 484.291L488.697 486.015L485.058 488.123L482.184 490.805L480.077 493.87L477.778 500.575L477.203 505.747L477.778 511.494L481.418 531.801L504.406 627.778L509.962 653.065L512.261 643.103L517.816 627.586L524.33 616.284L528.353 611.303L533.142 606.705L543.487 600L553.257 596.169L563.41 594.444L573.946 594.636L579.119 595.402L587.165 597.701L594.636 601.149L601.724 605.556L608.238 610.92L613.793 616.858L618.774 623.563L633.333 650L637.74 656.13L643.104 661.494L647.127 664.559L656.705 668.966L663.602 670.498L670.498 671.264H684.483L674.904 660.345L666.475 649.234L661.494 641.571L657.088 633.525L653.832 625.096L650.575 611.877L649.809 604.789V597.126L652.874 575.287L640.805 559.77L637.74 554.023L636.207 550L635.824 545.785L636.015 541.379L637.356 537.165L639.655 533.717L645.977 528.161L656.897 522.989L599.425 493.87L587.356 495.594L582.376 495.402L575.096 494.061L568.008 491.571L561.111 488.123L549.617 481.035L538.697 481.226ZM868.008 1607.28L874.138 1615.9L880.843 1623.75L888.506 1630.84L896.552 1637.36L905.173 1643.1L923.946 1653.07L943.487 1660.92L958.621 1665.52L973.755 1669.35L993.104 1673.18L1012.45 1676.25L1061.11 1681.03L1149.23 1686.59L1201.92 1688.51L1263.41 1687.16L1382.95 1681.99L1402.11 1680.27L1404.21 1526.63L1313.6 1525.29L1250.96 1521.46L1188.89 1514.94L1126.63 1505.94L1107.66 1514.75L1068.39 1529.31L1011.88 1551.92L882.95 1600.96L868.008 1607.28ZM1413.98 1573.37L1423.75 1574.14L1445.21 1578.74L1459.58 1551.15L1464.94 1542.15L1476.82 1526.63L1478.74 1522.41L1414.94 1527.01L1413.98 1550.19V1573.37ZM526.054 348.276L540.996 347.701L528.544 300.766L523.755 284.866L520.115 276.628L501.724 295.019L512.261 337.739L515.709 348.084L526.054 348.276ZM1252.68 673.946L1268.77 672.031L1285.06 671.073L1301.72 670.881L1334.67 672.605L1354.02 675.096L1357.28 674.713L1355.36 668.391L1342.34 638.506L1340.04 631.226L1328.35 630.651L1316.86 629.119L1309.39 627.586L1295.02 622.605L1288.51 618.966L1282.18 614.559L1276.44 609.004L1271.84 603.257L1264.56 591.379L1261.69 583.525V579.694L1263.41 578.353L1266.28 579.119L1276.05 584.1L1279.69 585.057H1284.1L1290.23 582.759L1294.25 579.885L1298.28 576.054L1301.34 571.456L1303.45 566.284L1304.41 560.92V555.939L1303.26 551.149L1300 544.444L1295.59 539.847L1288.7 536.398L1284.87 535.632L1277.78 536.59L1274.52 537.931L1271.65 540.23L1269.54 543.103L1268.01 546.169L1266.86 553.065L1264.75 554.981L1262.07 555.939L1260.54 555.172L1259.96 553.448L1259.58 548.276L1261.88 524.904L1260.92 519.54L1259.58 516.284L1257.47 513.218L1254.21 510.345L1250 507.854L1241 504.981L1236.4 504.215L1223.37 505.556L1219.16 506.705L1215.52 508.621L1212.26 511.303L1209.39 516.092L1201.34 537.548L1198.66 542.529L1195.98 545.594L1184.87 555.939L1178.93 563.602L1177.2 568.966L1177.39 571.839L1178.54 574.713L1183.52 579.119L1198.85 586.399L1197.51 602.874L1198.08 611.303L1199.62 619.349L1203.64 629.694L1206.51 634.291L1210.54 638.889L1215.52 642.72L1221.26 645.594L1227.2 647.126L1233.91 647.51L1239.66 646.743L1245.4 645.211L1260.73 637.739L1262.26 637.356L1263.6 637.931L1264.18 641.379L1262.45 650.766L1252.68 673.946ZM680.843 525.096L709.004 522.031L709.579 521.073L704.598 518.391L677.969 508.621L628.736 487.548L611.878 481.418L607.28 487.74L625.479 497.51L680.843 525.096ZM594.828 1625.48L588.697 1627.78L578.736 1633.33L574.521 1637.16L570.69 1641.57L567.433 1647.13L564.56 1654.02L562.644 1660.92L561.494 1668.01L561.111 1675.29L561.494 1689.85L586.973 1686.4L604.406 1682.95L621.648 1678.35L624.138 1643.1L617.05 1635.25L608.621 1628.54L602.107 1626.05L594.828 1625.48ZM719.732 518.774L717.241 530.843L702.682 532.567L688.123 533.525L665.901 531.609H660.153L654.598 532.375L651.341 533.525L645.786 537.548L644.445 540.038L643.678 542.529L643.87 545.402L646.169 552.299L658.812 568.199L661.686 572.797L659.579 592.146L659.004 607.471L659.77 614.368L661.303 620.881L663.985 627.395L667.816 634.674L672.605 642.146L686.782 660.536L694.636 669.732L752.874 642.912L782.376 631.609L797.701 626.82L774.521 578.353L762.261 556.322L755.747 546.552L748.659 537.356L741.763 530.077L736.782 525.862L731.992 522.797L727.395 520.69L719.732 518.774ZM518.966 1112.45L526.437 1095.79L485.058 947.701L318.774 361.303L298.084 361.686L464.368 950.575L489.272 1036.4L500.383 1078.35L509.387 1106.51L514.751 1118.77L518.966 1112.45ZM708.621 727.395L715.901 751.724L724.521 776.245L760.537 868.774L780.077 916.284L790.996 939.847L802.107 962.261L810.153 976.82L826.628 1002.49L834.1 1012.07L842.146 1021.07L850.958 1029.89L860.345 1037.93L870.115 1045.21L880.268 1051.53L889.655 1056.51L899.617 1060.73L909.77 1064.18L930.651 1069.16L952.107 1071.26L973.563 1070.5L987.356 1068.39L1000.96 1065.52L1014.37 1061.49L1027.39 1056.51L936.399 849.234L913.41 863.985L900.383 870.881L894.445 873.18L889.847 874.329L887.74 873.372L887.165 871.073L887.548 868.582L893.487 863.985L917.433 849.808L937.165 839.081L869.157 721.839L854.406 697.126L839.464 673.946L837.931 672.414L835.632 672.605L818.966 677.203L802.874 682.759L786.973 688.889L763.602 699.042L740.422 710.345L724.138 718.391L708.621 727.395ZM775.479 1650.19L774.521 1640.61L771.264 1625.29L760.345 1581.03L736.973 1480.27L714.368 1379.12L665.517 1152.11L660.92 1133.52L600.766 1132.57L602.874 1150.38L657.663 1395.79L686.399 1522.61L715.901 1649.43L775.479 1650.19Z" fill="black"/>
<path d="M1257.47 1189.46L1262.64 1190.23L1264.75 1191.57L1266.28 1193.68L1268.01 1198.08L1269.16 1203.83L1269.73 1209.96L1269.16 1222.22L1268.2 1226.82L1265.9 1231.03L1261.88 1233.52L1256.9 1232.38L1253.45 1228.93L1251.34 1222.8L1250.77 1213.03L1251.72 1200.38L1252.87 1196.36L1254.79 1192.72L1257.47 1189.46Z" fill="black"/>
<path d="M1572.22 1487.93L1580.46 1487.36L1588.7 1487.74L1597.13 1488.89L1605.36 1491L1613.03 1493.68L1620.5 1497.32L1626.63 1501.34L1631.99 1506.13L1636.59 1511.3L1640.42 1517.24L1643.49 1523.56L1645.98 1530.65L1647.51 1537.93L1648.28 1552.3L1646.36 1566.67L1644.44 1573.75L1640.61 1583.91L1635.63 1593.68L1629.69 1602.87L1623.18 1611.11L1615.9 1618.97L1607.85 1626.05L1599.43 1632.57L1581.03 1643.87L1561.49 1653.07L1546.36 1658.62L1531.03 1663.22L1517.62 1666.09V1656.32L1516.48 1646.93L1514.18 1637.55L1510.73 1628.54L1506.51 1620.69L1501.92 1613.79L1496.55 1607.66L1484.48 1596.93L1477.59 1592.53L1466.67 1586.78L1454.79 1581.8L1460.15 1570.11L1466.09 1558.62L1472.99 1547.51L1485.06 1532.18L1499.43 1518.39L1515.71 1506.9L1533.52 1497.7L1552.49 1491.38L1572.22 1487.93Z" fill="#FFFEFF"/>
<path d="M1210.15 536.973L1212.64 540.038L1213.22 542.912L1213.41 555.556L1214.56 559.77L1215.71 561.686L1219.16 563.793L1225.1 563.985L1227.97 562.835L1230.27 561.111L1231.99 558.812L1232.95 556.897L1233.14 553.448L1232.76 551.341L1230.46 549.617L1226.63 549.234L1221.07 551.724L1216.67 552.299L1217.43 548.084L1218.97 545.402L1223.18 541.188L1226.82 540.613L1230.84 540.805H1231.99L1235.06 543.295L1240.04 549.234L1241.38 553.065L1241.76 555.939L1241.38 558.621L1239.08 563.602L1236.4 566.858L1232.95 569.349L1229.12 571.264L1224.9 572.222L1217.62 572.031L1213.98 570.881L1210.92 568.966L1208.81 566.667L1206.13 561.494L1204.6 552.49L1204.79 547.893L1205.56 544.061L1207.28 540.613L1210.15 536.973Z" fill="black"/>
<path d="M1278.35 547.893L1283.91 548.659L1286.21 549.617L1288.51 551.533L1290.61 554.406L1291.76 557.663V562.644L1290.42 566.858L1287.93 570.307L1283.72 573.18L1280.84 573.755L1274.14 573.563L1273.18 571.073L1272.99 568.391L1274.71 566.475L1281.99 562.261L1282.95 559.962L1282.57 557.471L1280.08 555.747L1271.07 552.682V551.341L1278.35 547.893Z" fill="black"/>
<path d="M1199.04 569.349L1202.11 570.881L1203.64 572.988L1208.81 582.95L1211.11 584.866L1218.77 588.697L1221.07 590.421L1222.61 592.72L1220.31 595.785L1214.37 595.594L1209 593.487L1204.79 590.421L1201.15 586.782L1197.7 581.034L1196.74 577.586V573.18L1199.04 569.349Z" fill="black"/>
<path d="M1230.65 596.36L1233.14 596.552L1234.48 598.467L1234.1 601.533L1232.95 604.598L1230.46 608.429L1223.95 614.751L1218.39 618.199L1212.07 620.881L1210.15 619.732L1209 617.816L1212.07 613.41L1224.52 602.49L1230.65 596.36Z" fill="black"/>
<path d="M1217.24 526.82L1222.61 527.203L1225.29 528.352L1226.82 530.46L1225.29 533.525L1222.61 536.015L1219.54 536.398L1215.13 535.249L1213.22 532.759L1214.75 529.31L1217.24 526.82Z" fill="black"/>
<path d="M698.851 679.502L703.065 683.333L706.705 689.08L712.069 700.192L714.368 706.897L714.751 710.345L714.368 713.218L709.004 709.387L704.406 701.916L698.851 688.506L698.276 682.376L698.851 679.502Z" fill="black"/>
<path d="M1164.37 368.199L1169.16 367.625L1173.95 368.008L1178.74 369.157L1182.95 371.456L1186.78 374.521L1189.85 378.352L1192.15 382.567L1193.68 387.165L1194.06 391.954L1193.68 396.935L1190.61 404.406L1187.74 408.429L1184.29 411.686L1180.08 414.176L1175.48 415.709L1170.31 416.475L1165.52 416.092L1161.11 414.943L1156.9 412.835L1153.07 409.962L1149.81 406.513L1147.51 402.299L1145.98 397.893L1145.21 393.295L1145.4 388.506L1146.55 383.908L1148.47 379.693L1152.11 374.904L1155.75 371.839L1159.77 369.54L1164.37 368.199ZM1172.99 408.238L1178.93 405.747L1183.52 401.341L1186.02 395.594L1186.21 389.08L1183.72 383.142L1179.31 378.544L1173.56 376.054L1167.24 375.862L1161.3 378.161L1156.51 382.759L1154.02 388.506L1153.83 394.828L1156.32 400.958L1160.73 405.556L1166.48 408.046L1172.99 408.238Z" fill="black"/>
<path d="M398.084 1059L403.448 1059.2L409.387 1061.88L413.601 1066.86L415.326 1072.03L415.134 1077.39L412.835 1082.38L408.429 1086.78L402.682 1089.08L396.743 1088.89L391.379 1086.4L387.356 1081.99L385.249 1076.44L385.441 1070.31L387.931 1064.94L392.529 1060.92L398.084 1059ZM402.682 1079.69L405.556 1076.82L406.322 1074.33L405.939 1071.84L404.598 1069.54L402.49 1068.2L399.808 1067.62L397.318 1068.2L395.402 1069.73L394.061 1071.84L393.678 1074.14L394.253 1076.44L395.594 1078.35L397.51 1079.69L399.808 1080.27L402.682 1079.69Z" fill="black"/>
<path d="M1078.54 510.536H1084.87L1089.08 511.877L1092.53 514.942L1094.83 519.732V525.096L1093.68 529.119L1091.57 532.567L1085.63 537.931H1079.5L1077.01 537.165L1072.41 534.291L1069.54 529.502L1068.77 523.946L1070.69 517.433L1072.61 514.751L1078.54 510.536ZM1082.95 529.885L1085.06 528.927L1086.59 527.395L1087.55 525.287L1087.74 522.988L1086.97 520.69L1085.25 518.965L1083.33 518.008L1080.84 517.816L1078.54 518.582L1076.63 520.115L1075.67 522.414L1075.48 524.904L1076.44 527.203L1078.16 528.927L1080.46 529.885H1082.95Z" fill="black"/>
<path d="M2870.31 397.701L3025.1 434.1L3202.87 474.904L3380.65 514.559L3595.4 560.536L3681.03 577.395L3688.7 580.46L3707.28 593.295L3737.74 617.433L3758.24 635.441L3752.49 654.406L3737.55 691.762L3627.78 979.885L3559.77 1154.6L3412.45 1545.98L3372.03 1654.79L3350.77 1714.94L3342.91 1734.67L3187.36 1734.87L3183.72 1734.29L3180.84 1732.57V1729.31L3181.61 1725.86L3239.46 1601.53L3293.49 1482.76L3346.17 1363.6L3504.6 980.843L3643.68 652.49L3658.24 619.157L3666.09 602.874L3674.71 586.782L3580.27 567.433L3427.59 534.866L3246.55 494.828L2909.2 417.05L2874.14 408.429L2465.9 1357.09L2371.65 1577.59L2339.46 1650.38L2323.75 1686.97L2309 1723.95L2371.65 1722.99L2468.01 1506.7L2526.63 1377.59L2584.1 1247.89L2640.42 1117.82L2685.25 1016.28L2728.93 914.368L2850 623.372L2892.91 517.241L2897.89 505.556L2903.45 494.636L2916.28 495.594L2929.5 497.701L3019.16 516.092L3131.23 539.655L3242.91 564.368L3354.21 590.613L3382.95 598.084L3573.75 641.954L3580.46 643.87L3585.06 645.977L3586.78 647.318L3587.55 649.234L3585.44 656.13L3582.57 663.218L3549.62 735.057L3468.2 921.264L3394.25 1095.59L3369.16 1153.45L3278.35 1353.45L3237.93 1441.19L3157.85 1619.92L3118.2 1711.3L3108.24 1732.76L3092.34 1733.33L2605.75 1732.95L2453.26 1734.29L2402.49 1733.52L2422.41 1687.74L2553.07 1402.3L2604.02 1287.74L2654.02 1172.8L2703.07 1057.28L2751.15 941.379L2867.82 650L2904.98 553.831L2912.07 533.333L2914.37 528.352L2917.43 523.755L2918.58 522.989L2927.01 524.138L2971.65 533.716L3315.13 612.452L3440.23 640.23L3492.34 651.341L3550.19 662.452L3569.16 667.05L3572.22 660.345L3574.9 653.448L3550.77 647.126L3478.16 630.46L3189.85 562.644L3099.81 542.912L3009.58 524.521L2943.1 510.153L2909.77 504.598L2872.03 597.318L2780.27 817.433L2706.9 990.421L2632.38 1162.84L2556.71 1334.87L2445.98 1580.27L2381.61 1725.67L2377.59 1733.14L2316.28 1734.1L2300.19 1732.57L2297.7 1731.61L2295.79 1729.89L2304.02 1707.66L2345.4 1614.37L2436.21 1402.11L2509 1228.93L2582.57 1056.13L2656.9 883.716L2809.96 533.716L2851.15 436.015L2865.71 404.023L2867.62 400.575L2870.31 397.701ZM2545.59 1443.49L2531.99 1472.03L2435.44 1684.67L2418.58 1723.37L2460.15 1724.14L2543.3 1723.37L2552.11 1695.21L2613.41 1514.94L2618.39 1498.85L2621.84 1491.19L2624.14 1489.27H2626.82L2629.5 1490.23L2630.46 1493.1L2630.08 1496.17L2600.96 1580.65L2568.58 1678.74L2552.68 1723.37L2735.82 1722.61L3102.11 1723.18L3116.09 1689.85L3149.04 1614.37L3168.01 1572.22L3197.51 1510.34L3204.21 1494.44L3210.15 1478.54L3190.8 1439.27L3181.23 1421.26L3160.92 1387.16L3149.43 1370.31L3136.78 1353.64L3111.88 1323.75L3092.91 1304.6L3076.25 1291.38L3073.56 1297.7L3070.5 1303.07L3066.67 1307.47L3062.26 1311.49L3050.96 1318.2L3040.8 1322.22L3029.89 1325.67L3018.39 1328.16L3006.71 1329.69L2995.02 1330.46L2983.14 1330.08L2971.46 1328.93L2960.54 1326.63L2945.59 1321.46L2936.4 1316.28L2932.38 1313.22L2928.93 1309.39L2926.44 1305.56L2925.48 1301.72L2925.1 1296.74L2926.05 1285.63L2930.08 1261.88L2904.02 1268.97L2878.16 1277.2L2852.49 1286.21L2802.3 1307.09L2777.59 1318.58L2740.8 1336.59L2704.6 1355.75L2633.33 1394.83L2575.29 1428.16L2545.59 1443.49ZM2891.95 943.487L2869.16 944.253L2854.21 946.743L2846.93 949.042L2840.04 951.916L2833.72 955.939L2827.78 960.92L2820.88 969.157L2818.01 974.138L2814.37 981.801L2811.88 989.847L2810.34 998.276L2809.77 1006.32L2810.34 1013.41L2811.69 1020.11L2813.79 1026.63L2816.86 1032.95L2820.69 1038.7L2825.48 1043.87L2835.06 1051.15L2845.79 1056.51L2844.64 1070.69V1084.1L2845.59 1096.93L2847.7 1109.39L2850.96 1121.65L2855.36 1133.52L2864.18 1150.77L2869.92 1159.39L2884.1 1177.01L2891.95 1185.44L2909.39 1200.38L2922.03 1209.2L2935.06 1217.05L2948.85 1223.95L2963.03 1230.08L2977.59 1235.25L2992.34 1239.66L3007.47 1243.29L3022.41 1246.17L3050 1249.23L3075.67 1250L3101.53 1248.08L3114.18 1246.17L3126.63 1243.49L3138.7 1240.04L3150.57 1235.82L3162.26 1230.84L3173.37 1224.9L3184.29 1218.2L3194.64 1210.34L3204.98 1201.72L3214.37 1192.15L3223.18 1182.38L3231.42 1171.84L3238.89 1160.92L3245.79 1149.43L3255.75 1149.04L3264.94 1147.51L3273.56 1145.02L3279.5 1142.34L3285.44 1138.89L3291.19 1134.67L3296.93 1129.5L3301.53 1124.33L3305.56 1118.77L3308.81 1112.84L3311.3 1106.32L3312.64 1099.81L3313.22 1090.8L3311.49 1081.23L3308.43 1073.95L3302.87 1066.09L3297.32 1061.11L3292.91 1058.05L3283.52 1052.68L3288.7 1034.1L3292.15 1025.29L3303.45 1001.92L3305.17 996.935L3306.13 992.72L3305.94 990.805L3304.79 988.697L3302.49 986.59L3284.1 975.862L3276.44 969.923L3271.84 965.326L3267.82 960.536L3264.56 955.172L3262.07 949.425L3260.54 942.912L3259.96 935.632L3260.34 927.969L3261.88 920.881L3264.56 913.793L3268.2 907.088H3257.09L3238.89 905.364L3225.1 901.341L3218.58 898.467L3212.45 894.636L3206.32 889.847L3201.34 884.483L3197.13 878.736L3194.06 872.605L3191.76 866.092L3188.7 851.916L3168.58 855.747L3147.13 857.854L3132.95 857.28L3119.54 854.215L3113.22 851.724L3107.28 848.276L3102.3 844.253L3098.08 839.847L3089.85 827.395L3085.82 818.965L3079.31 826.82L3072.22 833.716L3064.37 839.655L3058.05 843.295L3051.34 846.36L3044.25 848.659L3036.59 850.192L3027.01 851.149H3017.62L3008.43 850L3001.72 848.276L2995.21 845.785L2988.89 842.529L2982.76 838.697L2973.37 853.831L2968.58 860.153L2963.6 865.326L2958.24 870.115L2951.72 874.329L2944.64 878.161L2924.71 887.165L2919.92 890.613L2915.33 894.828L2911.49 900.192L2908.24 906.13L2898.85 931.801L2895.79 937.931L2891.95 943.487ZM2796.93 856.513L2779.89 895.785L2750 971.264L2796.17 960.728L2811.11 956.322L2822.61 951.341L2842.72 940.996L2851.53 937.739L2860.15 935.441L2868.97 934.291L2878.35 934.1L2888.31 934.674L2899.43 901.533L2901.92 896.36L2908.24 887.165L2912.07 883.142L2916.86 879.693L2922.61 876.437L2944.83 867.241L2955.56 860.345L2963.22 851.916L2972.41 833.525L2974.9 829.119L2978.35 825.862L2981.8 826.054L2984.67 827.395L2997.89 836.782L3007.66 840.23L3022.61 841.762L3037.74 840.613L3047.7 837.739L3053.64 834.483L3065.71 824.904L3084.29 806.705L3086.02 805.556H3086.97L3088.12 805.747L3090.8 808.238L3093.1 811.303L3100.19 825.287L3103.64 830.651L3107.47 835.249L3111.49 838.889L3115.9 841.954L3122.61 845.019L3129.5 847.126L3137.16 848.276H3152.49L3176.25 844.828L3194.25 838.889L3196.74 838.697L3199.43 839.464L3200.77 844.444L3200 855.747L3201.72 866.284L3205.94 874.713L3209.96 879.693L3214.56 883.908L3220.12 887.548L3225.86 890.421L3238.7 894.636L3246.36 895.977L3253.07 896.36L3272.61 896.169L3279.5 896.743L3282.18 897.51L3284.1 899.425L3282.57 903.64L3279.5 906.897L3276.44 912.261L3271.84 923.372L3270.5 929.31L3270.31 935.441L3270.88 941.571L3272.8 947.51L3275.67 953.065L3279.31 958.046L3283.72 962.644L3288.51 966.858L3306.7 977.778L3313.6 983.142L3316.48 988.123L3316.86 991.188L3316.09 998.276L3314.18 1003.83L3300.77 1030.65L3295.02 1046.93L3301.34 1050.77L3306.9 1055.17L3311.69 1059.96L3315.9 1065.33L3319.16 1071.46L3321.84 1078.35L3323.37 1085.82L3323.75 1093.29L3323.18 1100.96L3327.97 1110.15L3333.33 1117.82L3339.27 1124.9L3346.17 1131.23L3362.07 1143.1L3377.39 1109.58L3402.68 1051.53L3412.07 1026.82L3400.96 1021.46L3383.91 1014.18L3379.69 1011.49L3378.74 1009L3381.99 1002.87L3391.76 991.954L3396.93 984.483L3401.53 976.628L3405.36 968.199L3408.24 959.578L3409.96 950.766L3410.34 941.954L3409.96 935.249L3408.62 928.736L3406.32 922.222L3403.07 915.709L3399.04 910.153L3394.44 904.981L3389.27 900.766L3377.59 893.487L3371.26 890.613L3361.49 886.973L3339.46 880.46L3336.02 878.544L3334.48 876.82L3333.91 874.521L3342.72 854.598L3344.44 848.084L3345.4 841.188V833.908L3344.83 826.82L3343.3 819.923L3341.19 813.602L3338.12 807.471L3330.65 796.552L3326.05 791.762L3319.16 786.015L3311.69 781.226L3303.64 777.395L3295.21 774.521L3286.78 772.414L3278.16 771.073L3250.57 770.307L3241.38 769.732L3236.78 768.582L3238.51 744.828L3237.55 738.889L3235.63 733.142L3232.95 727.778L3229.5 722.797L3225.1 718.391L3216.09 712.069L3211.3 709.77L3203.45 707.28L3195.4 705.747L3187.16 704.981L3171.07 706.322L3155.56 710.153L3140.8 716.092L3127.01 724.138L3120.69 728.927L3101.34 746.36L3096.55 740.805L3089.66 729.31L3080.46 718.391L3069.54 709.962L3063.41 706.513L3050.38 701.916L3043.49 700.575L3036.21 700.192L3029.31 700.383L3019.54 702.49L3010.73 705.172L3005.17 707.663L2995.21 713.985L2986.21 722.605L2978.16 733.908L2965.52 760.728L2963.98 762.835L2961.69 764.176L2943.87 759.579L2934.87 758.238L2917.62 759.195L2909.2 760.536L2900.57 762.452L2884.48 768.391L2877.01 772.414L2869.92 777.395L2863.22 783.142L2857.28 789.464L2852.3 796.169L2847.89 803.257L2844.44 810.728L2841.76 818.391L2839.85 826.437L2838.7 834.674L2837.93 858.429L2807.28 856.13L2796.93 856.513ZM2946.93 1234.29L2935.63 1280.08L2934.1 1292.34L2934.48 1296.36L2935.63 1300L2937.55 1303.64L2940.23 1306.9L2947.51 1312.26L2954.02 1315.13L2960.73 1317.24L2974.14 1319.92L2991.19 1321.46H2999.81L3008.43 1320.69L3025.48 1317.62L3041.95 1312.07L3053.45 1306.13L3063.6 1298.28L3074.33 1259.77L3051.53 1258.43L3030.27 1256.32L3002.49 1251.53L2975.29 1244.25L2946.93 1234.29ZM2924.9 533.333L2882.38 637.931L2799.62 847.893L2814.37 847.701L2829.12 849.042L2828.74 839.847L2829.31 830.843L2830.65 822.031L2832.76 813.41L2835.82 804.981L2839.66 796.935L2844.44 789.272L2850.19 781.801L2856.13 775.479L2863.03 769.732L2870.31 764.751L2886.21 756.897L2894.64 753.831L2912.07 750L2930.27 748.659L2939.46 749.234L2957.85 752.682L2963.22 741.188L2969.73 729.885L2980.08 715.709L2986.02 709.387L2992.53 703.831L2999.62 699.234L3007.47 695.402L3020.69 691.762L3034.67 690.613L3048.47 691.762L3061.88 695.211L3068.39 697.701L3075.67 701.724L3082.38 706.513L3093.87 718.199L3104.02 731.418L3110.34 724.713L3117.43 718.582L3124.9 713.218L3133.14 708.621L3141.57 704.598L3150.38 701.341L3159.39 698.659L3177.59 695.785L3186.97 695.402L3195.98 695.785L3204.98 697.318L3213.79 700L3224.52 705.556L3231.61 711.111L3238.89 719.54L3244.25 728.927L3246.93 736.782L3248.85 747.51L3249.23 761.111L3263.79 760.536L3278.35 761.303L3287.93 762.644L3297.13 764.751L3306.32 767.625L3314.94 771.456L3323.18 776.437L3331.23 782.759L3337.74 789.272L3343.3 796.36L3347.89 804.406L3350.77 810.728L3354.6 823.946L3355.36 830.843V837.931L3353.26 851.916L3350.38 861.877L3346.36 872.031L3366.86 878.352L3386.97 886.782L3394.64 892.529L3401.53 898.851L3407.47 905.747L3411.49 911.303L3414.56 917.433L3417.24 924.138L3418.97 931.226L3419.92 940.038V948.659L3418.58 957.088L3416.67 965.326L3410.15 981.226L3404.02 992.72L3394.25 1006.9L3416.28 1017.62L3502.11 816.092L3543.68 723.755L3559.58 687.165L3564.18 674.904L3494.83 661.494L3425.86 647.126L3356.9 631.992L3260.54 609.579L3074.52 568.008L2985.44 547.318L2944.06 539.08L2924.9 533.333Z" fill="#020202"/>
<path d="M3049.23 1066.09L3056.13 1066.28L3058.81 1067.43L3063.41 1071.07L3066.67 1076.63L3068.01 1084.29V1090.61L3065.9 1103.07L3060.73 1119.35L3055.75 1130.65L3047.51 1145.02L3042.53 1151.72L3036.97 1157.66L3030.84 1162.84L3024.33 1166.86L3018.39 1167.43L3015.52 1166.86L3012.64 1165.52L3010.34 1163.6L3008.62 1161.11L3006.51 1153.45L3006.13 1148.85L3006.51 1141.76L3009.2 1127.01L3015.33 1108.05L3018.97 1099.62L3023.18 1091.38L3028.35 1083.52L3034.29 1076.63L3038.7 1072.41L3043.68 1068.97L3049.23 1066.09Z" fill="#020202"/>
<path d="M2956.9 965.517L2954.98 957.854V954.023L2956.13 950.192L2957.85 946.935L2963.03 941.954L2970.31 938.889L2974.71 938.506L2978.93 938.889L2982.95 940.038L2988.31 943.678L2991.76 949.042L2992.34 953.448L2991.95 957.471L2988.89 965.517L2981.8 971.264L2977.59 973.18L2972.8 973.946L2969.54 973.755L2963.22 971.456L2960.54 969.54L2956.9 965.517Z" fill="#020202"/>
<path d="M2956.9 965.517H2988.89L2981.8 971.264L2977.59 973.18L2972.8 973.946L2966.28 972.988L2963.22 971.456L2960.54 969.54L2956.9 965.517Z" fill="#020202"/>
<path d="M3182.95 982.759L3187.93 982.567L3192.91 983.142L3195.98 984.1L3200.96 987.739L3204.21 993.104L3204.79 999.617L3202.87 1006.32L3199.23 1011.3L3191 1016.86L3183.72 1017.05L3178.16 1015.52L3172.8 1011.49L3169.54 1005.56L3169.16 999.042L3171.26 992.529L3174.9 987.931L3182.95 982.759Z" fill="#020202"/>
<path d="M3197.89 925.096L3207.47 926.628L3213.6 929.31L3224.9 936.59L3235.06 945.977L3243.49 956.896L3249.81 968.582L3253.26 979.119L3253.45 986.398L3252.49 990.038L3248.47 990.23L3246.36 989.08L3244.64 987.356L3241.76 981.992L3235.25 965.134L3232.57 959.578L3229.12 954.214L3224.33 949.425L3218.77 945.402L3202.3 935.632L3198.85 932.567L3197.51 928.927L3197.89 925.096Z" fill="#020202"/>
<path d="M3076.63 978.161H3083.91L3086.21 979.119L3089.85 982.567L3092.53 989.464L3093.3 995.211L3092.53 1007.09L3089.85 1017.43L3086.59 1022.41L3084.87 1023.37L3083.14 1021.65L3082.18 1018.58V1011.11L3083.91 997.318L3083.33 991.762L3081.99 986.398L3077.01 988.314L3074.71 990.421L3071.84 994.061L3063.79 1007.85L3061.11 1012.07L3058.05 1014.75H3055.75L3053.64 1013.41L3052.87 1010.34L3053.45 1007.28L3055.36 1001.72L3058.62 995.977L3062.64 990.613L3072.03 981.226L3076.63 978.161Z" fill="#020202"/>
<path d="M2856.9 964.559L2863.79 965.517L2867.05 966.858L2869.73 968.774L2872.03 972.414L2872.61 976.437L2870.88 978.352L2868.2 979.119L2864.18 977.586L2859.58 973.563L2856.32 974.138L2850.96 977.969L2846.17 984.1L2843.1 991.379L2842.34 994.636V996.935L2843.49 1000.57L2844.83 1002.49L2847.13 1003.45L2854.21 1004.21L2856.32 1004.98L2857.28 1006.9L2856.9 1009.2L2854.6 1011.49L2851.72 1013.03L2846.36 1013.79L2843.68 1013.41L2838.51 1010.54L2836.21 1008.24L2833.33 1002.49L2832.76 994.828L2835.44 985.057L2838.12 979.885L2841.76 974.521L2845.98 970.115L2849.23 967.816L2856.9 964.559Z" fill="#020202"/>
<path d="M2991.38 885.249L3002.11 884.291L3012.45 884.483L3015.9 885.058L3020.11 887.356L3020.88 888.889V890.613L3018.39 892.146L3010.92 893.678L2990.23 895.019L2982.95 896.935L2976.05 899.809L2966.28 905.747L2962.84 907.088L2958.24 908.046L2953.83 907.28L2954.02 904.789L2957.85 899.425L2961.11 896.552L2971.46 890.805L2978.35 888.314L2991.38 885.249Z" fill="#020202"/>
<path d="M3281.23 1078.16L3286.78 1078.93L3288.89 1080.08L3292.53 1083.72L3294.83 1088.89L3295.21 1095.98L3292.91 1105.94L3290.8 1110.15L3285.82 1116.86L3279.12 1121.84L3274.9 1123.75L3270.5 1123.56L3266.86 1121.84L3267.05 1119.54L3268.58 1117.24L3282.38 1105.56L3283.91 1103.45L3285.25 1099.62L3285.44 1096.55L3284.87 1093.49L3281.42 1085.06L3280.84 1081.99L3281.23 1078.16Z" fill="#020202"/>
<path d="M3692.91 711.877L3695.4 713.41L3696.93 715.517L3685.25 748.084L3640.61 859.195L3609.58 934.674L3590.61 979.119L3588.12 978.161L3586.21 976.437L3586.97 970.307L3588.7 964.559L3604.79 923.946L3654.79 802.49L3685.25 725.479L3692.91 711.877Z" fill="white"/>
<path d="M3395.59 1460.15L3397.89 1461.49L3399.62 1463.79L3399.23 1469.35L3397.89 1474.71L3363.22 1564.56L3327.39 1653.83L3315.33 1686.02L3304.79 1710.54L3301.72 1716.09L3299.62 1715.52L3297.7 1714.18L3298.08 1707.85L3300 1701.72L3315.9 1660.15L3366.28 1536.4L3389.66 1473.56L3395.59 1460.15Z" fill="white"/>
<path d="M3545.98 1056.13L3550.19 1059.2L3547.7 1067.24L3533.33 1105.75L3512.26 1157.85L3509.77 1156.7L3508.05 1154.6L3512.07 1138.12L3519.54 1116.86L3528.93 1094.06L3545.98 1056.13Z" fill="white"/>
<path d="M3629.5 364.176H3638.12L3642.34 364.943L3646.55 366.667L3649.62 368.966L3651.92 371.839L3653.45 375.479L3654.21 380.077L3653.45 384.866L3649.81 393.678L3645.59 399.808L3640.61 405.364L3634.67 410.536L3621.46 419.54L3614.18 423.372L3602.87 428.544L3591.38 432.759L3569.73 439.08L3555.36 442.146L3550.96 442.337L3548.08 441.379L3546.36 439.08V435.249L3547.32 431.609L3551.34 424.904L3558.24 415.517L3566.28 405.556L3575.29 396.169L3592.15 381.801L3606.51 372.605L3614.18 368.966L3621.84 366.092L3629.5 364.176Z" fill="#020202"/>
<path d="M2492.53 402.299L2500.96 402.682L2506.71 403.831L2512.45 405.747L2520.69 409.77L2528.54 414.751L2535.82 420.498L2550 434.483L2564.18 452.107L2572.41 465.134L2575.29 471.264L2577.2 477.203L2577.78 481.992L2577.39 484.483L2574.9 488.506L2572.8 489.655L2565.9 489.847L2563.22 489.08L2549.04 484.1L2541 480.46L2529.5 473.946L2518.01 466.283L2506.9 457.854L2497.32 448.851L2486.59 436.207L2482.76 430.077L2479.89 422.222L2479.5 418.199L2480.27 414.176L2482.38 409.962L2485.06 406.897L2492.53 402.299Z" fill="#020202"/>
<path d="M2280.65 920.306L2295.21 921.073L2324.52 925.096L2451.92 940.038L2570.5 952.682L2575.67 953.448L2577.59 954.406L2579.69 956.322L2579.31 959.77L2577.97 962.644L2543.1 959.578L2508.24 955.939L2330.84 935.249L2288.7 931.418L2282.18 929.693L2279.12 927.203L2279.31 923.563L2280.65 920.306Z" fill="#020202"/>
<path d="M2585.63 258.238L2591 258.812L2596.36 266.667L2619.35 309.004L2682.57 430.46L2708.62 474.33L2721.07 491.379L2722.61 494.636L2722.8 498.084L2721.26 501.341L2716.09 500.958L2714.18 499.808L2710.73 495.977L2703.07 485.249L2683.14 452.299L2665.52 421.264L2587.74 271.264L2584.87 263.602L2585.63 258.238Z" fill="#020202"/>
<path d="M2478.54 519.54L2481.8 520.307L2486.78 522.797L2495.21 527.969L2515.71 543.103L2540.8 563.218L2567.62 586.207L2593.87 609.77L2616.67 631.609L2633.14 649.234L2638.7 656.322L2641 660.345V664.176L2639.66 667.816H2636.02L2633.14 666.475L2614.56 645.594L2597.13 627.778L2560.54 594.061L2506.51 548.467L2490.8 538.123L2480.84 530.077L2477.39 525.671V522.605L2478.54 519.54Z" fill="#020202"/>
<path d="M3486.59 258.621L3490.42 260.728L3491.57 264.176L3489.66 268.199L3485.82 273.755L3456.51 307.471L3412.64 364.943L3383.33 406.705L3372.99 420.498L3365.9 428.353L3361.49 425.287L3361.11 421.073L3366.86 410.536L3380.08 391.379L3398.28 366.284L3441.19 310.536L3461.11 286.015L3477.01 267.816L3486.59 258.621Z" fill="#020202"/>
<path d="M2365.13 687.165L2378.93 694.061L2407.85 711.686L2514.18 774.138L2537.55 786.398L2542.53 790.613L2542.15 794.061L2540.8 797.51L2536.02 796.552L2528.54 793.678L2521.26 789.847L2468.58 759.579L2383.33 709.195L2368.39 699.425L2363.98 695.594L2362.84 693.87L2363.03 691.954L2365.13 687.165Z" fill="#020202"/>
<path d="M3250.19 214.943L3255.17 216.284L3256.9 219.157L3253.45 229.693L3246.17 245.594L3223.18 291.762L3207.66 327.203L3201.92 338.506L3196.17 337.356L3195.4 335.249L3195.59 332.184L3197.32 325.67L3200.19 318.199L3213.6 286.973L3224.71 263.793L3235.63 242.146L3250.19 214.943Z" fill="#020202"/>
<path d="M3503.26 413.027H3510.34L3515.13 414.943L3516.67 416.667L3517.43 418.582L3517.62 420.69L3516.86 424.904L3514.37 431.035L3510.92 436.398L3506.7 440.996L3496.74 448.467L3491 451.533L3484.67 452.682L3481.99 452.299L3480.08 451.149L3478.54 448.851L3477.78 445.211L3478.35 441.188L3481.23 433.908L3486.78 424.904L3493.87 418.008L3503.26 413.027Z" fill="#020202"/>
<path d="M3031.99 217.816L3036.78 219.54L3038.31 221.456L3039.27 233.525L3036.97 287.739L3036.78 313.793L3036.02 322.222L3034.87 325.096L3032.76 327.778L3029.31 326.437L3027.97 325.096L3027.01 319.923L3026.63 313.218L3027.2 274.521L3028.74 235.057L3029.5 224.138L3030.27 220.69L3031.99 217.816Z" fill="#020202"/>
<path d="M2813.03 247.51L2816.28 249.042L2818.39 253.257L2829.89 301.149L2833.91 321.264L2837.36 344.636L2837.55 348.084L2835.63 353.065L2830.46 351.341L2827.78 343.295L2823.95 327.969L2816.09 288.889L2810.54 258.046L2810.34 254.406L2810.92 251.149L2813.03 247.51Z" fill="#020202"/>
<path d="M1509.2 2399.81L1518.39 2398.85L1539.66 2399.43L1561.69 2401.92L1591.76 2407.66L1614.56 2413.79L1636.78 2421.65L1658.24 2431.42L1668.58 2436.78L1688.7 2449.04L1707.85 2462.84L1725.67 2478.16L1734.1 2486.4L1750 2503.83L1757.47 2513.22L1777.78 2543.49L1780.27 2532.38L1785.82 2514.37L1792.53 2500.96L1797.7 2493.68L1804.41 2486.4L1811.69 2479.89L1819.92 2474.14L1825.67 2470.88L1836.97 2467.05L1841.57 2466.48L1845.79 2467.62L1845.98 2469.54L1842.72 2473.18L1838.7 2476.25L1820.69 2485.82L1813.79 2491.38L1807.66 2497.7L1802.49 2504.79L1794.25 2520.11L1791 2528.35L1787.16 2541.19L1784.67 2554.02L1809.77 2604.79L1821.46 2630.27L1839.46 2672.61L1845.02 2689.08L1845.59 2693.1L1844.25 2696.93L1842.34 2697.13L1840.42 2695.4L1836.4 2689.08L1802.3 2611.11L1792.91 2591.76L1772.41 2554.41L1757.85 2531.23L1749.81 2519.92L1732.38 2499.04L1722.61 2489.27L1701.72 2471.26L1678.74 2455.17L1662.64 2445.79L1645.98 2437.36L1628.74 2430.08L1611.11 2423.75L1593.1 2418.58L1574.9 2414.75L1547.13 2411.11L1519.54 2410.34L1490.04 2412.45L1475.29 2414.75L1460.92 2417.62L1446.55 2421.26L1432.57 2425.86L1418.97 2431.23L1405.75 2437.74L1393.1 2445.02L1375.29 2457.85L1358.81 2473.18L1351.53 2481.42L1344.64 2490.42L1338.12 2500.19L1327.2 2520.88L1318.77 2543.1L1313.03 2565.71L1311.49 2577.2L1310.73 2588.51V2599.81L1312.26 2609.2L1323.95 2634.67L1385.63 2794.25L1425.29 2893.68L1461.88 2978.93L1499.62 3063.6L1538.7 3147.7L1579.12 3231.23L1599.04 3271.07L1619.54 3310.73L1640.8 3349.81L1660.73 3384.48L1671.26 3401.53L1682.76 3417.82L1697.89 3436.21L1714.56 3451.72L1723.56 3458.62L1733.14 3464.75L1743.49 3470.5L1754.6 3475.48L1770.69 3481.03L1777.39 3484.87V3486.4L1773.18 3487.93L1769.73 3487.74L1762.26 3485.82L1745.59 3480.08L1735.63 3475.48L1726.25 3470.5L1717.43 3464.75L1706.32 3456.32L1695.79 3446.93L1686.02 3436.59L1676.82 3425.86L1659.77 3402.49L1648.28 3384.1L1637.55 3365.13L1600.19 3295.79L1560.34 3215.9L1498.85 3226.25L1329.12 3259.2L1113.03 3304.02L1005.56 3327.78L940.23 3340.61L918.774 3345.4L914.751 3349.62L909.579 3353.45L904.215 3356.13L898.659 3358.05L886.782 3359.39L880.46 3359L872.989 3362.64L865.9 3365.33L859.195 3366.67L852.299 3367.24L844.828 3366.86L836.782 3365.33L833.525 3369.73L826.628 3376.05L818.774 3380.27L814.368 3381.61L809.77 3382.18H803.831L798.467 3381.23L793.678 3379.31L786.973 3375.29L780.268 3369.92L768.199 3373.95L755.747 3377.01L730.268 3381.23L704.981 3384.29L765.709 3553.26L785.824 3605.17L791.954 3622.61L793.103 3626.82L793.487 3631.23H792.146L789.08 3627.78L783.333 3619.16L768.199 3584.67L736.398 3498.66L705.172 3412.64L675.096 3326.05L641.762 3222.99L593.87 3067.82L549.234 2928.16L534.866 2884.1L519.732 2840.42L497.318 2782.18L480.077 2744.44L470.498 2725.86L460.92 2709.2L450 2692.15L433.717 2670.31L424.713 2660.15L415.134 2650.38L404.981 2641.57L394.444 2633.72L386.015 2628.35L377.203 2623.75L368.199 2619.73L359.004 2616.67L349.042 2614.37L339.081 2613.22H328.927L318.582 2613.98L308.621 2615.71L298.659 2618.2L279.502 2625.48L270.498 2629.89L258.046 2637.55L246.169 2645.98L235.058 2655.36L224.713 2665.33L214.943 2676.25L205.939 2687.55L197.701 2699.43L190.038 2712.07L183.333 2725.1L177.395 2738.31L172.222 2751.72L167.816 2765.71L163.41 2783.14L159.962 2800.57L157.471 2818.01L155.747 2835.44L154.789 2853.07V2870.69L155.556 2888.31L156.897 2906.32L159.77 2929.5L163.41 2952.87L167.816 2975.86L178.353 3021.84L194.636 3078.93L205.172 3112.64L246.552 3235.63L267.05 3291L288.506 3346.17L315.709 3411.3L330.268 3443.68L345.977 3475.48L356.897 3496.36L380.46 3537.16L396.552 3561.49L405.172 3572.99L414.559 3583.91L424.521 3594.44L444.445 3611.49L453.831 3618.39L470.115 3627.78L473.755 3630.65L476.054 3633.52L474.904 3634.87L469.54 3634.48L457.28 3630.27L450.192 3626.82L435.824 3617.24L426.82 3609.77L418.008 3601.34L409.195 3591.95L396.743 3577.01L384.866 3561.11L364.368 3529.12L348.276 3499.81L332.567 3503.07L317.625 3505.36L303.065 3506.51L288.697 3506.9L274.33 3505.94L259.962 3503.83L238.697 3498.47L216.475 3489.85L196.36 3479.12L178.161 3465.9L169.923 3458.43L154.789 3442.15L148.084 3433.14L136.59 3414.18L127.203 3393.3L123.372 3380.84L120.69 3368.2L119.157 3355.56L118.774 3342.72L119.54 3329.89L121.264 3317.24L124.138 3304.79L128.161 3292.53L132.95 3280.46L137.931 3270.69L143.487 3261.88L149.617 3253.45L156.13 3245.98L165.709 3236.4L176.245 3227.97L187.356 3220.31L199.234 3213.6L211.877 3207.66L224.904 3202.3L210.92 3161.49L181.035 3066.86L171.839 3034.29L163.602 3001.72L156.513 2969.16L152.49 2947.32L147.127 2904.21L145.402 2868.77L145.594 2833.14L121.648 2805.94L117.241 2799.23L117.816 2796.74L119.54 2795.02L122.797 2795.79L126.628 2797.89L134.1 2804.21L146.743 2818.01L153.448 2784.48L157.471 2767.82L162.261 2751.34L167.05 2737.93L172.797 2724.71L179.31 2711.49L186.782 2698.85L194.828 2686.59L203.64 2674.71L213.027 2663.41L222.989 2653.07L233.525 2643.3L243.678 2635.06L254.406 2627.59L265.709 2620.88L277.395 2615.13L289.655 2610.34L302.107 2606.71L311.494 2604.6L321.264 2603.45L331.035 2603.07L340.996 2603.45L351.916 2604.98L362.261 2607.28L372.031 2610.73L381.418 2614.94L390.422 2619.73L407.471 2631.61L423.18 2645.4L444.636 2668.58L452.299 2646.55L462.261 2626.44L474.713 2607.66L489.847 2590.04L500.575 2579.69L512.261 2570.31L524.521 2561.49L537.356 2553.64L550.766 2546.55L564.559 2540.23L578.736 2534.87L593.295 2530.46L608.046 2526.82L622.989 2524.14L637.739 2522.61L652.49 2522.03L667.625 2522.22L681.226 2523.37L693.678 2525.1L705.939 2527.78L717.433 2531.42L728.353 2535.63L738.889 2540.8L749.425 2546.93L759.77 2554.02L780.077 2570.88L790.805 2581.03L795.402 2563.03L801.341 2548.85L810.92 2532.95L816.858 2525.48L825.287 2516.28L834.483 2507.47L844.636 2499.43L855.172 2491.76L877.203 2478.35L894.253 2469.73L910.728 2462.26L929.885 2454.6L950 2447.89L970.881 2441.95L1002.68 2435.44L1018.97 2433.14L1051.72 2430.65H1067.82L1084.1 2431.42L1100 2432.95L1115.9 2435.63L1131.42 2439.08L1146.55 2443.49L1161.3 2448.66L1173.56 2454.21L1196.55 2466.67L1207.28 2473.75L1220.88 2484.1L1233.91 2495.4L1246.17 2507.66L1257.66 2520.5L1268.58 2534.1L1285.25 2558.24L1296.93 2578.35L1301.92 2588.89L1302.3 2575.48L1304.02 2562.07L1306.7 2548.28L1310.73 2534.67L1315.52 2521.65L1321.26 2508.81L1327.97 2496.55L1335.44 2485.06L1343.49 2474.52L1351.53 2465.52L1359.96 2457.09L1368.77 2449.62L1377.97 2442.72L1391 2434.29L1404.41 2427.01L1418.58 2420.69L1432.95 2415.33L1447.7 2410.73L1462.84 2406.9L1493.68 2401.53L1509.2 2399.81ZM796.935 2588.7L805.172 2600.57L819.54 2624.52L831.226 2649.23L836.398 2661.88L843.103 2681.42L853.64 2719.16L854.215 2727.39L853.64 2729.69L852.299 2730.27L848.084 2723.56L843.487 2712.07L832.375 2677.2L826.054 2660.54L818.966 2644.64L811.111 2629.5L802.49 2614.75L792.912 2601.15L782.759 2588.31L774.33 2579.5L765.517 2571.26L756.322 2563.6L746.552 2556.71L736.207 2550.57L725.479 2545.21L714.176 2540.8L702.107 2536.97L690.038 2534.29L677.203 2532.57L663.602 2531.61L649.234 2531.99L634.1 2533.14L619.349 2535.25L604.598 2538.31L590.23 2542.15L575.862 2546.93L562.069 2552.49L548.851 2559L535.824 2566.48L523.372 2574.71L511.494 2583.72L500.383 2593.68L489.847 2604.79L483.717 2612.07L473.563 2626.82L467.05 2638.31L449.234 2674.33L460.153 2690.04L470.307 2705.94L479.694 2722.41L496.743 2756.13L514.943 2799.81L538.314 2862.64L610.153 2842.91L682.184 2824.33L754.598 2806.51L827.012 2789.85L899.808 2774.14L972.797 2759.39L1045.98 2745.4L1174.33 2723.56L1229.5 2715.52L1284.87 2708.62L1340.42 2702.49L1317.62 2645.79L1309.39 2626.82L1291.19 2589.85L1281.03 2572.03L1270.31 2554.79L1258.62 2538.31L1249.23 2526.44L1239.08 2515.13L1228.54 2504.6L1217.24 2494.44L1205.36 2485.06L1192.72 2476.63L1179.31 2468.77L1164.75 2461.69L1152.11 2456.7L1139.08 2452.11L1125.48 2448.28L1111.69 2445.21L1097.89 2442.91L1083.72 2441.38L1069.73 2440.8L1055.75 2441L1042.15 2441.95L1011.11 2445.59L978.927 2451.53L946.552 2460.15L930.651 2465.33L914.943 2471.46L899.808 2478.16L884.866 2485.63L870.881 2493.87L857.28 2502.87L847.701 2510.34L830.268 2526.44L822.222 2535.25L816.092 2543.1L810.92 2551.53L806.322 2560.34L802.299 2569.54L799.234 2579.12L796.935 2588.7ZM541.379 2872.22L557.663 2922.03L568.199 2918.77L654.406 2898.66L740.805 2879.5L912.261 2843.87L997.318 2827.78L1241.57 2787.74L1327.59 2772.61L1364.94 2765.52L1344.44 2712.64L1334.1 2713.03L1254.21 2722.8L1174.52 2734.1L1095.21 2746.55L1015.9 2760.54L936.973 2775.86L858.238 2792.53L779.885 2810.54L648.659 2843.3L568.199 2863.98L541.379 2872.22ZM233.717 3461.69L255.939 3465.71L266.092 3466.67L281.418 3467.24L296.743 3466.48L329.119 3462.26L303.448 3407.47L274.138 3337.16L257.854 3294.83L233.142 3224.33L227.778 3210.92L202.107 3223.37L182.184 3235.82L166.858 3248.66L159.962 3255.94L153.64 3263.41L147.893 3272.03L142.72 3281.23L138.123 3291.57L134.483 3301.72L131.609 3312.26L129.502 3323.37L128.161 3334.48L127.969 3345.59L128.544 3356.9L130.077 3368.01L132.759 3378.54L136.59 3388.7L140.613 3396.55L145.402 3404.21L151.149 3411.3L163.985 3424.52L171.073 3430.46L182.567 3438.7L194.636 3445.79L206.897 3452.11L218.966 3457.09L233.717 3461.69ZM728.544 3320.88L708.238 3327.39L687.739 3332.18L702.49 3376.05L710.536 3374.14L750.958 3368.01L747.51 3362.64L745.402 3357.85L744.061 3352.87L743.678 3342.34L745.594 3330.08L734.1 3322.61L728.544 3320.88ZM1529.31 3154.41L1324.9 3203.64L1273.56 3215.33L1121.46 3246.36L949.234 3279.12L926.054 3284.29L929.119 3302.68L929.31 3311.11L927.011 3324.9L922.414 3337.16L941.762 3332.18L1050.77 3307.47L1159.96 3283.72L1269.35 3260.73L1378.93 3238.89L1521.84 3211.88L1555.75 3206.51L1537.55 3167.24L1530.84 3154.6L1529.31 3154.41Z" fill="#000101"/>
<path d="M901.533 2894.64L914.751 2903.07L940.422 2922.61L955.364 2932.18L970.881 2940.8L986.59 2949.04L1010.73 2959.96L1035.44 2969.92L1025.1 2975.48L1018.97 2981.23L1016.09 2986.02L1015.52 2988.51L1016.48 2992.53L1019.92 2995.79L1022.41 2996.74H1026.82L1033.14 2995.21L1061.49 2986.02L1068.39 2984.48L1073.75 2984.1L1082.18 2985.25L1108.05 2991.19L1125.1 2994.25L1160.34 2999.04L1177.78 3000.19L1188.7 2987.55L1195.02 2981.99L1201.72 2976.82L1209 2972.8L1216.48 2969.35L1222.22 2967.62L1233.33 2966.67L1238.89 2967.24L1244.44 2968.58L1250 2970.88L1259.96 2977.39L1264.37 2981.42L1270.31 2988.31L1275.48 2995.98L1279.5 3004.21L1283.91 3016.09L1286.59 3031.03L1286.4 3046.36L1282.95 3061.11L1278.74 3071.84L1274.14 3079.69L1269.16 3086.4L1263.6 3092.34L1250.96 3102.68L1244.06 3106.9L1233.14 3112.26L1221.65 3117.05L1197.7 3125.29L1192.53 3159.58L1187.93 3181.42L1176.82 3224.33L1083.52 3244.06L989.847 3262.84L982.184 3259.39L970.115 3252.3L959.004 3244.44L948.851 3235.82L939.272 3226.44L930.46 3216.48L922.414 3205.94L915.134 3194.83L908.429 3182.95L900.383 3166.86L893.678 3150.19L887.74 3133.14L882.376 3113.79L877.969 3093.87L874.521 3073.56L872.222 3053.07L871.264 3032.76L871.456 3012.07L872.414 2996.74L873.946 2981.61L876.628 2966.48L879.885 2951.53L883.908 2936.97L888.889 2922.41L894.828 2908.43L901.533 2894.64Z" fill="#FEFEFE"/>
<path d="M931.801 3035.44L938.889 3036.02L943.103 3037.74L950.191 3043.87L957.28 3053.64L960.536 3059.77L964.559 3069.35L967.624 3079.31L968.774 3086.02L969.54 3098.08L968.774 3103.45L967.433 3107.85L965.134 3111.88L961.494 3115.71L956.322 3116.09L952.682 3115.33L949.808 3113.79L944.636 3109.2L940.23 3103.64L936.207 3096.93L929.502 3081.8L925.479 3065.9L924.521 3058.05V3051.15L925.096 3046.17L926.437 3042.34L928.544 3038.89L931.801 3035.44Z" fill="#000101"/>
<path d="M1046.93 3006.71L1055.17 3007.09L1060.73 3009.96L1067.24 3017.43L1071.07 3023.75L1074.33 3030.84L1079.12 3046.17L1081.42 3061.3L1080.84 3072.99L1079.69 3077.39L1077.39 3081.42L1074.14 3085.44H1070.31L1064.18 3083.72L1061.11 3081.61L1056.7 3077.2L1052.49 3071.84L1045.98 3058.81L1043.49 3051.92L1040.23 3038.12L1039.46 3024.9L1040.61 3018.58L1041.95 3014.56L1046.93 3006.71Z" fill="#000101"/>
<path d="M978.544 3036.59L982.375 3037.74L985.632 3045.21L988.889 3057.85L996.743 3095.79L1000.96 3112.07L1006.13 3127.97L1008.05 3131.99L1012.45 3138.31L1017.24 3141.38L1022.03 3141.76L1026.63 3140.23L1031.99 3137.16L1035.25 3134.1L1037.55 3130.84L1038.89 3127.39L1041.57 3115.33L1043.1 3110.54L1044.64 3108.05L1047.13 3106.51L1050 3109.58L1051.15 3116.86L1049.43 3124.14L1044.44 3135.44L1038.12 3143.1L1034.29 3146.17L1030.08 3148.66L1025.29 3150.38L1020.31 3150.77L1015.9 3150L1012.07 3148.28L1005.17 3142.72L1002.49 3138.7L996.168 3123.56L986.973 3091.95L980.268 3059.2L978.544 3042.15V3036.59Z" fill="#000101"/>
<path d="M922.605 2995.4L928.352 2995.21L933.908 2995.98L939.655 2998.85L942.146 3001.15L943.678 3003.64L944.444 3006.9L943.487 3009.96L941.188 3013.03L937.356 3015.9L932.759 3018.2L927.586 3020.11L908.238 3025.67L899.617 3026.63L895.402 3026.44L891.379 3025.29L888.697 3023.56L887.356 3020.69L888.123 3017.43L892.337 3010.73L898.659 3004.79L904.215 3001.53L910.153 2998.85L922.605 2995.4Z" fill="#000101"/>
<path d="M1245.98 2993.1L1248.08 2993.68L1250 2995.21L1249.81 2998.47L1246.36 3002.11L1237.36 3008.81L1232.38 3013.79L1224.33 3024.33L1219.54 3032.95L1215.52 3041.95L1208.81 3061.11L1207.09 3060.92L1205.56 3059.96L1205.17 3054.21L1206.32 3048.08L1211.88 3032.18L1216.48 3022.61L1220.11 3016.48L1228.74 3005.75L1233.72 3000.96L1239.46 2996.74L1245.98 2993.1Z" fill="#000101"/>
<path d="M829.694 3238.89L849.617 3239.46L859.962 3240.8L869.923 3243.1L879.502 3246.36L888.506 3250.57L899.234 3258.43L907.854 3268.2L912.644 3275.48L916.284 3283.52L919.157 3291.76L920.69 3299.23L921.456 3306.9L921.264 3314.56L919.923 3322.22L917.816 3329.5L914.368 3336.4L910.92 3341.19L907.088 3345.02L902.874 3347.89L895.785 3351.15L887.548 3353.45L891.571 3344.25L894.253 3335.06L895.977 3326.05L896.743 3316.67L896.36 3307.09L894.828 3297.13L889.847 3280.84L883.908 3268.01L880.651 3262.64L878.161 3259.39L873.372 3255.75L870.69 3254.98L867.816 3255.75L867.433 3257.85L868.199 3259.96L877.586 3274.9L882.759 3287.55L885.057 3295.21L887.739 3311.11L887.931 3319.16L886.59 3330.65L882.759 3341.76L879.694 3346.74L875.862 3351.15L872.414 3353.64L865.134 3357.09L859.195 3358.43L853.065 3359L840.613 3358.81L846.36 3340.23L847.893 3331.23L848.659 3322.22V3312.84L846.743 3296.93L843.487 3282.76L840.996 3275.48L834.674 3262.26L831.992 3258.24L826.245 3252.68L822.989 3250.77L819.54 3250.38L818.966 3252.11L820.498 3256.32L827.395 3268.01L831.034 3276.25L836.398 3292.15L839.272 3308.43L839.464 3325.29L838.697 3333.52L836.973 3341.76L834.674 3349.43L831.418 3356.71L828.161 3362.07L824.329 3366.67L821.264 3369.35L813.793 3372.8L808.429 3373.75L803.448 3373.56L798.659 3372.41L793.87 3370.69L784.674 3365.9L789.655 3359.2L793.87 3352.49L797.126 3345.4L802.107 3330.65L804.981 3313.41L805.747 3302.87L805.172 3292.53L804.023 3287.93L802.107 3284.29L799.617 3283.14H796.743L795.402 3284.87L794.828 3290.04L795.211 3313.22L793.103 3327.01L789.272 3340.42L784.866 3350L781.801 3354.6L778.352 3358.81L774.33 3362.45L769.732 3364.94L766.858 3365.71L763.793 3365.52L760.92 3364.56L757.28 3362.07L754.789 3359.2L753.257 3355.75L752.299 3351.92V3342.72L758.238 3309.39L757.663 3302.68L756.13 3302.3L751.533 3307.47L748.851 3313.79L746.743 3320.5L729.693 3312.26L732.567 3302.3L736.398 3293.29L739.464 3287.55L747.51 3276.63L755.364 3268.58L763.218 3261.69L771.456 3255.94L780.077 3251.15L789.272 3247.13L798.659 3244.06L808.429 3241.57L829.694 3238.89Z" fill="#FEFEFE"/>
<path d="M866.858 3090.23L869.349 3095.79L875.862 3126.44L867.625 3124.14L861.686 3123.37L859.004 3123.56L855.556 3125.86L854.023 3129.69L857.854 3132.18L877.586 3136.78L883.717 3150.38L894.828 3178.54L907.471 3200.77L909.195 3204.41L907.471 3205.36L902.299 3206.13L895.019 3205.56L887.74 3204.02L874.138 3198.66L867.816 3195.02L856.513 3186.02L849.234 3177.97L843.295 3168.77L838.697 3158.81L835.632 3147.7L834.483 3139.85L834.291 3131.8L835.249 3123.75L838.123 3113.6L840.422 3108.62L843.87 3103.64L847.51 3099.62L856.13 3094.06L866.858 3090.23Z" fill="#FEFEFE"/>
<path d="M862.261 2866.67L867.625 2867.43L868.582 2868.97L841.379 2913.22L831.801 2930.46L813.793 2967.62L798.084 3006.32L791.379 3026.25L785.632 3046.17L780.843 3066.09L777.012 3086.21L774.33 3105.94L772.989 3125.1L772.797 3135.82L773.755 3145.79L775.479 3155.36L777.969 3164.37L781.226 3172.8L785.632 3181.03L790.996 3188.51L797.318 3195.59L804.789 3202.3L813.602 3208.62L830.077 3217.82L832.759 3220.69L832.567 3223.37L829.885 3224.33L825.479 3223.18L820.69 3221.26L811.111 3215.9L795.977 3205.36L784.291 3194.25L779.693 3188.31L775.67 3181.8L772.414 3174.9L769.54 3167.05L767.625 3158.81L765.9 3147.7L765.326 3136.78V3125.48L766.667 3108.81L772.031 3071.65L776.437 3051.34L781.609 3031.42L787.739 3012.07L794.636 2992.91L802.299 2974.14L810.536 2955.56L819.732 2937.36L832.95 2913.41L847.126 2889.85L862.261 2866.67Z" fill="#FEFEFE"/>
<path d="M1238.12 3118.01L1239.46 3118.58L1240.42 3119.92L1241 3122.61L1243.49 3147.32L1244.83 3155.94L1246.55 3162.45L1251.72 3174.52L1256.9 3183.33L1268.97 3201.15L1270.69 3204.6L1269.35 3206.71L1263.22 3204.21L1257.28 3198.66L1253.64 3194.06L1245.59 3180.65L1241.76 3171.65L1236.4 3153.07L1234.29 3135.44L1234.48 3126.25L1235.06 3123.37L1238.12 3118.01Z" fill="#FEFEFE"/>
<path d="M343.678 2867.43L346.552 2875.29L350.766 2889.85L366.475 2954.02L401.533 3081.42L505.747 3444.25L522.031 3496.17L530.077 3519.54L555.556 3588.7L552.682 3587.16L547.127 3577.97L535.632 3550.57L526.82 3526.63L507.28 3468.77L485.058 3398.08L461.111 3318.58L412.835 3150.38L390.805 3069.73L371.839 2996.93L350.958 2910.54L347.127 2891.57L344.253 2875.29L343.678 2867.43Z" fill="#000101"/>
<path d="M1523.56 2690.23L1528.93 2695.4L1542.72 2717.05L1578.93 2779.5L1603.64 2824.14L1627.78 2868.97L1651.34 2914.37L1688.12 2990.8L1765.71 3160.73L1786.21 3207.47L1805.94 3254.41L1802.68 3251.34L1800.19 3247.51L1779.69 3207.09L1741.95 3124.14L1695.4 3025.1L1647.89 2926.44L1578.54 2793.49L1540.61 2725.1L1523.56 2690.23Z" fill="#000101"/>
<g clip-path="url(#clip0_1_81)">
<path d="M3773.37 2500.96L3776.05 2501.53L3778.35 2503.07L3779.88 2505.36L3783.52 2514.56L3810.54 2603.26L3817.05 2630.46L3817.62 2634.1L3817.05 2637.55L3813.6 2639.85L3809.77 2641.38L3797.51 2645.21L3759.77 2654.98L3665.71 2682.18L3571.26 2708.05L3565.52 2708.43L3561.11 2706.7L3555.56 2702.11L3539.85 2650.77L3530.84 2623.75L3526.25 2605.17L3525.29 2595.98L3530.46 2586.78L3539.66 2567.24L3559.39 2560.15L3579.69 2553.83L3690.04 2525.29L3773.37 2500.96ZM3582.95 2683.91L3577.39 2692.72L3576.05 2696.17L3576.82 2696.93L3753.64 2646.74L3789.46 2637.74L3798.28 2635.06L3805.75 2631.8L3806.7 2628.74L3806.32 2625.48L3804.79 2623.18L3803.26 2622.8L3778.54 2629.12L3582.95 2683.91ZM3534.29 2600.38L3537.55 2613.41L3550 2652.11L3558.24 2682.76L3560.92 2690.23L3563.98 2696.74L3571.84 2681.03L3568.97 2675.48L3563.79 2661.69L3554.6 2625.29L3542.34 2583.91L3534.29 2600.38Z" fill="#0F0D10"/>
<path d="M2383.33 3164.56L2390.61 3157.85L2392.72 3156.7L2394.64 3156.51L2396.36 3157.28L2401.15 3160.54L2413.98 3170.5L2448.47 3199.81L2477.39 3226.05L2483.52 3232.57L2484.87 3234.87L2479.12 3243.3L2464.94 3260.92L2421.46 3313.41L2372.8 3370.5L2337.16 3410.54L2330.08 3417.43L2327.2 3418.2H2323.75L2317.62 3416.86L2293.1 3399.23L2269.16 3380.27L2245.79 3360.73L2223.37 3340.61L2225.48 3336.59L2234.67 3323.56L2273.75 3272.61L2323.37 3211.11L2355.17 3173.95L2362.26 3166.48L2368.58 3160.54L2371.07 3159.2L2374.52 3159.39L2377.59 3160.54L2383.33 3164.56ZM2469.54 3240.8L2459.58 3238.7L2451.92 3246.17L2426.25 3278.74L2321.46 3402.49L2325.67 3407.28L2334.48 3399.81L2349.43 3383.91L2368.2 3362.64L2423.18 3297.7L2459.96 3251.34L2469.54 3240.8ZM2459.96 3228.35L2461.49 3226.63L2460.92 3224.52L2441.57 3206.51L2413.22 3181.42L2401.53 3172.22L2394.44 3168.2L2390.8 3172.03L2396.36 3178.54L2407.28 3189.08L2435.63 3213.41L2447.51 3222.8L2454.6 3227.39L2459.96 3228.35Z" fill="#0F0D10"/>
<path d="M2383.33 3164.56L2390.61 3157.85L2392.72 3156.7L2394.64 3156.51L2396.36 3157.28L2401.15 3160.54L2413.98 3170.5L2448.47 3199.81L2477.39 3226.05L2483.52 3232.57L2484.87 3234.87L2479.12 3243.3L2445.02 3285.25L2396.55 3342.72L2352.11 3394.06L2337.16 3410.54L2330.08 3417.43L2327.2 3418.2L2320.5 3417.62L2317.62 3416.86L2324.52 3415.13L2325.67 3411.49V3407.28L2334.48 3399.81L2349.43 3383.91L2368.2 3362.64L2423.18 3297.7L2459.96 3251.34L2469.54 3240.8L2459.58 3238.7L2459.96 3234.87L2458.81 3229.69L2461.49 3226.63L2460.92 3224.52L2427.39 3193.68L2401.53 3172.22L2394.44 3168.2L2390.8 3172.03L2389.85 3167.43L2386.78 3165.52L2383.33 3164.56Z" fill="#0F0D10"/>
<path d="M2245.02 2610.92L2258.43 2612.07L2274.33 2615.13L2304.21 2621.84L2450.96 2650.57L2466.48 2654.02L2480.46 2683.33L2477.2 2700.38L2464.18 2753.64L2453.64 2789.85L2450 2790.61L2439.66 2789.66L2296.74 2761.3L2222.8 2745.21L2222.41 2744.44L2221.46 2744.83L2220.31 2744.44L2219.73 2740.42L2220.5 2733.72L2227.78 2690.23L2237.93 2638.89L2242.15 2620.11L2245.02 2610.92ZM2441.19 2779.5L2435.06 2770.11L2374.33 2757.28L2271.26 2737.16L2250 2732.57L2229.31 2727.2L2228.74 2731.8L2229.31 2736.4L2237.55 2739.08L2408.05 2773.95L2424.52 2777.2L2441.19 2779.5ZM2449.43 2771.84L2457.47 2743.49L2470.88 2685.82L2468.01 2677.97L2464.18 2670.5L2444.06 2755.75L2443.49 2766.09L2444.64 2768.58L2446.74 2770.5L2449.43 2771.84Z" fill="#0F0D10"/>
<path d="M3672.03 2783.91L3681.03 2782.95L3690.61 2782.76L3710.54 2784.67L3720.69 2786.78L3729.89 2789.46L3741.19 2794.44L3749.04 2800L3751.92 2803.26L3754.02 2807.09L3755.17 2811.11L3755.36 2814.37L3753.45 2820.31L3751.53 2822.99L3747.32 2827.2L3741.57 2831.23L3735.25 2834.48L3720.88 2839.46L3700.96 2843.49L3689.08 2844.25L3668.2 2844.06L3651.92 2841.76L3644.06 2839.66L3636.59 2836.4L3629.5 2832.38L3625.67 2829.31L3620.31 2822.8L3618.2 2816.48L3618.77 2809.96L3621.84 2804.02L3625.86 2800L3630.46 2796.36L3636.02 2793.3L3645.02 2789.66L3654.21 2786.97L3672.03 2783.91ZM3696.36 2836.21L3715.13 2832.95L3728.93 2828.54L3734.87 2825.48L3740.23 2822.03L3744.25 2818.01L3745.79 2815.33L3746.36 2812.26L3745.59 2809.58L3742.15 2805.36L3734.29 2800.38L3721.46 2795.21L3710.92 2792.91L3700.19 2791.38L3679.89 2790.61L3667.43 2792.15L3653.07 2795.21L3639.46 2800.19L3632.18 2804.98L3627.97 2809.96L3627.01 2815.13L3627.78 2818.39L3629.31 2821.07L3634.1 2825.48L3639.85 2828.93L3646.17 2831.61L3653.26 2833.91L3664.18 2836.02L3675.48 2837.16H3686.59L3696.36 2836.21Z" fill="#0F0D10"/>
<path d="M3036.21 2221.26L3041.19 2221.46L3043.29 2222.22L3048.08 2227.01L3051.53 2232.38L3054.41 2238.7L3056.9 2246.17L3059.2 2257.66L3060.73 2270.31L3061.11 2295.02L3059.39 2316.09L3057.28 2327.2L3055.56 2332.57L3053.26 2337.36L3050 2341.76L3045.79 2345.79H3042.53L3037.74 2344.64L3033.91 2341.38L3031.03 2336.97L3028.35 2331.8L3026.25 2325.67L3023.95 2315.9L3022.41 2304.98L3021.26 2283.52L3021.65 2265.52L3023.18 2249.62L3024.9 2241.57L3027.59 2233.91L3029.89 2229.12L3032.76 2224.9L3036.21 2221.26Z" fill="#0F0D10"/>
<path d="M2818.01 2229.89H2822.22L2826.25 2231.23L2829.89 2233.72L2835.63 2240.04L2843.49 2252.11L2847.51 2259.77L2852.87 2271.84L2857.66 2284.87L2861.3 2298.08L2863.98 2310.92L2864.94 2319.54L2864.56 2333.91L2863.6 2338.89L2861.88 2342.72L2859.39 2345.98L2855.56 2349.43L2852.11 2349.62L2848.85 2348.47L2843.1 2343.68L2836.59 2335.63L2832.38 2328.93L2828.16 2321.07L2822.8 2308.81L2818.2 2295.4L2814.37 2281.61L2811.88 2268.39L2810.92 2259.58L2810.54 2251.72L2811.69 2240.04L2812.84 2236.4L2814.75 2233.14L2818.01 2229.89Z" fill="#0F0D10"/>
<path d="M3267.43 2242.15L3272.22 2243.1L3276.44 2245.79L3278.74 2248.85L3280.08 2252.49L3280.84 2260.15L3280.27 2267.43L3276.82 2283.72L3272.41 2296.36L3266.86 2309L3260.34 2321.46L3248.08 2340.04L3238.31 2351.15L3236.02 2352.3L3232.95 2352.68L3230.65 2352.11L3228.35 2349.81L3227.2 2347.13L3225.86 2340.8L3225.67 2332.95L3226.25 2324.71L3227.59 2315.52L3231.99 2297.32L3240.61 2272.8L3246.17 2261.3L3249.23 2256.32L3252.68 2251.92L3256.9 2247.89L3261.49 2244.83L3267.43 2242.15Z" fill="#0F0D10"/>
<path d="M3665.71 2358.62L3670.31 2359.39L3674.14 2361.49L3676.05 2363.6L3676.63 2366.48L3675.86 2369.54L3674.33 2372.8L3670.11 2377.97L3665.13 2382.95L3648.66 2395.79L3627.78 2409.39L3606.51 2421.26L3596.93 2425.67L3585.63 2429.31L3576.63 2430.08L3571.65 2428.74L3568.77 2425.86L3568.2 2423.75L3568.58 2420.69L3569.73 2417.62L3572.99 2412.07L3578.54 2404.98L3591.19 2392.15L3598.47 2386.4L3608.81 2379.69L3619.54 2373.56L3630.84 2368.58L3642.53 2364.37L3654.21 2360.92L3665.71 2358.62ZM3584.1 2421.07L3598.85 2414.56L3617.82 2404.79L3637.55 2393.1L3646.74 2386.78L3661.49 2375.1L3665.71 2370.11V2368.2L3663.22 2367.82L3650.77 2370.31L3640.61 2373.56L3630.27 2377.59L3620.31 2382.57L3610.73 2388.31L3601.72 2394.64L3593.3 2401.92L3586.02 2409.58L3578.93 2418.97L3578.35 2421.26L3584.1 2421.07Z" fill="#0F0D10"/>
<path d="M2309 2919.92L2325.86 2919.54L2335.06 2920.5L2344.25 2922.22L2355.17 2926.05L2359.58 2928.54L2364.56 2932.95L2366.28 2935.82L2367.24 2938.89L2367.05 2941.95L2366.28 2944.64L2364.56 2947.13L2357.66 2952.11L2353.07 2954.02L2338.31 2957.47L2324.71 2959L2316.67 2959.2L2298.47 2958.24L2289.46 2956.7L2281.03 2954.41L2273.37 2951.15L2267.62 2946.93L2265.33 2944.06L2263.79 2938.89L2265.9 2933.72L2270.69 2929.12L2274.14 2927.2L2285.82 2923.37L2309 2919.92ZM2329.5 2949.62L2345.02 2947.13L2355.17 2943.49L2358.81 2941L2359.2 2939.46L2358.81 2938.12L2356.7 2936.02L2350 2932.57L2337.55 2929.69L2324.14 2928.16L2304.21 2928.35L2293.87 2930.27L2282.95 2933.14L2277.97 2935.63L2274.14 2938.51L2273.75 2940.04L2274.14 2941.38L2276.82 2943.29L2281.23 2945.4L2292.72 2948.08L2313.41 2950.38L2329.5 2949.62Z" fill="#0F0D10"/>
<path d="M2324.14 2438.89L2330.84 2438.51L2337.55 2438.7L2350.19 2441.95L2356.51 2444.83L2365.33 2450L2374.14 2456.32L2389.85 2471.07L2402.49 2486.21L2405.56 2490.42L2408.43 2495.4L2409 2498.08L2408.24 2501.92L2404.98 2504.6L2400.19 2505.36L2390.42 2504.6L2384.67 2502.87L2376.25 2499.62L2367.43 2495.21L2359 2490.04L2343.87 2479.5L2330.65 2467.62L2326.63 2463.22L2321.65 2455.17L2320.11 2448.47L2320.31 2445.59L2321.07 2443.3L2324.14 2438.89ZM2399.04 2497.51L2393.87 2488.51L2390.04 2483.52L2383.72 2476.63L2368.58 2463.22L2352.87 2452.68L2345.98 2449.43L2341.57 2447.89L2332.95 2446.36L2328.35 2446.17L2329.12 2450.19L2331.03 2454.21L2336.59 2461.49L2348.28 2471.84L2361.49 2481.61L2376.25 2490.42L2383.72 2493.68L2391.38 2496.17L2399.04 2497.51Z" fill="#0F0D10"/>
<path d="M2555.17 2278.74L2562.45 2279.12L2566.67 2280.65L2571.07 2283.33L2575.1 2286.78L2583.14 2295.21L2592.15 2307.47L2601.34 2324.33L2607.47 2339.46L2610.15 2350.96V2354.6L2609.39 2357.47L2608.24 2359.39L2603.07 2361.69L2596.55 2358.62L2589.85 2354.41L2583.52 2349.23L2571.84 2337.74L2562.64 2326.63L2558.05 2319.73L2554.02 2312.45L2550.77 2304.79L2548.85 2294.44L2549.62 2286.02L2550.77 2283.52L2555.17 2278.74ZM2601.53 2351.72L2600.38 2343.87L2598.85 2338.7L2595.4 2331.23L2586.59 2315.52L2573.37 2297.7L2566.67 2291L2562.84 2288.12L2558.81 2286.02L2557.47 2290.04V2294.83L2559.2 2303.64L2562.07 2310.34L2566.28 2317.24L2571.26 2323.95L2582.95 2336.78L2589.27 2342.53L2601.53 2351.72Z" fill="#0F0D10"/>
<path d="M3440.8 2260.92L3447.89 2260.73L3450.57 2261.11L3455.75 2263.79L3457.66 2265.71L3460.15 2271.07L3460.54 2274.33L3460.15 2283.33L3457.09 2295.21L3454.6 2301.15L3449.81 2309.58L3444.25 2317.43L3437.74 2324.52L3431.03 2330.46L3426.05 2331.03L3421.26 2330.08L3418.97 2328.54L3415.52 2324.14L3413.22 2317.24L3412.64 2312.64L3413.41 2300.38L3414.94 2292.91L3417.24 2285.82L3419.92 2279.89L3423.95 2273.56L3428.54 2268.2L3431.99 2265.33L3440.8 2260.92ZM3428.93 2321.46L3434.48 2315.71L3439.66 2309L3444.25 2301.72L3447.89 2294.06L3450.77 2286.21L3452.68 2278.35L3451.15 2273.18L3448.47 2268.77L3442.91 2268.2L3437.93 2271.65L3433.72 2275.67L3430.08 2280.46L3424.9 2291L3423.18 2296.74L3421.07 2309.2L3421.65 2317.62L3422.99 2321.07L3425.1 2322.22H3427.39L3428.93 2321.46Z" fill="#0F0D10"/>
<path d="M3586.78 3060.73L3593.87 3060.15L3601.34 3060.34L3609 3061.3L3616.48 3063.22L3623.75 3065.71L3630.08 3068.77L3636.02 3073.18L3638.89 3077.2L3639.46 3079.5L3639.27 3082.18L3637.74 3084.67L3633.52 3087.93L3630.08 3089.27L3619.35 3091.95L3602.68 3093.87L3594.06 3094.44L3585.25 3094.06L3576.63 3093.1L3565.9 3090.23L3561.69 3088.12L3556.7 3084.1L3554.79 3081.42L3553.83 3078.54L3554.02 3075.48L3555.36 3072.8L3557.85 3070.11L3564.18 3065.9L3569.73 3063.79L3586.78 3060.73ZM3603.64 3085.82L3622.99 3082.38L3632.38 3079.69L3626.05 3075.86L3619.16 3072.8L3611.88 3070.5L3604.41 3068.77L3597.13 3068.2L3589.66 3068.39L3581.23 3069.54L3571.84 3071.84L3567.62 3073.56L3564.75 3075.86L3564.18 3077.39L3564.37 3078.93L3568.01 3081.61L3572.8 3083.52L3577.97 3084.87L3593.3 3086.21L3603.64 3085.82Z" fill="#0F0D10"/>
<path d="M2310.54 3112.45H2320.31L2327.2 3114.18L2329.69 3115.33L2332.38 3118.97L2332.95 3121.26L2331.61 3126.44L2328.54 3130.84L2325.1 3133.52L2316.09 3138.31L2308.62 3141L2292.91 3143.87L2280.65 3144.44H2275.1L2269.73 3143.68L2264.56 3141.57L2261.3 3139.08L2259.39 3135.25L2259.96 3131.61L2261.88 3128.35L2267.62 3123.56L2277.78 3118.77L2291.76 3114.94L2310.54 3112.45ZM2284.67 3135.63L2305.36 3132.57L2315.9 3129.12L2320.5 3126.63L2323.56 3124.14V3122.22L2321.65 3121.26L2313.79 3120.31L2309 3120.5L2286.97 3124.9L2280.27 3126.82L2274.14 3129.5L2269.35 3132.76L2268.97 3134.29L2273.95 3136.4L2284.67 3135.63Z" fill="#0F0D10"/>
<path d="M3742.91 2968.58H3756.32L3764.94 2970.5L3772.22 2974.33L3775.29 2976.82L3777.59 2979.89L3778.93 2983.33L3779.12 2986.21L3778.54 2988.89L3777.2 2991.57L3774.52 2994.25L3771.07 2996.36L3763.41 2999.23L3751.34 3001.15L3741.76 3001.34L3736.97 3000.77L3728.16 2998.28L3722.99 2994.44L3720.88 2991.95L3719.54 2988.89L3719.35 2985.82L3719.73 2982.76L3721.26 2980.08L3723.95 2976.82L3730.84 2972.22L3742.91 2968.58ZM3753.26 2993.1L3761.69 2991.19L3765.33 2989.66L3768.77 2986.78V2983.14L3765.13 2979.31L3761.49 2977.78L3753.07 2976.25H3745.59L3734.1 2979.69L3731.61 2981.42L3729.12 2984.87L3729.89 2988.51L3733.33 2991L3741 2993.1H3753.26Z" fill="#0F0D10"/>
<path d="M2329.12 3532.57L2333.52 3524.71L2339.27 3517.24L2342.91 3514.56L2346.93 3512.64L2351.15 3512.45L2353.26 3513.03L2356.9 3516.09L2358.24 3518.58L2359.2 3523.95L2358.05 3532.38L2353.45 3542.91L2350.19 3548.47L2344.83 3554.02L2341.57 3556.32L2338.31 3558.05L2333.33 3559.39L2328.16 3558.62L2324.9 3555.36L2323.37 3549.62L2324.52 3542.53L2329.12 3532.57ZM2343.68 3542.34L2348.85 3531.8L2350.96 3524.14L2350.38 3521.65L2348.66 3521.07L2345.98 3522.61L2341.19 3529.31L2334.87 3541.19L2332.57 3547.51L2332.38 3549.81L2333.72 3550.57L2339.27 3546.93L2343.68 3542.34Z" fill="#0F0D10"/>
<path d="M2329.12 3532.57L2333.91 3538.89L2334.87 3541.19L2333.14 3545.4L2332.38 3549.81L2333.72 3550.57L2336.59 3549.04L2343.68 3542.34L2346.17 3545.79L2350.19 3548.47L2344.83 3554.02L2338.31 3558.05L2333.33 3559.39H2330.65L2328.16 3558.62L2326.25 3557.09L2323.95 3553.07L2323.37 3549.62L2323.56 3545.98L2325.86 3539.08L2329.12 3532.57Z" fill="#0F0D10"/>
<path d="M2435.25 2997.32L2443.1 2996.93L2450.77 2998.08L2457.66 3001.34L2460.54 3004.02L2462.26 3007.09L2462.64 3011.69L2459.96 3015.9L2455.36 3018.97L2447.32 3021.46L2434.48 3022.41L2427.59 3020.69L2422.03 3017.05L2420.31 3014.37L2419.54 3009.58L2420.11 3007.28L2421.84 3004.6L2426.63 3000.77L2435.25 2997.32Z" fill="#0F0D10"/>
<path d="M2465.33 3457.66L2470.11 3458.43L2473.95 3460.92L2476.63 3464.75L2477.97 3471.46L2476.82 3480.08L2475.29 3484.87L2472.61 3490.04L2469.35 3494.06L2465.52 3497.32L2460.34 3499.81L2455.94 3498.66L2453.64 3497.32L2450.38 3493.29L2447.7 3485.82L2451.72 3475.29L2454.21 3470.11L2457.47 3465.33L2461.11 3461.11L2465.33 3457.66Z" fill="#0F0D10"/>
<path d="M2500.19 2529.69H2506.32L2512.26 2531.23L2515.9 2533.33L2521.26 2538.51L2526.63 2548.85L2524.14 2554.41L2520.69 2559.39L2513.41 2559.58L2508.62 2558.43L2504.02 2555.94L2499.81 2552.49L2496.74 2548.85L2494.06 2543.68L2493.68 2537.93L2495.98 2532.95L2500.19 2529.69Z" fill="#0F0D10"/>
<path d="M2606.32 2475.1L2604.98 2458.62L2605.56 2454.41L2606.9 2451.72L2609.58 2449.62L2612.84 2448.85L2622.41 2448.08L2658.81 2449.23L2767.24 2448.47L3325.1 2443.3L3384.67 2441.57L3404.41 2441.76L3409 2442.15L3413.22 2443.68L3414.18 2451.34L3412.45 2467.24L3424.9 2465.71H3431.42L3437.16 2466.48L3439.66 2473.56L3440.42 2482.38L3448.08 2602.87L3458.62 2828.54L3469.16 3021.26L3469.35 3039.46L3494.64 3067.82L3625.29 3220.88L3654.98 3256.32L3685.44 3230.84L3704.6 3216.48L3722.41 3204.41L3730.65 3199.81L3736.78 3197.32L3757.47 3215.71L3797.51 3255.94L3837.74 3294.83L3850.57 3308.24L3857.09 3307.47L3888.51 3300.77L3902.3 3298.85L3916.48 3297.51L3930.46 3296.93L3944.44 3297.32L3958.62 3298.47L3972.61 3300.19L3986.4 3302.87L4000 3306.13V3805.36L3987.74 3807.66L3974.9 3808.81L3949.62 3809.39L3901.72 3808.05L3830.08 3803.45L3806.13 3802.68L3780.84 3803.07L3755.94 3804.41L3731.03 3806.7L3706.13 3809.58L3656.32 3816.86L3644.83 3798.08L3634.87 3780.27L3626.44 3763.22L3618.77 3745.98L3612.26 3728.74L3607.09 3711.69L3601.53 3685.44L3598.47 3657.47L3597.7 3638.7L3598.08 3618.2L3599.62 3596.17L3607.47 3551.92L3604.6 3552.87L3601.72 3552.3L3591.38 3545.98L3576.82 3534.87L3534.29 3499.23L3521.84 3489.85L3495.59 3472.61L3481.8 3465.13L3483.52 3573.95L3482.95 3593.49L3475.48 3594.83L3459.58 3594.44L3474.71 3641.38L3489.08 3679.89L3496.55 3701.92L3498.47 3713.22L3498.08 3716.09L3496.17 3718.97L3493.3 3720.88L3486.4 3719.54L3482.95 3718.01L3473.95 3711.3L3441.57 3680.65L3379.31 3627.2L3359.39 3626.44L3318.97 3627.39L3177.78 3628.74L3015.33 3628.54L2627.59 3631.42L2611.88 3631.61L2596.55 3630.84L2596.93 3630.08L2595.79 3630.46L2594.44 3609.58L2594.25 3564.56L2586.4 3166.86L2582.76 2909.96L2575.1 2486.4L2575.67 2476.63L2579.89 2475.29L2585.06 2474.52L2606.32 2475.1ZM3690.42 3239.85L3669.35 3256.7L3650 3275.67L3672.03 3296.93L3691.57 3317.24L3699.81 3328.54L3701.15 3331.99L3699.81 3333.52L3697.7 3334.29L3695.21 3332.95L3690.04 3328.93L3677.78 3317.05L3664.18 3302.68L3644.25 3280.65L3618.97 3306.13L3608.24 3319.92L3652.3 3364.56L3661.69 3376.25L3663.6 3379.69L3662.45 3381.61L3659.39 3381.42L3656.9 3380.46L3647.32 3372.8L3601.92 3326.63L3583.14 3348.85L3564.94 3371.84L3598.08 3400.38L3616.48 3417.24L3623.56 3425.48L3624.52 3427.78L3623.75 3429.69L3622.03 3431.03L3619.54 3430.08L3615.13 3427.2L3604.21 3418.97L3578.54 3395.98L3560.54 3378.35L3549.04 3393.29L3528.74 3426.82L3564.37 3452.3L3590.04 3472.61L3595.59 3478.54L3595.79 3481.23L3595.02 3483.52L3592.72 3483.91L3589.27 3483.14L3581.42 3478.16L3544.64 3449.04L3523.95 3434.48L3510.15 3458.81L3504.98 3466.28L3518.77 3474.9L3531.8 3484.29L3581.99 3526.44L3594.83 3536.4L3608.24 3545.59L3610.15 3545.21L3612.64 3539.08L3617.82 3522.41L3628.54 3497.51L3641 3473.37L3649.43 3459.39L3668.2 3432.57L3678.54 3419.73L3700.77 3395.4L3725.29 3373.18L3738.31 3362.84L3751.72 3353.26L3765.52 3344.44L3779.89 3336.21L3794.64 3328.93L3809.58 3322.41L3824.9 3316.67L3840.61 3311.88L3734.87 3208.24L3697.32 3233.72L3764.37 3297.7L3784.48 3319.16L3786.4 3322.22L3786.21 3324.33L3783.52 3325.86L3780.65 3326.05L3775.1 3321.46L3746.74 3294.83L3690.42 3239.85ZM3354.02 3586.4L3359.58 3595.59L3368.77 3605.36L3447.89 3672.99L3451.34 3674.71L3454.02 3674.33L3470.88 3664.37V3662.84L3459.58 3624.71L3438.31 3561.49L3434.48 3553.64L3431.61 3549.43L3428.16 3545.98L3423.95 3543.1L3418.77 3540.61L3413.6 3538.89L3403.07 3537.93L3392.15 3539.66L3385.44 3541.95L3379.31 3545.4L3373.37 3549.62L3368.2 3554.41L3363.6 3559.77L3359.77 3565.71L3356.9 3572.41L3354.98 3579.31L3354.02 3586.4ZM2614.94 2458.81L2634.1 3559.2L2635.25 3582.95L3064.18 3581.03L3174.9 3582.95H3229.69L3336.4 3581.8L3235.82 3439.46L3186.78 3367.43L3125.67 3352.68L3065.33 3336.02L3035.44 3326.63L2991.38 3310.73L2962.45 3298.08L2927.01 3277.78L2912.45 3266.86L2906.32 3260.73L2900 3251.53L2897.89 3246.74L2897.32 3243.49L2897.7 3236.4L2900 3229.5L2904.21 3222.22L2911.69 3215.13L2918.39 3211.11L2933.14 3205.17L2951.34 3200.77L2962.45 3198.85L2991.19 3196.55L3008.62 3196.36L3042.72 3198.28L3062.45 3201.72L3070.88 3202.49L3025.86 3136.78L2996.55 3095.4L2972.03 3112.26L2941.76 3130.27L2925.48 3138.89L2908.81 3146.36L2886.78 3154.21L2876.63 3156.7L2866.09 3158.43L2856.71 3159L2848.08 3158.24L2841.19 3156.7L2834.67 3153.83L2830.65 3151.34L2824.14 3144.64L2822.03 3140.8L2820.88 3136.59L2820.5 3132.18L2821.07 3127.78L2822.61 3122.22L2825.29 3116.28L2828.93 3110.15L2835.25 3101.34L2843.3 3092.15L2860.92 3074.9L2894.25 3046.55L2922.61 3020.88L2937.74 3009.58L2850.57 2881.23L2841.57 2868.97L2835.63 2868.2L2827.59 2865.33L2820.5 2860.15L2813.6 2851.72L2808.81 2842.91L2801.53 2822.8L2798.28 2815.33L2794.64 2809.2L2771.26 2775.1L2761.49 2757.28L2757.47 2747.89L2754.6 2738.31L2753.45 2731.99L2752.87 2725.48L2753.64 2713.79L2757.09 2703.45L2759.77 2698.66L2767.05 2690.61L2771.46 2687.55L2776.44 2685.06L2787.55 2681.99L2798.47 2681.8L2804.98 2682.95L2811.49 2685.25L2818.01 2688.31L2827.39 2694.25L2836.78 2701.53L2854.41 2718.2L2885.25 2750.57L2907.28 2767.43L2912.45 2772.22L2917.62 2778.35L2921.07 2783.91L2923.56 2789.27L2929.5 2806.13L2932.38 2811.49L2941.76 2826.44L3016.67 2934.29L3062.84 2898.08L3131.99 2845.59L3154.98 2828.93L3166.67 2821.26L3185.25 2810.73L3199.43 2804.6L3206.71 2802.49L3214.18 2801.34L3221.46 2801.15L3228.35 2802.3L3235.25 2804.02L3241.95 2806.9L3251.92 2811.88L3270.5 2824.33L3285.82 2837.16L3329.12 2881.42L3351.53 2905.94L3388.12 2946.17L3423.37 2987.36L3409.39 2588.51L3404.98 2496.17L3404.41 2450.19L3377.59 2450L3351.72 2451.15L3226.25 2451.92L2998.47 2455.56L2806.71 2457.66L2614.94 2458.81ZM3022.03 2941.57L3083.33 3029.12L3128.16 2996.55L3142.91 2985.06L3157.09 2972.99L3170.31 2960.54L3156.32 2927.97L3152.3 2914.94L3151.72 2910.54L3152.87 2908.62H3155.36L3157.47 2910.15L3162.26 2918.58L3182.76 2963.79L3220.11 3052.49L3233.33 3086.4L3237.16 3100.38L3240.04 3114.75L3241.38 3124.52L3241.95 3143.87L3241.19 3152.87L3239.66 3162.07L3236.97 3170.88L3233.52 3179.31L3226.63 3189.46L3222.41 3193.87L3216.86 3198.08L3204.79 3204.79L3346.55 3405.94L3373.56 3412.64L3389.08 3417.62L3422.99 3429.69L3471.46 3450L3496.93 3462.64L3501.72 3451.53L3529.12 3407.28L3544.06 3385.06L3559.58 3363.6L3575.86 3342.53L3592.91 3322.03L3628.54 3282.38L3647.32 3263.03L3608.24 3215.52L3498.85 3087.16L3385.44 2957.66L3341.95 2909.2L3311.11 2875.48L3295.21 2859L3278.54 2843.68L3266.09 2833.14L3251.34 2822.41L3235.44 2813.79L3224.9 2810.34L3219.73 2809.58L3213.22 2809.39L3193.68 2817.43L3182.76 2823.18L3166.86 2832.57L3150 2843.68L3116.86 2867.62L3058.43 2913.6L3030.84 2934.29L3022.03 2941.57ZM3121.65 3085.63L3123.56 3087.16L3126.82 3086.02L3146.36 3074.52L3179.31 3051.92L3202.3 3034.67L3198.47 3023.95L3185.82 2993.68L3179.12 2979.5L3173.75 2970.11L3153.07 2987.74L3131.99 3004.6L3087.93 3036.59L3113.6 3073.18L3121.65 3085.63ZM3205.75 3043.29L3198.28 3049.62L3168.97 3070.11L3128.93 3095.21L3135.63 3105.56L3162.26 3142.72L3183.91 3128.93L3215.71 3106.51L3226.63 3099.81L3214.75 3062.07L3208.62 3047.7L3205.75 3043.29ZM3342.72 3591.76L2861.3 3591.19L2715.9 3592.15L2655.75 3591.57L2625.86 3593.49V3562.45L2624.9 3531.23L2616.28 3080.65L2606.9 2496.55L2606.32 2484.48L2583.33 2483.72L2589.27 2746.17L2594.44 3157.85L2598.66 3331.8L2601.72 3537.55L2603.26 3595.98V3622.61L3034.48 3619.35L3320.69 3619.16L3368.2 3618.39L3368.97 3618.01L3351.15 3602.49L3347.13 3598.08L3342.72 3591.76ZM2811.3 2789.27L2816.67 2782.57L2822.41 2776.44L2828.54 2771.26L2835.25 2766.67L2842.34 2762.64L2849.81 2759.39L2857.66 2756.9L2874.14 2754.02L2850.19 2727.39L2843.68 2721.26L2836.97 2715.71H2825.1L2816.86 2717.43L2809.39 2719.73L2802.68 2722.99L2796.17 2727.01L2790.42 2732.18L2784.87 2738.51L2781.61 2743.68L2778.93 2748.85L2775.1 2760.34L2778.16 2767.24L2787.55 2783.52L2793.1 2791.38L2803.83 2804.6L2811.3 2789.27ZM2809.96 2817.62L2817.82 2839.85L2823.95 2850.96L2826.44 2854.21L2831.42 2858.43L2833.91 2859.2L2836.4 2858.81L2837.55 2856.51L2838.12 2852.87L2838.51 2840.04L2839.27 2836.78L2844.06 2828.54L2849.62 2821.07L2856.13 2814.56L2861.49 2810.15L2873.56 2803.07L2880.46 2800.38L2886.59 2798.85L2898.66 2797.51L2917.43 2798.47L2909.96 2785.63L2905.56 2779.5L2896.55 2770.88L2887.93 2766.28L2882.95 2764.94L2877.78 2764.18L2867.43 2764.75L2858.43 2766.67L2850 2769.73L2841.76 2773.75L2830.84 2781.61L2821.84 2791.95L2818.01 2797.89L2814.94 2804.41L2809.96 2817.62ZM3227.97 3110.15L3167.43 3150.96L3189.27 3181.8L3197.7 3196.36L3209.39 3190.8L3214.75 3186.97L3219.54 3182.57L3223.56 3177.59L3226.63 3171.84L3228.93 3165.71L3232.18 3150.57L3232.95 3134.1L3231.42 3118.77L3229.5 3112.45L3227.97 3110.15ZM3358.05 3552.49L3363.22 3546.55L3368.58 3541.38L3374.33 3537.16L3380.46 3533.72L3387.36 3531.23L3395.21 3529.69L3403.07 3529.5L3410.15 3530.08L3417.24 3531.99L3424.33 3534.67L3294.83 3351.34L3166.28 3167.24L3017.05 2950.57L2928.16 2824.52L2918.58 2808.62L2899.62 2806.9L2893.3 2807.09L2885.63 2809.2L2878.16 2812.07L2870.88 2815.71L2864.37 2820.31L2860.34 2823.75L2853.45 2831.99L2850.57 2837.55L2848.66 2842.72L2846.36 2854.41L2851.34 2864.56L2857.28 2874.33L2984.29 3059.2L3263.98 3463.03L3326.63 3550.96L3347.13 3580.65L3348.47 3572.8L3350.57 3565.9L3353.83 3559.39L3358.05 3552.49ZM3436.59 3531.03L3437.36 3473.56L3436.21 3445.98L3353.07 3416.28L3386.21 3463.98L3430.84 3525.1L3436.59 3531.03ZM3445.98 3450.96L3445.4 3543.29L3445.98 3550L3446.93 3556.13L3448.85 3563.41L3456.9 3584.48L3473.37 3586.59L3473.75 3564.56L3472.61 3501.72V3460.92L3445.98 3450.96ZM3107.47 3338.31L3178.74 3356.32L3150.38 3316.48L3092.72 3231.42L3076.63 3210.92L3069.16 3210.54L3033.33 3206.32L3007.47 3205.17L2994.44 3205.36L2973.18 3207.09L2949.62 3210.54L2941.57 3212.26L2927.2 3217.24L2920.5 3220.69L2914.94 3224.71L2910.15 3229.31L2906.9 3234.87L2906.13 3241.19L2906.9 3244.44L2909.96 3250.57L2913.41 3254.79L2925.48 3264.94L2946.55 3278.74L2958.05 3285.06L2975.86 3293.68L2994.44 3301.53L3032.18 3315.52L3087.93 3333.33L3107.47 3338.31ZM2942.34 3017.05L2923.18 3032.95L2871.26 3078.74L2852.11 3097.7L2843.49 3107.47L2836.78 3116.48L2833.14 3122.61L2830.84 3128.16L2829.89 3132.76L2830.65 3137.36L2833.33 3141L2840.42 3146.36L2844.83 3148.08L2851.72 3149.62L2858.24 3150.19L2866.67 3149.23L2888.89 3143.29L2902.68 3138.31L2915.9 3132.38L2935.44 3122.61L2954.6 3111.88L2991.76 3088.7L2956.51 3034.87L2947.89 3022.99L2942.34 3017.05ZM3459.96 3027.97L3459.58 3007.85L3450 2826.44L3442.53 2661.11L3433.14 2489.08L3432.57 2480.84L3430.46 2474.9L3412.84 2475.29L3420.88 2661.88L3429.31 2908.81L3432.95 2996.36L3454.02 3021.46L3459.96 3027.97Z" fill="#0F0D10"/>
<path d="M3850.57 3308.24L3857.09 3307.47L3888.51 3300.77L3902.3 3298.85L3916.48 3297.51L3930.46 3296.93L3944.44 3297.32L3958.62 3298.47L3972.61 3300.19L3986.4 3302.87L4000 3306.13V3805.36L3987.74 3807.66L3974.9 3808.81L3949.62 3809.39L3901.72 3808.05L3830.08 3803.45L3806.13 3802.68L3780.84 3803.07L3755.94 3804.41L3731.03 3806.7L3706.13 3809.58L3656.32 3816.86L3644.83 3798.08L3634.87 3780.27L3626.44 3763.22L3618.77 3745.98L3612.26 3728.74L3607.09 3711.69L3601.53 3685.44L3599.62 3671.65L3598.47 3657.47L3597.7 3638.7L3598.08 3618.2L3599.62 3596.17L3606.9 3556.71L3607.09 3548.66L3608.24 3545.59L3610.15 3545.21L3611.3 3542.91L3617.82 3522.41L3628.54 3497.51L3641 3473.37L3649.43 3459.39L3668.2 3432.57L3689.46 3407.28L3712.84 3383.91L3725.29 3373.18L3738.31 3362.84L3751.72 3353.26L3765.52 3344.44L3779.89 3336.21L3794.64 3328.93L3809.58 3322.41L3824.9 3316.67L3841 3311.88L3850.57 3308.24Z" fill="#0F0D10"/>
<path d="M3480.27 3656.9L3494.25 3694.64L3497.89 3707.85L3498.47 3713.22L3498.08 3716.09L3497.13 3717.82L3494.83 3720.11L3493.3 3720.88L3486.4 3719.54L3478.35 3714.94L3441.57 3680.65L3444.06 3676.25L3447.89 3672.99L3451.34 3674.71L3457.28 3672.61L3470.88 3664.37V3662.84L3480.27 3656.9Z" fill="#0F0D10"/>
<path d="M2865.13 2843.49L2868.77 2843.87L2871.46 2846.36L2886.59 2865.9L2928.93 2929.5L3064.94 3123.95L3137.55 3229.69L3210.92 3334.87L3329.12 3502.87L3334.67 3511.88L3336.02 3515.9L3335.44 3520.11L3333.14 3518.97L3327.78 3513.98L3323.75 3508.81L3299.62 3472.99L3045.79 3110.15L2872.03 2858.62L2867.43 2851.15L2865.9 2847.13L2865.13 2843.49Z" fill="#0F0D10"/>
<path d="M2910.92 2838.89L2916.28 2839.85L2922.99 2847.51L2933.14 2861.88L2961.49 2905.17L3035.06 3009.96L3107.85 3115.52L3375.48 3493.68L3380.08 3500.96L3382.57 3506.9L3377.78 3507.47L3376.25 3506.7L3372.8 3502.68L3359.77 3482.95L2937.36 2882.38L2924.71 2863.98L2913.03 2845.21L2911.49 2842.15L2910.92 2838.89Z" fill="#0F0D10"/>
</g>
<defs>
<clipPath id="clip0_1_81">
<rect width="1961.69" height="1961.69" fill="white" transform="translate(2038.31 2038.31)"/>
</clipPath>
</defs>
</svg>
