<?xml version="1.0" standalone="no"?><!DOCTYPE svg PUBLIC "-//W3C//DTD SVG 1.1//EN" "http://www.w3.org/Graphics/SVG/1.1/DTD/svg11.dtd"><svg t="1744556626042" class="icon" viewBox="0 0 1056 1024" version="1.1" xmlns="http://www.w3.org/2000/svg" p-id="7125" xmlns:xlink="http://www.w3.org/1999/xlink" width="206.25" height="200"><path d="M29.204991 29.204991h29.204991v29.204991H29.204991z m29.204991 0h29.204991v29.204991H58.409982z" fill="#FFECCB" p-id="7126"></path><path d="M87.614973 29.204991h29.204991v29.204991H87.614973z" fill="#A3595B" p-id="7127"></path><path d="M116.819964 29.204991h29.204991v29.204991H116.819964z m29.204991 0h29.204992v29.204991H146.024955z m29.204992 0h29.204991v29.204991H175.229947z m29.204991 0h29.204991v29.204991H204.434938z m29.204991 0h29.204991v29.204991H233.639929z m29.204991 0h29.204991v29.204991H262.84492z m29.204991 0h29.204991v29.204991h-29.204991z m29.204991 0h29.204991v29.204991h-29.204991z m29.204991 0h29.204991v29.204991h-29.204991z m29.204991 0h29.204991v29.204991h-29.204991z m29.204991 0h29.204991v29.204991h-29.204991z m29.204991 0h29.204991v29.204991h-29.204991z m29.204991 0h29.204991v29.204991h-29.204991z m29.204991 0h29.204992v29.204991h-29.204992z m29.204992 0h29.204991v29.204991h-29.204991z m29.204991 0h29.204991v29.204991h-29.204991z m29.204991 0h29.204991v29.204991h-29.204991z m29.204991 0h29.204991v29.204991h-29.204991z m29.204991 0h29.204991v29.204991h-29.204991z m29.204991 0h29.204991v29.204991h-29.204991z" fill="#FFE0D6" p-id="7128"></path><path d="M700.919786 29.204991h29.204991v29.204991h-29.204991z" fill="#FF758C" p-id="7129"></path><path d="M730.124777 29.204991h29.204991v29.204991h-29.204991z" fill="#FF9FAF" p-id="7130"></path><path d="M759.329768 29.204991h29.204991v29.204991h-29.204991z m29.204991 0h29.204991v29.204991h-29.204991z m29.204991 0h29.204992v29.204991h-29.204992z" fill="#FFE0D6" p-id="7131"></path><path d="M846.944742 29.204991h29.204991v29.204991h-29.204991z m29.204991 0h29.204991v29.204991h-29.204991z m29.204991 0h29.204991v29.204991h-29.204991z m29.204991 0h29.204991v29.204991h-29.204991z" fill="#DEAEA0" p-id="7132"></path><path d="M29.204991 58.409982h29.204991v29.204991H29.204991z" fill="#FFECCB" p-id="7133"></path><path d="M58.409982 58.409982h29.204991v29.204991H58.409982z" fill="#A3595B" p-id="7134"></path><path d="M87.614973 58.409982h29.204991v29.204991H87.614973z m29.204991 0h29.204991v29.204991H116.819964z m29.204991 0h29.204992v29.204991H146.024955z m29.204992 0h29.204991v29.204991H175.229947z m29.204991 0h29.204991v29.204991H204.434938z m29.204991 0h29.204991v29.204991H233.639929z m29.204991 0h29.204991v29.204991H262.84492z m29.204991 0h29.204991v29.204991h-29.204991z m29.204991 0h29.204991v29.204991h-29.204991z m29.204991 0h29.204991v29.204991h-29.204991z m29.204991 0h29.204991v29.204991h-29.204991z m29.204991 0h29.204991v29.204991h-29.204991z m29.204991 0h29.204991v29.204991h-29.204991z m29.204991 0h29.204991v29.204991h-29.204991z m29.204991 0h29.204992v29.204991h-29.204992z m29.204992 0h29.204991v29.204991h-29.204991z m29.204991 0h29.204991v29.204991h-29.204991z m29.204991 0h29.204991v29.204991h-29.204991z m29.204991 0h29.204991v29.204991h-29.204991z m29.204991 0h29.204991v29.204991h-29.204991z m29.204991 0h29.204991v29.204991h-29.204991z" fill="#FFE0D6" p-id="7135"></path><path d="M700.919786 58.409982h29.204991v29.204991h-29.204991z" fill="#FF758C" p-id="7136"></path><path d="M730.124777 58.409982h29.204991v29.204991h-29.204991z m29.204991 0h29.204991v29.204991h-29.204991z" fill="#FF9FAF" p-id="7137"></path><path d="M788.534759 58.409982h29.204991v29.204991h-29.204991z m29.204991 0h29.204992v29.204991h-29.204992z m29.204992 0h29.204991v29.204991h-29.204991z m29.204991 0h29.204991v29.204991h-29.204991z" fill="#FFE0D6" p-id="7138"></path><path d="M905.354724 58.409982h29.204991v29.204991h-29.204991z m29.204991 0h29.204991v29.204991h-29.204991z" fill="#DEAEA0" p-id="7139"></path><path d="M29.204991 87.614973h29.204991v29.204991H29.204991z" fill="#FFECCB" p-id="7140"></path><path d="M58.409982 87.614973h29.204991v29.204991H58.409982z" fill="#A3595B" p-id="7141"></path><path d="M87.614973 87.614973h29.204991v29.204991H87.614973z m29.204991 0h29.204991v29.204991H116.819964z m29.204991 0h29.204992v29.204991H146.024955z m29.204992 0h29.204991v29.204991H175.229947z m29.204991 0h29.204991v29.204991H204.434938z m29.204991 0h29.204991v29.204991H233.639929z m29.204991 0h29.204991v29.204991H262.84492z m29.204991 0h29.204991v29.204991h-29.204991z m29.204991 0h29.204991v29.204991h-29.204991z m29.204991 0h29.204991v29.204991h-29.204991z m29.204991 0h29.204991v29.204991h-29.204991z m29.204991 0h29.204991v29.204991h-29.204991z m29.204991 0h29.204991v29.204991h-29.204991z m29.204991 0h29.204991v29.204991h-29.204991z m29.204991 0h29.204992v29.204991h-29.204992z m29.204992 0h29.204991v29.204991h-29.204991z m29.204991 0h29.204991v29.204991h-29.204991z m29.204991 0h29.204991v29.204991h-29.204991z m29.204991 0h29.204991v29.204991h-29.204991z m29.204991 0h29.204991v29.204991h-29.204991z m29.204991 0h29.204991v29.204991h-29.204991z" fill="#FFE0D6" p-id="7142"></path><path d="M700.919786 87.614973h29.204991v29.204991h-29.204991z" fill="#FF758C" p-id="7143"></path><path d="M730.124777 87.614973h29.204991v29.204991h-29.204991z m29.204991 0h29.204991v29.204991h-29.204991z m29.204991 0h29.204991v29.204991h-29.204991z" fill="#FF9FAF" p-id="7144"></path><path d="M817.73975 87.614973h29.204992v29.204991h-29.204992z m29.204992 0h29.204991v29.204991h-29.204991z m29.204991 0h29.204991v29.204991h-29.204991z m29.204991 0h29.204991v29.204991h-29.204991z" fill="#FFE0D6" p-id="7145"></path><path d="M934.559715 87.614973h29.204991v29.204991h-29.204991z" fill="#DEAEA0" p-id="7146"></path><path d="M29.204991 116.819964h29.204991v29.204991H29.204991z" fill="#A3595B" p-id="7147"></path><path d="M58.409982 116.819964h29.204991v29.204991H58.409982z m29.204991 0h29.204991v29.204991H87.614973z m29.204991 0h29.204991v29.204991H116.819964z m29.204991 0h29.204992v29.204991H146.024955z m29.204992 0h29.204991v29.204991H175.229947z m29.204991 0h29.204991v29.204991H204.434938z m29.204991 0h29.204991v29.204991H233.639929z m29.204991 0h29.204991v29.204991H262.84492z m29.204991 0h29.204991v29.204991h-29.204991z m29.204991 0h29.204991v29.204991h-29.204991z m29.204991 0h29.204991v29.204991h-29.204991z m29.204991 0h29.204991v29.204991h-29.204991z m29.204991 0h29.204991v29.204991h-29.204991z m29.204991 0h29.204991v29.204991h-29.204991z m29.204991 0h29.204991v29.204991h-29.204991z m29.204991 0h29.204992v29.204991h-29.204992z m29.204992 0h29.204991v29.204991h-29.204991z m29.204991 0h29.204991v29.204991h-29.204991z m29.204991 0h29.204991v29.204991h-29.204991z m29.204991 0h29.204991v29.204991h-29.204991z m29.204991 0h29.204991v29.204991h-29.204991z m29.204991 0h29.204991v29.204991h-29.204991z" fill="#FFE0D6" p-id="7148"></path><path d="M700.919786 116.819964h29.204991v29.204991h-29.204991z m29.204991 0h29.204991v29.204991h-29.204991z" fill="#FF758C" p-id="7149"></path><path d="M759.329768 116.819964h29.204991v29.204991h-29.204991z m29.204991 0h29.204991v29.204991h-29.204991z m29.204991 0h29.204992v29.204991h-29.204992z m29.204992 0h29.204991v29.204991h-29.204991z m29.204991 0h29.204991v29.204991h-29.204991z m29.204991 0h29.204991v29.204991h-29.204991z" fill="#FF9FAF" p-id="7150"></path><path d="M934.559715 116.819964h29.204991v29.204991h-29.204991z" fill="#DEAEA0" p-id="7151"></path><path d="M29.204991 146.024955h29.204991v29.204992H29.204991z" fill="#A3595B" p-id="7152"></path><path d="M58.409982 146.024955h29.204991v29.204992H58.409982z m29.204991 0h29.204991v29.204992H87.614973z m29.204991 0h29.204991v29.204992H116.819964z m29.204991 0h29.204992v29.204992H146.024955z m29.204992 0h29.204991v29.204992H175.229947z m29.204991 0h29.204991v29.204992H204.434938z m29.204991 0h29.204991v29.204992H233.639929z m29.204991 0h29.204991v29.204992H262.84492z m29.204991 0h29.204991v29.204992h-29.204991z m29.204991 0h29.204991v29.204992h-29.204991z m29.204991 0h29.204991v29.204992h-29.204991z m29.204991 0h29.204991v29.204992h-29.204991z m29.204991 0h29.204991v29.204992h-29.204991z m29.204991 0h29.204991v29.204992h-29.204991z m29.204991 0h29.204991v29.204992h-29.204991z m29.204991 0h29.204992v29.204992h-29.204992z m29.204992 0h29.204991v29.204992h-29.204991z m29.204991 0h29.204991v29.204992h-29.204991z m29.204991 0h29.204991v29.204992h-29.204991z m29.204991 0h29.204991v29.204992h-29.204991z m29.204991 0h29.204991v29.204992h-29.204991z" fill="#FFE0D6" p-id="7153"></path><path d="M671.714795 146.024955h29.204991v29.204992h-29.204991z m29.204991 0h29.204991v29.204992h-29.204991z m29.204991 0h29.204991v29.204992h-29.204991z m29.204991 0h29.204991v29.204992h-29.204991z" fill="#FF758C" p-id="7154"></path><path d="M788.534759 146.024955h29.204991v29.204992h-29.204991z" fill="#FF9FAF" p-id="7155"></path><path d="M817.73975 146.024955h29.204992v29.204992h-29.204992z m29.204992 0h29.204991v29.204992h-29.204991z m29.204991 0h29.204991v29.204992h-29.204991z" fill="#FF758C" p-id="7156"></path><path d="M905.354724 146.024955h29.204991v29.204992h-29.204991z m29.204991 0h29.204991v29.204992h-29.204991z" fill="#FFE0D6" p-id="7157"></path><path d="M29.204991 175.229947h29.204991v29.204991H29.204991z" fill="#A3595B" p-id="7158"></path><path d="M58.409982 175.229947h29.204991v29.204991H58.409982z m29.204991 0h29.204991v29.204991H87.614973z m29.204991 0h29.204991v29.204991H116.819964z m29.204991 0h29.204992v29.204991H146.024955z m29.204992 0h29.204991v29.204991H175.229947z m29.204991 0h29.204991v29.204991H204.434938z m29.204991 0h29.204991v29.204991H233.639929z m29.204991 0h29.204991v29.204991H262.84492z m29.204991 0h29.204991v29.204991h-29.204991z m29.204991 0h29.204991v29.204991h-29.204991z m29.204991 0h29.204991v29.204991h-29.204991z m29.204991 0h29.204991v29.204991h-29.204991z m29.204991 0h29.204991v29.204991h-29.204991z m29.204991 0h29.204991v29.204991h-29.204991z m29.204991 0h29.204991v29.204991h-29.204991z m29.204991 0h29.204992v29.204991h-29.204992z m29.204992 0h29.204991v29.204991h-29.204991z m29.204991 0h29.204991v29.204991h-29.204991z m29.204991 0h29.204991v29.204991h-29.204991z m29.204991 0h29.204991v29.204991h-29.204991z" fill="#FFE0D6" p-id="7159"></path><path d="M642.509804 175.229947h29.204991v29.204991h-29.204991z m29.204991 0h29.204991v29.204991h-29.204991z m29.204991 0h29.204991v29.204991h-29.204991z m29.204991 0h29.204991v29.204991h-29.204991z m29.204991 0h29.204991v29.204991h-29.204991z m29.204991 0h29.204991v29.204991h-29.204991z m29.204991 0h29.204992v29.204991h-29.204992z m29.204992 0h29.204991v29.204991h-29.204991z" fill="#FF758C" p-id="7160"></path><path d="M876.149733 175.229947h29.204991v29.204991h-29.204991z m29.204991 0h29.204991v29.204991h-29.204991z m29.204991 0h29.204991v29.204991h-29.204991zM29.204991 204.434938h29.204991v29.204991H29.204991z m29.204991 0h29.204991v29.204991H58.409982z m29.204991 0h29.204991v29.204991H87.614973z m29.204991 0h29.204991v29.204991H116.819964z m29.204991 0h29.204992v29.204991H146.024955z m29.204992 0h29.204991v29.204991H175.229947z m29.204991 0h29.204991v29.204991H204.434938z m29.204991 0h29.204991v29.204991H233.639929z m29.204991 0h29.204991v29.204991H262.84492z m29.204991 0h29.204991v29.204991h-29.204991z m29.204991 0h29.204991v29.204991h-29.204991z m29.204991 0h29.204991v29.204991h-29.204991z m29.204991 0h29.204991v29.204991h-29.204991z m29.204991 0h29.204991v29.204991h-29.204991z m29.204991 0h29.204991v29.204991h-29.204991z m29.204991 0h29.204991v29.204991h-29.204991z m29.204991 0h29.204992v29.204991h-29.204992z m29.204992 0h29.204991v29.204991h-29.204991z m29.204991 0h29.204991v29.204991h-29.204991z" fill="#FFE0D6" p-id="7161"></path><path d="M584.099822 204.434938h29.204991v29.204991h-29.204991z" fill="#E0968E" p-id="7162"></path><path d="M613.304813 204.434938h29.204991v29.204991h-29.204991z m29.204991 0h29.204991v29.204991h-29.204991z m29.204991 0h29.204991v29.204991h-29.204991z m29.204991 0h29.204991v29.204991h-29.204991z m29.204991 0h29.204991v29.204991h-29.204991z m29.204991 0h29.204991v29.204991h-29.204991z m29.204991 0h29.204991v29.204991h-29.204991z m29.204991 0h29.204992v29.204991h-29.204992z" fill="#FF758C" p-id="7163"></path><path d="M846.944742 204.434938h29.204991v29.204991h-29.204991z m29.204991 0h29.204991v29.204991h-29.204991z" fill="#DEAEA0" p-id="7164"></path><path d="M905.354724 204.434938h29.204991v29.204991h-29.204991z m29.204991 0h29.204991v29.204991h-29.204991zM29.204991 233.639929h29.204991v29.204991H29.204991z m29.204991 0h29.204991v29.204991H58.409982z m29.204991 0h29.204991v29.204991H87.614973z m29.204991 0h29.204991v29.204991H116.819964z m29.204991 0h29.204992v29.204991H146.024955z m29.204992 0h29.204991v29.204991H175.229947z m29.204991 0h29.204991v29.204991H204.434938z m29.204991 0h29.204991v29.204991H233.639929z m29.204991 0h29.204991v29.204991H262.84492z" fill="#FFE0D6" p-id="7165"></path><path d="M292.049911 233.639929h29.204991v29.204991h-29.204991z" fill="#E0968E" p-id="7166"></path><path d="M321.254902 233.639929h29.204991v29.204991h-29.204991z m29.204991 0h29.204991v29.204991h-29.204991z m29.204991 0h29.204991v29.204991h-29.204991z m29.204991 0h29.204991v29.204991h-29.204991z m29.204991 0h29.204991v29.204991h-29.204991z m29.204991 0h29.204991v29.204991h-29.204991z m29.204991 0h29.204992v29.204991h-29.204992z m29.204992 0h29.204991v29.204991h-29.204991z m29.204991 0h29.204991v29.204991h-29.204991z" fill="#FFE0D6" p-id="7167"></path><path d="M584.099822 233.639929h29.204991v29.204991h-29.204991z" fill="#E0968E" p-id="7168"></path><path d="M613.304813 233.639929h29.204991v29.204991h-29.204991z m29.204991 0h29.204991v29.204991h-29.204991z m29.204991 0h29.204991v29.204991h-29.204991z m29.204991 0h29.204991v29.204991h-29.204991z" fill="#FFE0D6" p-id="7169"></path><path d="M730.124777 233.639929h29.204991v29.204991h-29.204991z m29.204991 0h29.204991v29.204991h-29.204991z m29.204991 0h29.204991v29.204991h-29.204991z m29.204991 0h29.204992v29.204991h-29.204992z" fill="#FF758C" p-id="7170"></path><path d="M846.944742 233.639929h29.204991v29.204991h-29.204991z" fill="#FFE0D6" p-id="7171"></path><path d="M876.149733 233.639929h29.204991v29.204991h-29.204991z m29.204991 0h29.204991v29.204991h-29.204991z" fill="#DEAEA0" p-id="7172"></path><path d="M934.559715 233.639929h29.204991v29.204991h-29.204991zM29.204991 262.84492h29.204991v29.204991H29.204991z m29.204991 0h29.204991v29.204991H58.409982z m29.204991 0h29.204991v29.204991H87.614973z m29.204991 0h29.204991v29.204991H116.819964z m29.204991 0h29.204992v29.204991H146.024955z m29.204992 0h29.204991v29.204991H175.229947z m29.204991 0h29.204991v29.204991H204.434938z m29.204991 0h29.204991v29.204991H233.639929z m29.204991 0h29.204991v29.204991H262.84492z" fill="#FFE0D6" p-id="7173"></path><path d="M292.049911 262.84492h29.204991v29.204991h-29.204991z" fill="#E0968E" p-id="7174"></path><path d="M321.254902 262.84492h29.204991v29.204991h-29.204991z m29.204991 0h29.204991v29.204991h-29.204991z m29.204991 0h29.204991v29.204991h-29.204991z m29.204991 0h29.204991v29.204991h-29.204991z m29.204991 0h29.204991v29.204991h-29.204991z m29.204991 0h29.204991v29.204991h-29.204991z m29.204991 0h29.204992v29.204991h-29.204992z m29.204992 0h29.204991v29.204991h-29.204991z m29.204991 0h29.204991v29.204991h-29.204991z" fill="#FFE0D6" p-id="7175"></path><path d="M584.099822 262.84492h29.204991v29.204991h-29.204991z" fill="#E0968E" p-id="7176"></path><path d="M613.304813 262.84492h29.204991v29.204991h-29.204991z" fill="#A3595B" p-id="7177"></path><path d="M642.509804 262.84492h29.204991v29.204991h-29.204991z m29.204991 0h29.204991v29.204991h-29.204991z m29.204991 0h29.204991v29.204991h-29.204991z" fill="#FFE0D6" p-id="7178"></path><path d="M730.124777 262.84492h29.204991v29.204991h-29.204991z" fill="#E0968E" p-id="7179"></path><path d="M759.329768 262.84492h29.204991v29.204991h-29.204991z m29.204991 0h29.204991v29.204991h-29.204991z m29.204991 0h29.204992v29.204991h-29.204992z" fill="#FF758C" p-id="7180"></path><path d="M846.944742 262.84492h29.204991v29.204991h-29.204991z" fill="#FFE0D6" p-id="7181"></path><path d="M876.149733 262.84492h29.204991v29.204991h-29.204991z m29.204991 0h29.204991v29.204991h-29.204991z m29.204991 0h29.204991v29.204991h-29.204991z" fill="#DEAEA0" p-id="7182"></path><path d="M29.204991 292.049911h29.204991v29.204991H29.204991z m29.204991 0h29.204991v29.204991H58.409982z m29.204991 0h29.204991v29.204991H87.614973z m29.204991 0h29.204991v29.204991H116.819964z m29.204991 0h29.204992v29.204991H146.024955z m29.204992 0h29.204991v29.204991H175.229947z m29.204991 0h29.204991v29.204991H204.434938z m29.204991 0h29.204991v29.204991H233.639929z m29.204991 0h29.204991v29.204991H262.84492z" fill="#FFE0D6" p-id="7183"></path><path d="M292.049911 292.049911h29.204991v29.204991h-29.204991z" fill="#E0968E" p-id="7184"></path><path d="M321.254902 292.049911h29.204991v29.204991h-29.204991z m29.204991 0h29.204991v29.204991h-29.204991z" fill="#FFE0D6" p-id="7185"></path><path d="M379.664884 292.049911h29.204991v29.204991h-29.204991z" fill="#E0968E" p-id="7186"></path><path d="M408.869875 292.049911h29.204991v29.204991h-29.204991z m29.204991 0h29.204991v29.204991h-29.204991z m29.204991 0h29.204991v29.204991h-29.204991z m29.204991 0h29.204992v29.204991h-29.204992z m29.204992 0h29.204991v29.204991h-29.204991z m29.204991 0h29.204991v29.204991h-29.204991z" fill="#FFE0D6" p-id="7187"></path><path d="M584.099822 292.049911h29.204991v29.204991h-29.204991z" fill="#E0968E" p-id="7188"></path><path d="M613.304813 292.049911h29.204991v29.204991h-29.204991z" fill="#A3595B" p-id="7189"></path><path d="M642.509804 292.049911h29.204991v29.204991h-29.204991z m29.204991 0h29.204991v29.204991h-29.204991z m29.204991 0h29.204991v29.204991h-29.204991z" fill="#FFE0D6" p-id="7190"></path><path d="M730.124777 292.049911h29.204991v29.204991h-29.204991z" fill="#E0968E" p-id="7191"></path><path d="M759.329768 292.049911h29.204991v29.204991h-29.204991z" fill="#FFE0D6" p-id="7192"></path><path d="M788.534759 292.049911h29.204991v29.204991h-29.204991z m29.204991 0h29.204992v29.204991h-29.204992z" fill="#FF758C" p-id="7193"></path><path d="M846.944742 292.049911h29.204991v29.204991h-29.204991z" fill="#FFE0D6" p-id="7194"></path><path d="M876.149733 292.049911h29.204991v29.204991h-29.204991z m29.204991 0h29.204991v29.204991h-29.204991z m29.204991 0h29.204991v29.204991h-29.204991z" fill="#DEAEA0" p-id="7195"></path><path d="M29.204991 321.254902h29.204991v29.204991H29.204991z m29.204991 0h29.204991v29.204991H58.409982z m29.204991 0h29.204991v29.204991H87.614973z m29.204991 0h29.204991v29.204991H116.819964z m29.204991 0h29.204992v29.204991H146.024955z m29.204992 0h29.204991v29.204991H175.229947z m29.204991 0h29.204991v29.204991H204.434938z m29.204991 0h29.204991v29.204991H233.639929z m29.204991 0h29.204991v29.204991H262.84492z" fill="#FFE0D6" p-id="7196"></path><path d="M292.049911 321.254902h29.204991v29.204991h-29.204991z" fill="#A3595B" p-id="7197"></path><path d="M321.254902 321.254902h29.204991v29.204991h-29.204991z m29.204991 0h29.204991v29.204991h-29.204991z" fill="#FFE0D6" p-id="7198"></path><path d="M379.664884 321.254902h29.204991v29.204991h-29.204991z" fill="#E0968E" p-id="7199"></path><path d="M408.869875 321.254902h29.204991v29.204991h-29.204991z m29.204991 0h29.204991v29.204991h-29.204991z m29.204991 0h29.204991v29.204991h-29.204991z m29.204991 0h29.204992v29.204991h-29.204992z m29.204992 0h29.204991v29.204991h-29.204991z m29.204991 0h29.204991v29.204991h-29.204991z" fill="#FFE0D6" p-id="7200"></path><path d="M584.099822 321.254902h29.204991v29.204991h-29.204991z" fill="#A3595B" p-id="7201"></path><path d="M613.304813 321.254902h29.204991v29.204991h-29.204991z" fill="#EB9898" p-id="7202"></path><path d="M642.509804 321.254902h29.204991v29.204991h-29.204991z" fill="#A3595B" p-id="7203"></path><path d="M671.714795 321.254902h29.204991v29.204991h-29.204991z m29.204991 0h29.204991v29.204991h-29.204991z" fill="#FFE0D6" p-id="7204"></path><path d="M730.124777 321.254902h29.204991v29.204991h-29.204991z m29.204991 0h29.204991v29.204991h-29.204991z" fill="#E0968E" p-id="7205"></path><path d="M788.534759 321.254902h29.204991v29.204991h-29.204991z" fill="#FFE0D6" p-id="7206"></path><path d="M817.73975 321.254902h29.204992v29.204991h-29.204992z" fill="#FF758C" p-id="7207"></path><path d="M846.944742 321.254902h29.204991v29.204991h-29.204991z" fill="#FFE0D6" p-id="7208"></path><path d="M876.149733 321.254902h29.204991v29.204991h-29.204991z m29.204991 0h29.204991v29.204991h-29.204991z m29.204991 0h29.204991v29.204991h-29.204991z" fill="#DEAEA0" p-id="7209"></path><path d="M29.204991 350.459893h29.204991v29.204991H29.204991z m29.204991 0h29.204991v29.204991H58.409982z m29.204991 0h29.204991v29.204991H87.614973z m29.204991 0h29.204991v29.204991H116.819964z m29.204991 0h29.204992v29.204991H146.024955z m29.204992 0h29.204991v29.204991H175.229947z m29.204991 0h29.204991v29.204991H204.434938z m29.204991 0h29.204991v29.204991H233.639929z" fill="#FFE0D6" p-id="7210"></path><path d="M262.84492 350.459893h29.204991v29.204991H262.84492z" fill="#A3595B" p-id="7211"></path><path d="M292.049911 350.459893h29.204991v29.204991h-29.204991z" fill="#FFF5F5" p-id="7212"></path><path d="M321.254902 350.459893h29.204991v29.204991h-29.204991z" fill="#A3595B" p-id="7213"></path><path d="M350.459893 350.459893h29.204991v29.204991h-29.204991z" fill="#FFE0D6" p-id="7214"></path><path d="M379.664884 350.459893h29.204991v29.204991h-29.204991z" fill="#A3595B" p-id="7215"></path><path d="M408.869875 350.459893h29.204991v29.204991h-29.204991z m29.204991 0h29.204991v29.204991h-29.204991z m29.204991 0h29.204991v29.204991h-29.204991z m29.204991 0h29.204992v29.204991h-29.204992z m29.204992 0h29.204991v29.204991h-29.204991z m29.204991 0h29.204991v29.204991h-29.204991z" fill="#FFE0D6" p-id="7216"></path><path d="M584.099822 350.459893h29.204991v29.204991h-29.204991z" fill="#A3595B" p-id="7217"></path><path d="M613.304813 350.459893h29.204991v29.204991h-29.204991z" fill="#EB9898" p-id="7218"></path><path d="M642.509804 350.459893h29.204991v29.204991h-29.204991z" fill="#A3595B" p-id="7219"></path><path d="M671.714795 350.459893h29.204991v29.204991h-29.204991z" fill="#FFE0D6" p-id="7220"></path><path d="M700.919786 350.459893h29.204991v29.204991h-29.204991z m29.204991 0h29.204991v29.204991h-29.204991z" fill="#9C3D40" p-id="7221"></path><path d="M759.329768 350.459893h29.204991v29.204991h-29.204991z" fill="#E0968E" p-id="7222"></path><path d="M788.534759 350.459893h29.204991v29.204991h-29.204991z m29.204991 0h29.204992v29.204991h-29.204992z m29.204992 0h29.204991v29.204991h-29.204991z m29.204991 0h29.204991v29.204991h-29.204991z" fill="#FFE0D6" p-id="7223"></path><path d="M905.354724 350.459893h29.204991v29.204991h-29.204991z m29.204991 0h29.204991v29.204991h-29.204991z" fill="#DEAEA0" p-id="7224"></path><path d="M29.204991 379.664884h29.204991v29.204991H29.204991z m29.204991 0h29.204991v29.204991H58.409982z m29.204991 0h29.204991v29.204991H87.614973z m29.204991 0h29.204991v29.204991H116.819964z m29.204991 0h29.204992v29.204991H146.024955z" fill="#FFE0D6" p-id="7225"></path><path d="M175.229947 379.664884h29.204991v29.204991H175.229947z" fill="#E0968E" p-id="7226"></path><path d="M204.434938 379.664884h29.204991v29.204991H204.434938z m29.204991 0h29.204991v29.204991H233.639929z" fill="#FFE0D6" p-id="7227"></path><path d="M262.84492 379.664884h29.204991v29.204991H262.84492z" fill="#A3595B" p-id="7228"></path><path d="M292.049911 379.664884h29.204991v29.204991h-29.204991z" fill="#FFF5F5" p-id="7229"></path><path d="M321.254902 379.664884h29.204991v29.204991h-29.204991z" fill="#A3595B" p-id="7230"></path><path d="M350.459893 379.664884h29.204991v29.204991h-29.204991z" fill="#FFE0D6" p-id="7231"></path><path d="M379.664884 379.664884h29.204991v29.204991h-29.204991z m29.204991 0h29.204991v29.204991h-29.204991z" fill="#A3595B" p-id="7232"></path><path d="M438.074866 379.664884h29.204991v29.204991h-29.204991z m29.204991 0h29.204991v29.204991h-29.204991z m29.204991 0h29.204992v29.204991h-29.204992z m29.204992 0h29.204991v29.204991h-29.204991z m29.204991 0h29.204991v29.204991h-29.204991z" fill="#FFE0D6" p-id="7233"></path><path d="M584.099822 379.664884h29.204991v29.204991h-29.204991z" fill="#A3595B" p-id="7234"></path><path d="M613.304813 379.664884h29.204991v29.204991h-29.204991z m29.204991 0h29.204991v29.204991h-29.204991z" fill="#FFF5F5" p-id="7235"></path><path d="M671.714795 379.664884h29.204991v29.204991h-29.204991z" fill="#9C3D40" p-id="7236"></path><path d="M700.919786 379.664884h29.204991v29.204991h-29.204991z m29.204991 0h29.204991v29.204991h-29.204991z" fill="#FFF5F5" p-id="7237"></path><path d="M759.329768 379.664884h29.204991v29.204991h-29.204991z m29.204991 0h29.204991v29.204991h-29.204991z m29.204991 0h29.204992v29.204991h-29.204992z m29.204992 0h29.204991v29.204991h-29.204991z m29.204991 0h29.204991v29.204991h-29.204991z m29.204991 0h29.204991v29.204991h-29.204991z m29.204991 0h29.204991v29.204991h-29.204991z" fill="#9C3D40" p-id="7238"></path><path d="M29.204991 408.869875h29.204991v29.204991H29.204991z m29.204991 0h29.204991v29.204991H58.409982z m29.204991 0h29.204991v29.204991H87.614973z m29.204991 0h29.204991v29.204991H116.819964z m29.204991 0h29.204992v29.204991H146.024955z" fill="#FFE0D6" p-id="7239"></path><path d="M175.229947 408.869875h29.204991v29.204991H175.229947z" fill="#E0968E" p-id="7240"></path><path d="M204.434938 408.869875h29.204991v29.204991H204.434938z" fill="#FFE0D6" p-id="7241"></path><path d="M233.639929 408.869875h29.204991v29.204991H233.639929z" fill="#A3595B" p-id="7242"></path><path d="M262.84492 408.869875h29.204991v29.204991H262.84492z" fill="#FFF5F5" p-id="7243"></path><path d="M292.049911 408.869875h29.204991v29.204991h-29.204991z" p-id="7244"></path><path d="M321.254902 408.869875h29.204991v29.204991h-29.204991z" fill="#FFF5F5" p-id="7245"></path><path d="M350.459893 408.869875h29.204991v29.204991h-29.204991z m29.204991 0h29.204991v29.204991h-29.204991z" fill="#A3595B" p-id="7246"></path><path d="M408.869875 408.869875h29.204991v29.204991h-29.204991z" fill="#FFF5F5" p-id="7247"></path><path d="M438.074866 408.869875h29.204991v29.204991h-29.204991z" fill="#A3595B" p-id="7248"></path><path d="M467.279857 408.869875h29.204991v29.204991h-29.204991z m29.204991 0h29.204992v29.204991h-29.204992z" fill="#FFE0D6" p-id="7249"></path><path d="M525.68984 408.869875h29.204991v29.204991h-29.204991z" fill="#E0968E" p-id="7250"></path><path d="M554.894831 408.869875h29.204991v29.204991h-29.204991z" fill="#FFE0D6" p-id="7251"></path><path d="M584.099822 408.869875h29.204991v29.204991h-29.204991z" fill="#A3595B" p-id="7252"></path><path d="M613.304813 408.869875h29.204991v29.204991h-29.204991z m29.204991 0h29.204991v29.204991h-29.204991z" fill="#FFF5F5" p-id="7253"></path><path d="M671.714795 408.869875h29.204991v29.204991h-29.204991z" fill="#9C3D40" p-id="7254"></path><path d="M700.919786 408.869875h29.204991v29.204991h-29.204991z m29.204991 0h29.204991v29.204991h-29.204991z m29.204991 0h29.204991v29.204991h-29.204991z m29.204991 0h29.204991v29.204991h-29.204991z" fill="#FFF5F5" p-id="7255"></path><path d="M817.73975 408.869875h29.204992v29.204991h-29.204992z" fill="#FFA8A8" p-id="7256"></path><path d="M846.944742 408.869875h29.204991v29.204991h-29.204991z m29.204991 0h29.204991v29.204991h-29.204991z m29.204991 0h29.204991v29.204991h-29.204991z m29.204991 0h29.204991v29.204991h-29.204991z" fill="#FFF5F5" p-id="7257"></path><path d="M29.204991 438.074866h29.204991v29.204991H29.204991z m29.204991 0h29.204991v29.204991H58.409982z m29.204991 0h29.204991v29.204991H87.614973z m29.204991 0h29.204991v29.204991H116.819964z m29.204991 0h29.204992v29.204991H146.024955z" fill="#FFE0D6" p-id="7258"></path><path d="M175.229947 438.074866h29.204991v29.204991H175.229947z" fill="#E0968E" p-id="7259"></path><path d="M204.434938 438.074866h29.204991v29.204991H204.434938z" fill="#A3595B" p-id="7260"></path><path d="M233.639929 438.074866h29.204991v29.204991H233.639929z" fill="#FFF5F5" p-id="7261"></path><path d="M262.84492 438.074866h29.204991v29.204991H262.84492z m29.204991 0h29.204991v29.204991h-29.204991z m29.204991 0h29.204991v29.204991h-29.204991z m29.204991 0h29.204991v29.204991h-29.204991z" p-id="7262"></path><path d="M379.664884 438.074866h29.204991v29.204991h-29.204991z m29.204991 0h29.204991v29.204991h-29.204991z m29.204991 0h29.204991v29.204991h-29.204991z" fill="#FFF5F5" p-id="7263"></path><path d="M467.279857 438.074866h29.204991v29.204991h-29.204991z m29.204991 0h29.204992v29.204991h-29.204992z m29.204992 0h29.204991v29.204991h-29.204991z m29.204991 0h29.204991v29.204991h-29.204991z m29.204991 0h29.204991v29.204991h-29.204991z" fill="#A3595B" p-id="7264"></path><path d="M613.304813 438.074866h29.204991v29.204991h-29.204991z" fill="#FFF5F5" p-id="7265"></path><path d="M642.509804 438.074866h29.204991v29.204991h-29.204991z" fill="#B16668" p-id="7266"></path><path d="M671.714795 438.074866h29.204991v29.204991h-29.204991z" p-id="7267"></path><path d="M700.919786 438.074866h29.204991v29.204991h-29.204991z" fill="#9C3D40" p-id="7268"></path><path d="M730.124777 438.074866h29.204991v29.204991h-29.204991z m29.204991 0h29.204991v29.204991h-29.204991z m29.204991 0h29.204991v29.204991h-29.204991z" fill="#FFF5F5" p-id="7269"></path><path d="M817.73975 438.074866h29.204992v29.204991h-29.204992z" fill="#FFA8A8" p-id="7270"></path><path d="M846.944742 438.074866h29.204991v29.204991h-29.204991z m29.204991 0h29.204991v29.204991h-29.204991z m29.204991 0h29.204991v29.204991h-29.204991z m29.204991 0h29.204991v29.204991h-29.204991z" fill="#FFF5F5" p-id="7271"></path><path d="M29.204991 467.279857h29.204991v29.204991H29.204991z m29.204991 0h29.204991v29.204991H58.409982z m29.204991 0h29.204991v29.204991H87.614973z m29.204991 0h29.204991v29.204991H116.819964z m29.204991 0h29.204992v29.204991H146.024955z" fill="#FFE0D6" p-id="7272"></path><path d="M175.229947 467.279857h29.204991v29.204991H175.229947z" fill="#A3595B" p-id="7273"></path><path d="M204.434938 467.279857h29.204991v29.204991H204.434938z" fill="#FFF5F5" p-id="7274"></path><path d="M233.639929 467.279857h29.204991v29.204991H233.639929z m29.204991 0h29.204991v29.204991H262.84492z" p-id="7275"></path><path d="M292.049911 467.279857h29.204991v29.204991h-29.204991z m29.204991 0h29.204991v29.204991h-29.204991z m29.204991 0h29.204991v29.204991h-29.204991z" fill="#579BDD" p-id="7276"></path><path d="M379.664884 467.279857h29.204991v29.204991h-29.204991z" p-id="7277"></path><path d="M408.869875 467.279857h29.204991v29.204991h-29.204991z m29.204991 0h29.204991v29.204991h-29.204991z m29.204991 0h29.204991v29.204991h-29.204991z m29.204991 0h29.204992v29.204991h-29.204992z m29.204992 0h29.204991v29.204991h-29.204991z m29.204991 0h29.204991v29.204991h-29.204991z" fill="#FFF5F5" p-id="7278"></path><path d="M584.099822 467.279857h29.204991v29.204991h-29.204991z" fill="#B16668" p-id="7279"></path><path d="M613.304813 467.279857h29.204991v29.204991h-29.204991z m29.204991 0h29.204991v29.204991h-29.204991z m29.204991 0h29.204991v29.204991h-29.204991z m29.204991 0h29.204991v29.204991h-29.204991z" p-id="7280"></path><path d="M730.124777 467.279857h29.204991v29.204991h-29.204991z" fill="#9C3D40" p-id="7281"></path><path d="M759.329768 467.279857h29.204991v29.204991h-29.204991z m29.204991 0h29.204991v29.204991h-29.204991z" fill="#FFA8A8" p-id="7282"></path><path d="M817.73975 467.279857h29.204992v29.204991h-29.204992z m29.204992 0h29.204991v29.204991h-29.204991z m29.204991 0h29.204991v29.204991h-29.204991z" fill="#FFF5F5" p-id="7283"></path><path d="M905.354724 467.279857h29.204991v29.204991h-29.204991z" fill="#FFA8A8" p-id="7284"></path><path d="M934.559715 467.279857h29.204991v29.204991h-29.204991z" fill="#FFF5F5" p-id="7285"></path><path d="M29.204991 496.484848h29.204991v29.204992H29.204991z m29.204991 0h29.204991v29.204992H58.409982z m29.204991 0h29.204991v29.204992H87.614973z m29.204991 0h29.204991v29.204992H116.819964z m29.204991 0h29.204992v29.204992H146.024955z" fill="#FFE0D6" p-id="7286"></path><path d="M175.229947 496.484848h29.204991v29.204992H175.229947z" fill="#A3595B" p-id="7287"></path><path d="M204.434938 496.484848h29.204991v29.204992H204.434938z m29.204991 0h29.204991v29.204992H233.639929z" p-id="7288"></path><path d="M262.84492 496.484848h29.204991v29.204992H262.84492z" fill="#FFBBC6" p-id="7289"></path><path d="M292.049911 496.484848h29.204991v29.204992h-29.204991z m29.204991 0h29.204991v29.204992h-29.204991z" fill="#579BDD" p-id="7290"></path><path d="M350.459893 496.484848h29.204991v29.204992h-29.204991z" fill="#FFFFFF" p-id="7291"></path><path d="M379.664884 496.484848h29.204991v29.204992h-29.204991z" fill="#579BDD" p-id="7292"></path><path d="M408.869875 496.484848h29.204991v29.204992h-29.204991z m29.204991 0h29.204991v29.204992h-29.204991z m29.204991 0h29.204991v29.204992h-29.204991z m29.204991 0h29.204992v29.204992h-29.204992z m29.204992 0h29.204991v29.204992h-29.204991z m29.204991 0h29.204991v29.204992h-29.204991z" fill="#FFF5F5" p-id="7293"></path><path d="M584.099822 496.484848h29.204991v29.204992h-29.204991z" p-id="7294"></path><path d="M613.304813 496.484848h29.204991v29.204992h-29.204991z" fill="#B16668" p-id="7295"></path><path d="M642.509804 496.484848h29.204991v29.204992h-29.204991z" fill="#FFF5F5" p-id="7296"></path><path d="M671.714795 496.484848h29.204991v29.204992h-29.204991z" fill="#FFA8A8" p-id="7297"></path><path d="M700.919786 496.484848h29.204991v29.204992h-29.204991z" fill="#FFF5F5" p-id="7298"></path><path d="M730.124777 496.484848h29.204991v29.204992h-29.204991z" fill="#FFA8A8" p-id="7299"></path><path d="M759.329768 496.484848h29.204991v29.204992h-29.204991z" fill="#9C3D40" p-id="7300"></path><path d="M788.534759 496.484848h29.204991v29.204992h-29.204991z" fill="#FFA8A8" p-id="7301"></path><path d="M817.73975 496.484848h29.204992v29.204992h-29.204992z m29.204992 0h29.204991v29.204992h-29.204991z" fill="#FFF5F5" p-id="7302"></path><path d="M876.149733 496.484848h29.204991v29.204992h-29.204991z" fill="#FFA8A8" p-id="7303"></path><path d="M905.354724 496.484848h29.204991v29.204992h-29.204991z m29.204991 0h29.204991v29.204992h-29.204991z" fill="#FFF5F5" p-id="7304"></path><path d="M29.204991 525.68984h29.204991v29.204991H29.204991z m29.204991 0h29.204991v29.204991H58.409982z m29.204991 0h29.204991v29.204991H87.614973z m29.204991 0h29.204991v29.204991H116.819964z m29.204991 0h29.204992v29.204991H146.024955z" fill="#FFE0D6" p-id="7305"></path><path d="M175.229947 525.68984h29.204991v29.204991H175.229947z" fill="#A3595B" p-id="7306"></path><path d="M204.434938 525.68984h29.204991v29.204991H204.434938z" fill="#FFF5F5" p-id="7307"></path><path d="M233.639929 525.68984h29.204991v29.204991H233.639929z" p-id="7308"></path><path d="M262.84492 525.68984h29.204991v29.204991H262.84492z" fill="#FFFFFF" p-id="7309"></path><path d="M292.049911 525.68984h29.204991v29.204991h-29.204991z m29.204991 0h29.204991v29.204991h-29.204991z m29.204991 0h29.204991v29.204991h-29.204991z m29.204991 0h29.204991v29.204991h-29.204991z" fill="#579BDD" p-id="7310"></path><path d="M408.869875 525.68984h29.204991v29.204991h-29.204991z m29.204991 0h29.204991v29.204991h-29.204991z m29.204991 0h29.204991v29.204991h-29.204991z m29.204991 0h29.204992v29.204991h-29.204992z m29.204992 0h29.204991v29.204991h-29.204991z m29.204991 0h29.204991v29.204991h-29.204991z m29.204991 0h29.204991v29.204991h-29.204991z m29.204991 0h29.204991v29.204991h-29.204991z m29.204991 0h29.204991v29.204991h-29.204991z m29.204991 0h29.204991v29.204991h-29.204991z m29.204991 0h29.204991v29.204991h-29.204991z" fill="#FFF5F5" p-id="7311"></path><path d="M730.124777 525.68984h29.204991v29.204991h-29.204991z" fill="#9C3D40" p-id="7312"></path><path d="M759.329768 525.68984h29.204991v29.204991h-29.204991z m29.204991 0h29.204991v29.204991h-29.204991z" fill="#FFF5F5" p-id="7313"></path><path d="M817.73975 525.68984h29.204992v29.204991h-29.204992z" fill="#FFA8A8" p-id="7314"></path><path d="M846.944742 525.68984h29.204991v29.204991h-29.204991z" fill="#FFF5F5" p-id="7315"></path><path d="M876.149733 525.68984h29.204991v29.204991h-29.204991z" fill="#FFA8A8" p-id="7316"></path><path d="M905.354724 525.68984h29.204991v29.204991h-29.204991z" fill="#FFF5F5" p-id="7317"></path><path d="M934.559715 525.68984h29.204991v29.204991h-29.204991z" fill="#FFA8A8" p-id="7318"></path><path d="M29.204991 554.894831h29.204991v29.204991H29.204991z m29.204991 0h29.204991v29.204991H58.409982z m29.204991 0h29.204991v29.204991H87.614973z m29.204991 0h29.204991v29.204991H116.819964z m29.204991 0h29.204992v29.204991H146.024955z" fill="#FFE0D6" p-id="7319"></path><path d="M175.229947 554.894831h29.204991v29.204991H175.229947z" fill="#A3595B" p-id="7320"></path><path d="M204.434938 554.894831h29.204991v29.204991H204.434938z" fill="#9C3D40" p-id="7321"></path><path d="M233.639929 554.894831h29.204991v29.204991H233.639929z" fill="#FFF5F5" p-id="7322"></path><path d="M262.84492 554.894831h29.204991v29.204991H262.84492z" fill="#FFFFFF" p-id="7323"></path><path d="M292.049911 554.894831h29.204991v29.204991h-29.204991z" fill="#579BDD" p-id="7324"></path><path d="M321.254902 554.894831h29.204991v29.204991h-29.204991z m29.204991 0h29.204991v29.204991h-29.204991z" fill="#B2DAFF" p-id="7325"></path><path d="M379.664884 554.894831h29.204991v29.204991h-29.204991z" fill="#579BDD" p-id="7326"></path><path d="M408.869875 554.894831h29.204991v29.204991h-29.204991z m29.204991 0h29.204991v29.204991h-29.204991z m29.204991 0h29.204991v29.204991h-29.204991z m29.204991 0h29.204992v29.204991h-29.204992z m29.204992 0h29.204991v29.204991h-29.204991z m29.204991 0h29.204991v29.204991h-29.204991z m29.204991 0h29.204991v29.204991h-29.204991z m29.204991 0h29.204991v29.204991h-29.204991z m29.204991 0h29.204991v29.204991h-29.204991z m29.204991 0h29.204991v29.204991h-29.204991z m29.204991 0h29.204991v29.204991h-29.204991z" fill="#FFF5F5" p-id="7327"></path><path d="M730.124777 554.894831h29.204991v29.204991h-29.204991z" fill="#9C3D40" p-id="7328"></path><path d="M759.329768 554.894831h29.204991v29.204991h-29.204991z m29.204991 0h29.204991v29.204991h-29.204991z m29.204991 0h29.204992v29.204991h-29.204992z" fill="#FFF5F5" p-id="7329"></path><path d="M846.944742 554.894831h29.204991v29.204991h-29.204991z m29.204991 0h29.204991v29.204991h-29.204991z" fill="#FFA8A8" p-id="7330"></path><path d="M905.354724 554.894831h29.204991v29.204991h-29.204991z" fill="#FFF5F5" p-id="7331"></path><path d="M934.559715 554.894831h29.204991v29.204991h-29.204991z" fill="#FFA8A8" p-id="7332"></path><path d="M29.204991 584.099822h29.204991v29.204991H29.204991z m29.204991 0h29.204991v29.204991H58.409982z m29.204991 0h29.204991v29.204991H87.614973z m29.204991 0h29.204991v29.204991H116.819964z m29.204991 0h29.204992v29.204991H146.024955z" fill="#FFE0D6" p-id="7333"></path><path d="M175.229947 584.099822h29.204991v29.204991H175.229947z" fill="#A3595B" p-id="7334"></path><path d="M204.434938 584.099822h29.204991v29.204991H204.434938z" fill="#9C3D40" p-id="7335"></path><path d="M233.639929 584.099822h29.204991v29.204991H233.639929z m29.204991 0h29.204991v29.204991H262.84492z" fill="#FFF5F5" p-id="7336"></path><path d="M292.049911 584.099822h29.204991v29.204991h-29.204991z" fill="#FFFFFF" p-id="7337"></path><path d="M321.254902 584.099822h29.204991v29.204991h-29.204991z m29.204991 0h29.204991v29.204991h-29.204991z" fill="#B2DAFF" p-id="7338"></path><path d="M379.664884 584.099822h29.204991v29.204991h-29.204991z m29.204991 0h29.204991v29.204991h-29.204991z m29.204991 0h29.204991v29.204991h-29.204991z m29.204991 0h29.204991v29.204991h-29.204991z m29.204991 0h29.204992v29.204991h-29.204992z m29.204992 0h29.204991v29.204991h-29.204991z m29.204991 0h29.204991v29.204991h-29.204991z m29.204991 0h29.204991v29.204991h-29.204991z m29.204991 0h29.204991v29.204991h-29.204991z m29.204991 0h29.204991v29.204991h-29.204991z m29.204991 0h29.204991v29.204991h-29.204991z m29.204991 0h29.204991v29.204991h-29.204991z" fill="#FFF5F5" p-id="7339"></path><path d="M730.124777 584.099822h29.204991v29.204991h-29.204991z" fill="#A3595B" p-id="7340"></path><path d="M759.329768 584.099822h29.204991v29.204991h-29.204991z m29.204991 0h29.204991v29.204991h-29.204991z m29.204991 0h29.204992v29.204991h-29.204992z m29.204992 0h29.204991v29.204991h-29.204991z m29.204991 0h29.204991v29.204991h-29.204991z m29.204991 0h29.204991v29.204991h-29.204991z m29.204991 0h29.204991v29.204991h-29.204991z" fill="#9C3D40" p-id="7341"></path><path d="M29.204991 613.304813h29.204991v29.204991H29.204991z m29.204991 0h29.204991v29.204991H58.409982z m29.204991 0h29.204991v29.204991H87.614973z m29.204991 0h29.204991v29.204991H116.819964z m29.204991 0h29.204992v29.204991H146.024955z" fill="#FFE0D6" p-id="7342"></path><path d="M175.229947 613.304813h29.204991v29.204991H175.229947z" fill="#A3595B" p-id="7343"></path><path d="M204.434938 613.304813h29.204991v29.204991H204.434938z" fill="#FFECCB" p-id="7344"></path><path d="M233.639929 613.304813h29.204991v29.204991H233.639929z" fill="#9C3D40" p-id="7345"></path><path d="M262.84492 613.304813h29.204991v29.204991H262.84492z" fill="#FFA8A8" p-id="7346"></path><path d="M292.049911 613.304813h29.204991v29.204991h-29.204991z" fill="#FFF5F5" p-id="7347"></path><path d="M321.254902 613.304813h29.204991v29.204991h-29.204991z" fill="#FFA8A8" p-id="7348"></path><path d="M350.459893 613.304813h29.204991v29.204991h-29.204991z m29.204991 0h29.204991v29.204991h-29.204991z m29.204991 0h29.204991v29.204991h-29.204991z m29.204991 0h29.204991v29.204991h-29.204991z m29.204991 0h29.204991v29.204991h-29.204991z m29.204991 0h29.204992v29.204991h-29.204992z m29.204992 0h29.204991v29.204991h-29.204991z" fill="#FFF5F5" p-id="7349"></path><path d="M554.894831 613.304813h29.204991v29.204991h-29.204991z" fill="#FFA8A8" p-id="7350"></path><path d="M584.099822 613.304813h29.204991v29.204991h-29.204991z m29.204991 0h29.204991v29.204991h-29.204991z m29.204991 0h29.204991v29.204991h-29.204991z m29.204991 0h29.204991v29.204991h-29.204991z m29.204991 0h29.204991v29.204991h-29.204991z" fill="#FFF5F5" p-id="7351"></path><path d="M730.124777 613.304813h29.204991v29.204991h-29.204991z" fill="#A3595B" p-id="7352"></path><path d="M759.329768 613.304813h29.204991v29.204991h-29.204991z m29.204991 0h29.204991v29.204991h-29.204991z m29.204991 0h29.204992v29.204991h-29.204992z m29.204992 0h29.204991v29.204991h-29.204991z m29.204991 0h29.204991v29.204991h-29.204991z" fill="#FFE0D6" p-id="7353"></path><path d="M905.354724 613.304813h29.204991v29.204991h-29.204991z m29.204991 0h29.204991v29.204991h-29.204991z" fill="#DEAEA0" p-id="7354"></path><path d="M29.204991 642.509804h29.204991v29.204991H29.204991z m29.204991 0h29.204991v29.204991H58.409982z m29.204991 0h29.204991v29.204991H87.614973z m29.204991 0h29.204991v29.204991H116.819964z m29.204991 0h29.204992v29.204991H146.024955z m29.204992 0h29.204991v29.204991H175.229947z" fill="#FFE0D6" p-id="7355"></path><path d="M204.434938 642.509804h29.204991v29.204991H204.434938z" fill="#A3595B" p-id="7356"></path><path d="M233.639929 642.509804h29.204991v29.204991H233.639929z" fill="#9C3D40" p-id="7357"></path><path d="M262.84492 642.509804h29.204991v29.204991H262.84492z m29.204991 0h29.204991v29.204991h-29.204991z m29.204991 0h29.204991v29.204991h-29.204991z m29.204991 0h29.204991v29.204991h-29.204991z m29.204991 0h29.204991v29.204991h-29.204991z m29.204991 0h29.204991v29.204991h-29.204991z" fill="#FFF5F5" p-id="7358"></path><path d="M438.074866 642.509804h29.204991v29.204991h-29.204991z m29.204991 0h29.204991v29.204991h-29.204991z m29.204991 0h29.204992v29.204991h-29.204992z m29.204992 0h29.204991v29.204991h-29.204991z" fill="#FFA8A8" p-id="7359"></path><path d="M554.894831 642.509804h29.204991v29.204991h-29.204991z m29.204991 0h29.204991v29.204991h-29.204991z m29.204991 0h29.204991v29.204991h-29.204991z m29.204991 0h29.204991v29.204991h-29.204991z m29.204991 0h29.204991v29.204991h-29.204991z" fill="#FFF5F5" p-id="7360"></path><path d="M700.919786 642.509804h29.204991v29.204991h-29.204991z" fill="#A3595B" p-id="7361"></path><path d="M730.124777 642.509804h29.204991v29.204991h-29.204991z m29.204991 0h29.204991v29.204991h-29.204991z m29.204991 0h29.204991v29.204991h-29.204991z m29.204991 0h29.204992v29.204991h-29.204992z m29.204992 0h29.204991v29.204991h-29.204991z" fill="#FFE0D6" p-id="7362"></path><path d="M876.149733 642.509804h29.204991v29.204991h-29.204991z m29.204991 0h29.204991v29.204991h-29.204991z" fill="#DEAEA0" p-id="7363"></path><path d="M934.559715 642.509804h29.204991v29.204991h-29.204991z" fill="#A3595B" p-id="7364"></path><path d="M29.204991 671.714795h29.204991v29.204991H29.204991z m29.204991 0h29.204991v29.204991H58.409982z m29.204991 0h29.204991v29.204991H87.614973z" fill="#FFE0D6" p-id="7365"></path><path d="M116.819964 671.714795h29.204991v29.204991H116.819964z" fill="#E0968E" p-id="7366"></path><path d="M146.024955 671.714795h29.204992v29.204991H146.024955z m29.204992 0h29.204991v29.204991H175.229947z" fill="#FFE0D6" p-id="7367"></path><path d="M204.434938 671.714795h29.204991v29.204991H204.434938z" fill="#A3595B" p-id="7368"></path><path d="M233.639929 671.714795h29.204991v29.204991H233.639929z" fill="#FFECCB" p-id="7369"></path><path d="M262.84492 671.714795h29.204991v29.204991H262.84492z" fill="#9C3D40" p-id="7370"></path><path d="M292.049911 671.714795h29.204991v29.204991h-29.204991z m29.204991 0h29.204991v29.204991h-29.204991z m29.204991 0h29.204991v29.204991h-29.204991z m29.204991 0h29.204991v29.204991h-29.204991z m29.204991 0h29.204991v29.204991h-29.204991z m29.204991 0h29.204991v29.204991h-29.204991z m29.204991 0h29.204991v29.204991h-29.204991z m29.204991 0h29.204992v29.204991h-29.204992z m29.204992 0h29.204991v29.204991h-29.204991z m29.204991 0h29.204991v29.204991h-29.204991z m29.204991 0h29.204991v29.204991h-29.204991z m29.204991 0h29.204991v29.204991h-29.204991z m29.204991 0h29.204991v29.204991h-29.204991z m29.204991 0h29.204991v29.204991h-29.204991z" fill="#FFF5F5" p-id="7371"></path><path d="M700.919786 671.714795h29.204991v29.204991h-29.204991z" fill="#A3595B" p-id="7372"></path><path d="M730.124777 671.714795h29.204991v29.204991h-29.204991z m29.204991 0h29.204991v29.204991h-29.204991z m29.204991 0h29.204991v29.204991h-29.204991z m29.204991 0h29.204992v29.204991h-29.204992z" fill="#FFE0D6" p-id="7373"></path><path d="M846.944742 671.714795h29.204991v29.204991h-29.204991z" fill="#A3595B" p-id="7374"></path><path d="M876.149733 671.714795h29.204991v29.204991h-29.204991z m29.204991 0h29.204991v29.204991h-29.204991z" fill="#DEAEA0" p-id="7375"></path><path d="M934.559715 671.714795h29.204991v29.204991h-29.204991zM29.204991 700.919786h29.204991v29.204991H29.204991z" fill="#A3595B" p-id="7376"></path><path d="M58.409982 700.919786h29.204991v29.204991H58.409982z m29.204991 0h29.204991v29.204991H87.614973z" fill="#FFE0D6" p-id="7377"></path><path d="M116.819964 700.919786h29.204991v29.204991H116.819964z" fill="#E0968E" p-id="7378"></path><path d="M146.024955 700.919786h29.204992v29.204991H146.024955z m29.204992 0h29.204991v29.204991H175.229947z m29.204991 0h29.204991v29.204991H204.434938z" fill="#FFE0D6" p-id="7379"></path><path d="M233.639929 700.919786h29.204991v29.204991H233.639929z" fill="#A3595B" p-id="7380"></path><path d="M262.84492 700.919786h29.204991v29.204991H262.84492z" fill="#FFECCB" p-id="7381"></path><path d="M292.049911 700.919786h29.204991v29.204991h-29.204991z" fill="#9C3D40" p-id="7382"></path><path d="M321.254902 700.919786h29.204991v29.204991h-29.204991z m29.204991 0h29.204991v29.204991h-29.204991z m29.204991 0h29.204991v29.204991h-29.204991z m29.204991 0h29.204991v29.204991h-29.204991z m29.204991 0h29.204991v29.204991h-29.204991z m29.204991 0h29.204991v29.204991h-29.204991z" fill="#FFF5F5" p-id="7383"></path><path d="M496.484848 700.919786h29.204992v29.204991h-29.204992z m29.204992 0h29.204991v29.204991h-29.204991z m29.204991 0h29.204991v29.204991h-29.204991z m29.204991 0h29.204991v29.204991h-29.204991z m29.204991 0h29.204991v29.204991h-29.204991z m29.204991 0h29.204991v29.204991h-29.204991z" fill="#9C3D40" p-id="7384"></path><path d="M671.714795 700.919786h29.204991v29.204991h-29.204991z" fill="#A3595B" p-id="7385"></path><path d="M700.919786 700.919786h29.204991v29.204991h-29.204991z m29.204991 0h29.204991v29.204991h-29.204991z m29.204991 0h29.204991v29.204991h-29.204991z m29.204991 0h29.204991v29.204991h-29.204991z" fill="#FFE0D6" p-id="7386"></path><path d="M817.73975 700.919786h29.204992v29.204991h-29.204992z m29.204992 0h29.204991v29.204991h-29.204991z" fill="#A3595B" p-id="7387"></path><path d="M876.149733 700.919786h29.204991v29.204991h-29.204991z" fill="#DEAEA0" p-id="7388"></path><path d="M905.354724 700.919786h29.204991v29.204991h-29.204991z" fill="#A3595B" p-id="7389"></path><path d="M934.559715 700.919786h29.204991v29.204991h-29.204991z" fill="#FFE0D6" p-id="7390"></path><path d="M29.204991 730.124777h29.204991v29.204991H29.204991z" fill="#A3595B" p-id="7391"></path><path d="M58.409982 730.124777h29.204991v29.204991H58.409982z m29.204991 0h29.204991v29.204991H87.614973z" fill="#FFE0D6" p-id="7392"></path><path d="M116.819964 730.124777h29.204991v29.204991H116.819964z m29.204991 0h29.204992v29.204991H146.024955z" fill="#E0968E" p-id="7393"></path><path d="M175.229947 730.124777h29.204991v29.204991H175.229947z" fill="#FFE0D6" p-id="7394"></path><path d="M204.434938 730.124777h29.204991v29.204991H204.434938z m29.204991 0h29.204991v29.204991H233.639929z" fill="#9C3D40" p-id="7395"></path><path d="M262.84492 730.124777h29.204991v29.204991H262.84492z" fill="#A3595B" p-id="7396"></path><path d="M292.049911 730.124777h29.204991v29.204991h-29.204991z" fill="#FFECCB" p-id="7397"></path><path d="M321.254902 730.124777h29.204991v29.204991h-29.204991z" fill="#9C3D40" p-id="7398"></path><path d="M350.459893 730.124777h29.204991v29.204991h-29.204991z" fill="#FFA8A8" p-id="7399"></path><path d="M379.664884 730.124777h29.204991v29.204991h-29.204991z m29.204991 0h29.204991v29.204991h-29.204991z m29.204991 0h29.204991v29.204991h-29.204991z m29.204991 0h29.204991v29.204991h-29.204991z" fill="#9C3D40" p-id="7400"></path><path d="M496.484848 730.124777h29.204992v29.204991h-29.204992z m29.204992 0h29.204991v29.204991h-29.204991z m29.204991 0h29.204991v29.204991h-29.204991z m29.204991 0h29.204991v29.204991h-29.204991z m29.204991 0h29.204991v29.204991h-29.204991z" fill="#FF9FAF" p-id="7401"></path><path d="M642.509804 730.124777h29.204991v29.204991h-29.204991z" fill="#A3595B" p-id="7402"></path><path d="M671.714795 730.124777h29.204991v29.204991h-29.204991z m29.204991 0h29.204991v29.204991h-29.204991z m29.204991 0h29.204991v29.204991h-29.204991z" fill="#FFE0D6" p-id="7403"></path><path d="M759.329768 730.124777h29.204991v29.204991h-29.204991z m29.204991 0h29.204991v29.204991h-29.204991z" fill="#A3595B" p-id="7404"></path><path d="M817.73975 730.124777h29.204992v29.204991h-29.204992z" fill="#9C3D40" p-id="7405"></path><path d="M846.944742 730.124777h29.204991v29.204991h-29.204991z m29.204991 0h29.204991v29.204991h-29.204991z" fill="#A3595B" p-id="7406"></path><path d="M905.354724 730.124777h29.204991v29.204991h-29.204991z m29.204991 0h29.204991v29.204991h-29.204991z" fill="#FFE0D6" p-id="7407"></path><path d="M29.204991 759.329768h29.204991v29.204991H29.204991z" fill="#DEAEA0" p-id="7408"></path><path d="M58.409982 759.329768h29.204991v29.204991H58.409982z" fill="#A3595B" p-id="7409"></path><path d="M87.614973 759.329768h29.204991v29.204991H87.614973z" fill="#FFE0D6" p-id="7410"></path><path d="M116.819964 759.329768h29.204991v29.204991H116.819964z" fill="#E0968E" p-id="7411"></path><path d="M146.024955 759.329768h29.204992v29.204991H146.024955z m29.204992 0h29.204991v29.204991H175.229947z" fill="#A3595B" p-id="7412"></path><path d="M204.434938 759.329768h29.204991v29.204991H204.434938z" fill="#9C3D40" p-id="7413"></path><path d="M233.639929 759.329768h29.204991v29.204991H233.639929z" fill="#FFECCB" p-id="7414"></path><path d="M262.84492 759.329768h29.204991v29.204991H262.84492z" fill="#9C3D40" p-id="7415"></path><path d="M292.049911 759.329768h29.204991v29.204991h-29.204991z" fill="#FFECCB" p-id="7416"></path><path d="M321.254902 759.329768h29.204991v29.204991h-29.204991z m29.204991 0h29.204991v29.204991h-29.204991z" fill="#9C3D40" p-id="7417"></path><path d="M379.664884 759.329768h29.204991v29.204991h-29.204991z m29.204991 0h29.204991v29.204991h-29.204991z m29.204991 0h29.204991v29.204991h-29.204991z m29.204991 0h29.204991v29.204991h-29.204991z m29.204991 0h29.204992v29.204991h-29.204992z m29.204992 0h29.204991v29.204991h-29.204991z m29.204991 0h29.204991v29.204991h-29.204991z m29.204991 0h29.204991v29.204991h-29.204991z m29.204991 0h29.204991v29.204991h-29.204991z" fill="#FF9FAF" p-id="7418"></path><path d="M642.509804 759.329768h29.204991v29.204991h-29.204991z m29.204991 0h29.204991v29.204991h-29.204991z m29.204991 0h29.204991v29.204991h-29.204991z m29.204991 0h29.204991v29.204991h-29.204991z" fill="#A3595B" p-id="7419"></path><path d="M759.329768 759.329768h29.204991v29.204991h-29.204991z m29.204991 0h29.204991v29.204991h-29.204991z m29.204991 0h29.204992v29.204991h-29.204992z" fill="#FF758C" p-id="7420"></path><path d="M846.944742 759.329768h29.204991v29.204991h-29.204991z" fill="#A3595B" p-id="7421"></path><path d="M876.149733 759.329768h29.204991v29.204991h-29.204991z m29.204991 0h29.204991v29.204991h-29.204991z m29.204991 0h29.204991v29.204991h-29.204991z" fill="#FFE0D6" p-id="7422"></path><path d="M29.204991 788.534759h29.204991v29.204991H29.204991z" fill="#DEAEA0" p-id="7423"></path><path d="M58.409982 788.534759h29.204991v29.204991H58.409982z" fill="#A3595B" p-id="7424"></path><path d="M87.614973 788.534759h29.204991v29.204991H87.614973z" fill="#FFE0D6" p-id="7425"></path><path d="M116.819964 788.534759h29.204991v29.204991H116.819964z" fill="#A3595B" p-id="7426"></path><path d="M146.024955 788.534759h29.204992v29.204991H146.024955z" fill="#DEAEA0" p-id="7427"></path><path d="M175.229947 788.534759h29.204991v29.204991H175.229947z" fill="#A3595B" p-id="7428"></path><path d="M204.434938 788.534759h29.204991v29.204991H204.434938z" fill="#9C3D40" p-id="7429"></path><path d="M233.639929 788.534759h29.204991v29.204991H233.639929z" fill="#FFECCB" p-id="7430"></path><path d="M262.84492 788.534759h29.204991v29.204991H262.84492z m29.204991 0h29.204991v29.204991h-29.204991z m29.204991 0h29.204991v29.204991h-29.204991z m29.204991 0h29.204991v29.204991h-29.204991z m29.204991 0h29.204991v29.204991h-29.204991z" fill="#9C3D40" p-id="7431"></path><path d="M408.869875 788.534759h29.204991v29.204991h-29.204991z m29.204991 0h29.204991v29.204991h-29.204991z m29.204991 0h29.204991v29.204991h-29.204991z m29.204991 0h29.204992v29.204991h-29.204992z m29.204992 0h29.204991v29.204991h-29.204991z m29.204991 0h29.204991v29.204991h-29.204991z m29.204991 0h29.204991v29.204991h-29.204991z m29.204991 0h29.204991v29.204991h-29.204991z m29.204991 0h29.204991v29.204991h-29.204991z m29.204991 0h29.204991v29.204991h-29.204991z m29.204991 0h29.204991v29.204991h-29.204991z" fill="#FF9FAF" p-id="7432"></path><path d="M730.124777 788.534759h29.204991v29.204991h-29.204991z m29.204991 0h29.204991v29.204991h-29.204991z m29.204991 0h29.204991v29.204991h-29.204991z m29.204991 0h29.204992v29.204991h-29.204992z" fill="#FF758C" p-id="7433"></path><path d="M846.944742 788.534759h29.204991v29.204991h-29.204991z" fill="#A3595B" p-id="7434"></path><path d="M876.149733 788.534759h29.204991v29.204991h-29.204991z m29.204991 0h29.204991v29.204991h-29.204991z m29.204991 0h29.204991v29.204991h-29.204991z" fill="#FFE0D6" p-id="7435"></path><path d="M29.204991 817.73975h29.204991v29.204992H29.204991z m29.204991 0h29.204991v29.204992H58.409982z" fill="#DEAEA0" p-id="7436"></path><path d="M87.614973 817.73975h29.204991v29.204992H87.614973z m29.204991 0h29.204991v29.204992H116.819964z" fill="#A3595B" p-id="7437"></path><path d="M146.024955 817.73975h29.204992v29.204992H146.024955z" fill="#DEAEA0" p-id="7438"></path><path d="M175.229947 817.73975h29.204991v29.204992H175.229947z" fill="#9C3D40" p-id="7439"></path><path d="M204.434938 817.73975h29.204991v29.204992H204.434938z" fill="#FFB870" p-id="7440"></path><path d="M233.639929 817.73975h29.204991v29.204992H233.639929z m29.204991 0h29.204991v29.204992H262.84492z" fill="#FFECCB" p-id="7441"></path><path d="M292.049911 817.73975h29.204991v29.204992h-29.204991z" fill="#9C3D40" p-id="7442"></path><path d="M321.254902 817.73975h29.204991v29.204992h-29.204991z m29.204991 0h29.204991v29.204992h-29.204991z" fill="#FFECCB" p-id="7443"></path><path d="M379.664884 817.73975h29.204991v29.204992h-29.204991z" fill="#9C3D40" p-id="7444"></path><path d="M408.869875 817.73975h29.204991v29.204992h-29.204991z m29.204991 0h29.204991v29.204992h-29.204991z m29.204991 0h29.204991v29.204992h-29.204991z m29.204991 0h29.204992v29.204992h-29.204992z m29.204992 0h29.204991v29.204992h-29.204991z m29.204991 0h29.204991v29.204992h-29.204991z m29.204991 0h29.204991v29.204992h-29.204991z" fill="#FF9FAF" p-id="7445"></path><path d="M613.304813 817.73975h29.204991v29.204992h-29.204991z m29.204991 0h29.204991v29.204992h-29.204991z m29.204991 0h29.204991v29.204992h-29.204991z m29.204991 0h29.204991v29.204992h-29.204991z m29.204991 0h29.204991v29.204992h-29.204991z m29.204991 0h29.204991v29.204992h-29.204991z m29.204991 0h29.204991v29.204992h-29.204991z m29.204991 0h29.204992v29.204992h-29.204992z" fill="#FF758C" p-id="7446"></path><path d="M846.944742 817.73975h29.204991v29.204992h-29.204991z" fill="#A3595B" p-id="7447"></path><path d="M876.149733 817.73975h29.204991v29.204992h-29.204991z m29.204991 0h29.204991v29.204992h-29.204991z m29.204991 0h29.204991v29.204992h-29.204991z" fill="#FFE0D6" p-id="7448"></path><path d="M29.204991 846.944742h29.204991v29.204991H29.204991z m29.204991 0h29.204991v29.204991H58.409982z m29.204991 0h29.204991v29.204991H87.614973z m29.204991 0h29.204991v29.204991H116.819964z" fill="#DEAEA0" p-id="7449"></path><path d="M146.024955 846.944742h29.204992v29.204991H146.024955z" fill="#9C3D40" p-id="7450"></path><path d="M175.229947 846.944742h29.204991v29.204991H175.229947z m29.204991 0h29.204991v29.204991H204.434938z" fill="#FFECCB" p-id="7451"></path><path d="M233.639929 846.944742h29.204991v29.204991H233.639929z m29.204991 0h29.204991v29.204991H262.84492z m29.204991 0h29.204991v29.204991h-29.204991z" fill="#FFB870" p-id="7452"></path><path d="M321.254902 846.944742h29.204991v29.204991h-29.204991z" fill="#FFECCB" p-id="7453"></path><path d="M350.459893 846.944742h29.204991v29.204991h-29.204991z" fill="#9C3D40" p-id="7454"></path><path d="M379.664884 846.944742h29.204991v29.204991h-29.204991z m29.204991 0h29.204991v29.204991h-29.204991z m29.204991 0h29.204991v29.204991h-29.204991z m29.204991 0h29.204991v29.204991h-29.204991z m29.204991 0h29.204992v29.204991h-29.204992z m29.204992 0h29.204991v29.204991h-29.204991z m29.204991 0h29.204991v29.204991h-29.204991z m29.204991 0h29.204991v29.204991h-29.204991z m29.204991 0h29.204991v29.204991h-29.204991z m29.204991 0h29.204991v29.204991h-29.204991z m29.204991 0h29.204991v29.204991h-29.204991z m29.204991 0h29.204991v29.204991h-29.204991z m29.204991 0h29.204991v29.204991h-29.204991z m29.204991 0h29.204991v29.204991h-29.204991z m29.204991 0h29.204991v29.204991h-29.204991z m29.204991 0h29.204992v29.204991h-29.204992z" fill="#FF758C" p-id="7455"></path><path d="M846.944742 846.944742h29.204991v29.204991h-29.204991z" fill="#A3595B" p-id="7456"></path><path d="M876.149733 846.944742h29.204991v29.204991h-29.204991z m29.204991 0h29.204991v29.204991h-29.204991z m29.204991 0h29.204991v29.204991h-29.204991z" fill="#FFE0D6" p-id="7457"></path><path d="M29.204991 876.149733h29.204991v29.204991H29.204991z m29.204991 0h29.204991v29.204991H58.409982z m29.204991 0h29.204991v29.204991H87.614973z m29.204991 0h29.204991v29.204991H116.819964z" fill="#DEAEA0" p-id="7458"></path><path d="M146.024955 876.149733h29.204992v29.204991H146.024955z m29.204992 0h29.204991v29.204991H175.229947z m29.204991 0h29.204991v29.204991H204.434938z" fill="#9C3D40" p-id="7459"></path><path d="M233.639929 876.149733h29.204991v29.204991H233.639929z" fill="#FFB870" p-id="7460"></path><path d="M262.84492 876.149733h29.204991v29.204991H262.84492z m29.204991 0h29.204991v29.204991h-29.204991z" fill="#FFECCB" p-id="7461"></path><path d="M321.254902 876.149733h29.204991v29.204991h-29.204991z" fill="#9C3D40" p-id="7462"></path><path d="M350.459893 876.149733h29.204991v29.204991h-29.204991z m29.204991 0h29.204991v29.204991h-29.204991z m29.204991 0h29.204991v29.204991h-29.204991z m29.204991 0h29.204991v29.204991h-29.204991z" fill="#FF758C" p-id="7463"></path><path d="M467.279857 876.149733h29.204991v29.204991h-29.204991z m29.204991 0h29.204992v29.204991h-29.204992z m29.204992 0h29.204991v29.204991h-29.204991z m29.204991 0h29.204991v29.204991h-29.204991z m29.204991 0h29.204991v29.204991h-29.204991z m29.204991 0h29.204991v29.204991h-29.204991z m29.204991 0h29.204991v29.204991h-29.204991z m29.204991 0h29.204991v29.204991h-29.204991z m29.204991 0h29.204991v29.204991h-29.204991z m29.204991 0h29.204991v29.204991h-29.204991z m29.204991 0h29.204991v29.204991h-29.204991z" fill="#FF9FAF" p-id="7464"></path><path d="M788.534759 876.149733h29.204991v29.204991h-29.204991z" fill="#FF758C" p-id="7465"></path><path d="M817.73975 876.149733h29.204992v29.204991h-29.204992z" fill="#A3595B" p-id="7466"></path><path d="M846.944742 876.149733h29.204991v29.204991h-29.204991z m29.204991 0h29.204991v29.204991h-29.204991z m29.204991 0h29.204991v29.204991h-29.204991z m29.204991 0h29.204991v29.204991h-29.204991z" fill="#FFE0D6" p-id="7467"></path><path d="M29.204991 905.354724h29.204991v29.204991H29.204991z m29.204991 0h29.204991v29.204991H58.409982z m29.204991 0h29.204991v29.204991H87.614973z m29.204991 0h29.204991v29.204991H116.819964z" fill="#DEAEA0" p-id="7468"></path><path d="M146.024955 905.354724h29.204992v29.204991H146.024955z" fill="#9C3D40" p-id="7469"></path><path d="M175.229947 905.354724h29.204991v29.204991H175.229947z m29.204991 0h29.204991v29.204991H204.434938z" fill="#FFF5F5" p-id="7470"></path><path d="M233.639929 905.354724h29.204991v29.204991H233.639929z" fill="#9C3D40" p-id="7471"></path><path d="M262.84492 905.354724h29.204991v29.204991H262.84492z m29.204991 0h29.204991v29.204991h-29.204991z" fill="#FFECCB" p-id="7472"></path><path d="M321.254902 905.354724h29.204991v29.204991h-29.204991z" fill="#9C3D40" p-id="7473"></path><path d="M350.459893 905.354724h29.204991v29.204991h-29.204991z" fill="#FF758C" p-id="7474"></path><path d="M379.664884 905.354724h29.204991v29.204991h-29.204991z m29.204991 0h29.204991v29.204991h-29.204991z m29.204991 0h29.204991v29.204991h-29.204991z m29.204991 0h29.204991v29.204991h-29.204991z m29.204991 0h29.204992v29.204991h-29.204992z m29.204992 0h29.204991v29.204991h-29.204991z m29.204991 0h29.204991v29.204991h-29.204991z m29.204991 0h29.204991v29.204991h-29.204991z m29.204991 0h29.204991v29.204991h-29.204991z m29.204991 0h29.204991v29.204991h-29.204991z m29.204991 0h29.204991v29.204991h-29.204991z m29.204991 0h29.204991v29.204991h-29.204991z m29.204991 0h29.204991v29.204991h-29.204991z m29.204991 0h29.204991v29.204991h-29.204991z m29.204991 0h29.204991v29.204991h-29.204991z" fill="#FF9FAF" p-id="7475"></path><path d="M817.73975 905.354724h29.204992v29.204991h-29.204992z" fill="#A3595B" p-id="7476"></path><path d="M846.944742 905.354724h29.204991v29.204991h-29.204991z m29.204991 0h29.204991v29.204991h-29.204991z m29.204991 0h29.204991v29.204991h-29.204991z m29.204991 0h29.204991v29.204991h-29.204991z" fill="#FFE0D6" p-id="7477"></path><path d="M29.204991 934.559715h29.204991v29.204991H29.204991z m29.204991 0h29.204991v29.204991H58.409982z m29.204991 0h29.204991v29.204991H87.614973z" fill="#DEAEA0" p-id="7478"></path><path d="M116.819964 934.559715h29.204991v29.204991H116.819964z" fill="#9C3D40" p-id="7479"></path><path d="M146.024955 934.559715h29.204992v29.204991H146.024955z m29.204992 0h29.204991v29.204991H175.229947z" fill="#FFF5F5" p-id="7480"></path><path d="M204.434938 934.559715h29.204991v29.204991H204.434938z m29.204991 0h29.204991v29.204991H233.639929z" fill="#FFA8A8" p-id="7481"></path><path d="M262.84492 934.559715h29.204991v29.204991H262.84492z" fill="#9C3D40" p-id="7482"></path><path d="M292.049911 934.559715h29.204991v29.204991h-29.204991z" fill="#FFECCB" p-id="7483"></path><path d="M321.254902 934.559715h29.204991v29.204991h-29.204991z" fill="#9C3D40" p-id="7484"></path><path d="M350.459893 934.559715h29.204991v29.204991h-29.204991z m29.204991 0h29.204991v29.204991h-29.204991z m29.204991 0h29.204991v29.204991h-29.204991z m29.204991 0h29.204991v29.204991h-29.204991z m29.204991 0h29.204991v29.204991h-29.204991z m29.204991 0h29.204992v29.204991h-29.204992z m29.204992 0h29.204991v29.204991h-29.204991z m29.204991 0h29.204991v29.204991h-29.204991z m29.204991 0h29.204991v29.204991h-29.204991z m29.204991 0h29.204991v29.204991h-29.204991z m29.204991 0h29.204991v29.204991h-29.204991z m29.204991 0h29.204991v29.204991h-29.204991z m29.204991 0h29.204991v29.204991h-29.204991z m29.204991 0h29.204991v29.204991h-29.204991z m29.204991 0h29.204991v29.204991h-29.204991z" fill="#FF9FAF" p-id="7485"></path><path d="M788.534759 934.559715h29.204991v29.204991h-29.204991z" fill="#A3595B" p-id="7486"></path><path d="M817.73975 934.559715h29.204992v29.204991h-29.204992z m29.204992 0h29.204991v29.204991h-29.204991z m29.204991 0h29.204991v29.204991h-29.204991z m29.204991 0h29.204991v29.204991h-29.204991z m29.204991 0h29.204991v29.204991h-29.204991z" fill="#FFE0D6" p-id="7487"></path></svg>