<?xml version="1.0" standalone="no"?><!DOCTYPE svg PUBLIC "-//W3C//DTD SVG 1.1//EN" "http://www.w3.org/Graphics/SVG/1.1/DTD/svg11.dtd"><svg t="1744556891421" class="icon" viewBox="0 0 1117 1024" version="1.1" xmlns="http://www.w3.org/2000/svg" p-id="13694" xmlns:xlink="http://www.w3.org/1999/xlink" width="218.1640625" height="200"><path d="M1030.548642 620.667527v61.553805a191.422073 191.422073 0 0 1-51.294837 30.776902 346.076006 346.076006 0 0 1-35.906386 102.589674c-40.051009 34.736864-86.216362 58.671035-138.49606 71.812772-22.826202 2.000499-39.917642-6.55548-51.294837-25.647419 14.639546-17.440245 23.185266-36.255191 25.647419-56.424321A797.101249 797.101249 0 0 1 568.895109 841.235326c89.253016-6.175898 102.938479 21.184768 41.03587 82.07174-54.44434 19.943433-109.155413 19.943433-164.143479 0-40.328001-48.966051-89.90959-57.511771-148.755027-25.647419a117.742169 117.742169 0 0 1-25.647418-10.258967c-13.028889-22.518433-13.028889-44.749616 0-66.683288A379.930599 379.930599 0 0 1 163.665897 743.775136c-29.515049 13.644427-58.578704 11.941438-87.201223-5.129484-13.675204-17.101699-13.675204-34.193138 0-51.294837a309.236054 309.236054 0 0 1-30.776902-35.906385v-61.553805h41.035869c16.958073-104.897942 10.115342-207.487616-20.517934-307.769022 13.069924-31.905389 35.290848-55.829301 66.683288-71.812771 10.207673-42.677304 35.855091-70.027711 76.942255-82.07174 19.748512 0.923307 31.720727 11.182274 35.906386 30.776903 97.019055-81.630604 209.867696-122.666473 338.545924-123.107609 102.938479-1.518327 188.436713 36.091047 256.474185 112.848641 82.471839 102.025431 132.053428 218.300567 148.755027 348.804892a238.520992 238.520992 0 0 1-10.258967 66.683288c20.487158 16.763153 37.588857 35.578099 51.294837 56.42432z" fill="#52420F" opacity=".937" p-id="13695"></path><path d="M261.126087 733.516169c4.647312 9.828091 11.490043 18.38407 20.517935 25.647418a1213.584548 1213.584548 0 0 1 82.071739 35.906386c-3.724005 7.006875-7.140241 13.849606-10.258967 20.517935-8.084066 32.007978-28.602001 49.119936-61.553805 51.294837 6.545221-60.291951-20.805186-96.198337-82.071739-107.719158a261.829366 261.829366 0 0 1-41.035869-46.165353c-27.360666 27.360666-54.711073 27.360666-82.07174 0 3.641933-10.484665 10.484665-17.327396 20.517935-20.517935 41.200013 6.15538 77.106399-4.103587 107.719158-30.776902 5.293627 31.259074 20.682078 55.193245 46.165353 71.812772zM579.154076 805.32894c-20.794927 17.235065-44.729098 29.20728-71.812771 35.906386 31.207779 29.494531 68.837671 43.169735 112.848641 41.03587-95.490469 60.876713-170.719476 42.072025-225.697283-56.424321a189.708825 189.708825 0 0 0-20.517935-35.906386 9649.482142 9649.482142 0 0 1 82.07174-35.906385c33.454493 30.079292 71.074126 36.922024 112.848641 20.517934 9.089445 8.463648 12.505681 18.722615 10.258967 30.776902z" fill="#F0E9CE" p-id="13696"></path><path d="M907.441033 661.703397c13.11096 2.893029 23.369928 9.73576 30.776902 20.517935 3.457272 39.066148-1.672212 76.675522-15.388451 112.848641-11.079685 19.430484-24.754888 22.84672-41.03587 10.258967-18.999608 46.237166-51.489757 63.338865-97.46019 51.294837 14.896021-14.772913 25.154988-31.864353 30.776902-51.294837 38.060769-41.82581 68.837671-89.704411 92.330707-143.625543z" fill="#E4DBBC" p-id="13697"></path><path d="M384.233696 712.998234c31.905389 22.077298 66.108786 25.493534 102.589674 10.258967-12.146617 12.187653-12.146617 24.159868 0 35.906386 31.412958 7.612154 62.18986 5.898906 92.330706-5.129483 9.766537 15.850105 13.182773 32.951803 10.258968 51.294836h-10.258968c2.246714-12.054287-1.169522-22.313254-10.258967-30.776902-41.774515 16.404089-79.394149 9.561358-112.848641-20.517934a9649.482142 9649.482142 0 0 0-82.07174 35.906385 189.708825 189.708825 0 0 1 20.517935 35.906386c-7.84811 11.900402-18.107077 22.15937-30.776902 30.776902 0.246215-13.203291-3.18028-26.878495-10.258967-41.035869 3.118726-6.668329 6.534962-13.51106 10.258967-20.517935a1213.584548 1213.584548 0 0 0-82.071739-35.906386c-9.027891-7.263349-15.870623-15.819328-20.517935-25.647418 55.090655 33.546823 113.228223 38.676307 174.402446 15.388451-24.416342-2.28775-41.518041-14.259965-51.294837-35.906386z" fill="#948556" p-id="13698"></path><path d="M702.261685 579.631658c17.224806 2.205678 27.483774-4.637053 30.776902-20.517935 13.11096 2.893029 23.369928 9.73576 30.776902 20.517935 0.10259 15.562854 6.945321 27.535068 20.517935 35.906386a936.253882 936.253882 0 0 1 102.589674 25.647418c-3.046913 64.395538-33.823816 108.847644-92.330706 133.366576-65.96516 24.970327-134.351437 35.229294-205.179348 30.776902 2.923806-18.343034-0.49243-35.444732-10.258968-51.294836-30.140846 11.02839-60.917748 12.741638-92.330706 5.129483-12.146617-11.746518-12.146617-23.718733 0-35.906386 43.303101-23.831581 39.886865-39.220032-10.258968-46.165353-22.990346-17.850603-40.092045-40.071527-51.294837-66.683288a101.194454 101.194454 0 0 1 61.553805-10.258967c17.542834 48.042744 51.735973 63.431195 102.589674 46.165353 13.459765-25.442239 23.718733-51.089658 30.776902-76.942256 6.668329-3.118726 13.500801-6.534962 20.517935-10.258967 17.224806 16.465643 37.742741 23.298115 61.553804 20.517935z" fill="#FAE9D7" p-id="13699"></path><path d="M712.520652 702.739267c-6.052791 12.987853-11.182274 26.673315-15.388451 41.035869a146.621162 146.621162 0 0 0-25.647418-66.683288c16.229686 1.979981 29.915149 10.525701 41.035869 25.647419z" fill="#C09A86" p-id="13700"></path><path d="M712.520652 702.739267c9.089445-13.090442 19.348413-13.090442 30.776903 0-7.519823 6.022014-17.77879 6.022014-30.776903 0z" fill="#B38974" p-id="13701"></path><path d="M261.126087 733.516169c-25.483275-16.619527-40.871726-40.553698-46.165353-71.812772-30.612759 26.673315-66.519145 36.932283-107.719158 30.776902v-20.517935c44.246926 17.101699 81.86656 6.842731 112.848642-30.776902a565.381952 565.381952 0 0 0 41.035869 92.330707z" fill="#8B7D4E" p-id="13702"></path><path d="M958.73587 630.926495c65.103407 14.485662 65.103407 35.003597 0 61.553804-6.227193-1.272112-9.643429-4.688348-10.258967-10.258967-17.235065-22.836461-13.818829-39.93816 10.258967-51.294837z" fill="#C2D4D7" p-id="13703"></path><path d="M466.305435 538.595788c-11.018131 14.20867-24.693335 26.170626-41.03587 35.906386 9.725501 4.955081 19.984468 6.668329 30.776903 5.129484l30.776902 20.517935a101.194454 101.194454 0 0 0-61.553805 10.258967c11.202792 26.611761 28.304491 48.832685 51.294837 66.683288 50.145833 6.945321 53.562069 22.333772 10.258968 46.165353 3.118726-6.668329 6.534962-13.51106 10.258967-20.517934-54.085276-23.339151-84.862178-64.37502-92.330706-123.107609 13.664945-23.934171 34.182879-37.609374 61.553804-41.03587z" fill="#928156" p-id="13704"></path><path d="M958.73587 620.667527v-20.517934c9.089445-13.090442 19.348413-13.090442 30.776902 0-5.180779 14.557475-15.439746 21.389947-30.776902 20.517934z" fill="#C2D1D1" p-id="13705"></path><path d="M579.154076 548.854756c15.337156 5.016635 29.01236 11.849107 41.03587 20.517934-7.05817 25.852598-17.317137 51.500016-30.776902 76.942256-50.853701 17.265842-85.04684 1.877391-102.589674-46.165353l-30.776902-20.517935c45.990951-0.328287 87.02682-10.587254 123.107608-30.776902z" fill="#604E1D" p-id="13706"></path><path d="M538.118207 579.631658h61.553804c1.272112 51.777008-22.662059 70.581696-71.812772 56.42432-43.651906-29.10469-40.23567-47.909378 10.258968-56.42432z" fill="#EBB469" p-id="13707"></path><path d="M948.476903 579.631658c-1.764542 10.176896 1.661953 17.009368 10.258967 20.517935v30.776902c-24.077796 11.356677-27.494033 28.458376-10.258967 51.294837h-10.258968c-7.406974-10.782175-17.665942-17.624906-30.776902-20.517935-12.167135-12.362056-12.167135-26.047518 0-41.03587a279.043913 279.043913 0 0 1 35.906386-61.553804c4.760161 6.093827 6.473408 12.936558 5.129484 20.517935z" fill="#A79C74" p-id="13708"></path><path d="M158.536413 569.37269c-6.463149 25.616642-23.554589 39.291845-51.294837 41.03587-2.431375-13.244327 0.984861-23.503294 10.258968-30.776902 0.615538 5.570619 4.031774 8.986855 10.258967 10.258967 10.443629-7.109464 20.702596-13.952196 30.776902-20.517935z" fill="#96895B" p-id="13709"></path><path d="M845.887229 446.265082c10.217932-0.882271 18.77391 2.544224 25.647418 10.258967 11.62341 54.905993 3.07769 106.20083-25.647418 153.884511 3.97022 12.51594 12.51594 19.348413 25.647418 20.517935a144.405225 144.405225 0 0 1 35.906386-10.258968c-12.167135 14.988351-12.167135 28.673814 0 41.03587-23.493035 53.921133-54.269938 101.799733-92.330707 143.625543 2.205678-17.224806-4.637053-27.483774-20.517934-30.776902 58.506891-24.518932 89.283793-68.971038 92.330706-133.366576a936.253882 936.253882 0 0 0-102.589674-25.647418c-13.572614-8.371317-20.415345-20.343532-20.517935-35.906386-7.406974-10.782175-17.665942-17.624906-30.776902-20.517935-5.293627-12.905781 1.538845-23.164748 20.517935-30.776902 35.024115 5.457771 70.930501 8.874007 107.719158 10.258967 8.135361-33.249313 3.005877-64.026216-15.388451-92.330706z" fill="#6C5C2C" p-id="13710"></path><path d="M189.313315 384.711277c-48.771131 34.121326-52.187367 71.740959-10.258967 112.848642-6.904285 24.118832-13.747016 48.053003-20.517935 71.812771-10.074306 6.565739-20.333273 13.40847-30.776902 20.517935-6.227193-1.272112-9.643429-4.688348-10.258967-10.258967-5.037153-70.273927 1.805578-138.680721 20.517934-205.179348 22.118334-16.599009 39.220032-13.172514 51.294837 10.258967z" fill="#EEE8CC" p-id="13711"></path><path d="M189.313315 384.711277c-15.860364 24.447119-22.703095 51.807785-20.517934 82.071739 34.028995-1.682471 64.805897-11.941438 92.330706-30.776902 9.54084 36.86047 33.475011 53.962168 71.812772 51.294837-36.46037 17.460763-65.524025 7.201795-87.201223-30.776902-16.250204 13.962455-35.065151 20.805186-56.424321 20.517935 5.898906 37.496526-4.360061 68.273428-30.776902 92.330706 6.770918-23.759768 13.61365-47.693939 20.517935-71.812771-41.9284-41.107682-38.512164-78.727316 10.258967-112.848642z" fill="#847747" p-id="13712"></path><path d="M332.938859 487.300951a255.756057 255.756057 0 0 0 10.258967-82.071739c11.018131-18.301998 28.109571-30.263954 51.294837-35.906386 7.714743-6.873508 11.141239-15.429487 10.258968-25.647418 16.742635-27.791543 21.872118-24.365048 15.388451 10.258967-15.049905 25.575606-37.270829 42.677304-66.683288 51.294837 15.573113 33.444234 8.74064 60.815159-20.517935 82.071739z" fill="#8E8255" p-id="13713"></path><path d="M302.161957 374.45231c19.799807 2.769921 33.48527 13.028889 41.035869 30.776902a255.756057 255.756057 0 0 1-10.258967 82.071739c-38.337761 2.667332-62.271932-14.434367-71.812772-51.294837a50.597227 50.597227 0 0 1 5.129484-30.776902c17.737755-4.862751 29.699711-15.121718 35.906386-30.776902z" fill="#E3FBF9" p-id="13714"></path><path d="M168.795381 302.639538v10.258968c0.872012 24.919032 11.13098 45.436967 30.776902 61.553804-1.272112 6.227193-4.688348 9.643429-10.258968 10.258967-12.074805-23.431482-29.176503-26.857977-51.294837-10.258967a263.163032 263.163032 0 0 0 30.776903-71.812772z" fill="#847647" p-id="13715"></path><path d="M199.572283 241.085734v30.776902c16.404089-2.749403 30.079292 0.677092 41.035869 10.258967v10.258968c-27.576104-3.426495-51.510275 3.405977-71.812771 20.517935v-10.258968l10.258967-20.517935c5.016635-15.337156 11.849107-29.01236 20.517935-41.035869z" fill="#A7A484" p-id="13716"></path><path d="M271.385055 169.272962c21.677198 24.129091 47.324617 48.063262 76.942255 71.812772 5.06793 16.763153 6.770918 33.854592 5.129484 51.294837 16.404089-2.749403 30.079292 0.677092 41.035869 10.258967h-61.553804a189.134323 189.134323 0 0 0-5.129484-61.553804 40.451108 40.451108 0 0 0-20.517935-10.258968 503.356235 503.356235 0 0 0-66.683288 61.553805v-10.258968c8.586756-24.200904 23.975207-44.718839 46.165354-61.553804 4.955081-9.725501 6.668329-19.984468 5.129483-30.776902h-30.776902c-1.764542-10.176896 1.661953-17.009368 10.258968-20.517935z" fill="#897C4D" p-id="13717"></path><path d="M261.126087 189.790897h30.776902a50.597227 50.597227 0 0 1-5.129483 30.776902c-22.190146 16.834965-37.578598 37.3529-46.165354 61.553804-10.956577-9.581876-24.631781-13.008371-41.035869-10.258967v-30.776902c1.333666-8.986855-2.08257-15.829587-10.258968-20.517935a332.051998 332.051998 0 0 1-46.165353 30.776902c0.338546 20.292238 12.310761 30.551205 35.906386 30.776902l-10.258967 20.517935a263.163032 263.163032 0 0 1-30.776903 71.812772h-30.776902c-1.877391-24.990845 4.96534-47.222027 20.517935-66.683288a50.597227 50.597227 0 0 0-30.776902-5.129484c-3.221316-37.896626 13.870124-61.830796 51.294837-71.812772a223.009433 223.009433 0 0 1 41.035869-66.683288c29.576603-8.155879 44.965054 3.806077 46.165354 35.906386 6.873508-7.714743 15.429487-11.141239 25.647418-10.258967z" fill="#ECEBDD" p-id="13718"></path><path d="M394.492663 302.639538c7.530082 12.392833 10.946318 26.068036 10.258968 41.03587 0.882271 10.217932-2.544224 18.77391-10.258968 25.647418-23.185266 5.642432-40.276706 17.604388-51.294837 35.906386-7.5506-17.748014-21.236063-28.006981-41.035869-30.776902-6.206675 15.655184-18.168631 25.914152-35.906386 30.776902a50.597227 50.597227 0 0 0-5.129484 30.776902c-27.52481 18.835464-58.301712 29.094432-92.330706 30.776902-2.18516-30.263954 4.657571-57.62462 20.517934-82.071739 5.570619-0.615538 8.986855-4.031774 10.258968-10.258967-19.645923-16.116838-29.90489-36.634773-30.776902-61.553804 20.302496-17.111958 44.236667-23.94443 71.812771-20.517935a503.356235 503.356235 0 0 1 66.683288-61.553805 40.451108 40.451108 0 0 1 20.517935 10.258968c5.078189 20.240943 6.791436 40.758877 5.129484 61.553804h61.553804z" fill="#F6F5E9" p-id="13719"></path><path d="M291.902989 353.934375a317.443228 317.443228 0 0 1-20.517934-20.517935c-45.00609 35.188258-38.163359 48.873721 20.517934 41.03587-18.107077 9.858868-38.625012 13.285363-61.553804 10.258967 2.410857-39.230291 22.928792-59.748226 61.553804-61.553804v30.776902z" fill="#7B5F27" p-id="13720"></path><path d="M291.902989 353.934375c8.597015 3.508567 12.02351 10.341039 10.258968 20.517935h-10.258968c-58.681293 7.837851-65.524025-5.847611-20.517934-41.03587 6.996616 7.622413 13.839347 14.465144 20.517934 20.517935z" fill="#C8833E" p-id="13721"></path><path d="M199.572283 241.085734c-8.668827 12.02351-15.5013 25.698713-20.517935 41.035869-23.595625-0.225697-35.56784-10.484665-35.906386-30.776902a332.051998 332.051998 0 0 0 46.165353-30.776902c8.176397 4.688348 11.592633 11.531079 10.258968 20.517935z" fill="#956829" p-id="13722"></path><path d="M948.476903 579.631658a24.908773 24.908773 0 0 0-5.129484-20.517935 279.043913 279.043913 0 0 0-35.906386 61.553804c-12.259466 1.826096-24.231681 5.232073-35.906386 10.258968-13.131478-1.169522-21.677198-8.001995-25.647418-20.517935 28.725109-47.68368 37.270829-98.978517 25.647418-153.884511-6.873508-7.714743-15.429487-11.141239-25.647418-10.258967-35.07541-32.397819-50.463861-73.433689-46.165354-123.107609-7.232572-30.530687-19.194528-57.881094-35.906386-82.071739a565.59739 565.59739 0 0 1 20.517935 184.661413c2.872511 29.627898-10.802693 45.016349-41.035869 46.165353l30.776902 10.258968a94.105508 94.105508 0 0 0-20.517935 46.165353c-18.97909 7.612154-25.811562 17.871121-20.517935 30.776902-3.293129 15.880882-13.552096 22.723613-30.776902 20.517935a454.400443 454.400443 0 0 0-30.776902-20.517935c17.696719-25.206283 22.826202-52.55669 15.388451-82.071739-12.710861 49.191749-41.774515 69.709683-87.201223 61.553804 14.465144-30.776902 21.307875-63.267052 20.517935-97.46019a666.966247 666.966247 0 0 0-41.03587-169.272962 3029.483331 3029.483331 0 0 1-30.776902 164.143478c-17.953193 11.900402-28.21216 28.991842-30.776902 51.294837a86.524131 86.524131 0 0 0-41.03587 5.129484c11.089944 17.542834 7.673708 32.931285-10.258967 46.165353-27.370925 3.426495-47.88886 17.101699-61.553804 41.03587 7.468528 58.732588 38.24543 99.768458 92.330706 123.107609-3.724005 7.006875-7.140241 13.849606-10.258967 20.517934-36.480888 15.234567-70.684285 11.81833-102.589674-10.258967 9.776796 21.646421 26.878495 33.618636 51.294837 35.906386-61.174223 23.287856-119.311791 18.158372-174.402446-15.388451a565.381952 565.381952 0 0 1-41.035869-92.330707c-30.982082 37.619633-68.601715 47.878601-112.848642 30.776902-51.520534-26.314251-51.520534-46.832186 0-61.553804 27.740248-1.744024 44.831688-15.419228 51.294837-41.03587 26.416841-24.057279 36.675808-54.834181 30.776902-92.330706 21.35917 0.287251 40.174116-6.55548 56.424321-20.517935 21.677198 37.978697 50.740853 48.237665 87.201223 30.776902 29.258575-21.25658 36.091047-48.627505 20.517935-82.071739 29.41246-8.617533 51.633383-25.719231 66.683288-51.294837 6.483667-34.624015 1.354184-38.05051-15.388451-10.258967 0.687351-14.967833-2.728885-28.643037-10.258968-41.03587-10.956577-9.581876-24.631781-13.008371-41.035869-10.258967 1.641435-17.440245-0.061554-34.531684-5.129484-51.294837-29.617639-23.74951-55.265057-47.68368-76.942255-71.812772 61.276812-54.557189 133.089584-87.037079 215.438315-97.46019C662.590258 35.752501 794.243587 95.593058 881.793614 251.344701c44.370034 73.279804 73.433689 151.935307 87.201223 235.95625-1.826096 33.208277-8.668827 63.98518-20.517934 92.330707z" fill="#F2ECD1" p-id="13723" class="custom-cursor-on-hover"></path><path d="M384.233696 712.998234c-22.6518-14.547216-31.19752-35.065151-25.647419-61.553804a240.13165 240.13165 0 0 1 25.647419 61.553804z" fill="#897B4A" p-id="13724"></path><path d="M763.815489 579.631658v-30.776902h82.07174c-9.971716 53.910874-37.342641 64.169841-82.07174 30.776902z" fill="#E5B065" p-id="13725"></path><path d="M702.261685 579.631658c-23.811063 2.78018-44.328998-4.052292-61.553804-20.517935-7.017134 3.724005-13.849606 7.140241-20.517935 10.258967-12.02351-8.668827-25.698713-15.5013-41.03587-20.517934 24.652299-61.163964 26.365546-122.717768 5.129484-184.661413-9.212553 26.365546-21.184768 50.289458-35.906386 71.812771a3029.483331 3029.483331 0 0 0 30.776902-164.143478 666.966247 666.966247 0 0 1 41.03587 169.272962c0.78994 34.193138-6.052791 66.683288-20.517935 97.46019 45.426708 8.155879 74.490362-12.362056 87.201223-61.553804 7.437751 29.515049 2.308268 56.865456-15.388451 82.071739a454.400443 454.400443 0 0 1 30.776902 20.517935z" fill="#907F52" p-id="13726"></path><path d="M579.154076 548.854756c-36.080788 20.189648-77.116658 30.448615-123.107608 30.776902a50.597227 50.597227 0 0 1-30.776903-5.129484c16.342535-9.73576 30.017739-21.697716 41.03587-35.906386 17.399209-1.897909 31.084671-10.453888 41.03587-25.647418a350.938757 350.938757 0 0 0 82.071739-15.388451c-23.226302 1.744024-47.160473-1.682471-71.812772-10.258968 17.953193-11.900402 28.21216-28.991842 30.776902-51.294837 14.721618-21.523314 26.693833-45.447226 35.906386-71.812771 21.236063 61.943645 19.522815 123.497449-5.129484 184.661413z" fill="#F9EEDD" p-id="13727"></path><path d="M517.600272 487.300951c24.652299 8.576497 48.58647 12.002992 71.812772 10.258968a350.938757 350.938757 0 0 1-82.071739 15.388451c-9.951198 15.193531-23.636661 23.74951-41.03587 25.647418 17.932675-13.234068 21.348911-28.622519 10.258967-46.165353a86.524131 86.524131 0 0 1 41.03587-5.129484z" fill="#918256" p-id="13728"></path><path d="M794.592392 425.747147l51.294837 20.517935c18.394329 28.304491 23.523812 59.081393 15.388451 92.330706a925.399895 925.399895 0 0 1-107.719158-10.258967 521.976261 521.976261 0 0 1 61.553804-76.942256c-12.885263-4.277989-19.727994-12.823709-20.517934-25.647418z" fill="#F6EAD8" p-id="13729"></path><path d="M784.333424 425.747147h10.258968c0.78994 12.823709 7.632672 21.369429 20.517934 25.647418a521.976261 521.976261 0 0 0-61.553804 76.942256 94.105508 94.105508 0 0 1 20.517935-46.165353l-30.776902-10.258968c30.233177-1.149004 43.90838-16.537455 41.035869-46.165353z" fill="#776835" p-id="13730"></path><path d="M548.377174 436.006114c-2.564742 22.302995-12.823709 39.394435-30.776902 51.294837 2.564742-22.302995 12.823709-39.394435 30.776902-51.294837z" fill="#827242" p-id="13731"></path><path d="M763.815489 241.085734c16.711858 24.190645 28.673814 51.541052 35.906386 82.071739-4.298507 49.67392 11.089944 90.70979 46.165354 123.107609l-51.294837-20.517935h-10.258968a565.59739 565.59739 0 0 0-20.517935-184.661413z" fill="#9E9064" p-id="13732"></path><path d="M558.636142 200.049864c2.964842 32.315747-2.164642 63.092649-15.388452 92.330707-24.559968 6.524703-50.207386 6.524703-76.942255 0a344.157579 344.157579 0 0 1 25.647418-102.589674c23.595625-11.079685 45.816548-7.65319 66.683289 10.258967z" fill="#EED48F" p-id="13733"></path><path d="M497.082337 200.049864c46.873222-4.277989 62.261673 16.239945 46.165353 61.553805-21.831083 27.432479-40.63577 25.719231-56.42432-5.129484a133.243469 133.243469 0 0 0 10.258967-56.424321z" fill="#FEF9E9" p-id="13734"></path><path d="M763.815489 241.085734a334.585963 334.585963 0 0 1-41.035869-46.165353c25.965446 1.313148 39.650909 16.701599 41.035869 46.165353z" fill="#96895B" p-id="13735"></path><path d="M558.636142 200.049864c-1.333666-8.986855 2.08257-15.829587 10.258967-20.517935 36.050011 16.722117 66.826914 9.889645 92.330707-20.517934 49.345633 23.390446 68.15032 60.99982 56.42432 112.848641A342.218634 342.218634 0 0 1 609.930979 287.251087a1042.095649 1042.095649 0 0 0-51.294837-87.201223z" fill="#EDD38C" p-id="13736"></path><path d="M650.966848 179.531929c46.69882 13.767534 63.800518 42.831189 51.294837 87.201223-15.747515 5.088448-31.135966 3.385459-46.165353-5.129483-12.936558 2.667332-23.195525 9.499804-30.776902 20.517934a869.550076 869.550076 0 0 1-46.165354-76.942255l61.553805-10.258967c5.703986-3.929185 9.130481-9.058668 10.258967-15.388452z" fill="#FEFAEB" p-id="13737"></path></svg>