<?xml version="1.0" standalone="no"?><!DOCTYPE svg PUBLIC "-//W3C//DTD SVG 1.1//EN" "http://www.w3.org/Graphics/SVG/1.1/DTD/svg11.dtd"><svg height="1024" node-id="1" sillyvg="true" template-height="1024" template-width="1024" version="1.1" viewBox="0 0 1024 1024" width="1024" xmlns="http://www.w3.org/2000/svg" xmlns:xlink="http://www.w3.org/1999/xlink"><defs node-id="16"></defs><path d="M 787.80 188.70 L 792.60 188.20 L 803.70 188.50 L 815.20 189.80 L 830.90 192.80 L 842.80 196.00 L 854.40 200.10 L 865.60 205.20 L 871.00 208.00 L 881.50 214.40 L 891.50 221.60 L 900.80 229.60 L 905.20 233.90 L 913.50 243.00 L 917.40 247.90 L 928.00 263.70 L 929.30 257.90 L 932.20 248.50 L 935.70 241.50 L 938.40 237.70 L 941.90 233.90 L 945.70 230.50 L 950.00 227.50 L 953.00 225.80 L 958.90 223.80 L 961.30 223.50 L 963.50 224.10 L 963.60 225.10 L 961.90 227.00 L 959.80 228.60 L 950.40 233.60 L 946.80 236.50 L 943.60 239.80 L 940.90 243.50 L 936.60 251.50 L 934.90 255.80 L 932.90 262.50 L 931.60 269.20 L 944.70 295.70 L 950.80 309.00 L 960.20 331.10 L 963.10 339.70 L 963.40 341.80 L 962.70 343.80 L 961.70 343.90 L 960.70 343.00 L 958.60 339.70 L 940.80 299.00 L 935.90 288.90 L 925.20 269.40 L 917.60 257.30 L 913.40 251.40 L 904.30 240.50 L 899.20 235.40 L 888.30 226.00 L 876.30 217.60 L 867.90 212.70 L 859.20 208.30 L 850.20 204.50 L 841.00 201.20 L 831.60 198.50 L 822.10 196.50 L 807.60 194.60 L 793.20 194.20 L 777.80 195.30 L 770.10 196.50 L 762.60 198.00 L 755.10 199.90 L 747.80 202.30 L 740.70 205.10 L 733.80 208.50 L 727.20 212.30 L 717.90 219.00 L 709.30 227.00 L 705.50 231.30 L 701.90 236.00 L 698.50 241.10 L 692.80 251.90 L 688.40 263.50 L 685.40 275.30 L 684.60 281.30 L 684.20 287.20 L 684.20 293.10 L 685.00 298.00 L 691.10 311.30 L 723.30 394.60 L 744.00 446.50 L 763.10 491.00 L 782.80 535.20 L 803.20 579.10 L 824.30 622.70 L 834.70 643.50 L 845.40 664.20 L 856.50 684.60 L 866.90 702.70 L 872.40 711.60 L 878.40 720.10 L 886.30 729.70 L 895.00 737.80 L 899.70 741.40 L 904.70 744.60 L 910.10 747.60 L 915.90 750.20 L 924.30 753.10 L 927.80 755.10 L 927.80 755.90 L 925.60 756.70 L 923.80 756.60 L 919.90 755.60 L 911.20 752.60 L 906.00 750.20 L 901.10 747.60 L 896.50 744.60 L 890.70 740.20 L 885.20 735.30 L 880.10 729.90 L 875.30 724.30 L 866.40 712.10 L 860.40 702.50 L 854.80 692.60 L 835.30 656.40 L 814.50 614.70 L 782.40 620.10 L 693.80 637.30 L 581.00 660.70 L 524.90 673.10 L 490.80 679.80 L 479.60 682.30 L 477.50 684.50 L 474.80 686.50 L 472.00 687.90 L 469.10 688.90 L 462.90 689.60 L 459.60 689.40 L 455.70 691.30 L 452.00 692.70 L 448.50 693.40 L 444.90 693.70 L 441.00 693.50 L 436.80 692.70 L 435.10 695.00 L 431.50 698.30 L 427.40 700.50 L 425.10 701.20 L 422.70 701.50 L 419.60 701.50 L 416.80 701.00 L 414.30 700.00 L 410.80 697.90 L 407.30 695.10 L 401.00 697.20 L 394.50 698.80 L 381.20 701.00 L 368.00 702.60 L 399.70 790.80 L 410.20 817.90 L 413.40 827.00 L 414.00 829.20 L 414.20 831.50 L 413.50 831.50 L 411.90 829.70 L 408.90 825.20 L 401.00 807.20 L 384.40 762.30 L 368.10 717.40 L 352.40 672.20 L 335.00 618.40 L 310.00 537.40 L 286.70 464.50 L 279.20 441.50 L 271.30 418.70 L 259.60 388.30 L 250.60 368.60 L 245.60 358.90 L 240.60 350.20 L 234.90 341.30 L 226.40 329.90 L 221.70 324.60 L 216.70 319.50 L 211.40 314.90 L 205.90 310.80 L 201.50 308.00 L 196.90 305.60 L 192.20 303.50 L 187.40 301.90 L 182.20 300.70 L 177.00 300.10 L 171.70 300.10 L 166.30 300.50 L 161.10 301.40 L 155.90 302.70 L 145.90 306.50 L 141.20 308.80 L 134.70 312.80 L 128.50 317.20 L 122.70 322.10 L 117.30 327.30 L 112.20 333.00 L 107.50 338.90 L 103.20 345.10 L 99.20 351.70 L 95.70 358.50 L 92.60 365.40 L 89.90 372.40 L 87.60 379.70 L 85.30 388.80 L 83.50 397.90 L 82.20 407.00 L 81.30 416.10 L 80.80 425.30 L 80.80 434.50 L 81.20 443.70 L 81.90 453.10 L 83.40 465.20 L 85.30 477.40 L 87.60 489.40 L 93.10 513.40 L 101.60 543.20 L 107.10 560.80 L 128.70 625.00 L 139.40 653.90 L 150.60 682.70 L 164.80 716.70 L 172.40 733.60 L 180.60 750.20 L 186.30 761.10 L 198.60 782.40 L 207.00 795.10 L 211.50 801.10 L 216.40 806.80 L 221.60 812.30 L 232.00 821.20 L 236.90 824.80 L 245.40 829.70 L 247.30 831.20 L 248.50 832.70 L 247.90 833.40 L 245.10 833.20 L 238.70 831.00 L 235.00 829.20 L 227.50 824.20 L 222.80 820.30 L 218.20 815.90 L 213.60 811.00 L 207.10 803.20 L 200.90 794.90 L 190.20 778.20 L 181.80 762.90 L 173.60 764.60 L 165.80 765.80 L 158.20 766.40 L 150.70 766.60 L 143.20 766.10 L 135.70 765.00 L 124.60 762.20 L 113.00 757.70 L 102.50 752.10 L 93.00 745.20 L 88.70 741.30 L 80.80 732.80 L 77.30 728.10 L 71.30 718.20 L 66.40 707.30 L 64.40 700.80 L 63.00 694.20 L 62.20 687.60 L 62.00 680.90 L 62.40 674.20 L 63.30 667.60 L 64.80 661.10 L 66.90 654.70 L 69.40 648.40 L 72.00 643.30 L 74.90 638.70 L 78.10 634.30 L 81.50 630.40 L 86.50 625.40 L 92.00 621.00 L 97.80 617.00 L 104.00 613.50 L 110.60 610.40 L 117.40 607.60 L 110.10 586.30 L 94.50 536.90 L 89.70 519.90 L 85.40 502.90 L 81.70 485.90 L 79.60 474.50 L 76.80 452.00 L 75.90 433.50 L 76.00 414.90 L 63.50 400.70 L 61.20 397.20 L 61.50 395.90 L 62.40 395.00 L 64.10 395.40 L 66.10 396.50 L 70.00 399.80 L 76.60 407.00 L 80.10 389.50 L 82.20 380.80 L 84.70 372.20 L 87.20 365.20 L 90.20 358.30 L 93.60 351.40 L 97.50 344.80 L 101.70 338.40 L 106.30 332.20 L 111.20 326.30 L 116.40 320.90 L 121.90 315.80 L 127.20 311.50 L 132.80 307.60 L 138.70 304.10 L 144.80 301.10 L 151.20 298.60 L 157.70 296.70 L 162.60 295.60 L 167.70 295.00 L 172.80 294.80 L 178.00 295.00 L 183.70 295.80 L 189.10 297.00 L 194.20 298.80 L 199.10 301.00 L 203.80 303.50 L 212.70 309.70 L 220.90 316.90 L 232.10 329.00 L 236.10 317.50 L 241.30 307.00 L 247.80 297.20 L 255.70 288.00 L 261.30 282.60 L 267.40 277.70 L 273.80 273.10 L 280.50 269.00 L 287.50 265.30 L 294.70 262.00 L 302.10 259.20 L 309.70 256.90 L 317.40 255.00 L 325.20 253.60 L 332.90 252.80 L 340.60 252.50 L 348.50 252.60 L 355.60 253.20 L 362.10 254.10 L 368.50 255.50 L 374.50 257.40 L 380.20 259.60 L 385.70 262.30 L 391.20 265.50 L 396.60 269.20 L 407.20 278.00 L 412.80 283.30 L 415.20 273.90 L 418.30 266.50 L 423.30 258.20 L 426.40 254.30 L 430.80 249.50 L 435.60 244.90 L 440.90 240.70 L 446.40 236.70 L 457.90 229.70 L 466.80 225.20 L 475.40 221.30 L 485.40 217.30 L 495.90 213.80 L 506.80 210.70 L 523.40 207.30 L 531.90 206.10 L 549.00 204.80 L 557.40 204.80 L 565.90 205.20 L 574.20 206.00 L 582.50 207.40 L 590.60 209.20 L 598.50 211.50 L 606.20 214.20 L 612.60 217.10 L 624.60 223.60 L 630.20 227.30 L 637.30 232.70 L 644.10 238.60 L 650.50 245.00 L 656.50 251.70 L 662.20 258.80 L 670.90 271.40 L 677.00 281.90 L 679.60 287.40 L 679.80 280.40 L 680.70 273.40 L 682.10 266.20 L 684.20 259.10 L 686.70 252.30 L 689.70 245.60 L 693.20 239.20 L 697.10 233.20 L 701.30 227.70 L 705.50 223.00 L 709.90 218.60 L 714.50 214.70 L 719.30 211.10 L 726.10 206.70 L 733.10 202.90 L 740.50 199.60 L 748.00 196.80 L 755.70 194.40 L 763.60 192.40 L 779.70 189.60 L 787.80 188.70 Z M 416.00 287.30 L 420.30 293.50 L 427.80 306.00 L 433.90 318.90 L 436.60 325.50 L 440.10 335.70 L 445.60 355.40 L 445.90 359.70 L 445.60 360.90 L 444.90 361.20 L 442.70 357.70 L 440.30 351.70 L 434.50 333.50 L 431.20 324.80 L 427.50 316.50 L 423.40 308.60 L 418.90 300.90 L 413.90 293.80 L 408.60 287.10 L 404.20 282.50 L 399.60 278.20 L 394.80 274.20 L 389.70 270.60 L 384.30 267.40 L 378.70 264.60 L 372.80 262.30 L 366.50 260.30 L 360.20 258.90 L 353.50 258.00 L 346.40 257.50 L 338.90 257.70 L 331.00 258.30 L 323.30 259.40 L 315.60 261.00 L 308.10 263.00 L 300.60 265.50 L 293.40 268.40 L 286.50 271.80 L 279.70 275.70 L 273.20 280.00 L 267.00 284.70 L 261.20 289.90 L 255.70 295.70 L 252.50 299.50 L 247.20 307.20 L 243.80 313.20 L 234.50 332.00 L 240.20 340.20 L 245.50 348.50 L 250.40 357.10 L 259.30 374.70 L 268.80 397.50 L 281.00 430.30 L 318.50 420.00 L 356.10 410.30 L 393.90 401.00 L 431.70 392.30 L 469.70 384.10 L 507.80 376.40 L 546.00 369.10 L 613.00 357.70 L 641.80 353.50 L 670.70 349.90 L 699.70 346.70 L 687.80 317.10 L 683.50 307.20 L 674.00 287.90 L 668.70 278.60 L 663.10 269.60 L 657.00 261.00 L 652.10 254.80 L 646.80 248.90 L 641.30 243.40 L 635.40 238.10 L 629.20 233.20 L 622.60 228.80 L 615.60 224.70 L 608.00 221.00 L 601.40 218.40 L 594.60 216.00 L 587.50 214.00 L 580.30 212.40 L 573.10 211.20 L 565.70 210.40 L 558.40 210.10 L 551.10 210.20 L 544.00 210.70 L 527.80 212.60 L 511.00 215.70 L 494.10 220.20 L 485.80 222.90 L 477.60 226.10 L 469.70 229.60 L 461.90 233.50 L 454.60 237.80 L 447.50 242.50 L 442.50 246.40 L 433.40 254.80 L 429.20 259.40 L 426.00 263.50 L 423.30 267.90 L 420.90 272.50 L 418.80 277.30 L 417.20 282.30 L 416.00 287.30 Z M 282.60 435.30 L 291.10 461.30 L 296.60 459.60 L 341.60 449.10 L 386.70 439.10 L 476.20 420.50 L 520.60 412.10 L 648.10 391.20 L 693.00 383.30 L 712.50 379.60 L 701.80 352.00 L 696.40 352.20 L 654.70 357.30 L 613.10 363.20 L 571.70 369.70 L 530.30 377.00 L 489.10 385.00 L 448.00 393.70 L 407.10 403.10 L 338.60 420.20 L 296.60 431.00 L 282.60 435.30 Z M 122.00 743.00 L 133.60 745.10 L 138.90 745.60 L 146.90 745.90 L 154.90 745.50 L 171.80 743.30 L 158.40 714.70 L 143.10 678.00 L 134.60 655.90 L 121.70 619.10 L 118.90 612.10 L 105.50 618.60 L 95.10 625.10 L 87.10 631.80 L 83.50 635.60 L 80.20 639.50 L 77.20 644.00 L 74.50 648.80 L 72.10 654.20 L 70.20 659.50 L 68.70 665.00 L 67.60 670.80 L 66.90 676.60 L 66.80 682.40 L 67.10 688.30 L 67.90 694.10 L 69.30 699.60 L 71.30 704.90 L 73.40 709.00 L 75.90 713.00 L 78.90 716.70 L 85.60 723.60 L 89.30 726.70 L 95.30 731.00 L 101.60 734.70 L 108.00 738.00 L 114.30 740.60 L 122.00 743.00 Z M 380.30 669.50 L 369.70 672.90 L 359.00 675.40 L 366.70 698.30 L 370.90 697.30 L 392.00 694.10 L 390.20 691.30 L 389.10 688.80 L 388.40 686.20 L 388.20 680.70 L 389.20 674.30 L 383.20 670.40 L 380.30 669.50 Z M 798.30 582.60 L 691.60 608.30 L 664.80 614.40 L 585.40 630.60 L 495.50 647.70 L 483.40 650.40 L 485.00 660.00 L 485.10 664.40 L 483.90 671.60 L 481.50 678.00 L 491.60 675.40 L 548.50 662.50 L 605.50 650.10 L 662.60 638.10 L 719.80 626.70 L 794.40 612.60 L 812.10 609.80 L 802.60 589.30 L 799.10 582.70 L 798.30 582.60 Z" fill="#000101" fill-rule="nonzero" node-id="18" stroke="none" target-height="645.2" target-width="902.39996" target-x="61.2" target-y="188.2"></path><path d="M 470.60 447.00 L 477.50 451.40 L 490.90 461.60 L 498.70 466.60 L 506.80 471.10 L 515.00 475.40 L 527.60 481.10 L 540.50 486.30 L 535.10 489.20 L 531.90 492.20 L 530.40 494.70 L 530.10 496.00 L 530.60 498.10 L 532.40 499.80 L 533.70 500.30 L 536.00 500.30 L 539.30 499.50 L 554.10 494.70 L 557.70 493.90 L 560.50 493.70 L 564.90 494.30 L 578.40 497.40 L 587.30 499.00 L 605.70 501.50 L 614.80 502.10 L 620.50 495.50 L 623.80 492.60 L 627.30 489.90 L 631.10 487.80 L 635.00 486.00 L 638.00 485.10 L 643.80 484.60 L 646.70 484.90 L 649.60 485.60 L 652.50 486.80 L 657.70 490.20 L 660.00 492.30 L 663.10 495.90 L 665.80 499.90 L 667.90 504.20 L 670.20 510.40 L 671.60 518.20 L 671.50 526.20 L 669.70 533.90 L 667.50 539.50 L 665.10 543.60 L 662.50 547.10 L 659.60 550.20 L 653.00 555.60 L 649.40 557.80 L 643.70 560.60 L 637.70 563.10 L 625.20 567.40 L 622.50 585.30 L 620.10 596.70 L 614.30 619.10 L 565.60 629.40 L 516.70 639.20 L 512.70 637.40 L 506.40 633.70 L 500.60 629.60 L 495.30 625.10 L 490.30 620.20 L 485.70 615.00 L 481.50 609.50 L 477.70 603.70 L 474.20 597.50 L 470.00 589.10 L 466.50 580.40 L 463.40 571.50 L 460.60 561.40 L 458.30 551.00 L 456.50 540.40 L 455.30 529.70 L 454.80 519.10 L 454.90 508.30 L 455.40 500.30 L 456.20 492.40 L 457.60 484.50 L 459.30 476.70 L 461.40 469.10 L 464.00 461.50 L 467.10 454.20 L 470.60 447.00 Z" fill="#fefefe" fill-rule="nonzero" node-id="20" stroke="none" target-height="192.20001" target-width="216.79999" target-x="454.8" target-y="447"></path><path d="M 486.40 520.50 L 490.10 520.80 L 492.30 521.70 L 496.00 524.90 L 499.70 530.00 L 501.40 533.20 L 503.50 538.20 L 505.10 543.40 L 505.70 546.90 L 506.10 553.20 L 505.70 556.00 L 505.00 558.30 L 503.80 560.40 L 501.90 562.40 L 499.20 562.60 L 497.30 562.20 L 495.80 561.40 L 493.10 559.00 L 490.80 556.10 L 488.70 552.60 L 485.20 544.70 L 483.10 536.40 L 482.60 532.30 L 482.60 528.70 L 482.90 526.10 L 483.60 524.10 L 484.70 522.30 L 486.40 520.50 Z" fill="#000101" fill-rule="nonzero" node-id="22" stroke="none" target-height="42.099976" target-width="23.5" target-x="482.6" target-y="520.5"></path><path d="M 546.50 505.50 L 550.80 505.70 L 553.70 507.20 L 557.10 511.10 L 559.10 514.40 L 560.80 518.10 L 563.30 526.10 L 564.50 534.00 L 564.20 540.10 L 563.60 542.40 L 562.40 544.50 L 560.70 546.60 L 558.70 546.60 L 555.50 545.70 L 553.90 544.60 L 551.60 542.30 L 549.40 539.50 L 546.00 532.70 L 544.70 529.10 L 543.00 521.90 L 542.60 515.00 L 543.20 511.70 L 543.90 509.60 L 546.50 505.50 Z" fill="#000101" fill-rule="nonzero" node-id="24" stroke="none" target-height="41.099976" target-width="21.900024" target-x="542.6" target-y="505.5"></path><path d="M 510.80 521.10 L 512.80 521.70 L 514.50 525.60 L 516.20 532.20 L 520.30 552.00 L 522.50 560.50 L 525.20 568.80 L 526.20 570.90 L 528.50 574.20 L 531.00 575.80 L 533.50 576.00 L 535.90 575.20 L 538.70 573.60 L 540.40 572.00 L 541.60 570.30 L 542.30 568.50 L 543.70 562.20 L 544.50 559.70 L 545.30 558.40 L 546.60 557.60 L 548.10 559.20 L 548.70 563.00 L 547.80 566.80 L 545.20 572.70 L 541.90 576.70 L 539.90 578.30 L 537.70 579.60 L 535.20 580.50 L 532.60 580.70 L 530.30 580.30 L 528.30 579.40 L 524.70 576.50 L 523.30 574.40 L 520.00 566.50 L 515.20 550.00 L 511.70 532.90 L 510.80 524.00 L 510.80 521.10 Z" fill="#000101" fill-rule="nonzero" node-id="26" stroke="none" target-height="59.600037" target-width="37.900024" target-x="510.8" target-y="521.1"></path><path d="M 481.60 499.60 L 484.60 499.50 L 487.50 499.90 L 490.50 501.40 L 491.80 502.60 L 492.60 503.90 L 493.00 505.60 L 492.50 507.20 L 491.30 508.80 L 489.30 510.30 L 486.90 511.50 L 484.20 512.50 L 474.10 515.40 L 469.60 515.90 L 467.40 515.80 L 465.30 515.20 L 463.90 514.30 L 463.20 512.80 L 463.60 511.10 L 465.80 507.60 L 469.10 504.50 L 472.00 502.80 L 475.10 501.40 L 481.60 499.60 Z" fill="#000101" fill-rule="nonzero" node-id="28" stroke="none" target-height="16.400024" target-width="29.799988" target-x="463.2" target-y="499.5"></path><path d="M 650.40 498.40 L 651.50 498.70 L 652.50 499.50 L 652.40 501.20 L 650.60 503.10 L 645.90 506.60 L 643.30 509.20 L 639.10 514.70 L 636.60 519.20 L 634.50 523.90 L 631.00 533.90 L 630.10 533.80 L 629.30 533.30 L 629.10 530.30 L 629.70 527.10 L 632.60 518.80 L 635.00 513.80 L 636.90 510.60 L 641.40 505.00 L 644.00 502.50 L 647.00 500.30 L 650.40 498.40 Z" fill="#000101" fill-rule="nonzero" node-id="30" stroke="none" target-height="35.50003" target-width="23.400024" target-x="629.1" target-y="498.4"></path><path d="M 433.10 626.70 L 443.50 627.00 L 448.90 627.70 L 454.10 628.90 L 459.10 630.60 L 463.80 632.80 L 469.40 636.90 L 473.90 642.00 L 476.40 645.80 L 478.30 650.00 L 479.80 654.30 L 480.60 658.20 L 481.00 662.20 L 480.90 666.20 L 480.20 670.20 L 479.10 674.00 L 477.30 677.60 L 475.50 680.10 L 473.50 682.10 L 471.30 683.60 L 467.60 685.30 L 463.30 686.50 L 465.40 681.70 L 466.80 676.90 L 467.70 672.20 L 468.10 667.30 L 467.90 662.30 L 467.10 657.10 L 464.50 648.60 L 461.40 641.90 L 459.70 639.10 L 458.40 637.40 L 455.90 635.50 L 454.50 635.10 L 453.00 635.50 L 452.80 636.60 L 453.20 637.70 L 458.10 645.50 L 460.80 652.10 L 462.00 656.10 L 463.40 664.40 L 463.50 668.60 L 462.80 674.60 L 460.80 680.40 L 459.20 683.00 L 457.20 685.30 L 455.40 686.60 L 451.60 688.40 L 448.50 689.10 L 445.30 689.40 L 438.80 689.30 L 441.80 679.60 L 442.60 674.90 L 443.00 670.20 L 443.00 665.30 L 442.00 657.00 L 440.30 649.60 L 439.00 645.80 L 435.70 638.90 L 434.30 636.80 L 431.30 633.90 L 429.60 632.90 L 427.80 632.70 L 427.50 633.60 L 428.30 635.80 L 431.90 641.90 L 433.80 646.20 L 436.60 654.50 L 438.10 663.00 L 438.20 671.80 L 437.80 676.10 L 436.90 680.40 L 435.70 684.40 L 434.00 688.20 L 432.30 691.00 L 430.30 693.40 L 428.70 694.80 L 424.80 696.60 L 422.00 697.10 L 419.40 697.00 L 416.90 696.40 L 414.40 695.50 L 409.60 693.00 L 412.20 689.50 L 414.40 686.00 L 416.10 682.30 L 418.70 674.60 L 420.20 665.60 L 420.60 660.10 L 420.30 654.70 L 419.70 652.30 L 418.70 650.40 L 417.40 649.80 L 415.90 649.80 L 415.20 650.70 L 414.90 653.40 L 415.10 665.50 L 414.00 672.70 L 412.00 679.70 L 409.70 684.70 L 408.10 687.10 L 406.30 689.30 L 404.20 691.20 L 401.80 692.50 L 400.30 692.90 L 398.70 692.80 L 397.20 692.30 L 395.30 691.00 L 394.00 689.50 L 393.20 687.70 L 392.70 685.70 L 392.70 680.90 L 395.80 663.50 L 395.50 660.00 L 394.70 659.80 L 392.30 662.50 L 390.90 665.80 L 389.80 669.30 L 380.90 665.00 L 382.40 659.80 L 384.40 655.10 L 386.00 652.10 L 390.20 646.40 L 394.30 642.20 L 398.40 638.60 L 402.70 635.60 L 407.20 633.10 L 412.00 631.00 L 416.90 629.40 L 422.00 628.10 L 433.10 626.70 Z" fill="#fefefe" fill-rule="nonzero" node-id="32" stroke="none" target-height="70.39996" target-width="100.100006" target-x="380.9" target-y="626.7"></path><path d="M 452.50 549.10 L 453.80 552.00 L 457.20 568.00 L 452.90 566.80 L 449.80 566.40 L 448.40 566.50 L 446.60 567.70 L 445.80 569.70 L 447.80 571.00 L 458.10 573.40 L 461.30 580.50 L 467.10 595.20 L 473.70 606.80 L 474.60 608.70 L 473.70 609.20 L 471.00 609.60 L 467.20 609.30 L 463.40 608.50 L 456.30 605.70 L 453.00 603.80 L 447.10 599.10 L 443.30 594.90 L 440.20 590.10 L 437.80 584.90 L 436.20 579.10 L 435.60 575.00 L 435.50 570.80 L 436.00 566.60 L 437.50 561.30 L 438.70 558.70 L 440.50 556.10 L 442.40 554.00 L 446.90 551.10 L 452.50 549.10 Z" fill="#fefefe" fill-rule="nonzero" node-id="34" stroke="none" target-height="60.5" target-width="39.100006" target-x="435.5" target-y="549.1"></path><path d="M 450.10 432.40 L 452.90 432.80 L 453.40 433.60 L 439.20 456.70 L 434.20 465.70 L 424.80 485.10 L 416.60 505.30 L 413.10 515.70 L 410.10 526.10 L 407.60 536.50 L 405.60 547.00 L 404.20 557.30 L 403.50 567.30 L 403.40 572.90 L 403.90 578.10 L 404.80 583.10 L 406.10 587.80 L 407.80 592.20 L 410.10 596.50 L 412.90 600.40 L 416.20 604.10 L 420.10 607.60 L 424.70 610.90 L 433.30 615.70 L 434.70 617.20 L 434.60 618.60 L 433.20 619.10 L 430.90 618.50 L 428.40 617.50 L 423.40 614.70 L 415.50 609.20 L 409.40 603.40 L 407.00 600.30 L 404.90 596.90 L 403.20 593.30 L 401.70 589.20 L 400.70 584.90 L 399.80 579.10 L 399.50 573.40 L 399.50 567.50 L 400.20 558.80 L 403.00 539.40 L 405.30 528.80 L 408.00 518.40 L 411.20 508.30 L 414.80 498.30 L 418.80 488.50 L 423.10 478.80 L 427.90 469.30 L 434.80 456.80 L 442.20 444.50 L 450.10 432.40 Z" fill="#fefefe" fill-rule="nonzero" node-id="36" stroke="none" target-height="186.69998" target-width="53.899994" target-x="399.5" target-y="432.4"></path><path d="M 646.30 563.60 L 647.00 563.90 L 647.50 564.60 L 647.80 566.00 L 649.10 578.90 L 649.80 583.40 L 650.70 586.80 L 653.40 593.10 L 656.10 597.70 L 662.40 607.00 L 663.30 608.80 L 662.60 609.90 L 659.40 608.60 L 656.30 605.70 L 654.40 603.30 L 650.20 596.30 L 648.20 591.60 L 645.40 581.90 L 644.30 572.70 L 644.40 567.90 L 644.70 566.40 L 646.30 563.60 Z" fill="#fefefe" fill-rule="nonzero" node-id="38" stroke="none" target-height="46.30005" target-width="19" target-x="644.3" target-y="563.6"></path><path d="M 179.40 432.80 L 180.90 436.90 L 183.10 444.50 L 191.30 478.00 L 209.60 544.50 L 264.00 733.90 L 272.50 761.00 L 276.70 773.20 L 290.00 809.30 L 288.50 808.50 L 285.60 803.70 L 279.60 789.40 L 275.00 776.90 L 264.80 746.70 L 253.20 709.80 L 240.70 668.30 L 215.50 580.50 L 204.00 538.40 L 194.10 500.40 L 183.20 455.30 L 181.20 445.40 L 179.70 436.90 L 179.40 432.80 Z" fill="#000101" fill-rule="nonzero" node-id="40" stroke="none" target-height="376.5" target-width="110.600006" target-x="179.4" target-y="432.8"></path><path d="M 795.30 340.30 L 798.10 343.00 L 805.30 354.30 L 824.20 386.90 L 837.10 410.20 L 849.70 433.60 L 862.00 457.30 L 881.20 497.20 L 921.70 585.90 L 932.40 610.30 L 942.70 634.80 L 941.00 633.20 L 939.70 631.20 L 929.00 610.10 L 909.30 566.80 L 885.00 515.10 L 860.20 463.60 L 824.00 394.20 L 804.20 358.50 L 795.30 340.30 Z" fill="#000101" fill-rule="nonzero" node-id="42" stroke="none" target-height="294.5" target-width="147.40002" target-x="795.3" target-y="340.3"></path></svg>