<?xml version="1.0" standalone="no"?><!DOCTYPE svg PUBLIC "-//W3C//DTD SVG 1.1//EN" "http://www.w3.org/Graphics/SVG/1.1/DTD/svg11.dtd"><svg height="1000" node-id="1" sillyvg="true" template-height="1000" template-width="1000" version="1.1" viewBox="0 0 1000 1000" width="1000" xmlns="http://www.w3.org/2000/svg" xmlns:xlink="http://www.w3.org/1999/xlink"><defs node-id="192"><clipPath id="XMLID_2_" node-id="7"><path d="M 206.60 732.00 L 197.20 727.80 L 181.60 719.50 L 164.90 708.90 L 149.90 697.60 L 142.30 691.40 L 134.50 684.40 L 126.40 676.50 L 118.60 668.30 L 110.90 659.30 L 103.10 649.40 L 92.40 633.70 L 87.20 625.10 L 82.20 616.00 L 77.70 606.80 L 73.40 597.00 L 69.40 586.70 L 65.70 575.80 L 62.50 564.90 L 59.70 553.40 L 57.30 541.20 L 55.40 528.40 L 53.60 507.80 L 53.20 485.30 L 54.30 461.70 L 55.50 449.60 L 57.20 437.00 L 59.30 423.90 L 62.00 410.10 L 65.00 396.90 L 68.60 383.20 L 72.70 368.90 L 77.50 354.00 L 82.90 338.40 L 87.30 329.00 L 91.30 321.60 L 95.90 313.60 L 106.60 297.20 L 117.80 282.50 L 124.00 275.10 L 130.80 267.60 L 138.50 259.80 L 146.40 252.40 L 155.00 245.10 L 164.40 237.90 L 171.70 232.80 L 187.50 223.30 L 196.00 218.80 L 204.60 214.80 L 213.70 211.10 L 223.30 207.80 L 233.40 204.80 L 243.40 202.30 L 254.00 200.30 L 265.10 198.80 L 276.80 197.80 L 295.50 197.40 L 315.80 198.70 L 326.60 200.00 L 345.70 204.10 L 366.80 209.90 L 379.10 213.90 L 402.60 222.70 L 423.10 231.80 L 433.30 236.90 L 460.00 251.80 L 465.60 254.20 L 471.50 256.10 L 477.50 257.50 L 483.70 258.40 L 490.00 258.90 L 496.60 259.00 L 503.40 258.60 L 512.30 257.60 L 521.60 256.00 L 531.10 253.80 L 540.60 251.20 L 559.90 244.60 L 574.40 238.80 L 588.80 232.40 L 616.70 218.90 L 666.30 193.70 L 677.00 188.80 L 686.00 185.20 L 692.00 183.30 L 698.90 181.50 L 706.90 180.00 L 714.90 178.90 L 723.60 178.20 L 733.10 177.80 L 742.60 177.90 L 752.40 178.40 L 762.80 179.40 L 773.00 180.90 L 783.50 183.00 L 794.00 185.60 L 804.50 188.70 L 814.80 192.50 L 825.00 196.90 L 832.50 200.70 L 839.70 204.80 L 846.80 209.40 L 853.80 214.40 L 860.40 219.70 L 866.70 225.50 L 872.70 231.80 L 878.50 238.60 L 883.70 245.60 L 888.60 253.30 L 893.10 261.50 L 897.20 270.30 L 900.00 277.40 L 902.50 284.90 L 904.70 292.90 L 906.60 301.30 L 908.10 310.30 L 909.00 318.80 L 909.50 327.90 L 909.40 337.60 L 908.80 347.90 L 906.30 368.50 L 902.00 390.90 L 898.30 405.90 L 893.90 421.50 L 888.70 437.50 L 883.10 453.50 L 876.90 469.60 L 870.10 486.10 L 863.00 502.30 L 855.40 518.50 L 839.00 550.70 L 830.40 566.40 L 812.30 597.00 L 793.80 625.50 L 784.10 639.30 L 774.60 652.10 L 765.20 664.10 L 755.50 675.90 L 746.10 686.50 L 737.00 695.90 L 729.80 702.90 L 716.40 714.40 L 710.20 719.10 L 703.50 723.60 L 697.30 727.20 L 691.40 730.00 L 686.00 732.00 L 206.60 732.00 Z" fill="#000000" fill-rule="nonzero" node-id="195" stroke="none" target-height="554.2" target-width="856.3" target-x="53.2" target-y="177.8"></path></clipPath><clipPath id="XMLID_3_" node-id="59"><path d="M 162.60 505.40 L 169.20 503.80 L 175.40 503.10 L 182.60 502.90 L 192.70 503.20 L 208.30 504.90 L 228.40 508.70 L 239.90 511.60 L 253.20 515.40 L 266.40 519.60 L 281.30 524.80 L 310.70 536.20 L 330.90 543.10 L 348.30 547.60 L 354.90 548.80 L 361.60 549.60 L 367.10 549.90 L 371.60 549.80 L 376.10 549.20 L 379.60 548.30 L 382.40 547.10 L 385.10 545.60 L 387.20 543.90 L 388.90 542.00 L 390.90 538.90 L 392.40 535.70 L 395.20 526.60 L 397.00 522.60 L 397.60 518.20 L 396.70 512.00 L 395.50 508.30 L 393.70 504.20 L 391.50 500.30 L 388.80 496.40 L 385.50 492.50 L 381.90 489.00 L 377.80 485.90 L 373.20 483.00 L 369.60 481.30 L 365.80 479.80 L 361.70 478.70 L 351.60 477.10 L 347.30 475.90 L 344.30 474.70 L 340.60 472.00 L 338.80 469.20 L 338.30 467.20 L 338.40 464.90 L 338.90 462.60 L 340.50 459.10 L 342.70 455.50 L 349.30 446.90 L 349.90 445.00 L 349.90 442.90 L 349.30 440.90 L 348.20 438.90 L 346.40 436.90 L 344.20 435.20 L 341.50 433.70 L 338.10 432.30 L 334.60 431.50 L 330.50 431.00 L 325.70 431.00 L 321.00 431.50 L 315.70 432.60 L 309.80 434.50 L 304.00 436.80 L 297.80 440.10 L 290.80 444.40 L 242.90 463.80 L 203.00 481.00 L 185.00 489.50 L 170.50 497.00 L 164.70 500.50 L 161.10 503.10 L 162.60 505.40 Z" fill="#000000" fill-rule="nonzero" node-id="199" stroke="none" target-height="118.900024" target-width="236.5" target-x="161.1" target-y="431"></path></clipPath><clipPath id="XMLID_4_" node-id="66"><path d="M 160.40 501.10 L 161.00 501.30 L 162.40 500.50 L 164.80 497.70 L 166.60 495.00 L 173.20 480.80 L 176.70 474.30 L 181.10 466.70 L 186.10 459.00 L 191.80 451.10 L 200.40 441.10 L 205.10 436.40 L 210.10 432.10 L 215.40 428.30 L 221.90 424.30 L 225.10 421.40 L 229.80 415.40 L 237.90 401.60 L 241.00 397.20 L 248.50 388.30 L 252.90 384.10 L 257.50 380.30 L 260.80 378.10 L 267.30 374.90 L 270.70 374.00 L 273.90 373.60 L 277.00 373.80 L 279.30 374.40 L 281.40 375.30 L 283.60 376.70 L 287.60 380.80 L 291.10 386.90 L 292.70 391.20 L 296.40 402.60 L 298.70 411.30 L 300.40 421.60 L 300.40 429.20 L 299.90 432.30 L 299.10 434.90 L 298.00 437.30 L 294.90 441.20 L 292.00 443.60 L 288.60 445.90 L 240.40 466.30 L 201.40 483.60 L 177.10 495.30 L 166.80 501.30 L 164.40 503.10 L 160.40 501.10 Z" fill="#000000" fill-rule="nonzero" node-id="203" stroke="none" target-height="129.5" target-width="140" target-x="160.4" target-y="373.6"></path></clipPath><clipPath id="SVGID_1_" node-id="75"><path d="M 196.10 531.40 L 181.70 509.70 L 180.20 508.70 L 178.40 509.00 L 166.20 517.10 L 165.20 518.60 L 165.50 520.40 L 171.70 529.80 L 135.40 534.60 L 131.10 535.70 L 126.80 534.00 L 125.20 533.60 L 123.60 533.70 L 122.00 534.10 L 106.00 541.20 L 104.60 542.00 L 102.70 544.40 L 101.80 548.80 L 27.30 598.30 L 26.20 599.80 L 26.60 601.70 L 34.80 614.00 L 35.50 614.70 L 37.30 615.10 L 100.20 573.60 L 111.70 607.50 L 172.40 584.00 L 152.30 552.20 L 173.50 549.80 L 185.10 547.60 L 191.50 545.90 L 193.40 544.90 L 195.90 542.50 L 196.70 541.10 L 197.50 538.70 L 197.70 536.30 L 197.50 534.60 L 196.10 531.40 Z" fill="#000000" fill-rule="nonzero" node-id="207" stroke="none" target-height="106.39996" target-width="171.5" target-x="26.2" target-y="508.7"></path></clipPath><clipPath id="SVGID_2_" node-id="85"><path d="M 279.00 661.50 L 277.60 656.10 L 275.70 651.90 L 272.10 645.80 L 266.20 638.60 L 262.40 634.80 L 257.60 630.80 L 252.50 627.10 L 246.40 623.40 L 239.00 619.50 L 227.10 614.50 L 212.00 609.70 L 172.40 584.00 L 145.00 594.60 L 172.40 642.60 L 184.60 644.50 L 202.50 648.40 L 214.20 652.10 L 218.90 654.30 L 226.50 659.00 L 233.90 665.50 L 237.30 669.40 L 240.20 673.30 L 244.10 679.70 L 246.00 683.90 L 279.00 661.50 Z" fill="#000000" fill-rule="nonzero" node-id="211" stroke="none" target-height="99.900024" target-width="134" target-x="145" target-y="584"></path></clipPath><clipPath id="SVGID_3_" node-id="92"><path d="M 138.40 657.60 L 182.70 671.10 L 194.80 659.00 L 203.40 649.00 L 211.90 637.50 L 215.60 631.50 L 219.50 623.40 L 220.80 619.50 L 221.80 615.50 L 222.20 611.80 L 222.10 608.30 L 221.60 605.70 L 220.80 603.20 L 219.50 600.90 L 217.90 598.60 L 216.10 597.60 L 209.60 595.40 L 204.50 594.40 L 196.70 593.30 L 187.90 592.80 L 175.80 592.60 L 167.20 592.90 L 145.00 594.60 L 111.70 607.50 L 111.00 615.10 L 111.20 618.60 L 112.50 625.10 L 114.90 630.40 L 116.50 632.90 L 118.60 635.20 L 121.20 637.40 L 125.50 639.70 L 128.90 641.10 L 132.60 642.20 L 136.90 643.00 L 143.10 643.00 L 151.20 641.90 L 153.10 642.50 L 153.40 643.10 L 153.20 644.00 L 152.40 645.50 L 150.50 647.70 L 145.20 652.40 L 138.40 657.60 Z" fill="#000000" fill-rule="nonzero" node-id="215" stroke="none" target-height="78.5" target-width="111.2" target-x="111" target-y="592.6"></path></clipPath><clipPath id="XMLID_5_" node-id="99"><path d="M 135.80 669.00 L 118.90 687.10 L 132.40 725.20 L 166.60 725.20 L 167.10 724.80 L 167.50 723.60 L 167.60 722.00 L 167.10 717.80 L 166.40 715.60 L 165.20 713.70 L 163.70 712.10 L 160.90 711.00 L 155.70 710.90 L 153.10 710.50 L 151.10 709.80 L 149.30 708.60 L 147.90 707.20 L 146.80 705.50 L 145.60 702.60 L 145.00 699.30 L 144.90 695.60 L 145.20 692.90 L 145.80 690.00 L 147.20 686.80 L 149.90 682.50 L 151.90 680.40 L 135.80 669.00 Z" fill="#000000" fill-rule="nonzero" node-id="219" stroke="none" target-height="56.200012" target-width="48.700005" target-x="118.9" target-y="669"></path></clipPath><clipPath id="XMLID_6_" node-id="106"><path d="M 251.50 689.70 L 279.00 689.70 L 279.10 693.40 L 280.30 698.50 L 281.70 701.30 L 284.50 704.60 L 286.50 706.20 L 288.80 707.30 L 291.60 708.20 L 299.70 709.60 L 302.70 710.40 L 305.70 711.60 L 308.80 713.20 L 310.60 714.50 L 313.50 717.90 L 314.30 719.90 L 314.70 722.30 L 314.50 725.20 L 251.50 725.20 L 251.50 689.70 Z" fill="#000000" fill-rule="nonzero" node-id="223" stroke="none" target-height="35.5" target-width="63.200012" target-x="251.5" target-y="689.7"></path></clipPath><clipPath id="SVGID_4_" node-id="161"><path d="M 731.60 315.70 L 730.80 325.40 L 729.90 330.10 L 726.90 339.00 L 722.60 347.30 L 720.00 351.10 L 716.10 355.90 L 711.80 360.20 L 707.10 364.10 L 699.20 368.90 L 695.00 370.90 L 686.10 373.90 L 681.40 374.90 L 671.60 375.70 L 661.80 374.90 L 657.20 373.90 L 648.20 370.90 L 640.00 366.70 L 636.20 364.10 L 631.40 360.20 L 627.10 355.90 L 623.20 351.10 L 618.30 343.30 L 614.70 334.60 L 613.40 330.10 L 611.80 320.60 L 611.60 315.70 L 611.80 310.70 L 612.40 305.90 L 614.70 296.70 L 616.30 292.30 L 620.60 284.10 L 623.20 280.20 L 627.10 275.40 L 631.40 271.10 L 636.20 267.20 L 644.00 262.40 L 648.20 260.40 L 657.20 257.40 L 661.80 256.50 L 671.60 255.70 L 681.40 256.50 L 686.10 257.40 L 695.00 260.40 L 703.20 264.60 L 707.10 267.20 L 711.80 271.10 L 716.10 275.40 L 720.00 280.20 L 724.90 288.10 L 726.90 292.30 L 729.90 301.20 L 730.80 305.90 L 731.60 315.70 Z" fill="#000000" fill-rule="nonzero" node-id="227" stroke="none" target-height="120.000015" target-width="120" target-x="611.6" target-y="255.7"></path></clipPath></defs><g node-id="625"><g node-id="632"><path d="M 206.60 732.00 L 197.20 727.80 L 181.60 719.50 L 164.90 708.90 L 149.90 697.60 L 142.30 691.40 L 134.50 684.40 L 126.40 676.50 L 118.60 668.30 L 110.90 659.30 L 103.10 649.40 L 92.40 633.70 L 87.20 625.10 L 82.20 616.00 L 77.70 606.80 L 73.40 597.00 L 69.40 586.70 L 65.70 575.80 L 62.50 564.90 L 59.70 553.40 L 57.30 541.20 L 55.40 528.40 L 53.60 507.80 L 53.20 485.30 L 54.30 461.70 L 55.50 449.60 L 57.20 437.00 L 59.30 423.90 L 62.00 410.10 L 65.00 396.90 L 68.60 383.20 L 72.70 368.90 L 77.50 354.00 L 82.90 338.40 L 87.30 329.00 L 91.30 321.60 L 95.90 313.60 L 106.60 297.20 L 117.80 282.50 L 124.00 275.10 L 130.80 267.60 L 138.50 259.80 L 146.40 252.40 L 155.00 245.10 L 164.40 237.90 L 171.70 232.80 L 187.50 223.30 L 196.00 218.80 L 204.60 214.80 L 213.70 211.10 L 223.30 207.80 L 233.40 204.80 L 243.40 202.30 L 254.00 200.30 L 265.10 198.80 L 276.80 197.80 L 295.50 197.40 L 315.80 198.70 L 326.60 200.00 L 345.70 204.10 L 366.80 209.90 L 379.10 213.90 L 402.60 222.70 L 423.10 231.80 L 433.30 236.90 L 460.00 251.80 L 465.60 254.20 L 471.50 256.10 L 477.50 257.50 L 483.70 258.40 L 490.00 258.90 L 496.60 259.00 L 503.40 258.60 L 512.30 257.60 L 521.60 256.00 L 531.10 253.80 L 540.60 251.20 L 559.90 244.60 L 574.40 238.80 L 588.80 232.40 L 616.70 218.90 L 666.30 193.70 L 677.00 188.80 L 686.00 185.20 L 692.00 183.30 L 698.90 181.50 L 706.90 180.00 L 714.90 178.90 L 723.60 178.20 L 733.10 177.80 L 742.60 177.90 L 752.40 178.40 L 762.80 179.40 L 773.00 180.90 L 783.50 183.00 L 794.00 185.60 L 804.50 188.70 L 814.80 192.50 L 825.00 196.90 L 832.50 200.70 L 839.70 204.80 L 846.80 209.40 L 853.80 214.40 L 860.40 219.70 L 866.70 225.50 L 872.70 231.80 L 878.50 238.60 L 883.70 245.60 L 888.60 253.30 L 893.10 261.50 L 897.20 270.30 L 900.00 277.40 L 902.50 284.90 L 904.70 292.90 L 906.60 301.30 L 908.10 310.30 L 909.00 318.80 L 909.50 327.90 L 909.40 337.60 L 908.80 347.90 L 906.30 368.50 L 902.00 390.90 L 898.30 405.90 L 893.90 421.50 L 888.70 437.50 L 883.10 453.50 L 876.90 469.60 L 870.10 486.10 L 863.00 502.30 L 855.40 518.50 L 839.00 550.70 L 830.40 566.40 L 812.30 597.00 L 793.80 625.50 L 784.10 639.30 L 774.60 652.10 L 765.20 664.10 L 755.50 675.90 L 746.10 686.50 L 737.00 695.90 L 729.80 702.90 L 716.40 714.40 L 710.20 719.10 L 703.50 723.60 L 697.30 727.20 L 691.40 730.00 L 686.00 732.00 L 206.60 732.00 Z" fill="#624dcd" fill-rule="nonzero" group-id="1,8" node-id="237" stroke="none" target-height="554.2" target-width="856.3" target-x="53.2" target-y="177.8"></path></g><g node-id="633"><g clip-path="url(#XMLID_2_)" group-id="1,9" node-id="240"><path d="M 131.70 348.50 L 126.90 348.30 L 119.60 347.50 L 112.20 346.00 L 104.90 343.90 L 97.70 341.30 L 90.60 338.20 L 83.50 334.70 L 70.00 326.50 L 63.50 322.00 L 54.10 314.90 L 45.40 307.50 L 37.10 300.00 L 22.10 284.90 L 8.90 269.90 L -5.70 251.60 L -13.60 240.60 L -11.90 239.50 L -4.10 250.40 L 4.90 262.00 L 16.80 276.00 L 23.60 283.50 L 38.50 298.50 L 46.70 306.00 L 55.30 313.30 L 64.60 320.30 L 71.00 324.80 L 84.30 332.80 L 91.30 336.40 L 98.30 339.40 L 105.30 342.00 L 112.60 344.10 L 119.80 345.50 L 127.10 346.30 L 133.20 346.40 L 139.10 346.10 L 144.90 345.20 L 150.60 343.90 L 156.10 342.00 L 161.70 339.70 L 166.90 337.00 L 172.00 333.80 L 177.10 330.10 L 182.20 325.80 L 187.20 321.00 L 200.20 306.60 L 208.60 298.00 L 217.30 289.60 L 226.50 281.40 L 235.90 273.60 L 245.60 266.10 L 255.70 258.90 L 266.10 252.00 L 276.70 245.50 L 287.50 239.30 L 298.60 233.40 L 310.00 227.90 L 321.60 222.80 L 333.30 218.00 L 345.20 213.70 L 357.30 209.70 L 369.20 206.20 L 381.00 203.20 L 392.60 200.70 L 404.20 198.50 L 415.90 196.80 L 427.40 195.50 L 438.80 194.60 L 449.90 194.10 L 461.20 194.10 L 472.20 194.50 L 482.90 195.30 L 493.40 196.60 L 503.90 198.30 L 514.00 200.40 L 523.90 202.90 L 533.40 205.80 L 532.80 207.70 L 523.60 204.90 L 514.20 202.50 L 504.60 200.40 L 494.90 198.80 L 484.80 197.50 L 472.30 196.50 L 459.60 196.00 L 446.70 196.20 L 433.60 196.90 L 420.50 198.10 L 407.40 200.00 L 394.20 202.30 L 380.90 205.30 L 367.80 208.70 L 354.70 212.60 L 341.70 217.10 L 328.70 222.10 L 315.90 227.50 L 303.40 233.40 L 291.00 239.80 L 278.90 246.60 L 267.00 254.00 L 255.40 261.70 L 244.20 269.80 L 233.20 278.40 L 222.70 287.50 L 212.60 296.90 L 203.00 306.60 L 188.00 323.00 L 182.20 328.40 L 176.40 333.10 L 170.50 337.10 L 164.60 340.50 L 159.30 342.90 L 154.00 344.90 L 148.60 346.50 L 143.10 347.60 L 137.40 348.20 L 131.70 348.50 Z" fill="#ffffff" fill-rule="nonzero" group-id="1,9" node-id="242" stroke="none" target-height="154.4" target-width="547" target-x="-13.6" target-y="194.1"></path></g></g><g node-id="634"><g clip-path="url(#XMLID_2_)" group-id="1,10" node-id="245"><path d="M -143.65 537.85 L -145.25 536.55 L -138.35 528.85 L -132.35 522.85 L -125.45 516.55 L -116.25 508.85 L -102.15 498.15 L -84.65 486.75 L -74.85 480.95 L -63.95 475.15 L -52.85 469.65 L -40.65 464.35 L -27.35 459.05 L -13.25 454.15 L 1.25 449.75 L 16.05 445.95 L 31.35 442.65 L 46.95 439.85 L 62.45 437.75 L 78.35 436.15 L 94.55 435.15 L 111.15 434.65 L 128.15 434.85 L 145.45 435.55 L 163.15 436.85 L 181.25 438.85 L 199.75 441.45 L 218.65 444.75 L 237.95 448.65 L 256.65 453.05 L 275.65 458.05 L 295.05 463.65 L 314.75 469.95 L 334.95 476.95 L 372.05 490.75 L 387.35 495.95 L 401.35 500.15 L 414.25 503.45 L 426.15 506.05 L 437.05 507.95 L 447.05 509.15 L 456.15 509.75 L 464.75 509.85 L 472.55 509.35 L 479.65 508.45 L 486.15 507.15 L 492.05 505.35 L 497.45 503.15 L 502.25 500.65 L 506.75 497.75 L 510.75 494.55 L 514.35 490.85 L 517.25 487.25 L 519.95 483.25 L 522.25 479.05 L 524.25 474.55 L 525.95 469.75 L 527.65 463.65 L 528.85 457.15 L 529.65 450.25 L 530.05 442.85 L 529.65 427.85 L 527.85 411.45 L 525.95 400.35 L 523.45 388.85 L 520.45 376.95 L 513.35 353.05 L 502.55 322.65 L 495.35 304.45 L 480.05 269.25 L 464.55 236.55 L 450.15 207.75 L 427.35 163.35 L 425.25 157.85 L 425.35 157.35 L 426.05 156.65 L 426.65 158.55 L 427.25 157.85 L 428.95 162.15 L 433.45 171.15 L 452.05 206.95 L 466.45 235.85 L 482.05 268.75 L 489.75 286.15 L 497.35 304.15 L 504.55 322.45 L 511.25 340.75 L 515.45 353.15 L 522.55 377.15 L 525.45 389.15 L 527.95 400.75 L 530.95 420.35 L 531.95 436.15 L 531.95 443.55 L 531.55 451.05 L 530.65 458.05 L 529.45 464.65 L 527.75 470.85 L 525.95 475.65 L 523.95 480.25 L 521.55 484.55 L 518.85 488.45 L 515.85 492.25 L 511.95 496.15 L 507.55 499.55 L 502.75 502.65 L 497.55 505.35 L 491.65 507.55 L 485.25 509.35 L 478.15 510.75 L 470.35 511.55 L 461.65 511.85 L 453.35 511.55 L 444.25 510.85 L 434.35 509.55 L 423.55 507.55 L 411.95 504.95 L 399.25 501.65 L 385.55 497.45 L 370.75 492.45 L 336.25 479.55 L 318.35 473.25 L 301.05 467.65 L 284.45 462.55 L 268.45 458.15 L 251.75 453.95 L 220.35 447.15 L 191.25 442.35 L 172.95 440.15 L 155.55 438.45 L 139.05 437.45 L 123.35 436.95 L 107.35 436.95 L 92.15 437.45 L 77.85 438.35 L 64.45 439.75 L 50.65 441.45 L 37.85 443.55 L 14.45 448.45 L -0.65 452.45 L -14.35 456.65 L -26.75 460.95 L -39.85 466.15 L -51.95 471.45 L -62.95 476.85 L -73.85 482.65 L -83.55 488.35 L -100.85 499.75 L -114.85 510.25 L -124.05 517.95 L -136.75 530.15 L -143.65 537.85 Z" fill="#ffffff" fill-rule="nonzero" group-id="1,10" node-id="247" stroke="none" target-height="381.19998" target-width="677.2" target-x="-145.25" target-y="156.65"></path></g></g><g node-id="635"><g clip-path="url(#XMLID_2_)" group-id="1,11" node-id="250"><path d="M 961.00 732.50 L 959.70 731.30 L 954.00 727.50 L 946.70 723.30 L 935.10 717.30 L 916.50 708.90 L 892.00 699.30 L 877.90 694.50 L 861.80 689.40 L 844.60 684.60 L 824.50 679.60 L 795.70 673.60 L 763.20 668.40 L 745.80 666.20 L 727.20 664.40 L 708.70 663.10 L 689.10 662.20 L 668.40 661.80 L 637.10 662.30 L 603.50 664.40 L 580.70 666.50 L 560.90 668.70 L 526.00 673.70 L 497.40 679.00 L 452.40 688.30 L 443.20 689.70 L 435.30 690.50 L 430.20 690.60 L 421.00 689.70 L 416.60 688.60 L 412.30 687.00 L 407.90 685.00 L 403.70 682.50 L 394.30 675.40 L 387.10 668.90 L 378.60 660.20 L 369.80 650.60 L 320.90 593.30 L 314.80 586.40 L 308.40 580.30 L 301.90 574.70 L 295.20 569.80 L 288.20 565.40 L 281.00 561.60 L 273.60 558.40 L 265.90 555.60 L 257.90 553.50 L 249.70 551.80 L 241.10 550.80 L 232.30 550.30 L 224.10 550.30 L 215.90 550.90 L 207.60 551.80 L 199.10 553.20 L 188.00 555.70 L 176.80 558.80 L 165.50 562.50 L 154.40 566.70 L 143.30 571.40 L 132.30 576.60 L 121.40 582.10 L 100.30 594.00 L 84.90 603.60 L 70.40 613.30 L 56.40 623.20 L 43.50 632.80 L 27.50 645.50 L 12.90 657.60 L -13.00 680.50 L -33.00 699.60 L -50.70 717.50 L -52.20 716.20 L -34.40 698.10 L -14.40 679.10 L 11.60 656.10 L 26.20 643.90 L 42.30 631.30 L 54.50 622.10 L 78.10 605.60 L 101.10 591.10 L 123.40 578.70 L 134.10 573.40 L 145.20 568.30 L 155.90 563.90 L 166.30 560.00 L 176.20 556.80 L 185.80 554.10 L 195.90 551.80 L 205.60 550.10 L 214.80 548.90 L 223.70 548.30 L 232.30 548.30 L 241.30 548.80 L 250.00 549.90 L 258.40 551.50 L 266.50 553.70 L 274.30 556.50 L 281.90 559.80 L 289.20 563.70 L 296.30 568.10 L 303.10 573.10 L 309.70 578.80 L 316.20 585.00 L 322.50 592.00 L 371.00 648.90 L 379.70 658.40 L 388.10 667.00 L 395.20 673.50 L 404.40 680.40 L 408.60 682.90 L 412.90 685.00 L 417.20 686.50 L 421.50 687.60 L 430.60 688.50 L 435.60 688.40 L 443.30 687.70 L 452.40 686.20 L 497.10 677.00 L 525.70 671.80 L 560.70 666.70 L 580.50 664.50 L 603.30 662.40 L 637.00 660.30 L 668.40 659.80 L 689.10 660.20 L 708.80 661.10 L 727.40 662.40 L 746.00 664.20 L 763.40 666.40 L 796.00 671.60 L 824.90 677.60 L 845.10 682.60 L 862.40 687.50 L 891.60 697.10 L 903.80 701.60 L 926.20 710.90 L 946.90 721.00 L 954.70 725.50 L 961.90 730.50 L 962.70 731.50 L 961.00 732.50 Z" fill="#ffffff" fill-rule="nonzero" group-id="1,11" node-id="252" stroke="none" target-height="184.20001" target-width="1014.9" target-x="-52.2" target-y="548.3"></path></g></g><g node-id="636"><g clip-path="url(#XMLID_2_)" group-id="1,12" node-id="255"><path d="M 691.60 341.90 L 686.90 341.70 L 682.20 341.00 L 677.60 340.00 L 673.00 338.50 L 668.00 336.40 L 663.00 333.70 L 658.10 330.50 L 653.10 326.70 L 648.00 322.30 L 643.00 317.20 L 637.90 311.30 L 632.70 304.60 L 627.90 297.50 L 622.90 289.50 L 618.00 280.70 L 613.00 270.90 L 608.10 260.10 L 603.10 248.20 L 598.10 235.20 L 593.60 222.30 L 586.10 198.00 L 578.50 168.70 L 574.80 151.40 L 576.80 151.00 L 580.50 168.30 L 585.10 186.80 L 591.60 209.40 L 595.50 221.70 L 604.50 246.50 L 609.80 259.00 L 617.70 275.60 L 622.10 283.70 L 626.80 291.70 L 631.70 299.30 L 636.80 306.40 L 642.30 313.20 L 648.10 319.30 L 654.00 324.80 L 658.70 328.50 L 663.60 331.70 L 668.60 334.40 L 673.70 336.60 L 678.70 338.20 L 683.90 339.30 L 689.00 339.80 L 694.30 339.80 L 699.60 339.30 L 705.10 338.20 L 710.30 336.60 L 715.60 334.60 L 721.00 332.00 L 726.70 328.80 L 732.50 324.90 L 738.50 320.30 L 747.60 312.70 L 763.90 297.70 L 771.10 290.20 L 780.50 279.70 L 789.10 269.50 L 796.70 259.50 L 804.10 249.20 L 816.80 230.00 L 843.50 185.40 L 848.60 177.50 L 853.30 171.10 L 856.70 167.20 L 859.90 164.10 L 863.00 161.60 L 868.00 158.90 L 873.10 157.70 L 878.30 158.20 L 884.00 160.30 L 887.60 162.40 L 891.60 165.40 L 896.10 169.40 L 905.00 179.10 L 910.30 185.70 L 908.70 186.90 L 902.80 179.60 L 897.70 173.80 L 893.10 169.30 L 889.00 165.90 L 885.30 163.30 L 881.90 161.50 L 878.80 160.40 L 875.90 159.80 L 873.30 159.70 L 868.50 160.80 L 863.80 163.50 L 857.80 169.00 L 854.60 172.80 L 850.00 179.10 L 845.00 186.80 L 818.50 231.10 L 805.70 250.40 L 798.30 260.70 L 790.60 270.80 L 782.00 281.00 L 772.60 291.50 L 757.40 306.70 L 748.90 314.30 L 739.80 321.90 L 733.00 326.90 L 726.60 331.20 L 720.30 334.60 L 714.30 337.30 L 708.40 339.30 L 702.70 340.80 L 697.10 341.60 L 691.60 341.90 Z" fill="#ffffff" fill-rule="nonzero" group-id="1,12" node-id="257" stroke="none" target-height="190.9" target-width="335.5" target-x="574.8" target-y="151"></path></g></g><g clip-path="url(#XMLID_2_)" group-id="1,13" node-id="260"><path d="M 1092.40 742.20 L 1085.00 741.40 L 1080.00 740.20 L 1066.00 735.60 L 1056.90 732.00 L 1046.30 727.40 L 1030.30 719.70 L 1012.00 710.30 L 993.10 699.90 L 972.70 688.00 L 952.00 675.40 L 930.50 661.50 L 908.70 646.90 L 887.80 632.30 L 867.70 617.50 L 847.90 602.30 L 829.20 587.30 L 811.60 572.50 L 786.30 549.80 L 764.10 528.10 L 753.40 516.80 L 743.70 506.00 L 734.90 495.70 L 726.90 485.70 L 722.00 478.90 L 717.80 472.40 L 714.50 466.30 L 711.80 460.50 L 709.70 455.00 L 708.30 449.80 L 707.20 444.10 L 706.90 438.80 L 707.10 433.60 L 707.90 428.60 L 709.30 423.80 L 711.40 419.10 L 713.70 414.90 L 716.60 410.80 L 720.10 406.70 L 724.20 402.80 L 728.90 398.80 L 734.40 394.90 L 740.70 391.10 L 747.80 387.30 L 755.90 383.60 L 765.10 380.00 L 775.40 376.50 L 786.80 373.20 L 799.60 370.00 L 813.90 367.00 L 829.60 364.20 L 847.00 361.60 L 880.00 358.00 L 909.90 355.90 L 934.30 354.90 L 957.00 354.70 L 956.90 356.70 L 934.30 356.90 L 910.00 357.90 L 880.20 360.00 L 847.20 363.60 L 817.90 368.30 L 805.00 370.90 L 782.50 376.60 L 771.10 380.20 L 761.00 383.90 L 752.10 387.70 L 744.30 391.60 L 737.40 395.60 L 731.50 399.50 L 726.40 403.60 L 722.10 407.60 L 718.50 411.70 L 715.50 415.80 L 713.20 420.00 L 711.20 424.50 L 709.90 429.10 L 709.10 433.90 L 708.90 438.90 L 709.30 444.10 L 710.30 449.60 L 711.70 454.70 L 713.70 460.00 L 716.30 465.60 L 719.60 471.60 L 723.70 477.80 L 728.50 484.50 L 738.50 496.90 L 749.30 509.50 L 761.20 522.30 L 773.40 534.70 L 786.20 547.10 L 799.80 559.60 L 813.60 571.70 L 842.40 595.60 L 872.10 618.40 L 902.20 640.10 L 932.00 660.20 L 954.10 674.40 L 975.20 687.20 L 995.90 699.20 L 1014.80 709.50 L 1033.10 718.90 L 1048.90 726.30 L 1068.20 734.30 L 1081.60 738.60 L 1090.20 740.10 L 1093.10 740.20 L 1095.70 739.90 L 1097.30 739.20 L 1098.20 738.30 L 1099.90 739.40 L 1098.90 740.50 L 1097.60 741.30 L 1095.70 741.90 L 1092.40 742.20 Z" fill="#ffffff" fill-rule="nonzero" group-id="1,13" node-id="262" stroke="none" target-height="387.5" target-width="393" target-x="706.9" target-y="354.7"></path></g></g><path d="M 711.80 649.40 L 752.60 633.20 L 809.00 612.30 L 840.00 601.70 L 870.30 592.10 L 897.90 584.70 L 910.50 581.90 L 920.90 580.20 L 927.70 579.50 L 933.10 579.30 L 937.30 579.60 L 940.50 580.30 L 942.70 581.30 L 944.30 582.50 L 945.20 584.00 L 946.40 587.40 L 947.00 590.80 L 947.20 594.20 L 947.00 597.70 L 946.30 601.20 L 944.90 605.40 L 942.90 609.70 L 940.20 614.10 L 936.80 618.60 L 933.10 622.80 L 924.10 631.20 L 918.60 635.40 L 911.10 640.60 L 902.90 645.70 L 893.80 650.60 L 884.40 655.10 L 874.50 659.40 L 864.10 663.40 L 880.60 659.00 L 893.10 656.60 L 899.70 655.80 L 906.30 655.40 L 912.40 655.60 L 916.50 656.00 L 923.20 657.90 L 925.40 659.00 L 928.90 661.90 L 930.30 663.70 L 931.20 665.70 L 931.80 668.00 L 932.10 670.70 L 931.90 674.00 L 931.30 677.00 L 928.60 684.80 L 926.30 689.70 L 921.30 697.40 L 915.00 704.30 L 910.30 708.40 L 905.30 712.20 L 899.90 715.60 L 894.40 718.70 L 883.40 723.80 L 875.20 726.90 L 860.90 731.00 L 855.80 732.00 L 583.70 732.00 L 666.30 660.00 L 711.80 649.40 Z" fill="#eaeaff" fill-rule="nonzero" node-id="266" stroke="none" target-height="152.70001" target-width="363.5" target-x="583.7" target-y="579.3"></path><g node-id="626"><path d="M 285.80 453.10 L 290.80 450.40 L 294.40 447.80 L 298.00 444.60 L 302.20 440.10 L 304.80 436.70 L 310.00 428.00 L 312.20 423.20 L 314.20 417.50 L 315.90 411.00 L 317.10 404.40 L 317.80 396.90 L 318.00 388.30 L 317.10 375.10 L 316.00 367.60 L 312.60 351.40 L 310.20 342.70 L 303.50 323.10 L 299.60 313.40 L 289.50 291.50 L 283.10 279.20 L 276.60 283.80 L 271.80 287.80 L 266.80 292.40 L 261.30 298.40 L 257.70 302.80 L 250.80 313.40 L 247.80 319.20 L 245.20 325.70 L 242.90 332.70 L 241.60 338.10 L 240.70 343.70 L 240.10 349.80 L 240.00 356.30 L 240.30 362.60 L 241.10 369.40 L 242.50 376.60 L 244.50 384.20 L 247.00 391.50 L 250.10 399.30 L 254.10 407.60 L 259.00 416.50 L 264.10 424.80 L 270.30 433.70 L 277.50 443.10 L 285.80 453.10 Z" fill="#95ae3a" fill-rule="nonzero" group-id="2" node-id="269" stroke="none" target-height="173.9" target-width="78" target-x="240" target-y="279.2"></path><path d="M 278.40 417.30 L 277.90 416.90 L 276.10 410.60 L 273.30 397.20 L 272.10 387.00 L 271.40 376.70 L 271.30 366.40 L 271.50 356.70 L 273.00 338.60 L 274.90 323.90 L 276.60 314.00 L 277.40 310.20 L 278.00 309.80 L 278.40 310.40 L 275.90 324.10 L 273.90 338.70 L 272.50 356.70 L 272.30 366.40 L 272.40 376.60 L 273.00 386.80 L 274.30 397.00 L 275.50 403.80 L 278.90 416.60 L 278.40 417.30 Z" fill="#232323" fill-rule="nonzero" group-id="2" node-id="271" stroke="none" target-height="107.5" target-width="7.600006" target-x="271.3" target-y="309.8"></path><path d="M 278.20 346.20 L 272.70 345.60 L 272.30 345.00 L 272.50 344.70 L 280.40 345.10 L 286.60 343.80 L 291.40 341.70 L 294.50 339.70 L 298.50 336.10 L 299.10 336.60 L 299.00 336.90 L 297.50 338.40 L 293.50 341.60 L 290.60 343.20 L 284.40 345.50 L 278.20 346.20 Z" fill="#232323" fill-rule="nonzero" group-id="2" node-id="273" stroke="none" target-height="10.100006" target-width="26.800018" target-x="272.3" target-y="336.1"></path><path d="M 271.90 359.90 L 267.40 357.50 L 264.60 355.60 L 261.80 353.30 L 257.40 348.40 L 254.90 343.60 L 254.30 341.00 L 254.10 338.10 L 254.70 334.60 L 255.10 334.60 L 255.40 335.20 L 255.10 338.20 L 255.30 340.90 L 255.90 343.40 L 258.30 348.00 L 262.50 352.70 L 265.20 354.80 L 272.10 358.90 L 272.30 359.60 L 271.90 359.90 Z" fill="#232323" fill-rule="nonzero" group-id="2" node-id="275" stroke="none" target-height="25.299988" target-width="18.199982" target-x="254.1" target-y="334.6"></path><path d="M 271.90 378.40 L 271.40 377.90 L 271.90 377.40 L 280.20 376.40 L 283.90 375.60 L 293.00 372.50 L 300.90 368.20 L 307.40 363.20 L 307.90 363.70 L 307.80 364.00 L 301.50 369.00 L 293.40 373.40 L 284.20 376.50 L 280.30 377.40 L 271.90 378.40 Z" fill="#232323" fill-rule="nonzero" group-id="2" node-id="277" stroke="none" target-height="15.199982" target-width="36.5" target-x="271.4" target-y="363.2"></path><path d="M 306.90 472.80 L 305.20 458.30 L 302.70 446.50 L 298.70 432.90 L 292.70 418.40 L 289.00 411.10 L 284.70 403.70 L 279.60 396.10 L 271.00 385.30 L 260.40 374.40 L 254.60 369.40 L 248.30 364.50 L 241.40 359.70 L 233.80 354.90 L 226.10 350.70 L 217.70 346.70 L 208.60 342.80 L 198.70 339.20 L 188.80 336.20 L 178.10 333.40 L 166.50 331.00 L 153.90 328.90 L 153.70 333.60 L 154.00 346.30 L 154.60 354.70 L 156.80 371.90 L 160.00 387.40 L 162.10 395.30 L 164.70 403.30 L 167.80 411.60 L 171.30 419.60 L 175.40 427.50 L 180.10 435.30 L 184.10 440.90 L 188.40 446.30 L 193.10 451.60 L 198.20 456.60 L 203.60 461.20 L 209.50 465.50 L 216.00 469.50 L 223.00 473.20 L 234.70 478.10 L 241.20 480.10 L 255.50 483.20 L 262.70 484.20 L 270.40 484.80 L 278.60 485.10 L 287.40 484.90 L 298.80 484.00 L 302.20 482.40 L 304.80 479.90 L 306.40 476.60 L 306.90 472.80 Z" fill="#adcd55" fill-rule="nonzero" group-id="2" node-id="279" stroke="none" target-height="156.20001" target-width="153.2" target-x="153.7" target-y="328.9"></path><path d="M 295.60 471.90 L 206.10 380.90 L 173.30 348.30 L 163.80 339.30 L 163.60 339.00 L 164.10 338.40 L 173.90 347.50 L 188.60 362.00 L 226.70 400.40 L 296.00 471.00 L 296.10 471.40 L 295.60 471.90 Z" fill="#607035" fill-rule="nonzero" group-id="2" node-id="281" stroke="none" target-height="133.5" target-width="132.5" target-x="163.6" target-y="338.4"></path><path d="M 217.20 392.00 L 216.70 391.40 L 216.80 388.50 L 216.50 384.60 L 214.70 376.10 L 212.10 367.10 L 206.10 350.70 L 206.40 350.10 L 207.10 350.30 L 211.50 362.20 L 216.20 378.00 L 217.70 386.50 L 217.70 391.60 L 217.20 392.00 Z" fill="#607035" fill-rule="nonzero" group-id="2" node-id="283" stroke="none" target-height="41.899994" target-width="11.599991" target-x="206.1" target-y="350.1"></path><path d="M 210.60 403.50 L 206.10 403.20 L 200.60 402.50 L 194.80 401.20 L 187.90 399.00 L 178.20 394.90 L 172.50 392.10 L 172.20 391.80 L 172.60 391.10 L 186.40 397.40 L 191.90 399.20 L 202.30 401.70 L 206.40 402.20 L 214.00 402.20 L 220.60 401.10 L 225.40 399.20 L 225.80 399.80 L 225.60 400.10 L 221.80 401.80 L 215.30 403.20 L 210.60 403.50 Z" fill="#607035" fill-rule="nonzero" group-id="2" node-id="285" stroke="none" target-height="12.399994" target-width="53.600006" target-x="172.2" target-y="391.1"></path><path d="M 247.60 422.80 L 247.10 422.50 L 247.10 422.10 L 248.90 417.60 L 250.90 410.20 L 251.60 405.50 L 251.90 400.50 L 251.60 395.00 L 251.10 391.30 L 248.90 383.40 L 249.10 382.70 L 249.80 383.00 L 252.10 391.10 L 252.60 394.90 L 252.90 400.50 L 252.60 405.60 L 250.90 414.40 L 249.00 420.30 L 248.00 422.50 L 247.60 422.80 Z" fill="#607035" fill-rule="nonzero" group-id="2" node-id="287" stroke="none" target-height="40.099976" target-width="5.799988" target-x="247.1" target-y="382.7"></path><path d="M 237.90 442.00 L 232.00 441.80 L 225.50 441.10 L 218.90 439.80 L 211.90 437.80 L 202.40 434.00 L 197.40 431.50 L 197.20 431.20 L 197.50 430.60 L 204.60 434.00 L 211.10 436.50 L 217.20 438.40 L 223.50 439.70 L 229.40 440.50 L 234.80 440.90 L 245.00 440.70 L 254.90 439.20 L 262.80 437.20 L 263.10 437.50 L 262.80 438.10 L 256.10 440.00 L 245.10 441.70 L 237.90 442.00 Z" fill="#607035" fill-rule="nonzero" group-id="2" node-id="289" stroke="none" target-height="11.399994" target-width="65.90001" target-x="197.2" target-y="430.6"></path></g><g node-id="627"><path d="M 680.00 450.30 L 678.90 449.80 L 678.50 448.80 L 678.70 448.20 L 683.20 439.60 L 692.00 426.00 L 698.50 417.50 L 708.70 405.90 L 715.00 399.50 L 725.40 390.30 L 737.90 380.80 L 744.90 376.10 L 752.60 371.30 L 760.50 366.90 L 769.10 362.70 L 778.50 358.60 L 788.10 355.00 L 798.40 351.60 L 809.50 348.60 L 817.90 346.80 L 836.00 343.80 L 846.40 342.80 L 847.30 343.50 L 847.40 344.10 L 847.10 345.20 L 846.10 345.70 L 836.40 346.80 L 818.50 349.70 L 810.30 351.50 L 799.30 354.50 L 789.20 357.80 L 779.80 361.30 L 770.50 365.40 L 762.00 369.50 L 746.60 378.50 L 739.70 383.10 L 727.40 392.50 L 717.20 401.60 L 711.00 407.80 L 700.90 419.30 L 694.60 427.60 L 685.90 440.90 L 681.40 449.40 L 680.80 450.10 L 680.00 450.30 Z" fill="#5a6c1c" fill-rule="nonzero" group-id="3" node-id="294" stroke="none" target-height="107.5" target-width="168.90002" target-x="678.5" target-y="342.8"></path><path d="M 732.60 355.70 L 729.50 359.30 L 727.50 362.30 L 725.70 365.70 L 724.10 369.90 L 723.40 372.90 L 723.10 379.80 L 723.50 383.40 L 724.60 387.20 L 726.30 391.50 L 731.10 386.10 L 733.00 383.40 L 734.90 380.10 L 736.40 376.60 L 737.40 372.70 L 737.60 367.20 L 737.20 364.40 L 736.30 361.60 L 734.80 358.70 L 732.60 355.70 Z" fill="#adcd55" fill-rule="nonzero" group-id="3" node-id="296" stroke="none" target-height="35.799988" target-width="14.5" target-x="723.1" target-y="355.7"></path><path d="M 760.70 409.00 L 756.00 411.60 L 752.50 413.20 L 748.70 414.60 L 741.20 416.00 L 734.80 415.70 L 731.70 414.90 L 728.60 413.50 L 725.50 411.50 L 723.50 409.70 L 719.60 404.60 L 717.70 401.20 L 721.40 399.10 L 724.40 397.90 L 727.60 396.90 L 734.40 395.80 L 740.60 396.30 L 743.70 397.00 L 747.00 398.30 L 750.50 400.10 L 753.70 402.30 L 757.10 405.20 L 760.70 409.00 Z" fill="#adcd55" fill-rule="nonzero" group-id="3" node-id="298" stroke="none" target-height="20.200012" target-width="43" target-x="717.7" target-y="395.8"></path><path d="M 756.50 345.80 L 753.00 350.80 L 751.90 353.30 L 750.50 358.60 L 750.60 363.80 L 751.10 366.40 L 753.50 372.50 L 756.50 370.70 L 759.40 367.70 L 761.20 364.00 L 761.60 362.00 L 761.70 359.50 L 761.30 356.40 L 760.40 353.50 L 758.90 350.00 L 756.50 345.80 Z" fill="#adcd55" fill-rule="nonzero" group-id="3" node-id="300" stroke="none" target-height="26.700012" target-width="11.200012" target-x="750.5" target-y="345.8"></path><path d="M 799.30 391.50 L 792.30 394.70 L 784.80 396.60 L 780.50 397.10 L 775.80 397.00 L 772.70 396.60 L 766.20 394.50 L 763.20 392.80 L 760.10 390.60 L 757.00 387.70 L 754.20 384.40 L 751.50 380.30 L 748.80 375.30 L 751.60 374.40 L 759.00 373.00 L 763.70 372.50 L 769.10 372.50 L 776.50 373.40 L 780.30 374.40 L 784.00 375.80 L 787.50 377.70 L 791.00 380.20 L 795.40 384.90 L 799.30 391.50 Z" fill="#adcd55" fill-rule="nonzero" group-id="3" node-id="302" stroke="none" target-height="24.600006" target-width="50.5" target-x="748.8" target-y="372.5"></path><path d="M 784.90 332.90 L 782.90 335.00 L 781.60 336.80 L 780.50 338.90 L 779.00 343.90 L 778.80 349.30 L 779.10 352.10 L 781.00 359.20 L 784.10 356.50 L 786.00 354.40 L 787.60 351.90 L 788.90 348.80 L 789.50 346.70 L 789.60 344.30 L 789.30 341.60 L 788.60 339.00 L 787.20 336.10 L 784.90 332.90 Z" fill="#adcd55" fill-rule="nonzero" group-id="3" node-id="304" stroke="none" target-height="26.300018" target-width="10.799988" target-x="778.8" target-y="332.9"></path><path d="M 823.60 367.50 L 818.80 368.90 L 815.20 369.60 L 811.30 369.80 L 806.60 369.50 L 803.50 368.90 L 800.20 367.80 L 796.70 366.30 L 793.50 364.30 L 790.20 361.60 L 786.80 358.10 L 791.10 356.00 L 796.80 354.70 L 802.60 354.70 L 805.70 355.20 L 809.00 356.30 L 812.60 358.10 L 816.00 360.20 L 819.60 363.30 L 823.60 367.50 Z" fill="#adcd55" fill-rule="nonzero" group-id="3" node-id="306" stroke="none" target-height="15.099976" target-width="36.799988" target-x="786.8" target-y="354.7"></path><path d="M 816.80 327.20 L 813.10 332.40 L 810.40 337.80 L 809.50 340.80 L 809.10 343.90 L 809.50 348.00 L 810.20 350.00 L 812.60 348.50 L 815.60 345.30 L 817.60 341.00 L 818.30 336.30 L 818.20 333.80 L 816.80 327.20 Z" fill="#adcd55" fill-rule="nonzero" group-id="3" node-id="308" stroke="none" target-height="22.799988" target-width="9.200012" target-x="809.1" target-y="327.2"></path><path d="M 834.90 344.20 L 837.20 341.20 L 842.00 337.10 L 848.40 333.60 L 855.50 331.30 L 863.80 330.10 L 869.00 330.00 L 875.50 331.30 L 881.40 333.30 L 884.30 334.80 L 887.10 336.70 L 888.70 338.20 L 891.10 341.70 L 887.50 339.80 L 885.80 339.30 L 882.40 339.30 L 879.20 340.40 L 875.20 343.20 L 868.90 346.40 L 862.30 348.40 L 858.70 348.90 L 854.60 349.10 L 850.00 348.70 L 845.50 347.90 L 840.50 346.50 L 834.90 344.20 Z" fill="#adcd55" fill-rule="nonzero" group-id="3" node-id="310" stroke="none" target-height="19.100006" target-width="56.19995" target-x="834.9" target-y="330"></path></g><path d="M 695.60 605.80 L 257.60 605.80 L 255.20 605.60 L 253.00 605.00 L 250.90 604.00 L 247.50 601.10 L 246.20 599.20 L 245.20 597.20 L 244.60 595.00 L 244.40 592.60 L 244.40 350.90 L 244.60 348.40 L 245.20 346.20 L 247.50 342.30 L 250.90 339.40 L 253.00 338.40 L 255.20 337.80 L 257.60 337.60 L 695.60 337.60 L 698.00 337.80 L 700.20 338.40 L 702.30 339.40 L 705.70 342.30 L 707.10 344.20 L 708.10 346.20 L 708.70 348.40 L 708.90 350.90 L 708.90 592.50 L 708.70 595.00 L 708.10 597.20 L 707.10 599.20 L 704.20 602.70 L 700.20 605.00 L 698.00 605.60 L 695.60 605.80 Z" fill="#ffffff" fill-rule="nonzero" id="XMLID_102_" node-id="37" stroke="none" target-height="268.19998" target-width="464.50003" target-x="244.4" target-y="337.6"></path><path d="M 705.60 619.20 L 267.60 619.20 L 265.20 619.00 L 263.00 618.40 L 260.90 617.40 L 259.10 616.00 L 256.20 612.60 L 255.20 610.50 L 254.60 608.30 L 254.40 605.90 L 254.40 364.20 L 254.60 361.80 L 255.20 359.60 L 257.50 355.70 L 260.90 352.80 L 263.00 351.80 L 265.20 351.20 L 267.60 351.00 L 705.60 351.00 L 708.00 351.20 L 710.20 351.80 L 712.30 352.80 L 715.70 355.70 L 717.10 357.50 L 718.00 359.60 L 718.60 361.80 L 718.90 364.20 L 718.90 605.90 L 718.60 608.30 L 718.00 610.50 L 715.70 614.50 L 712.30 617.40 L 710.20 618.40 L 708.00 619.00 L 705.60 619.20 Z" fill="none" id="XMLID_10_" node-id="38" stroke="#232323" stroke-linecap="butt" stroke-width="2" target-height="268.2" target-width="464.50003" target-x="254.4" target-y="351"></path><path d="M 439.80 438.30 L 685.30 438.30 L 685.30 477.40 L 439.80 477.40 Z" fill="#f1f1f1" fill-rule="nonzero" node-id="315" stroke="none" target-height="39.100006" target-width="245.5" target-x="439.8" target-y="438.3"></path><path d="M 439.80 498.10 L 685.30 498.10 L 685.30 537.10 L 439.80 537.10 Z" fill="#f1f1f1" fill-rule="nonzero" node-id="317" stroke="none" target-height="38.99997" target-width="245.5" target-x="439.8" target-y="498.1"></path><path d="M 671.60 512.20 L 676.60 512.20 L 681.00 511.50 L 685.80 510.30 L 692.30 508.00 L 701.90 503.50 L 707.80 500.20 L 720.00 492.00 L 727.20 486.40 L 734.20 480.50 L 741.90 473.40 L 750.40 465.00 L 758.50 456.20 L 767.30 446.00 L 777.00 434.20 L 961.90 481.90 L 957.60 491.70 L 953.60 499.60 L 948.80 508.20 L 942.00 518.90 L 937.00 526.10 L 924.20 542.70 L 917.00 551.10 L 908.70 559.80 L 899.40 569.10 L 884.30 582.40 L 866.60 596.20 L 857.30 602.80 L 847.30 609.30 L 836.50 615.80 L 825.00 622.20 L 813.40 628.20 L 801.00 634.00 L 787.80 639.70 L 773.70 645.20 L 759.60 650.20 L 744.70 654.90 L 728.70 659.30 L 711.80 663.40 L 671.60 512.20 Z" fill="#ffd840" fill-rule="nonzero" node-id="319" stroke="none" target-height="229.20001" target-width="290.30005" target-x="671.6" target-y="434.2"></path><path d="M 519.30 584.00 L 527.60 582.40 L 541.50 578.60 L 550.60 575.40 L 563.50 570.00 L 578.10 562.70 L 585.70 558.20 L 593.70 553.10 L 601.40 547.60 L 609.30 541.30 L 617.40 534.30 L 629.00 522.90 L 634.80 516.40 L 646.00 502.20 L 651.40 494.50 L 656.60 486.30 L 661.80 477.40 L 840.60 542.90 L 840.60 548.10 L 839.80 552.70 L 837.60 559.80 L 833.30 569.20 L 826.10 580.70 L 821.70 586.70 L 816.00 593.40 L 809.10 600.90 L 801.80 608.10 L 793.00 616.10 L 782.50 624.90 L 771.60 633.30 L 758.90 642.50 L 744.10 652.40 L 729.10 661.90 L 711.80 672.10 L 692.00 683.10 L 672.00 693.70 L 649.30 704.90 L 623.90 716.90 L 519.30 584.00 Z" fill="#ff6666" fill-rule="nonzero" node-id="321" stroke="none" target-height="239.50003" target-width="321.3" target-x="519.3" target-y="477.4"></path><path d="M 293.40 732.00 L 307.00 726.70 L 318.10 721.60 L 335.10 712.90 L 345.80 706.80 L 356.30 700.40 L 368.00 692.80 L 381.00 683.80 L 393.60 674.50 L 407.00 663.80 L 421.50 651.50 L 431.90 642.20 L 442.60 631.90 L 453.80 620.80 L 465.20 608.60 L 476.20 596.50 L 487.30 583.30 L 498.60 569.20 L 510.20 553.90 L 700.40 634.00 L 693.50 647.60 L 689.70 654.00 L 679.50 669.80 L 673.10 678.40 L 663.60 689.90 L 658.20 695.70 L 652.60 701.20 L 646.60 706.50 L 640.30 711.60 L 633.70 716.30 L 626.70 720.50 L 619.50 724.30 L 613.80 726.80 L 608.00 728.90 L 602.00 730.60 L 595.80 732.00 L 293.40 732.00 Z" fill="#5a78ec" fill-rule="nonzero" node-id="323" stroke="none" target-height="178.09998" target-width="407.00003" target-x="293.4" target-y="553.9"></path><path d="M 932.00 738.80 L 57.70 738.80 L 55.90 738.60 L 54.30 737.90 L 52.90 736.80 L 51.80 735.50 L 51.10 733.80 L 50.90 732.00 L 51.10 730.20 L 51.80 728.60 L 52.90 727.20 L 54.30 726.10 L 55.90 725.40 L 57.70 725.20 L 932.00 725.20 L 933.80 725.40 L 935.40 726.10 L 936.80 727.20 L 937.80 728.60 L 938.50 730.20 L 938.80 732.00 L 938.50 733.80 L 937.80 735.50 L 936.80 736.80 L 935.40 737.90 L 933.80 738.60 L 932.00 738.80 Z" fill="#26205c" fill-rule="nonzero" node-id="325" stroke="none" target-height="13.599976" target-width="887.89996" target-x="50.9" target-y="725.2"></path><path d="M 321.70 387.00 L 320.90 391.40 L 318.70 395.10 L 315.50 397.90 L 313.50 398.80 L 309.10 399.60 L 304.70 398.80 L 302.70 397.90 L 299.50 395.10 L 297.30 391.40 L 296.50 387.00 L 297.30 382.60 L 299.50 378.90 L 302.70 376.20 L 304.70 375.20 L 309.10 374.40 L 313.50 375.20 L 315.50 376.20 L 318.70 378.90 L 320.90 382.60 L 321.70 387.00 Z" fill="#5a78ec" fill-rule="nonzero" node-id="327" stroke="none" target-height="25.200012" target-width="25.200012" target-x="296.5" target-y="374.4"></path><path d="M 363.50 387.00 L 362.70 391.40 L 360.50 395.10 L 357.30 397.90 L 355.30 398.80 L 350.90 399.60 L 346.50 398.80 L 342.80 396.60 L 340.00 393.40 L 338.50 389.30 L 338.30 387.00 L 338.50 384.70 L 339.10 382.60 L 341.30 378.90 L 344.60 376.20 L 346.50 375.20 L 350.90 374.40 L 355.30 375.20 L 359.00 377.40 L 361.80 380.70 L 362.70 382.60 L 363.50 387.00 Z" fill="#5a78ec" fill-rule="nonzero" node-id="329" stroke="none" target-height="25.200012" target-width="25.200012" target-x="338.3" target-y="374.4"></path><path d="M 321.70 436.90 L 320.90 441.30 L 320.00 443.20 L 317.20 446.50 L 313.50 448.70 L 309.10 449.40 L 304.70 448.70 L 302.70 447.70 L 299.50 445.00 L 297.30 441.30 L 296.50 436.90 L 297.30 432.40 L 299.50 428.70 L 302.70 426.00 L 304.70 425.00 L 309.10 424.30 L 313.50 425.00 L 317.20 427.20 L 320.00 430.50 L 320.90 432.40 L 321.70 436.90 Z" fill="#5a78ec" fill-rule="nonzero" node-id="331" stroke="none" target-height="25.100006" target-width="25.200012" target-x="296.5" target-y="424.3"></path><path d="M 363.50 436.90 L 362.70 441.30 L 360.50 445.00 L 357.30 447.70 L 355.30 448.70 L 350.90 449.40 L 346.50 448.70 L 342.80 446.50 L 340.00 443.20 L 338.50 439.20 L 338.30 436.90 L 338.50 434.60 L 339.10 432.40 L 341.30 428.70 L 344.60 426.00 L 346.50 425.00 L 350.90 424.30 L 355.30 425.00 L 359.00 427.20 L 361.80 430.50 L 362.70 432.40 L 363.50 436.90 Z" fill="#5a78ec" fill-rule="nonzero" node-id="333" stroke="none" target-height="25.100006" target-width="25.200012" target-x="338.3" target-y="424.3"></path><path d="M 405.30 387.00 L 404.50 391.40 L 402.30 395.10 L 399.10 397.90 L 397.10 398.80 L 392.70 399.60 L 388.30 398.80 L 384.60 396.60 L 381.80 393.40 L 380.30 389.30 L 380.10 387.00 L 380.30 384.70 L 380.90 382.60 L 383.10 378.90 L 386.40 376.20 L 388.30 375.20 L 392.70 374.40 L 397.10 375.20 L 399.10 376.20 L 402.30 378.90 L 404.50 382.60 L 405.30 387.00 Z" fill="#5a78ec" fill-rule="nonzero" node-id="335" stroke="none" target-height="25.200012" target-width="25.199982" target-x="380.1" target-y="374.4"></path><path d="M 405.30 436.90 L 404.50 441.30 L 403.60 443.20 L 400.80 446.50 L 397.10 448.70 L 392.70 449.40 L 388.30 448.70 L 384.60 446.50 L 381.80 443.20 L 380.30 439.20 L 380.10 436.90 L 380.30 434.60 L 380.90 432.40 L 383.10 428.70 L 386.40 426.00 L 388.30 425.00 L 392.70 424.30 L 397.10 425.00 L 400.80 427.20 L 403.60 430.50 L 404.50 432.40 L 405.30 436.90 Z" fill="#5a78ec" fill-rule="nonzero" node-id="337" stroke="none" target-height="25.100006" target-width="25.199982" target-x="380.1" target-y="424.3"></path><path d="M 385.90 465.90 L 352.50 499.30 L 351.00 501.80 L 351.10 504.40 L 352.40 506.70 L 354.70 508.10 L 366.50 508.50 L 368.90 509.90 L 370.20 512.20 L 370.40 577.30 L 371.10 579.90 L 373.00 581.80 L 375.70 582.60 L 403.50 582.60 L 406.20 581.80 L 408.10 579.90 L 408.80 577.30 L 409.00 512.20 L 410.40 509.90 L 412.70 508.50 L 423.00 508.30 L 425.80 507.60 L 427.60 505.60 L 428.30 503.10 L 428.20 501.80 L 426.70 499.30 L 393.40 465.90 L 392.20 465.00 L 389.60 464.30 L 387.00 465.00 L 385.90 465.90 Z" fill="#ff6666" fill-rule="nonzero" node-id="339" stroke="none" target-height="118.29999" target-width="77.29999" target-x="351" target-y="464.3"></path><g node-id="628"><path d="M 124.40 511.80 L 124.20 514.40 L 122.90 519.20 L 120.40 523.60 L 118.70 525.50 L 116.80 527.20 L 112.50 529.70 L 107.60 531.00 L 105.10 531.20 L 102.50 531.00 L 97.70 529.70 L 93.30 527.20 L 91.40 525.50 L 88.30 521.50 L 86.40 516.90 L 85.90 514.40 L 85.70 511.80 L 86.40 506.80 L 88.30 502.20 L 91.40 498.20 L 93.30 496.50 L 97.70 494.00 L 102.50 492.70 L 105.10 492.50 L 107.60 492.70 L 112.50 494.00 L 116.80 496.50 L 118.70 498.20 L 120.40 500.10 L 122.90 504.50 L 124.20 509.30 L 124.40 511.80 Z" fill="#ffb7b7" fill-rule="nonzero" group-id="4" node-id="343" stroke="none" target-height="38.700012" target-width="38.700005" target-x="85.7" target-y="492.5"></path><path d="M 37.00 602.80 L 35.80 601.50 L 34.40 600.60 L 32.80 600.10 L 31.20 600.00 L 29.60 600.30 L 28.00 601.10 L 23.80 603.90 L 18.30 602.80 L 17.20 603.00 L 16.50 604.00 L 16.70 605.10 L 17.70 605.80 L 20.30 606.30 L 15.10 609.80 L 13.80 611.00 L 12.90 612.40 L 12.40 614.00 L 12.30 615.60 L 12.60 617.30 L 13.40 618.90 L 14.60 620.20 L 16.00 621.10 L 17.60 621.60 L 19.20 621.70 L 20.80 621.40 L 22.40 620.60 L 35.30 611.90 L 36.60 610.70 L 37.50 609.30 L 38.00 607.70 L 38.10 606.10 L 37.80 604.40 L 37.00 602.80 Z" fill="#ffb7b7" fill-rule="nonzero" group-id="4" node-id="345" stroke="none" target-height="21.700012" target-width="25.8" target-x="12.3" target-y="600"></path><g node-id="638"><g node-id="655"><path d="M 162.60 505.40 L 169.20 503.80 L 175.40 503.10 L 182.60 502.90 L 192.70 503.20 L 208.30 504.90 L 228.40 508.70 L 239.90 511.60 L 253.20 515.40 L 266.40 519.60 L 281.30 524.80 L 310.70 536.20 L 330.90 543.10 L 348.30 547.60 L 354.90 548.80 L 361.60 549.60 L 367.10 549.90 L 371.60 549.80 L 376.10 549.20 L 379.60 548.30 L 382.40 547.10 L 385.10 545.60 L 387.20 543.90 L 388.90 542.00 L 390.90 538.90 L 392.40 535.70 L 395.20 526.60 L 397.00 522.60 L 397.60 518.20 L 396.70 512.00 L 395.50 508.30 L 393.70 504.20 L 391.50 500.30 L 388.80 496.40 L 385.50 492.50 L 381.90 489.00 L 377.80 485.90 L 373.20 483.00 L 369.60 481.30 L 365.80 479.80 L 361.70 478.70 L 351.60 477.10 L 347.30 475.90 L 344.30 474.70 L 340.60 472.00 L 338.80 469.20 L 338.30 467.20 L 338.40 464.90 L 338.90 462.60 L 340.50 459.10 L 342.70 455.50 L 349.30 446.90 L 349.90 445.00 L 349.90 442.90 L 349.30 440.90 L 348.20 438.90 L 346.40 436.90 L 344.20 435.20 L 341.50 433.70 L 338.10 432.30 L 334.60 431.50 L 330.50 431.00 L 325.70 431.00 L 321.00 431.50 L 315.70 432.60 L 309.80 434.50 L 304.00 436.80 L 297.80 440.10 L 290.80 444.40 L 242.90 463.80 L 203.00 481.00 L 185.00 489.50 L 170.50 497.00 L 164.70 500.50 L 161.10 503.10 L 162.60 505.40 Z" fill="#4ed0d7" fill-rule="nonzero" group-id="4,14,31" node-id="351" stroke="none" target-height="118.900024" target-width="236.5" target-x="161.1" target-y="431"></path></g><g clip-path="url(#XMLID_3_)" group-id="4,14,32" node-id="354"><path d="M 304.30 520.00 L 298.00 519.70 L 291.50 518.70 L 285.20 517.20 L 279.10 515.20 L 273.40 512.70 L 268.50 509.90 L 265.40 507.80 L 263.00 505.70 L 258.10 500.30 L 254.80 497.60 L 251.20 495.50 L 247.30 493.80 L 243.30 492.50 L 239.20 491.60 L 231.00 491.10 L 223.50 492.10 L 220.30 493.10 L 212.30 496.80 L 208.40 498.30 L 205.80 498.90 L 203.50 499.00 L 201.40 498.60 L 199.50 497.80 L 194.20 493.40 L 192.70 493.00 L 190.50 493.20 L 187.10 494.00 L 178.40 497.60 L 165.00 505.10 L 158.30 509.60 L 157.40 508.30 L 171.60 499.50 L 180.10 495.10 L 184.20 493.40 L 188.30 492.20 L 191.50 491.70 L 193.60 491.70 L 195.10 492.20 L 198.20 495.10 L 201.60 497.20 L 203.40 497.50 L 205.40 497.50 L 207.80 497.00 L 211.50 495.50 L 219.70 491.70 L 223.10 490.70 L 230.90 489.70 L 239.40 490.20 L 243.70 491.10 L 247.90 492.40 L 251.90 494.20 L 255.70 496.50 L 259.10 499.30 L 264.10 504.70 L 266.50 506.80 L 269.50 508.90 L 274.40 511.60 L 280.10 514.00 L 286.10 516.00 L 292.50 517.40 L 298.90 518.30 L 305.00 518.60 L 309.00 518.40 L 316.40 517.00 L 322.00 514.70 L 324.70 513.10 L 327.10 511.00 L 333.90 502.70 L 338.40 497.90 L 342.70 494.10 L 346.90 491.20 L 351.00 489.00 L 355.00 487.50 L 359.00 486.60 L 363.00 486.30 L 366.70 486.50 L 370.30 487.30 L 373.90 488.60 L 377.70 490.40 L 381.50 492.90 L 385.50 496.00 L 389.50 499.90 L 393.80 504.60 L 398.20 510.40 L 397.00 511.20 L 392.20 505.00 L 387.60 500.00 L 383.10 495.90 L 378.90 492.90 L 374.80 490.60 L 370.80 489.00 L 366.90 488.10 L 363.10 487.70 L 359.20 488.00 L 355.40 488.90 L 351.50 490.40 L 347.60 492.50 L 343.50 495.30 L 339.30 499.00 L 335.00 503.70 L 328.10 512.00 L 325.60 514.20 L 322.80 515.90 L 319.90 517.30 L 313.80 519.10 L 309.20 519.80 L 304.30 520.00 Z" fill="#ffffff" fill-rule="nonzero" group-id="4,14,32" node-id="356" stroke="none" target-height="33.700012" target-width="240.80002" target-x="157.4" target-y="486.3"></path></g></g><g node-id="639"><g node-id="657"><path d="M 160.40 501.10 L 161.00 501.30 L 162.40 500.50 L 164.80 497.70 L 166.60 495.00 L 173.20 480.80 L 176.70 474.30 L 181.10 466.70 L 186.10 459.00 L 191.80 451.10 L 200.40 441.10 L 205.10 436.40 L 210.10 432.10 L 215.40 428.30 L 221.90 424.30 L 225.10 421.40 L 229.80 415.40 L 237.90 401.60 L 241.00 397.20 L 248.50 388.30 L 252.90 384.10 L 257.50 380.30 L 260.80 378.10 L 267.30 374.90 L 270.70 374.00 L 273.90 373.60 L 277.00 373.80 L 279.30 374.40 L 281.40 375.30 L 283.60 376.70 L 287.60 380.80 L 291.10 386.90 L 292.70 391.20 L 296.40 402.60 L 298.70 411.30 L 300.40 421.60 L 300.40 429.20 L 299.90 432.30 L 299.10 434.90 L 298.00 437.30 L 294.90 441.20 L 292.00 443.60 L 288.60 445.90 L 240.40 466.30 L 201.40 483.60 L 177.10 495.30 L 166.80 501.30 L 164.40 503.10 L 160.40 501.10 Z" fill="#11b7ca" fill-rule="nonzero" group-id="4,15,33" node-id="364" stroke="none" target-height="129.5" target-width="140" target-x="160.4" target-y="373.6"></path></g><g clip-path="url(#XMLID_4_)" group-id="4,15,34" node-id="367"><path d="M 147.20 516.90 L 146.70 516.30 L 149.40 513.60 L 167.20 497.30 L 180.30 486.50 L 194.70 475.90 L 202.20 471.10 L 214.50 464.40 L 219.30 462.40 L 231.40 458.40 L 241.30 454.50 L 247.00 451.20 L 249.30 449.30 L 251.10 447.30 L 252.40 445.10 L 253.40 442.70 L 254.00 440.00 L 253.90 433.90 L 252.60 426.50 L 247.80 411.10 L 247.10 405.50 L 247.50 399.30 L 249.20 392.80 L 252.50 386.40 L 254.60 383.60 L 259.60 378.90 L 265.30 375.80 L 268.50 374.60 L 272.20 373.80 L 276.60 373.20 L 276.70 374.00 L 272.40 374.50 L 268.70 375.30 L 265.60 376.40 L 260.10 379.50 L 255.10 384.10 L 253.10 386.80 L 249.90 393.00 L 248.30 399.40 L 247.90 402.50 L 248.10 408.40 L 248.50 411.00 L 253.30 426.50 L 254.20 430.50 L 254.90 437.10 L 254.70 440.20 L 254.10 443.00 L 253.10 445.40 L 251.70 447.70 L 249.90 449.80 L 244.90 453.40 L 237.90 456.80 L 219.50 463.10 L 214.80 465.10 L 202.50 471.70 L 195.00 476.60 L 187.70 481.80 L 173.80 492.70 L 157.10 507.40 L 147.20 516.90 Z" fill="#ffffff" fill-rule="nonzero" group-id="4,15,34" node-id="369" stroke="none" target-height="143.70001" target-width="130.00002" target-x="146.7" target-y="373.2"></path></g></g><path d="M 143.40 515.70 L 143.80 517.10 L 145.10 518.50 L 147.30 518.70 L 149.30 518.00 L 152.40 516.30 L 167.90 502.10 L 164.70 498.50 L 148.40 506.60 L 146.80 507.60 L 144.40 510.40 L 143.40 513.80 L 143.40 515.70 Z" fill="#11b7ca" fill-rule="nonzero" group-id="4" node-id="373" stroke="none" target-height="20.200012" target-width="24.5" target-x="143.4" target-y="498.5"></path><path d="M 178.00 519.70 L 176.40 520.50 L 174.70 520.90 L 173.00 520.90 L 171.30 520.40 L 169.80 519.50 L 168.60 518.10 L 160.50 507.00 L 159.70 505.40 L 159.30 503.70 L 159.30 502.00 L 159.80 500.30 L 160.70 498.80 L 162.10 497.60 L 163.70 496.70 L 165.40 496.30 L 167.10 496.40 L 168.80 496.90 L 170.30 497.80 L 171.50 499.10 L 179.50 510.20 L 180.40 511.80 L 180.80 513.50 L 180.70 515.30 L 180.20 516.90 L 179.30 518.40 L 178.00 519.70 Z" fill="#ffb7b7" fill-rule="nonzero" group-id="4" node-id="375" stroke="none" target-height="24.600037" target-width="21.5" target-x="159.3" target-y="496.3"></path><g node-id="640"><g node-id="659"><path d="M 196.10 531.40 L 181.70 509.70 L 180.20 508.70 L 178.40 509.00 L 166.20 517.10 L 165.20 518.60 L 165.50 520.40 L 171.70 529.80 L 135.40 534.60 L 131.10 535.70 L 126.80 534.00 L 125.20 533.60 L 123.60 533.70 L 122.00 534.10 L 106.00 541.20 L 104.60 542.00 L 102.70 544.40 L 101.80 548.80 L 27.30 598.30 L 26.20 599.80 L 26.60 601.70 L 34.80 614.00 L 35.50 614.70 L 37.30 615.10 L 100.20 573.60 L 111.70 607.50 L 172.40 584.00 L 152.30 552.20 L 173.50 549.80 L 185.10 547.60 L 191.50 545.90 L 193.40 544.90 L 195.90 542.50 L 196.70 541.10 L 197.50 538.70 L 197.70 536.30 L 197.50 534.60 L 196.10 531.40 Z" fill="#a9d4ca" fill-rule="nonzero" group-id="4,16,35" node-id="381" stroke="none" target-height="106.39996" target-width="171.5" target-x="26.2" target-y="508.7"></path></g><g node-id="660"><g clip-path="url(#SVGID_1_)" group-id="4,16,36" node-id="384"><path d="M 30.70 615.60 L 101.80 569.50 L 114.60 611.40 L 107.10 614.00 Z" fill="#94beb3" fill-rule="nonzero" group-id="4,16,36" node-id="386" stroke="none" target-height="46.099976" target-width="83.899994" target-x="30.7" target-y="569.5"></path></g></g><g clip-path="url(#SVGID_1_)" group-id="4,16,37" node-id="389"><path d="M 162.30 555.90 L 155.70 550.10 L 146.40 542.90 L 140.70 539.50 L 138.80 538.90 L 150.90 550.50 L 156.40 556.40 L 160.40 561.40 L 162.30 555.90 Z" fill="#94beb3" fill-rule="nonzero" group-id="4,16,37" node-id="391" stroke="none" target-height="22.5" target-width="23.5" target-x="138.8" target-y="538.9"></path></g></g><path d="M 146.70 659.20 L 134.00 671.70 L 143.30 688.00 L 168.60 660.30 L 149.00 656.70 Z" fill="#ffb7b7" fill-rule="nonzero" group-id="4" node-id="395" stroke="none" target-height="31.299988" target-width="34.600006" target-x="134" target-y="656.7"></path><path d="M 249.30 676.90 L 254.40 689.70 L 275.30 689.70 L 264.70 663.40 Z" fill="#ffb7b7" fill-rule="nonzero" group-id="4" node-id="397" stroke="none" target-height="26.299988" target-width="25.999985" target-x="249.3" target-y="663.4"></path><g node-id="641"><g node-id="662"><path d="M 279.00 661.50 L 277.60 656.10 L 275.70 651.90 L 272.10 645.80 L 266.20 638.60 L 262.40 634.80 L 257.60 630.80 L 252.50 627.10 L 246.40 623.40 L 239.00 619.50 L 227.10 614.50 L 212.00 609.70 L 172.40 584.00 L 145.00 594.60 L 172.40 642.60 L 184.60 644.50 L 202.50 648.40 L 214.20 652.10 L 218.90 654.30 L 226.50 659.00 L 233.90 665.50 L 237.30 669.40 L 240.20 673.30 L 244.10 679.70 L 246.00 683.90 L 279.00 661.50 Z" fill="#7e9a84" fill-rule="nonzero" group-id="4,17,38" node-id="403" stroke="none" target-height="99.900024" target-width="134" target-x="145" target-y="584"></path></g><g clip-path="url(#SVGID_2_)" group-id="4,17,39" node-id="406"><path d="M 195.60 639.00 L 205.20 639.30 L 215.20 640.90 L 220.80 642.60 L 226.90 644.90 L 235.00 649.30 L 239.20 652.20 L 243.10 655.40 L 246.90 659.10 L 250.70 663.50 L 254.00 668.30 L 257.10 673.70 L 260.10 680.00 L 242.50 697.10 L 188.80 651.20 L 195.60 639.00 Z" fill="#65816c" fill-rule="nonzero" group-id="4,17,39" node-id="408" stroke="none" target-height="58.099976" target-width="71.3" target-x="188.8" target-y="639"></path></g></g><g node-id="642"><g node-id="664"><path d="M 138.40 657.60 L 182.70 671.10 L 194.80 659.00 L 203.40 649.00 L 211.90 637.50 L 215.60 631.50 L 219.50 623.40 L 220.80 619.50 L 221.80 615.50 L 222.20 611.80 L 222.10 608.30 L 221.60 605.70 L 220.80 603.20 L 219.50 600.90 L 217.90 598.60 L 216.10 597.60 L 209.60 595.40 L 204.50 594.40 L 196.70 593.30 L 187.90 592.80 L 175.80 592.60 L 167.20 592.90 L 145.00 594.60 L 111.70 607.50 L 111.00 615.10 L 111.20 618.60 L 112.50 625.10 L 114.90 630.40 L 116.50 632.90 L 118.60 635.20 L 121.20 637.40 L 125.50 639.70 L 128.90 641.10 L 132.60 642.20 L 136.90 643.00 L 143.10 643.00 L 151.20 641.90 L 153.10 642.50 L 153.40 643.10 L 153.20 644.00 L 152.40 645.50 L 150.50 647.70 L 145.20 652.40 L 138.40 657.60 Z" fill="#8ea594" fill-rule="nonzero" group-id="4,18,40" node-id="416" stroke="none" target-height="78.5" target-width="111.2" target-x="111" target-y="592.6"></path></g><g clip-path="url(#SVGID_3_)" group-id="4,18,41" node-id="419"><path d="M 164.40 624.10 L 163.00 630.40 L 162.00 633.20 L 158.80 639.60 L 154.50 644.80 L 149.90 648.20 L 148.90 648.60 L 145.10 648.30 L 137.50 646.10 L 129.00 642.60 L 121.40 639.10 L 116.10 636.20 L 121.90 638.20 L 126.40 639.20 L 130.60 639.70 L 134.80 639.70 L 138.70 639.30 L 142.20 638.60 L 148.80 636.20 L 155.50 632.30 L 161.20 627.60 L 164.40 624.10 Z" fill="#65816c" fill-rule="nonzero" group-id="4,18,41" node-id="421" stroke="none" target-height="24.5" target-width="48.299995" target-x="116.1" target-y="624.1"></path></g></g><g node-id="643"><g node-id="666"><path d="M 135.80 669.00 L 118.90 687.10 L 132.40 725.20 L 166.60 725.20 L 167.10 724.80 L 167.50 723.60 L 167.60 722.00 L 167.10 717.80 L 166.40 715.60 L 165.20 713.70 L 163.70 712.10 L 160.90 711.00 L 155.70 710.90 L 153.10 710.50 L 151.10 709.80 L 149.30 708.60 L 147.90 707.20 L 146.80 705.50 L 145.60 702.60 L 145.00 699.30 L 144.90 695.60 L 145.20 692.90 L 145.80 690.00 L 147.20 686.80 L 149.90 682.50 L 151.90 680.40 L 135.80 669.00 Z" fill="#26205c" fill-rule="nonzero" group-id="4,19,42" node-id="429" stroke="none" target-height="56.200012" target-width="48.700005" target-x="118.9" target-y="669"></path></g><g clip-path="url(#XMLID_5_)" group-id="4,19,43" node-id="432"><path d="M 110.10 659.60 L 133.60 723.00 L 174.00 723.00 L 173.90 721.00 L 135.10 721.00 L 112.20 658.50 Z" fill="#ffffff" fill-rule="nonzero" group-id="4,19,43" node-id="434" stroke="none" target-height="64.5" target-width="63.9" target-x="110.1" target-y="658.5"></path></g></g><g node-id="644"><g node-id="668"><path d="M 251.50 689.70 L 279.00 689.70 L 279.10 693.40 L 280.30 698.50 L 281.70 701.30 L 284.50 704.60 L 286.50 706.20 L 288.80 707.30 L 291.60 708.20 L 299.70 709.60 L 302.70 710.40 L 305.70 711.60 L 308.80 713.20 L 310.60 714.50 L 313.50 717.90 L 314.30 719.90 L 314.70 722.30 L 314.50 725.20 L 251.50 725.20 L 251.50 689.70 Z" fill="#26205c" fill-rule="nonzero" group-id="4,20,44" node-id="442" stroke="none" target-height="35.5" target-width="63.200012" target-x="251.5" target-y="689.7"></path></g><g clip-path="url(#XMLID_6_)" group-id="4,20,45" node-id="445"><path d="M 234.00 720.20 L 331.70 720.20 L 331.70 722.10 L 234.00 722.10 Z" fill="#ffffff" fill-rule="nonzero" group-id="4,20,45" node-id="447" stroke="none" target-height="1.8999634" target-width="97.70001" target-x="234" target-y="720.2"></path></g></g><path d="M 122.50 503.50 L 120.60 501.00 L 118.90 499.70 L 116.80 498.60 L 114.00 497.90 L 112.00 497.80 L 106.80 498.90 L 104.20 500.80 L 101.40 503.70 L 100.20 506.70 L 100.60 509.20 L 96.50 509.20 L 94.90 509.40 L 93.60 510.00 L 92.50 510.80 L 92.00 512.10 L 91.90 513.10 L 93.10 516.10 L 89.60 523.40 L 87.30 521.90 L 84.70 518.70 L 83.60 516.20 L 82.90 512.40 L 83.40 507.30 L 84.30 504.40 L 85.70 500.90 L 87.40 498.20 L 89.20 496.00 L 91.40 494.20 L 96.50 491.80 L 99.30 491.10 L 102.20 490.80 L 107.90 491.00 L 110.60 491.60 L 115.60 493.40 L 117.80 494.70 L 120.90 497.70 L 122.00 499.50 L 122.50 501.40 L 122.50 503.50 Z" fill="#26205c" fill-rule="nonzero" group-id="4" node-id="451" stroke="none" target-height="32.600037" target-width="39.6" target-x="82.9" target-y="490.8"></path><path d="M 83.40 500.90 L 83.10 502.90 L 82.30 504.80 L 81.10 506.30 L 79.60 507.60 L 77.70 508.30 L 75.60 508.60 L 73.60 508.30 L 71.70 507.60 L 70.20 506.30 L 69.00 504.80 L 68.20 502.90 L 67.90 500.90 L 68.20 498.80 L 69.00 497.00 L 70.20 495.40 L 71.70 494.20 L 73.60 493.40 L 75.60 493.10 L 77.70 493.40 L 79.60 494.20 L 81.10 495.40 L 82.30 497.00 L 83.10 498.80 L 83.40 500.90 Z" fill="#26205c" fill-rule="nonzero" group-id="4" node-id="453" stroke="none" target-height="15.5" target-width="15.5" target-x="67.9" target-y="493.1"></path><path d="M 73.60 498.10 L 73.30 500.90 L 72.60 503.40 L 71.50 505.80 L 70.00 507.90 L 68.20 509.80 L 66.00 511.30 L 63.70 512.40 L 61.10 513.10 L 58.40 513.30 L 55.60 513.10 L 53.00 512.40 L 50.70 511.30 L 48.50 509.80 L 46.70 507.90 L 45.20 505.80 L 44.10 503.40 L 43.40 500.90 L 43.10 498.10 L 43.40 495.30 L 44.10 492.80 L 45.20 490.40 L 46.70 488.30 L 48.50 486.50 L 50.70 485.00 L 53.00 483.90 L 55.60 483.20 L 58.40 482.90 L 61.10 483.20 L 63.70 483.90 L 66.00 485.00 L 68.20 486.50 L 70.00 488.30 L 71.50 490.40 L 72.60 492.80 L 73.30 495.30 L 73.60 498.10 Z" fill="#26205c" fill-rule="nonzero" group-id="4" node-id="455" stroke="none" target-height="30.399994" target-width="30.5" target-x="43.1" target-y="482.9"></path><path d="M 158.90 656.00 L 158.00 655.50 L 157.90 654.70 L 158.40 654.10 L 162.80 651.60 L 172.30 644.30 L 177.10 640.10 L 186.10 631.10 L 193.70 622.40 L 196.70 618.40 L 199.80 613.20 L 200.30 610.90 L 198.20 610.00 L 195.00 609.60 L 190.10 609.40 L 175.30 609.70 L 145.90 611.80 L 124.50 613.90 L 123.80 613.70 L 123.40 613.10 L 123.50 612.40 L 127.30 610.50 L 131.90 607.00 L 134.70 603.70 L 136.50 600.70 L 137.30 600.60 L 137.80 601.10 L 137.90 601.90 L 136.10 605.10 L 132.60 609.20 L 129.80 611.30 L 162.30 608.50 L 181.50 607.50 L 188.50 607.40 L 197.10 607.90 L 201.00 609.00 L 202.10 610.10 L 202.20 611.70 L 201.70 613.40 L 198.50 619.30 L 195.30 623.60 L 187.30 632.70 L 177.90 642.00 L 173.00 646.30 L 163.50 653.50 L 158.90 656.00 Z" fill="#ffffff" fill-rule="nonzero" group-id="4" node-id="457" stroke="none" target-height="55.400024" target-width="78.799995" target-x="123.4" target-y="600.6"></path><path d="M 105.10 549.50 L 104.20 548.90 L 104.10 548.10 L 104.60 547.60 L 128.30 536.30 L 129.10 536.30 L 129.70 536.80 L 129.70 537.60 L 129.20 538.10 L 105.10 549.50 Z" fill="#26205c" fill-rule="nonzero" group-id="4" node-id="459" stroke="none" target-height="13.200012" target-width="25.599998" target-x="104.1" target-y="536.3"></path><path d="M 386.90 436.60 L 324.30 436.60 L 323.40 436.90 L 322.10 438.10 L 313.90 448.30 L 313.20 448.80 L 313.00 408.00 L 313.20 406.70 L 314.50 404.50 L 316.70 403.20 L 318.10 403.00 L 386.90 403.00 L 389.40 403.70 L 391.20 405.50 L 391.90 408.00 L 391.90 431.60 L 391.70 432.90 L 390.40 435.10 L 388.20 436.40 L 386.90 436.60 Z" fill="#017380" fill-rule="nonzero" group-id="4" node-id="461" stroke="none" target-height="45.799988" target-width="78.899994" target-x="313" target-y="403"></path><path d="M 339.50 429.10 L 338.70 428.80 L 338.00 427.80 L 334.00 415.70 L 332.80 413.50 L 332.00 412.70 L 331.10 412.40 L 330.10 412.80 L 328.90 413.90 L 326.90 417.20 L 324.10 424.20 L 323.90 424.50 L 323.20 424.20 L 324.00 421.40 L 326.90 415.10 L 328.10 413.30 L 330.10 411.70 L 332.00 411.60 L 333.00 412.20 L 333.90 413.30 L 335.00 415.30 L 338.70 426.80 L 339.50 428.10 L 340.60 427.30 L 345.30 420.30 L 347.60 417.60 L 350.10 415.30 L 353.90 413.00 L 356.50 412.80 L 358.40 413.80 L 359.20 414.90 L 360.40 419.30 L 361.20 420.80 L 362.80 422.10 L 363.90 422.10 L 364.90 421.60 L 369.20 417.30 L 370.90 416.20 L 372.80 415.70 L 374.60 415.80 L 376.50 416.60 L 378.50 418.10 L 378.60 418.80 L 378.20 419.00 L 376.00 417.40 L 374.40 416.80 L 372.90 416.60 L 371.20 417.10 L 369.80 418.10 L 366.30 421.90 L 363.80 423.10 L 362.60 423.10 L 361.50 422.60 L 360.50 421.50 L 359.60 419.80 L 358.20 415.30 L 357.40 414.20 L 356.30 413.80 L 354.10 414.00 L 350.50 416.30 L 348.20 418.50 L 346.00 421.10 L 341.20 428.10 L 340.20 428.90 L 339.50 429.10 Z" fill="#ffffff" fill-rule="nonzero" group-id="4" node-id="463" stroke="none" target-height="17.5" target-width="55.399994" target-x="323.2" target-y="411.6"></path></g><g node-id="629"><path d="M 588.90 542.00 L 476.20 542.00 L 474.30 541.80 L 472.60 541.10 L 471.20 540.00 L 470.10 538.50 L 469.40 536.90 L 469.10 535.00 L 469.10 469.40 L 469.40 467.50 L 470.10 465.80 L 471.20 464.40 L 472.60 463.30 L 474.30 462.60 L 476.20 462.30 L 588.90 462.30 L 590.80 462.60 L 592.40 463.30 L 593.90 464.40 L 595.00 465.80 L 595.70 467.50 L 596.00 469.40 L 596.00 535.00 L 595.70 536.90 L 595.00 538.50 L 593.90 540.00 L 592.40 541.10 L 590.80 541.80 L 588.90 542.00 Z" fill="#5a78ec" fill-rule="nonzero" group-id="5" node-id="468" stroke="none" target-height="79.70001" target-width="126.899994" target-x="469.1" target-y="462.3"></path><path d="M 483.30 474.80 L 534.80 474.80 L 534.80 481.60 L 483.30 481.60 Z" fill="#ffffff" fill-rule="nonzero" group-id="5" node-id="470" stroke="none" target-height="6.8000183" target-width="51.5" target-x="483.3" target-y="474.8"></path><path d="M 483.30 492.60 L 551.50 492.60 L 551.50 499.40 L 483.30 499.40 Z" fill="#ffd840" fill-rule="nonzero" group-id="5" node-id="472" stroke="none" target-height="6.799988" target-width="68.20001" target-x="483.3" target-y="492.6"></path><path d="M 483.30 509.70 L 509.00 509.70 L 509.00 528.60 L 483.30 528.60 Z" fill="#ffffff" fill-rule="nonzero" group-id="5" node-id="474" stroke="none" target-height="18.899963" target-width="25.700012" target-x="483.3" target-y="509.7"></path><path d="M 517.40 509.70 L 542.00 509.70 L 542.00 528.60 L 517.40 528.60 Z" fill="#ff6666" fill-rule="nonzero" group-id="5" node-id="476" stroke="none" target-height="18.899963" target-width="24.599976" target-x="517.4" target-y="509.7"></path><path d="M 483.50 465.40 L 483.00 464.60 L 532.50 434.20 L 580.90 464.60 L 580.40 465.40 L 532.50 435.40 Z" fill="#5a78ec" fill-rule="nonzero" group-id="5" node-id="478" stroke="none" target-height="31.199982" target-width="97.900024" target-x="483" target-y="434.2"></path></g><path d="M 561.30 417.30 L 502.30 417.30 L 491.40 401.70 L 431.70 401.70 L 431.70 400.70 L 491.90 400.70 L 502.90 416.30 L 561.30 416.30 Z" fill="#5a78ec" fill-rule="nonzero" node-id="481" stroke="none" target-height="16.599976" target-width="129.59998" target-x="431.7" target-y="400.7"></path><path d="M 431.70 382.70 L 464.70 382.70 L 464.70 383.70 L 431.70 383.70 Z" fill="#5a78ec" fill-rule="nonzero" node-id="483" stroke="none" target-height="1" target-width="33" target-x="431.7" target-y="382.7"></path><path d="M 431.70 391.00 L 464.70 391.00 L 464.70 392.00 L 431.70 392.00 Z" fill="#5a78ec" fill-rule="nonzero" node-id="485" stroke="none" target-height="1" target-width="33" target-x="431.7" target-y="391"></path><g node-id="630"><g node-id="645"><path d="M 545.80 363.20 L 448.70 363.20 L 443.30 364.00 L 438.10 365.70 L 435.30 367.10 L 432.50 369.10 L 430.30 371.10 L 427.00 375.90 L 423.70 383.70 L 423.70 289.40 L 423.90 287.40 L 424.70 285.70 L 425.80 284.30 L 427.30 283.10 L 429.00 282.40 L 430.90 282.10 L 545.80 282.10 L 547.70 282.40 L 549.40 283.10 L 550.90 284.30 L 552.00 285.70 L 552.70 287.40 L 553.00 289.40 L 553.00 356.00 L 552.70 357.90 L 552.00 359.60 L 550.90 361.10 L 549.40 362.20 L 547.70 363.00 L 545.80 363.20 Z" fill="#5a78eb" fill-opacity="0.64" fill-rule="nonzero" group-id="6,21" node-id="490" stroke="none" target-height="101.600006" target-width="129.29999" target-x="423.7" target-y="282.1"></path></g><path d="M 543.10 360.30 L 446.00 360.30 L 440.60 361.00 L 435.40 362.80 L 432.60 364.20 L 429.80 366.20 L 427.60 368.20 L 424.30 373.00 L 421.00 380.80 L 421.00 286.50 L 421.30 284.50 L 422.00 282.80 L 423.10 281.30 L 424.60 280.20 L 426.30 279.50 L 428.20 279.20 L 543.10 279.20 L 545.00 279.50 L 546.70 280.20 L 548.20 281.30 L 549.30 282.80 L 550.00 284.50 L 550.30 286.50 L 550.30 353.10 L 550.00 355.00 L 549.30 356.70 L 548.20 358.20 L 546.70 359.30 L 545.00 360.00 L 543.10 360.30 Z" fill="#ffffff" fill-rule="nonzero" group-id="6" node-id="493" stroke="none" target-height="101.599976" target-width="129.29999" target-x="421" target-y="279.2"></path><path d="M 454.60 303.00 L 453.90 306.90 L 451.90 310.30 L 449.00 312.70 L 447.20 313.60 L 443.30 314.30 L 439.30 313.60 L 436.00 311.60 L 433.50 308.70 L 432.10 305.00 L 432.10 300.90 L 432.70 299.00 L 434.60 295.70 L 437.60 293.20 L 439.30 292.40 L 443.30 291.60 L 447.20 292.40 L 449.00 293.20 L 451.90 295.70 L 453.90 299.00 L 454.60 303.00 Z" fill="#5a78eb" fill-rule="nonzero" group-id="6" node-id="495" stroke="none" target-height="22.699982" target-width="22.5" target-x="432.1" target-y="291.6"></path><path d="M 519.20 303.00 L 521.00 306.60 L 524.90 307.10 L 522.10 309.90 L 522.70 313.90 L 519.20 312.00 L 515.70 313.90 L 516.30 309.90 L 513.50 307.10 L 517.40 306.60 Z" fill="#fdd740" fill-rule="nonzero" group-id="6" node-id="497" stroke="#232323" stroke-linecap="butt" stroke-width="0.5" target-height="10.899994" target-width="11.400024" target-x="513.5" target-y="303"></path><path d="M 502.90 303.00 L 504.70 306.60 L 508.60 307.10 L 505.80 309.90 L 506.40 313.90 L 502.90 312.00 L 499.40 313.90 L 500.00 309.90 L 497.20 307.10 L 501.10 306.60 Z" fill="#fdd740" fill-rule="nonzero" group-id="6" node-id="499" stroke="#232323" stroke-linecap="butt" stroke-width="0.5" target-height="10.899994" target-width="11.399994" target-x="497.2" target-y="303"></path><path d="M 486.60 303.00 L 488.40 306.60 L 492.30 307.10 L 489.50 309.90 L 490.20 313.90 L 486.60 312.00 L 483.10 313.90 L 483.70 309.90 L 480.90 307.10 L 484.80 306.60 Z" fill="#fdd740" fill-rule="nonzero" group-id="6" node-id="501" stroke="#232323" stroke-linecap="butt" stroke-width="0.5" target-height="10.899994" target-width="11.399994" target-x="480.9" target-y="303"></path><path d="M 470.30 303.00 L 472.10 306.60 L 476.10 307.10 L 473.20 309.90 L 473.90 313.90 L 470.30 312.00 L 466.80 313.90 L 467.50 309.90 L 464.60 307.10 L 468.60 306.60 Z" fill="#fdd740" fill-rule="nonzero" group-id="6" node-id="503" stroke="#232323" stroke-linecap="butt" stroke-width="0.5" target-height="10.899994" target-width="11.5" target-x="464.6" target-y="303"></path><path d="M 535.50 303.00 L 537.30 306.60 L 541.20 307.10 L 538.40 309.90 L 539.00 313.90 L 535.50 312.00 L 531.90 313.90 L 532.60 309.90 L 529.80 307.10 L 533.70 306.60 Z" fill="#fdd740" fill-rule="nonzero" group-id="6" node-id="505" stroke="#232323" stroke-linecap="butt" stroke-width="0.5" target-height="10.899994" target-width="11.400024" target-x="529.8" target-y="303"></path><g node-id="646"><path d="M 437.50 326.60 L 439.90 322.70 L 441.50 322.70 L 439.70 326.60 L 442.10 326.60 L 442.10 331.00 L 437.50 331.00 L 437.50 326.60 Z M 443.20 326.60 L 445.50 322.70 L 447.10 322.70 L 445.30 326.60 L 447.70 326.60 L 447.70 331.00 L 443.20 331.00 L 443.20 326.60 Z" fill="#000000" fill-rule="nonzero" group-id="6,22" node-id="509" stroke="none" target-height="8.299988" target-width="10.200012" target-x="437.5" target-y="322.7"></path></g><g node-id="647"><path d="M 535.40 346.00 L 533.10 350.00 L 531.40 350.00 L 533.30 346.00 L 530.80 346.00 L 530.80 341.70 L 535.40 341.70 L 535.40 346.00 Z M 529.80 346.00 L 527.40 350.00 L 525.80 350.00 L 527.60 346.00 L 525.20 346.00 L 525.20 341.70 L 529.80 341.70 L 529.80 346.00 Z" fill="#000000" fill-rule="nonzero" group-id="6,23" node-id="514" stroke="none" target-height="8.299988" target-width="10.200012" target-x="525.2" target-y="341.7"></path></g><path d="M 495.80 332.90 L 454.30 332.90 L 453.20 332.50 L 452.80 331.40 L 452.90 328.00 L 453.70 327.20 L 454.30 327.10 L 495.80 327.10 L 496.90 327.50 L 497.30 328.60 L 497.20 332.00 L 496.40 332.80 L 495.80 332.90 Z" fill="#b7bfdc" fill-rule="nonzero" group-id="6" node-id="517" stroke="#232323" stroke-linecap="butt" stroke-width="0.5" target-height="5.799988" target-width="44.5" target-x="452.8" target-y="327.1"></path><path d="M 517.00 344.20 L 454.30 344.20 L 453.20 343.80 L 452.80 342.70 L 452.90 339.30 L 453.70 338.50 L 517.00 338.40 L 518.10 338.90 L 518.50 339.90 L 518.40 343.30 L 517.60 344.10 L 517.00 344.20 Z" fill="#b7bfdc" fill-rule="nonzero" group-id="6" node-id="519" stroke="#232323" stroke-linecap="butt" stroke-width="0.5" target-height="5.8000183" target-width="65.70001" target-x="452.8" target-y="338.4"></path><g node-id="648"><path d="M 464.80 293.10 L 499.20 293.10" fill="#b7bfdc" fill-rule="nonzero" group-id="6,24" node-id="523" stroke="none" target-height="0" target-width="34.400024" target-x="464.8" target-y="293.1"></path><path d="M 499.20 293.40 L 464.80 293.40 L 464.60 293.10 L 464.80 292.90 L 499.20 292.90 L 499.40 293.10 L 499.20 293.40 Z" fill="#232323" fill-rule="nonzero" group-id="6,24" node-id="525" stroke="none" target-height="0.5" target-width="34.799988" target-x="464.6" target-y="292.9"></path></g><g node-id="649"><path d="M 464.80 295.70 L 475.10 295.70" fill="#b7bfdc" fill-rule="nonzero" group-id="6,25" node-id="530" stroke="none" target-height="0" target-width="10.300018" target-x="464.8" target-y="295.7"></path><path d="M 475.10 295.90 L 464.80 295.90 L 464.60 295.70 L 464.80 295.40 L 475.10 295.40 L 475.30 295.70 L 475.10 295.90 Z" fill="#232323" fill-rule="nonzero" group-id="6,25" node-id="532" stroke="none" target-height="0.5" target-width="10.699982" target-x="464.6" target-y="295.4"></path></g><g node-id="650"><path d="M 477.20 295.70 L 494.80 295.70" fill="#b7bfdc" fill-rule="nonzero" group-id="6,26" node-id="537" stroke="none" target-height="0" target-width="17.599976" target-x="477.2" target-y="295.7"></path><path d="M 494.80 295.90 L 477.20 295.90 L 477.00 295.70 L 477.20 295.40 L 494.80 295.40 L 495.00 295.70 L 494.80 295.90 Z" fill="#232323" fill-rule="nonzero" group-id="6,26" node-id="539" stroke="none" target-height="0.5" target-width="18" target-x="477" target-y="295.4"></path></g><g node-id="651"><path d="M 464.80 298.20 L 481.60 298.20" fill="#b7bfdc" fill-rule="nonzero" group-id="6,27" node-id="544" stroke="none" target-height="0" target-width="16.800018" target-x="464.8" target-y="298.2"></path><path d="M 481.60 298.50 L 464.80 298.50 L 464.60 298.20 L 464.80 298.00 L 481.60 298.00 L 481.90 298.20 L 481.60 298.50 Z" fill="#232323" fill-rule="nonzero" group-id="6,27" node-id="546" stroke="none" target-height="0.5" target-width="17.299988" target-x="464.6" target-y="298"></path></g><g node-id="652"><path d="M 483.80 298.20 L 510.90 298.20" fill="#b7bfdc" fill-rule="nonzero" group-id="6,28" node-id="551" stroke="none" target-height="0" target-width="27.100006" target-x="483.8" target-y="298.2"></path><path d="M 510.90 298.50 L 483.80 298.50 L 483.60 298.20 L 483.80 298.00 L 510.90 298.00 L 511.10 298.20 L 510.90 298.50 Z" fill="#232323" fill-rule="nonzero" group-id="6,28" node-id="553" stroke="none" target-height="0.5" target-width="27.5" target-x="483.6" target-y="298"></path></g></g><g node-id="631"><g node-id="653"><g node-id="670"><path d="M 731.60 315.70 L 730.80 325.40 L 729.90 330.10 L 726.90 339.00 L 722.60 347.30 L 720.00 351.10 L 716.10 355.90 L 711.80 360.20 L 707.10 364.10 L 699.20 368.90 L 695.00 370.90 L 686.10 373.90 L 681.40 374.90 L 671.60 375.70 L 661.80 374.90 L 657.20 373.90 L 648.20 370.90 L 640.00 366.70 L 636.20 364.10 L 631.40 360.20 L 627.10 355.90 L 623.20 351.10 L 618.30 343.30 L 614.70 334.60 L 613.40 330.10 L 611.80 320.60 L 611.60 315.70 L 611.80 310.70 L 612.40 305.90 L 614.70 296.70 L 616.30 292.30 L 620.60 284.10 L 623.20 280.20 L 627.10 275.40 L 631.40 271.10 L 636.20 267.20 L 644.00 262.40 L 648.20 260.40 L 657.20 257.40 L 661.80 256.50 L 671.60 255.70 L 681.40 256.50 L 686.10 257.40 L 695.00 260.40 L 703.20 264.60 L 707.10 267.20 L 711.80 271.10 L 716.10 275.40 L 720.00 280.20 L 724.90 288.10 L 726.90 292.30 L 729.90 301.20 L 730.80 305.90 L 731.60 315.70 Z" fill="#5a78ec" fill-rule="nonzero" group-id="7,29,46" node-id="563" stroke="none" target-height="120.000015" target-width="120" target-x="611.6" target-y="255.7"></path></g><g clip-path="url(#SVGID_4_)" group-id="7,29,47" node-id="566"><path d="M 600.60 296.70 L 608.50 290.80 L 613.90 287.80 L 616.50 286.80 L 618.20 286.40 L 620.90 286.50 L 621.90 287.10 L 622.70 288.10 L 623.30 289.70 L 623.50 291.50 L 623.30 294.10 L 621.60 303.30 L 621.00 309.60 L 621.00 316.10 L 621.50 322.60 L 623.10 330.90 L 625.60 338.00 L 627.30 340.90 L 629.10 343.20 L 630.80 344.70 L 632.50 345.70 L 634.40 346.30 L 636.40 346.60 L 638.40 346.40 L 640.70 345.70 L 643.30 344.40 L 646.20 342.40 L 649.70 339.40 L 653.80 334.90 L 658.60 328.70 L 676.00 304.60 L 689.30 287.50 L 693.30 283.10 L 696.20 280.40 L 698.30 279.00 L 700.60 278.40 L 701.40 278.70 L 702.00 279.50 L 702.50 280.80 L 702.80 283.40 L 702.60 287.70 L 700.30 303.10 L 699.50 310.90 L 699.10 318.40 L 699.20 324.70 L 699.50 328.80 L 700.60 334.70 L 701.60 337.10 L 702.60 338.50 L 703.70 339.20 L 704.60 339.40 L 706.80 338.50 L 708.40 337.10 L 712.10 331.60 L 714.60 326.70 L 717.20 320.60 L 719.20 314.90 L 720.60 309.50 L 722.40 299.20 L 722.90 288.20 L 721.90 278.40 L 720.60 272.70 L 743.60 337.70 L 714.60 372.70 L 621.60 388.70 L 600.60 296.70 Z" fill="#262e49" fill-rule="nonzero" group-id="7,29,47" node-id="568" stroke="none" target-height="116" target-width="143" target-x="600.6" target-y="272.7"></path></g></g><g node-id="654"><path d="M 656.60 276.20 L 656.30 278.20 L 655.60 279.90 L 654.40 281.50 L 652.90 282.60 L 651.10 283.40 L 649.10 283.70 L 647.10 283.40 L 645.30 282.60 L 643.80 281.50 L 642.60 279.90 L 641.90 278.20 L 641.60 276.20 L 641.90 274.10 L 642.60 272.40 L 643.80 270.90 L 645.30 269.70 L 647.10 268.90 L 649.10 268.70 L 651.10 268.90 L 652.90 269.70 L 654.40 270.90 L 655.60 272.40 L 656.30 274.10 L 656.60 276.20 Z" fill="#ffffff" fill-rule="nonzero" group-id="7,30" node-id="573" stroke="none" target-height="15" target-width="15" target-x="641.6" target-y="268.7"></path><path d="M 718.10 287.70 L 717.80 289.00 L 717.10 290.10 L 716.00 290.90 L 714.60 291.20 L 713.20 290.90 L 712.10 290.10 L 711.40 289.00 L 711.10 287.70 L 711.40 286.30 L 712.10 285.20 L 713.20 284.40 L 714.60 284.20 L 716.00 284.40 L 717.10 285.20 L 717.80 286.30 L 718.10 287.70 Z" fill="none" group-id="7,30" node-id="575" stroke="#ffffff" stroke-linecap="butt" stroke-width="1" target-height="7" target-width="7" target-x="711.1" target-y="284.2"></path><path d="M 714.10 310.70 L 713.90 312.20 L 712.50 314.50 L 710.10 315.90 L 708.60 316.20 L 705.80 315.40 L 703.90 313.40 L 703.30 312.20 L 703.10 310.70 L 703.90 307.90 L 705.80 305.90 L 708.60 305.20 L 710.10 305.40 L 712.50 306.80 L 713.90 309.20 L 714.10 310.70 Z" fill="#ffffff" fill-rule="nonzero" group-id="7,30" node-id="577" stroke="none" target-height="11" target-width="11" target-x="703.1" target-y="305.2"></path><path d="M 670.10 345.20 L 669.90 346.50 L 668.70 348.70 L 666.50 350.00 L 665.10 350.20 L 662.60 349.50 L 660.80 347.70 L 660.30 346.50 L 660.10 345.20 L 660.80 342.60 L 662.60 340.80 L 665.10 340.20 L 666.50 340.30 L 668.70 341.60 L 669.90 343.80 L 670.10 345.20 Z" fill="#ffd840" fill-rule="nonzero" group-id="7,30" node-id="579" stroke="none" target-height="10" target-width="10" target-x="660.1" target-y="340.2"></path><path d="M 648.40 371.00 L 643.40 372.70 L 634.60 374.80 L 630.40 375.30 L 626.80 375.30 L 623.60 374.80 L 620.60 373.90 L 618.20 372.40 L 616.20 370.60 L 614.90 368.70 L 614.00 366.60 L 613.50 364.20 L 613.30 361.40 L 613.60 357.80 L 614.60 353.70 L 616.20 349.00 L 621.00 339.50 L 624.40 334.30 L 632.20 323.90 L 642.10 313.20 L 653.60 302.70 L 666.00 293.20 L 678.30 285.30 L 689.90 279.40 L 700.90 275.20 L 705.70 274.00 L 710.70 273.20 L 714.90 273.00 L 718.60 273.30 L 721.20 273.90 L 723.50 274.90 L 725.40 276.20 L 727.10 277.70 L 728.50 279.90 L 729.40 282.40 L 729.90 285.30 L 729.90 288.30 L 729.40 291.60 L 728.40 295.40 L 731.10 306.60 L 731.60 311.70 L 731.00 323.80 L 730.30 328.10 L 729.20 332.70 L 736.90 323.80 L 743.70 315.30 L 749.60 307.00 L 757.40 294.30 L 762.70 283.10 L 764.80 277.30 L 766.30 272.00 L 767.10 267.20 L 767.40 262.80 L 767.20 259.10 L 766.70 255.90 L 765.70 252.90 L 764.40 250.30 L 762.70 247.90 L 760.60 245.80 L 758.20 244.00 L 755.50 242.50 L 752.30 241.40 L 748.70 240.60 L 744.30 240.20 L 739.40 240.20 L 733.90 240.70 L 727.70 241.80 L 715.50 245.10 L 708.80 247.60 L 701.60 250.60 L 692.30 255.10 L 682.60 260.40 L 672.40 266.60 L 662.50 273.20 L 652.40 280.70 L 642.10 288.90 L 633.70 296.20 L 618.40 310.90 L 611.60 318.30 L 604.30 327.00 L 597.80 335.30 L 592.30 343.30 L 588.40 349.60 L 582.30 361.10 L 578.10 372.00 L 576.80 377.10 L 576.10 381.80 L 575.80 386.00 L 576.00 389.50 L 576.60 392.70 L 577.60 395.50 L 578.90 398.10 L 580.50 400.50 L 582.80 402.70 L 585.50 404.60 L 588.60 406.10 L 592.20 407.20 L 595.80 407.90 L 604.40 408.10 L 609.40 407.60 L 615.80 406.50 L 623.00 404.70 L 630.80 402.10 L 638.40 399.10 L 646.50 395.40 L 655.10 391.00 L 663.40 386.30 L 672.10 381.00 L 681.00 374.90 L 677.70 375.50 L 674.00 375.60 L 662.60 374.70 L 655.40 373.30 L 648.40 371.00 Z" fill="#ffd840" fill-rule="nonzero" group-id="7,30" node-id="581" stroke="none" target-height="167.90001" target-width="191.60004" target-x="575.8" target-y="240.2"></path><path d="M 647.20 295.10 L 646.80 294.90 L 646.80 294.20 L 659.40 284.40 L 672.10 276.00 L 684.60 269.10 L 691.00 266.10 L 702.90 261.70 L 709.90 259.80 L 716.00 258.70 L 721.40 258.30 L 726.10 258.50 L 730.00 259.10 L 733.40 260.20 L 736.30 261.60 L 738.80 263.30 L 740.90 265.40 L 743.50 269.70 L 745.00 275.00 L 745.20 278.80 L 745.00 283.00 L 743.90 288.10 L 743.20 287.90 L 743.10 287.50 L 744.00 282.90 L 744.20 278.80 L 744.00 275.20 L 743.20 271.70 L 741.90 268.70 L 740.10 266.10 L 738.10 264.10 L 735.70 262.40 L 732.90 261.10 L 729.60 260.10 L 725.80 259.50 L 721.20 259.30 L 716.00 259.80 L 710.00 260.80 L 703.20 262.60 L 691.30 267.10 L 685.00 270.00 L 672.60 276.80 L 666.20 280.90 L 660.00 285.20 L 647.20 295.10 Z" fill="#232323" fill-rule="nonzero" group-id="7,30" node-id="583" stroke="none" target-height="36.80002" target-width="98.400024" target-x="646.8" target-y="258.3"></path><path d="M 618.40 324.70 L 617.90 324.20 L 618.00 323.90 L 627.40 312.70 L 628.10 312.70 L 628.20 313.40 L 618.40 324.70 Z" fill="#232323" fill-rule="nonzero" group-id="7,30" node-id="585" stroke="none" target-height="12" target-width="10.299988" target-x="617.9" target-y="312.7"></path><path d="M 621.00 389.00 L 616.90 388.70 L 613.20 388.10 L 610.00 387.20 L 607.00 385.80 L 604.50 384.00 L 602.30 381.90 L 600.50 379.30 L 599.20 376.40 L 598.30 373.10 L 598.00 369.40 L 598.10 365.20 L 598.70 361.30 L 601.40 352.30 L 603.50 347.10 L 606.70 341.20 L 607.30 341.60 L 607.30 342.00 L 604.40 347.80 L 602.20 353.10 L 600.60 358.00 L 599.50 363.00 L 599.00 367.40 L 599.20 371.30 L 599.70 374.30 L 600.50 376.90 L 601.60 379.20 L 603.10 381.20 L 605.00 383.10 L 607.20 384.70 L 609.80 386.00 L 612.80 387.00 L 616.90 387.70 L 621.60 388.00 L 627.20 387.60 L 632.60 386.60 L 638.70 385.10 L 645.40 382.90 L 646.00 383.20 L 645.70 383.80 L 638.40 386.20 L 632.00 387.80 L 626.20 388.70 L 621.00 389.00 Z" fill="#232323" fill-rule="nonzero" group-id="7,30" node-id="587" stroke="none" target-height="47.799988" target-width="48" target-x="598" target-y="341.2"></path></g></g><path d="M 816.80 348.50 L 819.50 351.10 L 824.40 354.60 L 827.80 356.40 L 831.50 357.80 L 835.90 358.90 L 839.00 359.30 L 845.90 359.20 L 843.70 355.90 L 841.70 353.80 L 839.30 351.90 L 836.10 349.90 L 833.70 348.90 L 827.80 347.50 L 824.60 347.40 L 821.00 347.70 L 816.80 348.50 Z" fill="#adcd55" fill-rule="nonzero" node-id="591" stroke="none" target-height="11.899994" target-width="29.100037" target-x="816.8" target-y="347.4"></path><path d="M 632.60 654.70 L 510.40 598.70 L 509.10 597.40 L 509.10 595.50 L 514.70 587.90 L 516.40 587.30 L 638.30 643.00 L 639.60 644.30 L 639.50 646.20 L 635.30 654.30 L 633.60 654.90 L 632.60 654.70 Z" fill="#ffffff" fill-rule="nonzero" node-id="593" stroke="none" target-height="67.60004" target-width="130.49997" target-x="509.1" target-y="587.3"></path><path d="M 579.60 671.40 L 489.60 623.80 L 488.40 622.30 L 488.60 620.40 L 493.60 614.40 L 495.40 613.80 L 587.40 660.00 L 588.60 661.50 L 588.40 663.40 L 582.30 671.20 L 580.50 671.70 L 579.60 671.40 Z" fill="#ffffff" fill-rule="nonzero" node-id="595" stroke="none" target-height="57.900024" target-width="100.19998" target-x="488.4" target-y="613.8"></path><path d="M 757.10 557.80 L 664.10 516.40 L 662.80 515.10 L 662.80 513.20 L 667.40 506.80 L 669.20 506.10 L 670.10 506.30 L 764.20 545.90 L 765.40 547.30 L 765.40 549.20 L 759.80 557.40 L 758.10 558.00 L 757.10 557.80 Z" fill="#ffffff" fill-rule="nonzero" node-id="597" stroke="none" target-height="51.899994" target-width="102.60004" target-x="662.8" target-y="506.1"></path><path d="M 853.80 489.00 L 779.70 463.20 L 778.70 462.00 L 778.70 460.20 L 782.50 453.30 L 783.90 452.40 L 859.50 476.40 L 860.50 477.50 L 860.50 479.40 L 855.90 488.20 L 854.60 489.10 L 853.80 489.00 Z" fill="#ffffff" fill-rule="nonzero" node-id="599" stroke="none" target-height="36.700012" target-width="81.79999" target-x="778.7" target-y="452.4"></path><path d="M 857.40 522.60 L 759.60 483.40 L 758.20 482.10 L 758.20 480.20 L 763.50 474.60 L 765.20 473.90 L 766.20 474.10 L 863.20 510.70 L 864.50 512.10 L 864.50 514.00 L 860.10 522.10 L 858.40 522.80 L 857.40 522.60 Z" fill="#ffffff" fill-rule="nonzero" node-id="601" stroke="none" target-height="48.899994" target-width="106.29999" target-x="758.2" target-y="473.9"></path><path d="M 735.80 584.90 L 642.90 543.20 L 641.60 541.90 L 641.70 540.00 L 646.30 533.60 L 648.00 532.90 L 649.00 533.10 L 742.90 573.00 L 744.20 574.40 L 744.10 576.30 L 738.50 584.50 L 736.80 585.20 L 735.80 584.90 Z" fill="#ffffff" fill-rule="nonzero" node-id="603" stroke="none" target-height="52.299988" target-width="102.60004" target-x="641.6" target-y="532.9"></path><path d="M 556.00 697.70 L 466.00 650.00 L 464.80 648.60 L 465.00 646.70 L 470.00 640.60 L 471.80 640.10 L 563.80 686.30 L 565.00 687.70 L 564.90 689.60 L 558.70 697.40 L 556.90 698.00 L 556.00 697.70 Z" fill="#ffffff" fill-rule="nonzero" node-id="605" stroke="none" target-height="57.900024" target-width="100.20001" target-x="464.8" target-y="640.1"></path><path d="M 464.70 690.30 L 464.40 694.00 L 463.40 697.40 L 461.90 700.60 L 459.90 703.40 L 457.50 705.90 L 454.60 707.90 L 451.40 709.40 L 448.00 710.30 L 444.30 710.70 L 440.60 710.30 L 437.20 709.40 L 434.00 707.90 L 431.10 705.90 L 428.70 703.40 L 426.70 700.60 L 425.20 697.40 L 424.20 694.00 L 423.90 690.30 L 424.20 686.50 L 425.20 683.10 L 426.70 680.00 L 428.70 677.10 L 431.10 674.70 L 434.00 672.60 L 437.20 671.10 L 440.60 670.20 L 444.30 669.80 L 448.00 670.20 L 451.40 671.10 L 454.60 672.60 L 457.50 674.70 L 459.90 677.10 L 461.90 680.00 L 463.40 683.10 L 464.40 686.50 L 464.70 690.30 Z" fill="#ffffff" fill-rule="nonzero" node-id="607" stroke="none" target-height="40.900024" target-width="40.80002" target-x="423.9" target-y="669.8"></path><path d="M 626.70 557.50 L 711.60 602.20" fill="none" node-id="609" stroke="#ffffff" stroke-linecap="butt" stroke-width="1" target-height="44.700012" target-width="84.89996" target-x="626.7" target-y="557.5"></path><path d="M 611.00 565.40 L 653.60 587.50" fill="none" node-id="611" stroke="#ffffff" stroke-linecap="butt" stroke-width="1" target-height="22.099976" target-width="42.599976" target-x="611" target-y="565.4"></path><path d="M 659.10 590.40 L 671.10 595.80" fill="none" node-id="613" stroke="#ffffff" stroke-linecap="butt" stroke-width="1" target-height="5.3999634" target-width="12" target-x="659.1" target-y="590.4"></path><path d="M 598.90 575.10 L 663.10 610.40" fill="none" node-id="615" stroke="#ffffff" stroke-linecap="butt" stroke-width="1" target-height="35.30005" target-width="64.19995" target-x="598.9" target-y="575.1"></path><path d="M 901.10 529.40 L 895.70 523.00 L 894.80 522.40 L 893.80 522.20 L 885.50 523.00 L 884.60 522.90 L 883.30 522.00 L 883.00 520.40 L 883.30 519.60 L 887.80 512.50 L 888.10 511.50 L 887.90 510.40 L 884.60 502.80 L 884.50 501.10 L 885.60 499.90 L 887.20 499.70 L 895.30 501.70 L 896.40 501.70 L 897.30 501.20 L 903.60 495.60 L 905.20 495.10 L 906.60 495.70 L 907.40 497.20 L 907.90 505.50 L 908.30 506.50 L 909.00 507.30 L 916.20 511.50 L 916.90 512.20 L 917.30 513.70 L 916.70 515.10 L 915.90 515.60 L 908.20 518.70 L 907.30 519.30 L 906.80 520.30 L 904.70 529.30 L 904.10 529.80 L 902.60 530.20 L 901.10 529.40 Z" fill="none" node-id="617" stroke="#ffffff" stroke-linecap="butt" stroke-width="2" target-height="35.100006" target-width="34.299988" target-x="883" target-y="495.1"></path><path d="M 345.30 720.90 L 344.40 720.20 L 344.50 719.40 L 345.00 718.90 L 352.90 715.70 L 366.70 708.70 L 376.10 703.20 L 386.10 696.70 L 405.70 682.60 L 423.80 667.60 L 433.20 659.30 L 454.80 638.40 L 465.80 626.90 L 477.60 614.00 L 490.20 599.30 L 502.40 584.40 L 515.30 567.80 L 529.30 548.70 L 729.00 627.70 L 724.40 637.00 L 716.50 650.40 L 704.70 667.80 L 691.80 684.10 L 679.30 697.80 L 672.50 704.40 L 665.20 711.10 L 657.20 717.60 L 656.50 717.90 L 655.80 717.50 L 655.60 716.70 L 656.00 716.10 L 664.70 708.80 L 672.70 701.50 L 680.00 694.20 L 693.30 679.20 L 698.90 672.20 L 706.70 661.60 L 712.90 652.50 L 722.00 637.20 L 726.30 628.80 L 530.10 551.10 L 516.40 569.60 L 503.50 586.20 L 491.30 601.10 L 478.70 615.70 L 466.90 628.60 L 455.90 640.10 L 434.30 661.00 L 424.90 669.30 L 406.80 684.30 L 387.10 698.50 L 377.00 705.00 L 367.50 710.60 L 353.60 717.60 L 345.30 720.90 Z" fill="#232323" fill-rule="nonzero" node-id="619" stroke="none" target-height="172.20001" target-width="384.6" target-x="344.4" target-y="548.7"></path><path d="M 723.00 677.50 L 722.00 676.80 L 722.10 676.10 L 722.70 675.60 L 731.60 672.70 L 748.00 666.20 L 755.40 662.80 L 765.20 657.60 L 774.20 652.30 L 782.50 646.80 L 790.50 640.90 L 797.80 634.90 L 804.40 629.00 L 810.70 622.70 L 816.40 616.60 L 826.40 604.50 L 834.40 593.20 L 842.40 579.90 L 849.90 564.80 L 853.10 557.10 L 857.60 544.60 L 859.50 537.70 L 680.50 472.60 L 672.60 485.60 L 665.40 496.80 L 658.70 506.40 L 651.60 515.80 L 639.40 530.20 L 627.90 541.60 L 623.20 545.70 L 616.10 551.20 L 610.70 554.70 L 605.70 557.50 L 599.10 560.00 L 598.40 559.90 L 597.90 559.30 L 598.10 558.50 L 598.70 558.10 L 604.70 555.60 L 609.60 552.90 L 615.00 549.30 L 622.00 543.90 L 632.10 534.70 L 638.20 528.30 L 650.40 513.90 L 657.50 504.60 L 664.10 495.00 L 671.40 483.80 L 679.60 470.20 L 861.80 536.40 L 858.90 547.00 L 856.30 554.50 L 853.00 562.60 L 845.00 579.30 L 840.90 586.50 L 832.30 599.80 L 823.10 611.90 L 812.20 624.10 L 805.80 630.40 L 799.10 636.40 L 791.80 642.40 L 783.70 648.40 L 775.30 653.90 L 766.20 659.30 L 756.30 664.50 L 748.80 668.10 L 732.30 674.60 L 723.00 677.50 Z" fill="#232323" fill-rule="nonzero" node-id="621" stroke="none" target-height="207.29999" target-width="263.89996" target-x="597.9" target-y="470.2"></path><path d="M 848.50 626.70 L 847.60 626.10 L 847.50 625.40 L 848.00 624.80 L 858.60 618.60 L 877.80 606.20 L 886.50 599.80 L 897.80 590.90 L 908.00 582.20 L 917.20 573.50 L 926.10 564.60 L 934.00 556.00 L 940.90 547.90 L 953.30 531.70 L 964.60 514.60 L 969.90 505.70 L 978.10 489.70 L 983.20 478.00 L 985.60 471.50 L 796.40 423.50 L 792.90 430.40 L 789.20 436.80 L 785.40 442.70 L 777.30 453.40 L 767.40 464.20 L 762.30 469.00 L 754.20 475.80 L 751.00 478.20 L 750.20 478.30 L 749.60 477.90 L 749.40 477.20 L 749.90 476.50 L 756.40 471.50 L 761.20 467.30 L 766.30 462.50 L 776.00 451.80 L 784.10 441.10 L 787.80 435.20 L 791.50 428.80 L 795.20 421.10 L 988.20 470.00 L 984.60 479.90 L 977.90 494.60 L 972.90 504.30 L 967.10 514.30 L 954.90 532.90 L 942.50 549.10 L 935.50 557.30 L 927.60 565.90 L 918.60 575.00 L 909.40 583.60 L 899.10 592.50 L 887.70 601.40 L 879.00 607.80 L 859.60 620.30 L 848.50 626.70 Z" fill="#232323" fill-rule="nonzero" node-id="623" stroke="none" target-height="205.6" target-width="238.79999" target-x="749.4" target-y="421.1"></path></svg>