<?xml version="1.0" standalone="no"?><!DOCTYPE svg PUBLIC "-//W3C//DTD SVG 1.1//EN" "http://www.w3.org/Graphics/SVG/1.1/DTD/svg11.dtd"><svg height="1024" node-id="1" sillyvg="true" template-height="1024" template-width="1024" version="1.1" viewBox="0 0 1024 1024" width="1024" xmlns="http://www.w3.org/2000/svg" xmlns:xlink="http://www.w3.org/1999/xlink"><defs node-id="29"></defs><path d="M 905.70 241.50 L 907.10 241.80 L 908.30 242.60 L 909.10 243.80 L 911.00 248.60 L 925.10 294.90 L 928.50 309.10 L 928.80 311.00 L 928.50 312.80 L 926.70 314.00 L 924.70 314.80 L 918.30 316.80 L 898.60 321.90 L 849.50 336.10 L 800.20 349.60 L 797.20 349.80 L 794.90 348.90 L 792.00 346.50 L 783.80 319.70 L 779.10 305.60 L 776.70 295.90 L 776.20 291.10 L 778.90 286.30 L 783.70 276.10 L 794.00 272.40 L 804.60 269.10 L 862.20 254.20 L 905.70 241.50 Z M 806.30 337.00 L 803.40 341.60 L 802.70 343.40 L 803.10 343.80 L 895.40 317.60 L 914.10 312.90 L 918.70 311.50 L 922.60 309.80 L 923.10 308.20 L 922.90 306.50 L 922.10 305.30 L 921.30 305.10 L 908.40 308.40 L 806.30 337.00 Z M 780.90 293.40 L 782.60 300.20 L 789.10 320.40 L 793.40 336.40 L 794.80 340.30 L 796.40 343.70 L 800.50 335.50 L 799.00 332.60 L 796.30 325.40 L 791.50 306.40 L 785.10 284.80 L 780.90 293.40 Z" fill="#0f0d10" fill-rule="nonzero" node-id="31" stroke="none" target-height="108.29999" target-width="152.59998" target-x="776.2" target-y="241.5"></path><path d="M 180.10 587.90 L 183.90 584.40 L 185.00 583.80 L 186.00 583.70 L 186.90 584.10 L 189.40 585.80 L 196.10 591.00 L 214.10 606.30 L 229.20 620.00 L 232.40 623.40 L 233.10 624.60 L 230.10 629.00 L 222.70 638.20 L 200.00 665.60 L 174.60 695.40 L 156.00 716.30 L 152.30 719.90 L 150.80 720.30 L 149.00 720.30 L 145.80 719.60 L 133.00 710.40 L 120.50 700.50 L 108.30 690.30 L 96.60 679.80 L 97.70 677.70 L 102.50 670.90 L 122.90 644.30 L 148.80 612.20 L 165.40 592.80 L 169.10 588.90 L 172.40 585.80 L 173.70 585.10 L 175.50 585.20 L 177.10 585.80 L 180.10 587.90 Z M 225.10 627.70 L 219.90 626.60 L 215.90 630.50 L 202.50 647.50 L 147.80 712.10 L 150.00 714.60 L 154.60 710.70 L 162.40 702.40 L 172.20 691.30 L 200.90 657.40 L 220.10 633.20 L 225.10 627.70 Z M 220.10 621.20 L 220.90 620.30 L 220.60 619.20 L 210.50 609.80 L 195.70 596.70 L 189.60 591.90 L 185.90 589.80 L 184.00 591.80 L 186.90 595.20 L 192.60 600.70 L 207.40 613.40 L 213.60 618.30 L 217.30 620.70 L 220.10 621.20 Z" fill="#0f0d10" fill-rule="nonzero" node-id="33" stroke="none" target-height="136.59998" target-width="136.5" target-x="96.6" target-y="583.7"></path><path d="M 180.10 587.90 L 183.90 584.40 L 185.00 583.80 L 186.00 583.70 L 186.90 584.10 L 189.40 585.80 L 196.10 591.00 L 214.10 606.30 L 229.20 620.00 L 232.40 623.40 L 233.10 624.60 L 230.10 629.00 L 212.30 650.90 L 187.00 680.90 L 163.80 707.70 L 156.00 716.30 L 152.30 719.90 L 150.80 720.30 L 147.30 720.00 L 145.80 719.60 L 149.40 718.70 L 150.00 716.80 L 150.00 714.60 L 154.60 710.70 L 162.40 702.40 L 172.20 691.30 L 200.90 657.40 L 220.10 633.20 L 225.10 627.70 L 219.90 626.60 L 220.10 624.60 L 219.50 621.90 L 220.90 620.30 L 220.60 619.20 L 203.10 603.10 L 189.60 591.90 L 185.90 589.80 L 184.00 591.80 L 183.50 589.40 L 181.90 588.40 L 180.10 587.90 Z" fill="#0f0d10" fill-rule="nonzero" node-id="35" stroke="none" target-height="136.59998" target-width="87.3" target-x="145.8" target-y="583.7"></path><path d="M 107.90 298.90 L 114.90 299.50 L 123.20 301.10 L 138.80 304.60 L 215.40 319.60 L 223.50 321.40 L 230.80 336.70 L 229.10 345.60 L 222.30 373.40 L 216.80 392.30 L 214.90 392.70 L 209.50 392.20 L 134.90 377.40 L 96.30 369.00 L 96.10 368.60 L 95.60 368.80 L 95.00 368.60 L 94.70 366.50 L 95.10 363.00 L 98.90 340.30 L 104.20 313.50 L 106.40 303.70 L 107.90 298.90 Z M 210.30 386.90 L 207.10 382.00 L 175.40 375.30 L 121.60 364.80 L 110.50 362.40 L 99.70 359.60 L 99.40 362.00 L 99.70 364.40 L 104.00 365.80 L 193.00 384.00 L 201.60 385.70 L 210.30 386.90 Z M 214.60 382.90 L 218.80 368.10 L 225.80 338.00 L 224.30 333.90 L 222.30 330.00 L 211.80 374.50 L 211.50 379.90 L 212.10 381.20 L 213.20 382.20 L 214.60 382.90 Z" fill="#0f0d10" fill-rule="nonzero" node-id="37" stroke="none" target-height="93.80002" target-width="136.1" target-x="94.7" target-y="298.9"></path><path d="M 852.80 389.20 L 857.50 388.70 L 862.50 388.60 L 872.90 389.60 L 878.20 390.70 L 883.00 392.10 L 888.90 394.70 L 893.00 397.60 L 894.50 399.30 L 895.60 401.30 L 896.20 403.40 L 896.30 405.10 L 895.30 408.20 L 894.30 409.60 L 892.10 411.80 L 889.10 413.90 L 885.80 415.60 L 878.30 418.20 L 867.90 420.30 L 861.70 420.70 L 850.80 420.60 L 842.30 419.40 L 838.20 418.30 L 834.30 416.60 L 830.60 414.50 L 828.60 412.90 L 825.80 409.50 L 824.70 406.20 L 825.00 402.80 L 826.60 399.70 L 828.70 397.60 L 831.10 395.70 L 834.00 394.10 L 838.70 392.20 L 843.50 390.80 L 852.80 389.20 Z M 865.50 416.50 L 875.30 414.80 L 882.50 412.50 L 885.60 410.90 L 888.40 409.10 L 890.50 407.00 L 891.30 405.60 L 891.60 404.00 L 891.20 402.60 L 889.40 400.40 L 885.30 397.80 L 878.60 395.10 L 873.10 393.90 L 867.50 393.10 L 856.90 392.70 L 850.40 393.50 L 842.90 395.10 L 835.80 397.70 L 832.00 400.20 L 829.80 402.80 L 829.30 405.50 L 829.70 407.20 L 830.50 408.60 L 833.00 410.90 L 836.00 412.70 L 839.30 414.10 L 843.00 415.30 L 848.70 416.40 L 854.60 417.00 L 860.40 417.00 L 865.50 416.50 Z" fill="#0f0d10" fill-rule="nonzero" node-id="39" stroke="none" target-height="32.100006" target-width="71.599976" target-x="824.7" target-y="388.6"></path><path d="M 520.90 95.50 L 523.50 95.60 L 524.60 96.00 L 527.10 98.50 L 528.90 101.30 L 530.40 104.60 L 531.70 108.50 L 532.90 114.50 L 533.70 121.10 L 533.90 134.00 L 533.00 145.00 L 531.90 150.80 L 531.00 153.60 L 529.80 156.10 L 528.10 158.40 L 525.90 160.50 L 524.20 160.50 L 521.70 159.90 L 519.70 158.20 L 518.20 155.90 L 516.80 153.20 L 515.70 150.00 L 514.50 144.90 L 513.70 139.20 L 513.10 128.00 L 513.30 118.60 L 514.10 110.30 L 515.00 106.10 L 516.40 102.10 L 517.60 99.60 L 519.10 97.40 L 520.90 95.50 Z" fill="#0f0d10" fill-rule="nonzero" node-id="41" stroke="none" target-height="65" target-width="20.800049" target-x="513.1" target-y="95.5"></path><path d="M 407.00 100.00 L 409.20 100.00 L 411.30 100.70 L 413.20 102.00 L 416.20 105.30 L 420.30 111.60 L 422.40 115.60 L 425.20 121.90 L 427.70 128.70 L 429.60 135.60 L 431.00 142.30 L 431.50 146.80 L 431.30 154.30 L 430.80 156.90 L 429.90 158.90 L 428.60 160.60 L 426.60 162.40 L 424.80 162.50 L 423.10 161.90 L 420.10 159.40 L 416.70 155.20 L 414.50 151.70 L 412.30 147.60 L 409.50 141.20 L 407.10 134.20 L 405.10 127.00 L 403.80 120.10 L 403.30 115.50 L 403.10 111.40 L 403.70 105.30 L 404.30 103.40 L 405.30 101.70 L 407.00 100.00 Z" fill="#0f0d10" fill-rule="nonzero" node-id="43" stroke="none" target-height="62.5" target-width="28.399994" target-x="403.1" target-y="100"></path><path d="M 641.60 106.40 L 644.10 106.90 L 646.30 108.30 L 647.50 109.90 L 648.20 111.80 L 648.60 115.80 L 648.30 119.60 L 646.50 128.10 L 644.20 134.70 L 641.30 141.30 L 637.90 147.80 L 631.50 157.50 L 626.40 163.30 L 625.20 163.90 L 623.60 164.10 L 622.40 163.80 L 621.20 162.60 L 620.60 161.20 L 619.90 157.90 L 619.80 153.80 L 620.10 149.50 L 620.80 144.70 L 623.10 135.20 L 627.60 122.40 L 630.50 116.40 L 632.10 113.80 L 633.90 111.50 L 636.10 109.40 L 638.50 107.80 L 641.60 106.40 Z" fill="#0f0d10" fill-rule="nonzero" node-id="45" stroke="none" target-height="57.700005" target-width="28.799988" target-x="619.8" target-y="106.4"></path><path d="M 849.50 167.20 L 851.90 167.60 L 853.90 168.70 L 854.90 169.80 L 855.20 171.30 L 854.80 172.90 L 854.00 174.60 L 851.80 177.30 L 849.20 179.90 L 840.60 186.60 L 829.70 193.70 L 818.60 199.90 L 813.60 202.20 L 807.70 204.10 L 803.00 204.50 L 800.40 203.80 L 798.90 202.30 L 798.60 201.20 L 798.80 199.60 L 799.40 198.00 L 801.10 195.10 L 804.00 191.40 L 810.60 184.70 L 814.40 181.70 L 819.80 178.20 L 825.40 175.00 L 831.30 172.40 L 837.40 170.20 L 843.50 168.40 L 849.50 167.20 Z M 806.90 199.80 L 814.60 196.40 L 824.50 191.30 L 834.80 185.20 L 839.60 181.90 L 847.30 175.80 L 849.50 173.20 L 849.50 172.20 L 848.20 172.00 L 841.70 173.30 L 836.40 175.00 L 831.00 177.10 L 825.80 179.70 L 820.80 182.70 L 816.10 186.00 L 811.70 189.80 L 807.90 193.80 L 804.20 198.70 L 803.90 199.90 L 806.90 199.80 Z" fill="#0f0d10" fill-rule="nonzero" node-id="47" stroke="none" target-height="37.300003" target-width="56.600037" target-x="798.6" target-y="167.2"></path><path d="M 141.30 460.20 L 150.10 460.00 L 154.90 460.50 L 159.70 461.40 L 165.40 463.40 L 167.70 464.70 L 170.30 467.00 L 171.20 468.50 L 171.70 470.10 L 171.60 471.70 L 171.20 473.10 L 170.30 474.40 L 166.70 477.00 L 164.30 478.00 L 156.60 479.80 L 149.50 480.60 L 145.30 480.70 L 135.80 480.20 L 131.10 479.40 L 126.70 478.20 L 122.70 476.50 L 119.70 474.30 L 118.50 472.80 L 117.70 470.10 L 118.80 467.40 L 121.30 465.00 L 123.10 464.00 L 129.20 462.00 L 141.30 460.20 Z M 152.00 475.70 L 160.10 474.40 L 165.40 472.50 L 167.30 471.20 L 167.50 470.40 L 167.30 469.70 L 166.20 468.60 L 162.70 466.80 L 156.20 465.30 L 149.20 464.50 L 138.80 464.60 L 133.40 465.60 L 127.70 467.10 L 125.10 468.40 L 123.10 469.90 L 122.90 470.70 L 123.10 471.40 L 124.50 472.40 L 126.80 473.50 L 132.80 474.90 L 143.60 476.10 L 152.00 475.70 Z" fill="#0f0d10" fill-rule="nonzero" node-id="49" stroke="none" target-height="20.700012" target-width="54" target-x="117.7" target-y="460"></path><path d="M 149.20 209.10 L 152.70 208.90 L 156.20 209.00 L 162.80 210.70 L 166.10 212.20 L 170.70 214.90 L 175.30 218.20 L 183.50 225.90 L 190.10 233.80 L 191.70 236.00 L 193.20 238.60 L 193.50 240.00 L 193.10 242.00 L 191.40 243.40 L 188.90 243.80 L 183.80 243.40 L 180.80 242.50 L 176.40 240.80 L 171.80 238.50 L 167.40 235.80 L 159.50 230.30 L 152.60 224.10 L 150.50 221.80 L 147.90 217.60 L 147.10 214.10 L 147.20 212.60 L 147.60 211.40 L 149.20 209.10 Z M 188.30 239.70 L 185.60 235.00 L 183.60 232.40 L 180.30 228.80 L 172.40 221.80 L 164.20 216.30 L 160.60 214.60 L 158.30 213.80 L 153.80 213.00 L 151.40 212.90 L 151.80 215.00 L 152.80 217.10 L 155.70 220.90 L 161.80 226.30 L 168.70 231.40 L 176.40 236.00 L 180.30 237.70 L 184.30 239.00 L 188.30 239.70 Z" fill="#0f0d10" fill-rule="nonzero" node-id="51" stroke="none" target-height="34.90001" target-width="46.399994" target-x="147.1" target-y="208.9"></path><path d="M 269.80 125.50 L 273.60 125.70 L 275.80 126.50 L 278.10 127.90 L 280.20 129.70 L 284.40 134.10 L 289.10 140.50 L 293.90 149.30 L 297.10 157.20 L 298.50 163.20 L 298.50 165.10 L 298.10 166.60 L 297.50 167.60 L 294.80 168.80 L 291.40 167.20 L 287.90 165.00 L 284.60 162.30 L 278.50 156.30 L 273.70 150.50 L 271.30 146.90 L 269.20 143.10 L 267.50 139.10 L 266.50 133.70 L 266.90 129.30 L 267.50 128.00 L 269.80 125.50 Z M 294.00 163.60 L 293.40 159.50 L 292.60 156.80 L 290.80 152.90 L 286.20 144.70 L 279.30 135.40 L 275.80 131.90 L 273.80 130.40 L 271.70 129.30 L 271.00 131.40 L 271.00 133.90 L 271.90 138.50 L 273.40 142.00 L 275.60 145.60 L 278.20 149.10 L 284.30 155.80 L 287.60 158.80 L 294.00 163.60 Z" fill="#0f0d10" fill-rule="nonzero" node-id="53" stroke="none" target-height="43.300003" target-width="32" target-x="266.5" target-y="125.5"></path><path d="M 732.10 116.20 L 735.80 116.10 L 737.20 116.30 L 739.90 117.70 L 740.90 118.70 L 742.20 121.50 L 742.40 123.20 L 742.20 127.90 L 740.60 134.10 L 739.30 137.20 L 736.80 141.60 L 733.90 145.70 L 730.50 149.40 L 727.00 152.50 L 724.40 152.80 L 721.90 152.30 L 720.70 151.50 L 718.90 149.20 L 717.70 145.60 L 717.40 143.20 L 717.80 136.80 L 718.60 132.90 L 719.80 129.20 L 721.20 126.10 L 723.30 122.80 L 725.70 120.00 L 727.50 118.50 L 732.10 116.20 Z M 725.90 147.80 L 728.80 144.80 L 731.50 141.30 L 733.90 137.50 L 735.80 133.50 L 737.30 129.40 L 738.30 125.30 L 737.50 122.60 L 736.10 120.30 L 733.20 120.00 L 730.60 121.80 L 728.40 123.90 L 726.50 126.40 L 723.80 131.90 L 722.90 134.90 L 721.80 141.40 L 722.10 145.80 L 722.80 147.60 L 723.90 148.20 L 725.10 148.20 L 725.90 147.80 Z" fill="#0f0d10" fill-rule="nonzero" node-id="55" stroke="none" target-height="36.700005" target-width="25" target-x="717.4" target-y="116.1"></path><path d="M 808.30 533.70 L 812.00 533.40 L 815.90 533.50 L 819.90 534.00 L 823.80 535.00 L 827.60 536.30 L 830.90 537.90 L 834.00 540.20 L 835.50 542.30 L 835.80 543.50 L 835.70 544.90 L 834.90 546.20 L 832.70 547.90 L 830.90 548.60 L 825.30 550.00 L 816.60 551.00 L 812.10 551.30 L 807.50 551.10 L 803.00 550.60 L 797.40 549.10 L 795.20 548.00 L 792.60 545.90 L 791.60 544.50 L 791.10 543.00 L 791.20 541.40 L 791.90 540.00 L 793.20 538.60 L 796.50 536.40 L 799.40 535.30 L 808.30 533.70 Z M 817.10 546.80 L 827.20 545.00 L 832.10 543.60 L 828.80 541.60 L 825.20 540.00 L 821.40 538.80 L 817.50 537.90 L 813.70 537.60 L 809.80 537.70 L 805.40 538.30 L 800.50 539.50 L 798.30 540.40 L 796.80 541.60 L 796.50 542.40 L 796.60 543.20 L 798.50 544.60 L 801.00 545.60 L 803.70 546.30 L 811.70 547.00 L 817.10 546.80 Z" fill="#0f0d10" fill-rule="nonzero" node-id="57" stroke="none" target-height="17.899963" target-width="44.700012" target-x="791.1" target-y="533.4"></path><path d="M 142.10 560.70 L 147.20 560.70 L 150.80 561.60 L 152.10 562.20 L 153.50 564.10 L 153.80 565.30 L 153.10 568.00 L 151.50 570.30 L 149.70 571.70 L 145.00 574.20 L 141.10 575.60 L 132.90 577.10 L 126.50 577.40 L 123.60 577.40 L 120.80 577.00 L 118.10 575.90 L 116.40 574.60 L 115.40 572.60 L 115.70 570.70 L 116.70 569.00 L 119.70 566.50 L 125.00 564.00 L 132.30 562.00 L 142.10 560.70 Z M 128.60 572.80 L 139.40 571.20 L 144.90 569.40 L 147.30 568.10 L 148.90 566.80 L 148.90 565.80 L 147.90 565.30 L 143.80 564.80 L 141.30 564.90 L 129.80 567.20 L 126.30 568.20 L 123.10 569.60 L 120.60 571.30 L 120.40 572.10 L 123.00 573.20 L 128.60 572.80 Z" fill="#0f0d10" fill-rule="nonzero" node-id="59" stroke="none" target-height="16.700012" target-width="38.4" target-x="115.4" target-y="560.7"></path><path d="M 889.80 485.60 L 896.80 485.60 L 901.30 486.60 L 905.10 488.60 L 906.70 489.90 L 907.90 491.50 L 908.60 493.30 L 908.70 494.80 L 908.40 496.20 L 907.70 497.60 L 906.30 499.00 L 904.50 500.10 L 900.50 501.60 L 894.20 502.60 L 889.20 502.70 L 886.70 502.40 L 882.10 501.10 L 879.40 499.10 L 878.30 497.80 L 877.60 496.20 L 877.50 494.60 L 877.70 493.00 L 878.50 491.60 L 879.90 489.90 L 883.50 487.50 L 889.80 485.60 Z M 895.20 498.40 L 899.60 497.40 L 901.50 496.60 L 903.30 495.10 L 903.30 493.20 L 901.40 491.20 L 899.50 490.40 L 895.10 489.60 L 891.20 489.60 L 885.20 491.40 L 883.90 492.30 L 882.60 494.10 L 883.00 496.00 L 884.80 497.30 L 888.80 498.40 L 895.20 498.40 Z" fill="#0f0d10" fill-rule="nonzero" node-id="61" stroke="none" target-height="17.100006" target-width="31.200012" target-x="877.5" target-y="485.6"></path><path d="M 151.80 780.00 L 154.10 775.90 L 157.10 772.00 L 159.00 770.60 L 161.10 769.60 L 163.30 769.50 L 164.40 769.80 L 166.30 771.40 L 167.00 772.70 L 167.50 775.50 L 166.90 779.90 L 164.50 785.40 L 162.80 788.30 L 160.00 791.20 L 158.30 792.40 L 156.60 793.30 L 154.00 794.00 L 151.30 793.60 L 149.60 791.90 L 148.80 788.90 L 149.40 785.20 L 151.80 780.00 Z M 159.40 785.10 L 162.10 779.60 L 163.20 775.60 L 162.90 774.30 L 162.00 774.00 L 160.60 774.80 L 158.10 778.30 L 154.80 784.50 L 153.60 787.80 L 153.50 789.00 L 154.20 789.40 L 157.10 787.50 L 159.40 785.10 Z" fill="#0f0d10" fill-rule="nonzero" node-id="63" stroke="none" target-height="24.5" target-width="18.699997" target-x="148.8" target-y="769.5"></path><path d="M 151.80 780.00 L 154.30 783.30 L 154.80 784.50 L 153.90 786.70 L 153.50 789.00 L 154.20 789.40 L 155.70 788.60 L 159.40 785.10 L 160.70 786.90 L 162.80 788.30 L 160.00 791.20 L 156.60 793.30 L 154.00 794.00 L 152.60 794.00 L 151.30 793.60 L 150.30 792.80 L 149.10 790.70 L 148.80 788.90 L 148.90 787.00 L 150.10 783.40 L 151.80 780.00 Z" fill="#0f0d10" fill-rule="nonzero" node-id="65" stroke="none" target-height="14" target-width="14" target-x="148.8" target-y="780"></path><path d="M 207.20 500.60 L 211.30 500.40 L 215.30 501.00 L 218.90 502.70 L 220.40 504.10 L 221.30 505.70 L 221.50 508.10 L 220.10 510.30 L 217.70 511.90 L 213.50 513.20 L 206.80 513.70 L 203.20 512.80 L 200.30 510.90 L 199.40 509.50 L 199.00 507.00 L 199.30 505.80 L 200.20 504.40 L 202.70 502.40 L 207.20 500.60 Z" fill="#0f0d10" fill-rule="nonzero" node-id="67" stroke="none" target-height="13.300018" target-width="22.5" target-x="199" target-y="500.4"></path><path d="M 222.90 740.90 L 225.40 741.30 L 227.40 742.60 L 228.80 744.60 L 229.50 748.10 L 228.90 752.60 L 228.10 755.10 L 226.70 757.80 L 225.00 759.90 L 223.00 761.60 L 220.30 762.90 L 218.00 762.30 L 216.80 761.60 L 215.10 759.50 L 213.70 755.60 L 215.80 750.10 L 217.10 747.40 L 218.80 744.90 L 220.70 742.70 L 222.90 740.90 Z" fill="#0f0d10" fill-rule="nonzero" node-id="69" stroke="none" target-height="22" target-width="15.800003" target-x="213.7" target-y="740.9"></path><path d="M 241.10 256.50 L 244.30 256.50 L 247.40 257.30 L 249.30 258.40 L 252.10 261.10 L 254.90 266.50 L 253.60 269.40 L 251.80 272.00 L 248.00 272.10 L 245.50 271.50 L 243.10 270.20 L 240.90 268.40 L 239.30 266.50 L 237.90 263.80 L 237.70 260.80 L 238.90 258.20 L 241.10 256.50 Z" fill="#0f0d10" fill-rule="nonzero" node-id="71" stroke="none" target-height="15.600006" target-width="17.199997" target-x="237.7" target-y="256.5"></path><path d="M 296.50 228.00 L 295.80 219.40 L 296.10 217.20 L 296.80 215.80 L 298.20 214.70 L 299.90 214.30 L 304.90 213.90 L 323.90 214.50 L 380.50 214.10 L 671.70 211.40 L 702.80 210.50 L 713.10 210.60 L 715.50 210.80 L 717.70 211.60 L 718.20 215.60 L 717.30 223.90 L 723.80 223.10 L 727.20 223.10 L 730.20 223.50 L 731.50 227.20 L 731.90 231.80 L 735.90 294.70 L 741.40 412.50 L 746.90 513.10 L 747.00 522.60 L 760.20 537.40 L 828.40 617.30 L 843.90 635.80 L 859.80 622.50 L 869.80 615.00 L 879.10 608.70 L 883.40 606.30 L 886.60 605.00 L 897.40 614.60 L 918.30 635.60 L 939.30 655.90 L 946.00 662.90 L 949.40 662.50 L 965.80 659.00 L 973.00 658.00 L 980.40 657.30 L 987.70 657.00 L 995.00 657.20 L 1002.40 657.80 L 1009.70 658.70 L 1016.90 660.10 L 1024.00 661.80 L 1024.00 922.40 L 1017.60 923.60 L 1010.90 924.20 L 997.70 924.50 L 972.70 923.80 L 935.30 921.40 L 922.80 921.00 L 909.60 921.20 L 896.60 921.90 L 883.60 923.10 L 870.60 924.60 L 844.60 928.40 L 838.60 918.60 L 833.40 909.30 L 829.00 900.40 L 825.00 891.40 L 821.60 882.40 L 818.90 873.50 L 816.00 859.80 L 814.40 845.20 L 814.00 835.40 L 814.20 824.70 L 815.00 813.20 L 819.10 790.10 L 817.60 790.60 L 816.10 790.30 L 810.70 787.00 L 803.10 781.20 L 780.90 762.60 L 774.40 757.70 L 760.70 748.70 L 753.50 744.80 L 754.40 801.60 L 754.10 811.80 L 750.20 812.50 L 741.90 812.30 L 749.80 836.80 L 757.30 856.90 L 761.20 868.40 L 762.20 874.30 L 762.00 875.80 L 761.00 877.30 L 759.50 878.30 L 755.90 877.60 L 754.10 876.80 L 749.40 873.30 L 732.50 857.30 L 700.00 829.40 L 689.60 829.00 L 668.50 829.50 L 594.80 830.20 L 510.00 830.10 L 307.60 831.60 L 299.40 831.70 L 291.40 831.30 L 291.60 830.90 L 291.00 831.10 L 290.30 820.20 L 290.20 796.70 L 286.10 589.10 L 284.20 455.00 L 280.20 233.90 L 280.50 228.80 L 282.70 228.10 L 285.40 227.70 L 296.50 228.00 Z M 862.40 627.20 L 851.40 636.00 L 841.30 645.90 L 852.80 657.00 L 863.00 667.60 L 867.30 673.50 L 868.00 675.30 L 867.30 676.10 L 866.20 676.50 L 864.90 675.80 L 862.20 673.70 L 855.80 667.50 L 848.70 660.00 L 838.30 648.50 L 825.10 661.80 L 819.50 669.00 L 842.50 692.30 L 847.40 698.40 L 848.40 700.20 L 847.80 701.20 L 846.20 701.10 L 844.90 700.60 L 839.90 696.60 L 816.20 672.50 L 806.40 684.10 L 796.90 696.10 L 814.20 711.00 L 823.80 719.80 L 827.50 724.10 L 828.00 725.30 L 827.60 726.30 L 826.70 727.00 L 825.40 726.50 L 823.10 725.00 L 817.40 720.70 L 804.00 708.70 L 794.60 699.50 L 788.60 707.30 L 778.00 724.80 L 796.60 738.10 L 810.00 748.70 L 812.90 751.80 L 813.00 753.20 L 812.60 754.40 L 811.40 754.60 L 809.60 754.20 L 805.50 751.60 L 786.30 736.40 L 775.50 728.80 L 768.30 741.50 L 765.60 745.40 L 772.80 749.90 L 779.60 754.80 L 805.80 776.80 L 812.50 782.00 L 819.50 786.80 L 820.50 786.60 L 821.80 783.40 L 824.50 774.70 L 830.10 761.70 L 836.60 749.10 L 841.00 741.80 L 850.80 727.80 L 856.20 721.10 L 867.80 708.40 L 880.60 696.80 L 887.40 691.40 L 894.40 686.40 L 901.60 681.80 L 909.10 677.50 L 916.80 673.70 L 924.60 670.30 L 932.60 667.30 L 940.80 664.80 L 885.60 610.70 L 866.00 624.00 L 901.00 657.40 L 911.50 668.60 L 912.50 670.20 L 912.40 671.30 L 911.00 672.10 L 909.50 672.20 L 906.60 669.80 L 891.80 655.90 L 862.40 627.20 Z M 686.80 808.10 L 689.70 812.90 L 694.50 818.00 L 735.80 853.30 L 737.60 854.20 L 739.00 854.00 L 747.80 848.80 L 747.80 848.00 L 741.90 828.10 L 730.80 795.10 L 728.80 791.00 L 727.30 788.80 L 725.50 787.00 L 723.30 785.50 L 720.60 784.20 L 717.90 783.30 L 712.40 782.80 L 706.70 783.70 L 703.20 784.90 L 700.00 786.70 L 696.90 788.90 L 694.20 791.40 L 691.80 794.20 L 689.80 797.30 L 688.30 800.80 L 687.30 804.40 L 686.80 808.10 Z M 301.00 219.50 L 311.00 793.90 L 311.60 806.30 L 535.50 805.30 L 593.30 806.30 L 621.90 806.30 L 677.60 805.70 L 625.10 731.40 L 599.50 693.80 L 567.60 686.10 L 536.10 677.40 L 520.50 672.50 L 497.50 664.20 L 482.40 657.60 L 463.90 647.00 L 456.30 641.30 L 453.10 638.10 L 449.80 633.30 L 448.70 630.80 L 448.40 629.10 L 448.60 625.40 L 449.80 621.80 L 452.00 618.00 L 455.90 614.30 L 459.40 612.20 L 467.10 609.10 L 476.60 606.80 L 482.40 605.80 L 497.40 604.60 L 506.50 604.50 L 524.30 605.50 L 534.60 607.30 L 539.00 607.70 L 515.50 573.40 L 500.20 551.80 L 487.40 560.60 L 471.60 570.00 L 463.10 574.50 L 454.40 578.40 L 442.90 582.50 L 437.60 583.80 L 432.10 584.70 L 427.20 585.00 L 422.70 584.60 L 419.10 583.80 L 415.70 582.30 L 413.60 581.00 L 410.20 577.50 L 409.10 575.50 L 408.50 573.30 L 408.30 571.00 L 408.60 568.70 L 409.40 565.80 L 410.80 562.70 L 412.70 559.50 L 416.00 554.90 L 420.20 550.10 L 429.40 541.10 L 446.80 526.30 L 461.60 512.90 L 469.50 507.00 L 424.00 440.00 L 419.30 433.60 L 416.20 433.20 L 412.00 431.70 L 408.30 429.00 L 404.70 424.60 L 402.20 420.00 L 398.40 409.50 L 396.70 405.60 L 394.80 402.40 L 382.60 384.60 L 377.50 375.30 L 375.40 370.40 L 373.90 365.40 L 373.30 362.10 L 373.00 358.70 L 373.40 352.60 L 375.20 347.20 L 376.60 344.70 L 380.40 340.50 L 382.70 338.90 L 385.30 337.60 L 391.10 336.00 L 396.80 335.90 L 400.20 336.50 L 403.60 337.70 L 407.00 339.30 L 411.90 342.40 L 416.80 346.20 L 426.00 354.90 L 442.10 371.80 L 453.60 380.60 L 456.30 383.10 L 459.00 386.30 L 460.80 389.20 L 462.10 392.00 L 465.20 400.80 L 466.70 403.60 L 471.60 411.40 L 510.70 467.70 L 534.80 448.80 L 570.90 421.40 L 582.90 412.70 L 589.00 408.70 L 598.70 403.20 L 606.10 400.00 L 609.90 398.90 L 613.80 398.30 L 617.60 398.20 L 621.20 398.80 L 624.80 399.70 L 628.30 401.20 L 633.50 403.80 L 643.20 410.30 L 651.20 417.00 L 673.80 440.10 L 685.50 452.90 L 704.60 473.90 L 723.00 495.40 L 715.70 287.20 L 713.40 239.00 L 713.10 215.00 L 699.10 214.90 L 685.60 215.50 L 620.10 215.90 L 501.20 217.80 L 401.10 218.90 L 301.00 219.50 Z M 513.50 471.50 L 545.50 517.20 L 568.90 500.20 L 576.60 494.20 L 584.00 487.90 L 590.90 481.40 L 583.60 464.40 L 581.50 457.60 L 581.20 455.30 L 581.80 454.30 L 583.10 454.30 L 584.20 455.10 L 586.70 459.50 L 597.40 483.10 L 616.90 529.40 L 623.80 547.10 L 625.80 554.40 L 627.30 561.90 L 628.00 567.00 L 628.30 577.10 L 627.90 581.80 L 627.10 586.60 L 625.70 591.20 L 623.90 595.60 L 620.30 600.90 L 618.10 603.20 L 615.20 605.40 L 608.90 608.90 L 682.90 713.90 L 697.00 717.40 L 705.10 720.00 L 722.80 726.30 L 748.10 736.90 L 761.40 743.50 L 763.90 737.70 L 778.20 714.60 L 786.00 703.00 L 794.10 691.80 L 802.60 680.80 L 811.50 670.10 L 830.10 649.40 L 839.90 639.30 L 819.50 614.50 L 762.40 547.50 L 703.20 479.90 L 680.50 454.60 L 664.40 437.00 L 656.10 428.40 L 647.40 420.40 L 640.90 414.90 L 633.20 409.30 L 624.90 404.80 L 619.40 403.00 L 616.70 402.60 L 613.30 402.50 L 603.10 406.70 L 597.40 409.70 L 589.10 414.60 L 580.30 420.40 L 563.00 432.90 L 532.50 456.90 L 518.10 467.70 L 513.50 471.50 Z M 565.50 546.70 L 566.50 547.50 L 568.20 546.90 L 578.40 540.90 L 595.60 529.10 L 607.60 520.10 L 605.60 514.50 L 599.00 498.70 L 595.50 491.30 L 592.70 486.40 L 581.90 495.60 L 570.90 504.40 L 547.90 521.10 L 561.30 540.20 L 565.50 546.70 Z M 609.40 524.60 L 605.50 527.90 L 590.20 538.60 L 569.30 551.70 L 572.80 557.10 L 586.70 576.50 L 598.00 569.30 L 614.60 557.60 L 620.30 554.10 L 614.10 534.40 L 610.90 526.90 L 609.40 524.60 Z M 680.90 810.90 L 429.60 810.60 L 353.70 811.10 L 322.30 810.80 L 306.70 811.80 L 306.70 795.60 L 306.20 779.30 L 301.70 544.10 L 296.80 239.20 L 296.50 232.90 L 284.50 232.50 L 287.60 369.50 L 290.30 584.40 L 292.50 675.20 L 294.10 782.60 L 294.90 813.10 L 294.90 827.00 L 520.00 825.30 L 669.40 825.20 L 694.20 824.80 L 694.60 824.60 L 685.30 816.50 L 683.20 814.20 L 680.90 810.90 Z M 403.50 392.00 L 406.30 388.50 L 409.30 385.30 L 412.50 382.60 L 416.00 380.20 L 419.70 378.10 L 423.60 376.40 L 427.70 375.10 L 436.30 373.60 L 423.80 359.70 L 420.40 356.50 L 416.90 353.60 L 410.70 353.60 L 406.40 354.50 L 402.50 355.70 L 399.00 357.40 L 395.60 359.50 L 392.60 362.20 L 389.70 365.50 L 388.00 368.20 L 386.60 370.90 L 384.60 376.90 L 386.20 380.50 L 391.10 389.00 L 394.00 393.10 L 399.60 400.00 L 403.50 392.00 Z M 402.80 406.80 L 406.90 418.40 L 410.10 424.20 L 411.40 425.90 L 414.00 428.10 L 415.30 428.50 L 416.60 428.30 L 417.20 427.10 L 417.50 425.20 L 417.70 418.50 L 418.10 416.80 L 420.60 412.50 L 423.50 408.60 L 426.90 405.20 L 429.70 402.90 L 436.00 399.20 L 439.60 397.80 L 442.80 397.00 L 449.10 396.30 L 458.90 396.80 L 455.00 390.10 L 452.70 386.90 L 448.00 382.40 L 443.50 380.00 L 440.90 379.30 L 438.20 378.90 L 432.80 379.20 L 428.10 380.20 L 423.70 381.80 L 419.40 383.90 L 413.70 388.00 L 409.00 393.40 L 407.00 396.50 L 405.40 399.90 L 402.80 406.80 Z M 621.00 559.50 L 589.40 580.80 L 600.80 596.90 L 605.20 604.50 L 611.30 601.60 L 614.10 599.60 L 616.60 597.30 L 618.70 594.70 L 620.30 591.70 L 621.50 588.50 L 623.20 580.60 L 623.60 572.00 L 622.80 564.00 L 621.80 560.70 L 621.00 559.50 Z M 688.90 790.40 L 691.60 787.30 L 694.40 784.60 L 697.40 782.40 L 700.60 780.60 L 704.20 779.30 L 708.30 778.50 L 712.40 778.40 L 716.10 778.70 L 719.80 779.70 L 723.50 781.10 L 655.90 685.40 L 588.80 589.30 L 510.90 476.20 L 464.50 410.40 L 459.50 402.10 L 449.60 401.20 L 446.30 401.30 L 442.30 402.40 L 438.40 403.90 L 434.60 405.80 L 431.20 408.20 L 429.10 410.00 L 425.50 414.30 L 424.00 417.20 L 423.00 419.90 L 421.80 426.00 L 424.40 431.30 L 427.50 436.40 L 493.80 532.90 L 639.80 743.70 L 672.50 789.60 L 683.20 805.10 L 683.90 801.00 L 685.00 797.40 L 686.70 794.00 L 688.90 790.40 Z M 729.90 779.20 L 730.30 749.20 L 729.70 734.80 L 686.30 719.30 L 703.60 744.20 L 726.90 776.10 L 729.90 779.20 Z M 734.80 737.40 L 734.50 785.60 L 734.80 789.10 L 735.30 792.30 L 736.30 796.10 L 740.50 807.10 L 749.10 808.20 L 749.30 796.70 L 748.70 763.90 L 748.70 742.60 L 734.80 737.40 Z M 558.10 678.60 L 595.30 688.00 L 580.50 667.20 L 550.40 622.80 L 542.00 612.10 L 538.10 611.90 L 519.40 609.70 L 505.90 609.10 L 499.10 609.20 L 488.00 610.10 L 475.70 611.90 L 471.50 612.80 L 464.00 615.40 L 460.50 617.20 L 457.60 619.30 L 455.10 621.70 L 453.40 624.60 L 453.00 627.90 L 453.40 629.60 L 455.00 632.80 L 456.80 635.00 L 463.10 640.30 L 474.10 647.50 L 480.10 650.80 L 489.40 655.30 L 499.10 659.40 L 518.80 666.70 L 547.90 676.00 L 558.10 678.60 Z M 471.90 510.90 L 461.90 519.20 L 434.80 543.10 L 424.80 553.00 L 420.30 558.10 L 416.80 562.80 L 414.90 566.00 L 413.70 568.90 L 413.20 571.30 L 413.60 573.70 L 415.00 575.60 L 418.70 578.40 L 421.00 579.30 L 424.60 580.10 L 428.00 580.40 L 432.40 579.90 L 444.00 576.80 L 451.20 574.20 L 458.10 571.10 L 468.30 566.00 L 478.30 560.40 L 497.70 548.30 L 479.30 520.20 L 474.80 514.00 L 471.90 510.90 Z M 742.10 516.60 L 741.90 506.10 L 736.90 411.40 L 733.00 325.10 L 728.10 235.30 L 727.80 231.00 L 726.70 227.90 L 717.50 228.10 L 721.70 325.50 L 726.10 454.40 L 728.00 500.10 L 739.00 513.20 L 742.10 516.60 Z" fill="#0f0d10" fill-rule="nonzero" node-id="73" stroke="none" target-height="717.9" target-width="743.8" target-x="280.2" target-y="210.5"></path><path d="M 946.00 662.90 L 949.40 662.50 L 965.80 659.00 L 973.00 658.00 L 980.40 657.30 L 987.70 657.00 L 995.00 657.20 L 1002.40 657.80 L 1009.70 658.70 L 1016.90 660.10 L 1024.00 661.80 L 1024.00 922.40 L 1017.60 923.60 L 1010.90 924.20 L 997.70 924.50 L 972.70 923.80 L 935.30 921.40 L 922.80 921.00 L 909.60 921.20 L 896.60 921.90 L 883.60 923.10 L 870.60 924.60 L 844.60 928.40 L 838.60 918.60 L 833.40 909.30 L 829.00 900.40 L 825.00 891.40 L 821.60 882.40 L 818.90 873.50 L 816.00 859.80 L 815.00 852.60 L 814.40 845.20 L 814.00 835.40 L 814.20 824.70 L 815.00 813.20 L 818.80 792.60 L 818.90 788.40 L 819.50 786.80 L 820.50 786.60 L 821.10 785.40 L 824.50 774.70 L 830.10 761.70 L 836.60 749.10 L 841.00 741.80 L 850.80 727.80 L 861.90 714.60 L 874.10 702.40 L 880.60 696.80 L 887.40 691.40 L 894.40 686.40 L 901.60 681.80 L 909.10 677.50 L 916.80 673.70 L 924.60 670.30 L 932.60 667.30 L 941.00 664.80 L 946.00 662.90 Z" fill="#0f0d10" fill-rule="nonzero" node-id="75" stroke="none" target-height="271.40002" target-width="210" target-x="814" target-y="657"></path><path d="M 752.70 844.90 L 760.00 864.60 L 761.90 871.50 L 762.20 874.30 L 762.00 875.80 L 761.50 876.70 L 760.30 877.90 L 759.50 878.30 L 755.90 877.60 L 751.70 875.20 L 732.50 857.30 L 733.80 855.00 L 735.80 853.30 L 737.60 854.20 L 740.70 853.10 L 747.80 848.80 L 747.80 848.00 L 752.70 844.90 Z" fill="#0f0d10" fill-rule="nonzero" node-id="77" stroke="none" target-height="33.399963" target-width="29.700012" target-x="732.5" target-y="844.9"></path><path d="M 431.60 420.30 L 433.50 420.50 L 434.90 421.80 L 442.80 432.00 L 464.90 465.20 L 535.90 566.70 L 573.80 621.90 L 612.10 676.80 L 673.80 764.50 L 676.70 769.20 L 677.40 771.30 L 677.10 773.50 L 675.90 772.90 L 673.10 770.30 L 671.00 767.60 L 658.40 748.90 L 525.90 559.50 L 435.20 428.20 L 432.80 424.30 L 432.00 422.20 L 431.60 420.30 Z" fill="#0f0d10" fill-rule="nonzero" node-id="79" stroke="none" target-height="353.2" target-width="245.80002" target-x="431.6" target-y="420.3"></path><path d="M 455.50 417.90 L 458.30 418.40 L 461.80 422.40 L 467.10 429.90 L 481.90 452.50 L 520.30 507.20 L 558.30 562.30 L 698.00 759.70 L 700.40 763.50 L 701.70 766.60 L 699.20 766.90 L 698.40 766.50 L 696.60 764.40 L 689.80 754.10 L 469.30 440.60 L 462.70 431.00 L 456.60 421.20 L 455.80 419.60 L 455.50 417.90 Z" fill="#0f0d10" fill-rule="nonzero" node-id="81" stroke="none" target-height="349.00003" target-width="246.20001" target-x="455.5" target-y="417.9"></path></svg>